<mxfile host="Electron" modified="2023-07-31T12:14:33.640Z" agent="Mozilla/5.0 (Windows NT 10.0; Win64; x64) AppleWebKit/537.36 (KHTML, like Gecko) draw.io/21.5.1 Chrome/112.0.5615.204 Electron/24.6.0 Safari/537.36" etag="L3-dEyv2h3JrgYq4upcV" version="21.5.1" type="device">
  <diagram name="第 1 页" id="hB3YinHJhzOR1gH4zZF9">
    <mxGraphModel dx="1863" dy="611" grid="1" gridSize="10" guides="1" tooltips="1" connect="1" arrows="1" fold="1" page="1" pageScale="1" pageWidth="827" pageHeight="1169" math="0" shadow="0">
      <root>
        <mxCell id="0" />
        <mxCell id="1" parent="0" />
        <mxCell id="OdqifQVcJJAaEpdOjTmr-6" style="edgeStyle=orthogonalEdgeStyle;rounded=0;sketch=1;hachureGap=4;jiggle=2;curveFitting=1;orthogonalLoop=1;jettySize=auto;html=1;fontFamily=Architects Daughter;fontSource=https%3A%2F%2Ffonts.googleapis.com%2Fcss%3Ffamily%3DArchitects%2BDaughter;fontSize=16;" edge="1" parent="1" source="OdqifQVcJJAaEpdOjTmr-1" target="OdqifQVcJJAaEpdOjTmr-5">
          <mxGeometry relative="1" as="geometry">
            <mxPoint x="380" y="470" as="targetPoint" />
          </mxGeometry>
        </mxCell>
        <mxCell id="OdqifQVcJJAaEpdOjTmr-1" value="Aware接口" style="rounded=0;whiteSpace=wrap;html=1;sketch=1;hachureGap=4;jiggle=2;curveFitting=1;fontFamily=Architects Daughter;fontSource=https%3A%2F%2Ffonts.googleapis.com%2Fcss%3Ffamily%3DArchitects%2BDaughter;fontSize=20;" vertex="1" parent="1">
          <mxGeometry x="120" y="460" width="120" height="60" as="geometry" />
        </mxCell>
        <mxCell id="OdqifQVcJJAaEpdOjTmr-2" value="01：作用&amp;nbsp;通常Aware有这样一个规则：&lt;br&gt;&lt;font style=&quot;box-sizing: border-box; outline: 0px; overflow-wrap: break-word; font-family: -apple-system, &amp;quot;SF UI Text&amp;quot;, Arial, &amp;quot;PingFang SC&amp;quot;, &amp;quot;Hiragino Sans GB&amp;quot;, &amp;quot;Microsoft YaHei&amp;quot;, &amp;quot;WenQuanYi Micro Hei&amp;quot;, sans-serif; font-size: 16px; font-variant-ligatures: no-common-ligatures; text-align: start; background-color: rgb(255, 255, 255);&quot; color=&quot;blue&quot;&gt;Aware接口的名称，表示依赖对象的类名称。&lt;/font&gt;" style="text;html=1;strokeColor=none;fillColor=none;align=center;verticalAlign=middle;whiteSpace=wrap;rounded=0;fontSize=20;fontFamily=Architects Daughter;" vertex="1" parent="1">
          <mxGeometry x="-150" y="260" width="740" height="50" as="geometry" />
        </mxCell>
        <mxCell id="OdqifQVcJJAaEpdOjTmr-3" value="02：案例&amp;nbsp;一个bean需要使用&lt;font style=&quot;box-sizing: border-box; outline: 0px; overflow-wrap: break-word; font-family: -apple-system, &amp;quot;SF UI Text&amp;quot;, Arial, &amp;quot;PingFang SC&amp;quot;, &amp;quot;Hiragino Sans GB&amp;quot;, &amp;quot;Microsoft YaHei&amp;quot;, &amp;quot;WenQuanYi Micro Hei&amp;quot;, sans-serif; font-size: 16px; font-variant-ligatures: no-common-ligatures; text-align: start; background-color: rgb(255, 255, 255);&quot; color=&quot;red&quot;&gt;ApplicationContext&lt;/font&gt;&lt;span style=&quot;color: rgb(77, 77, 77); font-family: -apple-system, &amp;quot;SF UI Text&amp;quot;, Arial, &amp;quot;PingFang SC&amp;quot;, &amp;quot;Hiragino Sans GB&amp;quot;, &amp;quot;Microsoft YaHei&amp;quot;, &amp;quot;WenQuanYi Micro Hei&amp;quot;, sans-serif; font-size: 16px; font-variant-ligatures: no-common-ligatures; text-align: start; background-color: rgb(255, 255, 255);&quot;&gt;，实现&lt;/span&gt;&lt;font style=&quot;box-sizing: border-box; outline: 0px; overflow-wrap: break-word; font-family: -apple-system, &amp;quot;SF UI Text&amp;quot;, Arial, &amp;quot;PingFang SC&amp;quot;, &amp;quot;Hiragino Sans GB&amp;quot;, &amp;quot;Microsoft YaHei&amp;quot;, &amp;quot;WenQuanYi Micro Hei&amp;quot;, sans-serif; font-size: 16px; font-variant-ligatures: no-common-ligatures; text-align: start; background-color: rgb(255, 255, 255);&quot; color=&quot;red&quot;&gt;ApplicationContext&lt;/font&gt;&lt;font style=&quot;box-sizing: border-box; outline: 0px; overflow-wrap: break-word; font-family: -apple-system, &amp;quot;SF UI Text&amp;quot;, Arial, &amp;quot;PingFang SC&amp;quot;, &amp;quot;Hiragino Sans GB&amp;quot;, &amp;quot;Microsoft YaHei&amp;quot;, &amp;quot;WenQuanYi Micro Hei&amp;quot;, sans-serif; font-size: 16px; font-variant-ligatures: no-common-ligatures; text-align: start; background-color: rgb(255, 255, 255);&quot; color=&quot;blue&quot;&gt;Aware&lt;/font&gt;&lt;span style=&quot;color: rgb(77, 77, 77); font-family: -apple-system, &amp;quot;SF UI Text&amp;quot;, Arial, &amp;quot;PingFang SC&amp;quot;, &amp;quot;Hiragino Sans GB&amp;quot;, &amp;quot;Microsoft YaHei&amp;quot;, &amp;quot;WenQuanYi Micro Hei&amp;quot;, sans-serif; font-size: 16px; font-variant-ligatures: no-common-ligatures; text-align: start; background-color: rgb(255, 255, 255);&quot;&gt;接口即可&lt;/span&gt;&lt;br&gt;&amp;nbsp;" style="text;html=1;strokeColor=none;fillColor=none;align=center;verticalAlign=middle;whiteSpace=wrap;rounded=0;fontSize=20;fontFamily=Architects Daughter;" vertex="1" parent="1">
          <mxGeometry x="20" y="350" width="350" height="60" as="geometry" />
        </mxCell>
        <mxCell id="OdqifQVcJJAaEpdOjTmr-5" value="" style="shape=image;verticalLabelPosition=bottom;labelBackgroundColor=default;verticalAlign=top;aspect=fixed;imageAspect=0;image=data:image/png,iVBORw0KGgoAAAANSUhEUgAABMUAAALtCAYAAAAogdMAAAAgAElEQVR4nOzdfXyT9b3/8dcsDZxEoAHaDCx3LRCsI1ZLte1cYaPjQJiSzQNTC0o9h5Rt1YNlWs+UrivorDeMo52jYRNUOrUcXetG6FiZ0CmtYrWkWgnQ2kKEpVVbbpIfpHT+/rhI2rRJb7iXfp6Pxx6TXPdpcuW63tf3+/l+41//+tdXBFFfX8+IiG8GmyyEED36sumfcg4RQgjxtSG/W+JyJZ9NIYTo3ZdN/yQqKqpfy1x1gfZFCCGEEEIIIYQQQojL1qBvfOMbQSd+4xvfoKfpQgjREzmHCCGE+DqR3y1xuZLPphBC9O5szpXSUkwIIYQQQgghhBBCDDgSigkhhBBCCCGEEEKIAUdCMSGEEEIIIYQQQggx4EgoJoQQQgghhBBCCCEGHAnFhBBCCCGEEEIIIcSAI6GYEEIIIYQQQgghhBhwJBQTQgghhBBCCCGEEAOOhGJCCCGEEEIIIYQQYsCRUEwIIYQQQgghhBBCDDgSigkhhBBCCCGEEEKIAUdCMSGEEEIIIYQQQggx4Ay61DsgLh+lTnh1xS8JZT8PzIsg5s4nAVWfl29rh1a3myOHmhg/pJXhUbH8uR72b/wF0ydNIPmO2aCacOEOQAghviba2qHN7T6rZdUqYLAagBcqmrjVVUR4Ska3+Y60w/88UgyOIqKBlc8sAp3xHPZaCPF1dcTtYdf7jdw2aj+hMf7ngbZ2ONzi5sD+T6na9SEPzIXQmEU0tsLRT6vPanujB0N4TAzBriPLnfDnJ5+k9dRhFo9tIjnreSAs6PrcHuBU4HOmWj2INlRBz6nqwYBK3b8DEOIK4D7uAU6f1bKhIRCqVuNuh63bG7j9+sOgS+rxuxiIWj0IQoLfTy7Z8DFsf4zFk2BWzlog4qz2V4hzIaGYAKC5HV79nRXYzzhgQtJs3MdPE+xE6r0pyy9vpfaNHNyftwIe3/TbdXDrM09TboPm+gamaxpAtfAiHIkQQlz+ylvg5eV5wP5+L/vQLIhJ+yO/3NZE40vL2QP8Wnc16mlLfPO4gSde+hgcRQAcBOr+/jbRd84E5OZQiCvZUaC8vIHmhh18cqCJ5s8a4FQrAOHTYNTYJEqLdnGk9m1a3W7ajjf5LV9xGpJjfkD5oTC2P/PkWe2D9wa31hnG6cO13aa3Ac1tYdBazdZWCCsvhqGx3ea7dkwoobrreGZHE3UvLQ+4rY1Zs3mVJWzP+6+A05+6ezLhs391VschxNdVLfDkT/4IbDur5RdPgsSctfz3ugbaKtaiioRbH5vAMzsGBf0udhUNrFy7BEbN7nXexuNg+7AWONxt2iAgJmYMDJbATFwYEooJ3O2w+qVqOLAJgDrgp49sAjYFXcZ7U6YeHob7846LqVAgTBfG8KhrqDvlofmvbwPw+j7484qcgOt6Kj0JpkhgJoQQ/ZExK4IHdy3i6IFNvPSbbSzLjwH1TRxth+z173H07bUMB66dm0Tl1lqe2NJA+vFfMP0/cyAkeIsMIcTX22fA65YddL0ZDgUaXWG0NTdge+tdoKHb9DGj1DBqCnha8bbcigHmrFgI9N7a/+UPWml+y+L79+t7Wql7qedg7QiwxrKt2/5C90AreYqa0Am30AaUV3wKx/0fLEQPhQmJMwEVFQ0e3Pt29LrPQojA1MAdP76Jl6sm87pjPzFFq2Gkcj+nVoFGGzik8gBHnf4NJnpT7oTyZywBp0UDMWuXwODewzUhzoaEYgNc55uns3H7ZLjjd2vZ3nw1r2evJpkGFj/zM+A61r3vgeNlynZOAc6mwCvpRxNcIYS40jz/syT41r0A2IB1P3kB2MWvFk4g/LuPAtAM/PKJbdBY5FsuPATu+ImRV1e8yxH2427YR8PYm/jNU0W01RczHPj1g7NRX7+EY7omajc+RH55E9Nrl3Pv/XehjpKLSyGudJn/cR2TblpIaNg1hKqVVqLbPwf4ky/sCh86gVG6KYQODdyKdD/QvGkbfSmp0Rrkkm40EDM7Fl/XqHYgJPC8zYBt20cEajFya8I1hM9eQjNQXr+tWyiWpINZd5uACBq2NVEnoZgQ/Wot6e3O6DVrFOxa8DMOFi7n1L/CUNqiwu3jYFbOL4AIHnxtP7z3Wx6dP4HhycuVVmqLNtKfVmo9hWxagKv6XtJHiP6SUGwAa3TD6uestNUoLcIemhXG5LufJpTufb9frXVT+vRq8DQwfQTEGJX6NcPVABGoT4HyjFFxpB0q/88KeLgjUc2YJP96N43A689sQc3H8G/yMRRCDFzqq6+GMzejwwC4Wnl9SCjqM6+rAUK737DO0UHYgz/DEOXmhQp4/+nl4FEeQNz+3TEc+FcMfFjN90ZCww0m3B8W8f7nHvZkb+S2KUXc+vCjUutRiCuYIfoaGDM54LTRgOGGycB15217YWpAHUHoSFBCNKWlSAyw+O55NB6/jvyN25jT8kdmPfIkhETgBlZt+JgZ7g3M+XEataOuw7ZtI4FCsQdf2g8v3RV0+y8fgJcX9a1rlxADSW+1TL01xAK5f3YEw+PXwqgIXt/W0cghv7yZxpLHaW71wKlWVr/SCiXLSUtP6vf+dQ7ZhLjYJI0YoI4Av8wphsNFhAIPz5uA6weP8tMVRcwatoM77l8Oo2Jxt0Penz6msfgpwEPCCFiWsxxG3ATAqm3+NR62A9sXdTxdiAbm/HghzUNjOVL7MYNoIyZmDI3NEcBGDABjp1y04xZCiMvNy9s+gg83AkoLCfgIgD9XfkboP5XX2wCcnwZcPuF65QJy/xf7wdPE8BFw9MswXnjrMLzl3wo4FGCwirZTHmImqyQQE+IK92DBDhjcUSz/0fkTIEa5bnMB7uNHUaoQ+lOrB+FtGZYMXP/AImhWbpj3HGqF1oZuy3g1t0FyYhgQxu3Xezi94iHcJz2sKvyMuu2/AY+bUhUkfmRFff0S3v8cjry9hVdPHeb1isdIvjmCjNSZqL75EGFjlAeu2iEqwnVBbpYHq1FD0OmqIdqe3iIhBoTeapl2FLrv8Po+qCxQzhcJwO3P/AwYflbbPwqsfm4HNBT7T2hVgvPXD0Lpise7LXfrBEi+L4eeBuIQ4lxJKDZAjQaWrTDx+q8bePRONeqbzax+s4G2z3dQ+rmHqoeeJMF4E6VvQ9vn7wGweHoYs8wPgbr3m6hbJ0H5+CXcNaQYRs3G9jm8/EwR0ewnZu0S9jfcAjQxeQowWEIxIcTAtf3DwwRqEVG+zw37Anc9KP8S/vzYWrw1gW6dAA//NIfmYRmMnzOJRpsbaPXV90nWwfRFZgYRxgT9GGr3nCb6RteFOyghxGWhudUDdLTs8JzsuKGtBCp/kt9tGV9xbDq6WO/6bBCVzym1wYYPBlVYBK1uaDve5Pu333YnTyAc0AxV8dIHrdS9swk8Svg2J0rF3PuXk/dXcL+0nNuj4Knf5bBucwN12/PZ/m4T5e8WcUfiGAxpGbg9cO8NKrih+w3z6/WwJPd+xlPMr3IXQvhsVv31U44UP8WyRDDc/SRwtbJtGYFSiH5xn4LmM+VvlG9vR42wNuDe6Vq44XF+WlgNb+eTMXcM4d99lAMqgCK/dXmA5i88QcvpuD3gDjCtbaj/doW4ECQUG8ASdJCwtqOV169um8Cfv/U8r6/Oo9mznz8XK2FYuAoeWjqT8ERzt3Xcfn0Yp1c8xOu1bhq35vvqU4wePIEUfQzD3TcF3HbmLWqa4/+I6osGJPkXQgxks24YA+HfAvxr6XgLSgPdikq3/QuanS14b3bbhoI6xANjxtBo6x6weZ0GDtgPox4CMOZCHZIQ4jLhrVnovWk9W3ferCFJ9TjQ6nvNG7qnTIHxs5f4zR8+Ubm2Oz0Y6vY4wOPGMErF4nuMnDYsJPu5HRx9Xymqvc4J97b9gpX3PUrjbb8nf+M2mt/9I40fHQZaexx50qsR+Gl2EZ1vxNdVABXKcjICpRAdNmbNhjMjVnetIdbZZC3U3jCbIx92f0DXDPz0yW1woGPaL4saoOi/mDULOofqXS27BQypvw86PVAdVSEuJAnFBADNHiiv3E/pX/4EHuWmKxS4b+4EDAuWgypwk/QYnYqjulgatymFTFuA0bQSHhPL+6eg4CcW5sTUEnbHz3zL1B6DDZYiouu2sex5M30ZzUgIIa5Ui2d/y3dxWgu+WjregtJAt6LSowfDrNk3U9FwjW90tc+ANc90H3EOuo/qJCM5CTEw+GoWDu7e5WkWsHjTI9Ryna8oduebZY50zNvT+eX1GqDGf4TJjVmzIWwJ0SFw+9IfkXBaRbjBxPbG07z8wFr48j1iBkNcxhJezt/NC+9/jO2Bn3Pv8iU8dd9sXr0lltvad4A6lvhINxNmdz9XHTgOjRVv423DEjMCRk9XRp7sShMpdYqE6K+ESNg/e0nAUCwUmBU/BgIM2hMWhVJTJ4hhg/HVTA0kWB1VIS4UCcUGqLZ2OOh0s/ujasr//jZuRy1dm6aGDVXx8gdu+KDn/t1bDwA1SpJ/BHjwmW0snraD/d9+hDZ2ofoCGNZRz0E7DJq/UNF6yk1bzXuETg/cmkwIIQYC94kTcFy5qTsGwAnl9ZNtuM+87gZo66j7EzMUYu42+o2upgVmzZ7C0S9bGT5CaaVR0eDBvW8H0UNhQuJM2tpVhOIhPEQFg6+5OAcohLhkbHWfwelqaOqoAeY+Cd4R5PoidCh4gyZvjwCY4Gspdvs0GD/7IVqBFza9B07/ER9vnabG5jTxy8eKcO8rAzzMGa/ijocfhKHXMfyp2RTkWnj/8x3syd7IrClFzL3nXtTjFwIwJ0YNMUpQ19YOh1vcbP9gH407iwA3yVNUVJxKorZxB4M+2sX8HxgZd8MthA6V1rBCnFftHf8ZDrRNnEjzF/6t08OBcdfHA7uDrqauCU5/WB10eivA8eB1C4U43yQUG6AOAqueeAO+tAadp/m4B44H7vft7d/d3A6lm6x4m9MPB46OCCP0ajeVez4DIGa6moZO3XRGA+rp1+HeAnvef5/p0z30ZZhvIYS4Ev30t7uAXd1e93ZD6KvRwBhjEuUP/ZXbrm3g1mVLaagIp27fDpJ0oDH+gD+s/gsPXF9NzN1Pc+ZZrBDiCrbm/z4GPvZ7rbUFOtcZC6bhiDJPuA68xbVrgdpn/Ls0BWopBnC0HcreaaD0L0W0He64AZ4zRU2McRG2A21ANSrgjkU38fImD22f76J0n5vSR/KJHmph7tzpbP0qiSNvvYT781Y6P8AdPRgW35lEzJxF3E4Yf/jTTdisG7FZigGlmLdaBRptBMu+M4ho09O9HrMQA4HfABytfavXdRR4/aXdcI1yTzc8HLY6NNRt829FFg2MM/YcSAc7ZwhxqUgoNkBFh4Bh4Q84/eoOWibGcuTDXYQDi/9zJoQFbrkV6Anguu1NcGAToSpo86iYjofkx8wcOBQGjxeiBqLjZ9I160/81mS2b1HxyXsepi/dDyHnbzhwIYQYiJrb4dXnt9Hm2Y/6/6lAHc7pTk91Xe2DaDv2Gb/Z3srj1+RJfR0hrlDHjgM0oQYSkyfDkIm+aZrICBoOKw8yw3SgtDENzHv+aLsKTtc2k7kiFoj1Te/aUqyzxtMQFtJK6buH/QIxQAm99lnoTd1xD+5PdhE+88fUfd4R4hnGq0m6+RbUY2M4jQqOt9JKGCnRkJS+hF32BmxvvwfuBl/x7nGjk3rdnhADRdcBOPrifcCwfRvHZindJdVq8EYJ3m7XPdUnUwHhI1VwvH9dmUNHepcW4sKRUGwAy7wlDG75PS/XwJEPdzEMMEybAKNiA87fDFDSBE7/10OB225P4vVXmoH9jB8ayrpPVcDHzNUBk74Hn/svc+0U2M50Kjy7WFz3IUyRUEwIMXAcPgKwn/HAr55ZBDojoLTC8Nb26VwYuhl4MGcbHNgYcH1twJNFtbTt20i0Csq0MZQ+9DjNLUpXTI0GEnRXsz89i8rnfsrql/bz9IRNhE5ZdIGPVAhxsTUfBTjMaGDxj74No/xr/tS9rYRUo6MARgVdT+MhpVtU6FhYU/RZ0PNPoFYf3nplt/0wieEj3qZ28g+ptPyS0UDM7Fig+41x54FGVpqT+Nuhb5F4QyvJMeE0H13rK7Zva3Rja9yGt77ZxqzZlLOE7c8Ebnny1N2TCb05I+hxCjEQGIZC5oqFKFcM3Y0eDMrgZ81B1+FSQXPjpwAMHtLR2jxQN+1A0qZfQ0z6L3y1qptPQXh7K6iVkg91hz2MZj/qMdfR1g7ba5u45mAxMiibuNAkFBPnJOnGCJIqJ8PNC+GV3wLKqfTo3n2AiunfG0WgEc4mDwamTMG9bxd1VTuIlhszIcQA0uBUWmoMAgg9u5/io+1wZP8B5R9t8NDtU1h3PIMVift4yX0Xle8qNXhCgWtvuQlQc/fNcGTPcu6dsIPQ6B+d83EIIS4/+xvcQJMyjNEo/9qB758CKt8GYHzUBIK1wKgD+PAjAEaPnawM70jHaJYAeW810Vj0C5bdAq6UtbT9xUrYf8az7idv4e0SfuskYNJDNNYoy8cAi++eB3R/GNp5oJFo7dVEJ8/sNs+9340g7Ebl3LZmW4Ovpq1X51Zr3pZsQggIHwzhN/S/EULFR8oAP9EqmJ+7iDXZTcB+Ro+d4h3jImA37a627oPS3+YRjpuHHlvILwrDaKu18Ov/iGC0aS3//X8NHC3+BXdEwpwnnuY376iptSzHoILMb38LwqS1p7hwJBQTPgeBB1cXQUjwOmOcaXXgNX0UDM94gO3/6kjww4HnV8ykzpnEcA7TdspNa+sgOhd1HQ4sNsYy/Z4MhkdOP6/HIYQQlzM3UPdhLQCThwIjJgac7zRgq21i0KnDfEIoHHzHN+3IKchea6WtZhMArzbC4dW/4O4f3gUTjCR9eZrY/zQzLEzN5IkRhIYpo/yqgaxFMdA+Bbcb1GoPhEi3BCGuFEcB2zvvARA+HpSrsg5bdzaBRymZET4t+EBHu/cBx3co8029AZQcjYb2q3nNsg334R20nrkh/sN70Pb2Q4zHw4/vjACuDrreI4Dtw/0Eaq2i5G6f9Xh848PVhE+aovzjXXe36eHDYdKZ6epD/eseJsSV6s+VnxH6z8AtPbv5xP97c/v3JvPm3yaz4oGJvPTPFPCYUQPqb46BemWezmE5gI1BwPO+fx8FtpfsAtzMmQTh45MYNx3qamHnX5u4w7SfuUmTebV4DG86DjNn39/5wc2LqH1lNrbj26jbuonoOyUUExeOhGLCpw1o/tyNL/bvg+EAI8K6dY8EiNapWPfuGCqfW+I/4Srl/2ZNjyBQ83khhLiSlTuBPX8FYNL1KmB8wPkGAev2HMW9xb9LkFYbgXsQtDV8qQyJPnsypTtVlNd/TPkzfbzoBeYMhTvyfwVMPqvjEEJcfvYfB/Yp3SMnf0tN5+us8i+h7tX1AMyKBCKDh2JVtQ2Am7ihQOR1gNJl6vRQaPywieGDmwgLi+DaSRMIDZ9CaJiagzsb+Pyfg+gp2ApUqL8/ehuAZN3bwNt9H6BEiIGgfJ8b9m3rfcYAZukg8X+zcKnVVK6yAh4SVcDEG1gxLgISf49aPQhCVCyxVEN5l27MV8GbNR7a9ryAGki+fTYQQdKNUPfSZMqP7+eOA+8SN2kyr06ajfvARt7/exnTly1k9A9mc+SVbfztb61E/+g9GBz8nCXEuZBQTPicTaH93lxzjQrlgqyJUOD2uWNgxC3nYW+FEOLrKW4UVMz9IYe3ruX66dPpqYCsd1AS74hrt0apGD37ZxAC6uSbyTi5i5i7s5jxQzWv/HUXn2x/g7bjh4Our7P4W9QQIoGYEFeS6UNh8ePLKfufXxI942a/ackj4ED6z3i/IIfkO2MIVN7Ca9mtE1j1dyNz/6MRD5PxhmKGq2DjJjNg9pv/1QNQW/Rf1D6lBHLhkRCoiH9fa4oFkzxFTegE5Tpy+0dN0KWIv2EMhH9LqaFW0eDBva/v16xCXKk6dzvuTaBuyeqhakLbYc786ZTmv03S95og5DrUIYCqo7ZYdNQE6so7lvv+dBXuETdx4G/7gdPcfb2K0GkmAGJGgXr8zUwf4aKNCMKB5H+/ifGTq4mZMRtQcft3x5D/ehLuUe/T9lkroVHn9j4IEcw3vvrqq6+CTayvr2dExDcv5v6IS6CxFY5+Ws0gICZmDAwO3nrL7fZA+2lCQyBU3XESbGuHNrebUCB0qDro8mJg+bLpn3IOESKI5s/dhI8CpVNjYN5zK+B7Eut1tBWGD22FkL4VoHUf96B0yuy+LiGE4kr53XIfB/VQN4HOL0dbYXiY/zTv+aHzuaH5Swgf3kpbSBif1DbBqcMYJobBme7YnTWfgiO1HwNtaIBowxgI6bie9F5rDgfG3zCBQIWzjwKNHzYArd224/YAp9yoB+O7CXefAjxu1OpBtKGize1GrQIGq4Mu83V2pXw2xcXj+1734zvg/V51vdfzam6H8ONNENb9frHzNUvX5RtbYfy/DsOI4GF8IG2nPIQOlusV0XdfNv2TqKj+JagSigkhLhi5gBNCCPF1Ir9b4nIln00hhOjd2YRiV12gfRFCCCGEEEIIIYQQ4rIloZgQQgghhBBCCCGEGHAkFBNCCCGEEEIIIYQQA46EYkIIIYQQQgghhBBiwJFQTAghhBBCCCGEEEIMOBKKCSGEEEIIIYQQQogBR0IxIYQQQgghhBBCCDHgSCgmhBBCCCGEEEIIIQYcCcWEEEIIIYQQQgghxIAjoZgQQgghhBBCCCGEGHAkFBNCCCGEEEIIIYQQA46EYkIIIYQQQgghhBBiwJFQTAghhBBCCCGEEEIMOBKKCSGEEEIIIYQQQogB5xtfffXVV8Em1tfXX8x9EUIIIYQQQgghhBDirERFRfVr/kHne4VCCOFVX18v5xAhhBBfG/K7JS5X8tkUQojenU3DLuk+KYQQQgghhBBCCCEGHAnFhBBCCCGEEEIIIcSAI6GYEEIIIYQQQgghhBhwJBQTQgghhBBCCCGEEAOOhGJCCCGEEEIIIYQQYsCRUEwIIYQQQgghhBBCDDgSigkhhBBCCCGEEEKIAUdCMSGEEEIIIYQQQggx4EgoJoQQQgghhBBCCCEGHAnFhBBCCCGEEEIIIcSAI6GYEEIIIYQQQgghhBhwJBQTQgghhBBCCCGEEAOOhGJCCCGEEEIIIYQQokdOwJRlxbkl61LvynkjoZgQQgghhBBCiMuWpRpMJpPf/2zrTH7z9Hazbm2CLFMWNFkvwh6fH9YmMJmyAh6TDTCZLN3eByEuNP3ESNast/f6Xerrd860znZJP8eDLtmWhRBCCCGEEEIMaJZqsOb0fENsBIqLcwGD7zVbNSjRkPKaE8DuQHdndL/3wdoEFnMWYO+2XXJyseZk97i8HsizmCHC2OO6zMW5WJsMAad3XoeX5Q0bZr0d3byCbtusrAY9Vgw/Mvf1MIU4ZzogdZmB7FIjzt070c0zBp03Dti5NBWTOZuCpTvRzcu7aPvZHxKKCSGEEEIIIcQVxgmkZ1nBbuk2LUqrIvX704j7cQaEaC/+znXhDYw6h169McTiN7+jCfTUwZgZ/d9+BBiL83zvWUFyxw28pdp//yzVQI7J929rE+w0+7fk6hpweZcJNr3rOrK2OLGvT1eWBSymdL/lnBFGrK8orW9MZsuZuToULNWjm5eHaZ0NSrsHerphKhYkTCXlniWgier3+1X4iYuSJ/PwtNhIUUHGppWgiuv3evora4sT1qd3Cw/7u5yrHfJL68kaVwXTFvj+7mYsGPMKUKKf3lmqoS7H5FuvN+AtzjFC7PkNK6uaoOX/NpDyUyOgwwZkmyzkzrFiWFZ8XrfV+fPXk/T1wPrAgbb3M5g3z4A1vph0cxbF11jO+/tyPkgoJoQQQgghhBBXKP0wiP5OCqACwANU1DhZVVRD5oF0krMLgEsfjJ2rnbudRGOHiNRLvSvnhVmPX0DTOTgrqQaj3dItSPQGJVDney0SMMyLo3PQU3HwBPnbKjlUlUmaJQ9C9H3eLyew2VJG4lU2UlakoR0SCar+B2uX0s4voGJ9AeT0v1XhpbLqDRvmxhLOtF+8oPLm6WCef9BmWmfD/Gl2v0JDL2/oDMEDt2yAUv+A7UKEi4FIKCaEEEIIIYQQV6gZo8G4dAGdb2TTAPNzVWzZvorkLypg5IW/0b7Q7Iec2AGryb9llLfFyrmwBlhv538rkVJHCzU73VtwdX6HA03vuo5gnID1FSsFS/X0pWWdATAvne83rxnIetPJ1hfSSavdCdP6F4rxqZO5c8Dwnfl9Xu5SChTydKYDivOMnGvgZI4Fc/H5bbUVjAEoLjaj/DUvLOVv7jgv6woWuOWSfd5bvPWVhGJCCCGEEEIIMYBogMioSNq2A5423+uudigorafytTV4jjmIHKYibY5/N0sXsGF7PRWvbcTVtBfwEKVVkfEfCUTNSwc0vhZLa5bWUUy6b30GrYoH7puL9sY0v/0JFDr1hbdbow0DlFb6tSzxdR9lp98yWW84yByb1a+g7GJ3n+xJyW6llZguL7fP+x9I9DidUtWszeP3uvWAi8JnC3AdrESj8mC8PpLUZWkwMs6v/lt2KVBq8oWO9cdg46YybOWFcLIFg1bFkkXJRM1KAzS+v0fmRAtFqlwcb64mRQsZ+Q+AJpGqJsh/bgMtNVtR4SF5mpa0e1LRTEoJegze7ovpT5tZUwKOdwtReVzMnaYlbXkGjFS6dHbuPmk5bPQdgynHjhEr84tzSc9y+HWf7MvnPND+eLtPOmPNQbsvg39LwLIDLja/uAGnvQI8LrRDYEF8FMZlGTg1Ub71eLvSFizV45yX1637pLMdLK9VUVO6Iej3N2uLk+j16cT9YSX5a2201GxFo/KQenMkxmWZPXanjZwIfW0lFqgr8uVKQjEhhBBCCCGEGECqjniwby3BfK0KRicAyk3sfavK0NbmYzbFoZ2chnV/C6uKN2OuSc7mkuoAACAASURBVMe4+jkI0ZFV5KDpj5ksmR2FLj6D+mMaNv+ljIfXl1OgcaGdudK3nVVvOIgKeZise+azl6mUvGZlZW4J+fkjILKjldHZ1BTrzFt0njHdW83orunoImcHKLWSDuQeMl2Qlimdu4p5mWOB4mJM62wUjM3CWJznCw7NeivGvIJuywRjjgfmFZO1zkbej6wBa2t1PuZA7C2w880SjCOBmGTf69nbnOx9/j7m36hl6mIze49pKXnNiu0nq8j7XzMp441oH1lJ4WMlpMbaiJq3Em1kKDYXZD9gIeq4lcx7UvBEJLJ5614ynyshd38VhmX5eEOk/L9DyjWrWfiIGU2TBzRT2VDjoWTVfaSMayFxxRKc6NhYUkHVz/PJz6lH00MXOgfw8K83M3+8iqkPpmHdDyXFmxnxq1XMfzYfpQNph5Tx4PnpSsqet7DyLh3aifOBsWfW1KE/n/NAtMDKRXFw0n++DdUumrasIS5ZD+jYfBAKf55FyqQmzPctoWWIDuuOeiz/2MzVrodJyC5g5aI4Vr2eSoqzkMR7M9BGRiittzpxtsN9j1rRfGLBvNCAanIaxbudrCra6Pf9BagAyh7KZ0mclqtvy6B49wks2zaiDXmYxOWb8Ha17sobhAbTOex1NoExOZL09XaM603n9P2+0CQUE0IIIYQQQogrlMXeUai9s9RrwfirfLwtPworPURUW8h/egFMUupyxcXD5ltS2Hh/Bim7C/k0IZOWtyp4dI4Ww7InABVxQOS348i7ew2H9pajndmxjbg2FxnPrgRNHHGAdlocFnMWzj270EWev6531kqb8h+HHRCh/GdVE+jtO/0K73tv2i2HjWTnmDB/asKYV4AN3ZlaXErx+nQ7sN6EWQ/cWdDn7pPBRp7sLB38ipN3/fso3SIzezxebyBiMVswF0fSU9gQrBVeykgwP50FQ5RlK06C7feFrFkYQdRd+YAyeuCMmXFkPLCZitc2krg8hRPxcUAV+m/aMMQrLbHyXrCj/8JK3u/SYLTyd02JjyPjj4lYijLJ/0GZLwSN84B5dQZolDDOAZSsLyHz5haSl2+AECU8m/GdONKeiaPshTzmP2uka7jl5QJWxnqIu08J3uLiIWv4NHatT2d+kw0i/JeL0kJUbBwQRtyUSIiN6xYw2aFfn/NAVEDcNB2dW1ZZj4DjqSxy52jRzVP+JmWVdowjWzCvftT3t0iOj2NRaCR7d+SRzCHiphngHT1R/w/i4qcRqLXWb3e0EPqJhfzsFDQ3ZpxZD6yZNoONz6SRsrsQVYLyuWoBCuZHoLstzzffwqsiqSnNJnH5Xrp+nrwju/bUFdnbas/LEAGGeQYS5hWTbbKQsO7SdY/sjYRiQgghhBBCCHGFClZov/CTGk5kZZK2ehVo9JTvriFR46Gq5WrYXeW3Dg8j2FtdjiEhk8LfLQAW+E2PGgJMnIrLVX5mC8q2EuMBTceohJERANE4D1n7Wao7OBugL63Ertfj/KwOXazyuuMwQQvvm2Mh0lKsBFhZ6RjzCiguNuPEfE6jTwZqJQb4wrLcpZBdPqP3UQ63OAOGmd7wTQdkLjOQ/qm517AhWKH9sppKXD/PI2t1JoxOpqoWNJ5yWv4tkaouf39GQM0OT8DAxA64duzC9B1g9Fy/aaa5UeQXGXDsshK6UAnFpukBTUcNs6ojwMGdEBtJ1Qd7/ZbX/puLXQcJGG51FvftRDp3Z4y+RqfEm51C0v7QQ78+531hc4HlUQup37RjWNrRcq5goR4WFvrNqwImTo7ixA7gpAuG9LxuF2B7p4bU0aC50b8l17wkDeXr51L1TgmJCUpYFgXo4pP85ps4VqcMz9DkgAj/v7GjCaCuxxaIdZ85iYZuf6fOtc96GtUyUKH9rt2MLxQJxYQQQgghhBDiChWo0H4GkL/bRcljZmaUPIHmrg3gcFLhgorHNgRcj6MRDLQAWjzt4PjChaOxDtteBxW7q+BgDS2A0g5F2VZoaP/2tS8trby8rVYKtziZobcSfWcBVa+kY5znBHRYK23kzoFgraiMERBZrNRlMlaXBB3lztv1MZhgQZiXNwgw68Ewr4DceTqyTQ5fGBcsGOtp9EnOvGpeYSTbvJPiBEvQ/Q9WaL/EARsysih/MZ/kh+M4dOQELmDVixUoHez81QF84YCR/u/nKYBjbYwdq6NrSBShBYjkyy9tQUNQpxOgnjVvAm+u6ja9BcDZS7h1Vd/Dqf7o6+e8N852WL3aiv64lQWrzRDSPeBzujw46h3sPeigotqGY8+Zv8Gxll5DsRMArhNEToKub1RYCDBaR0uTd58hFCCk719Ox2HQY/drddkfSrfhQvLm5QUssm8szb6k3SslFBNCCCGEEEKIAeb78RrKhqWwd08JcXcpHci6BjGB5O1wUvF8NnicaIfAWK2OlCQ9JW0JQPlZ7UukHt82e2sd0rWAvv2Qk7w7jdhidRTmGDE2VWGLMEJpJYacnluYdLRiOb98+3imyHrnAQC82zStS8BiSu/Tex6MMQIsc1KxvpKNMXZ+v9aREgkbbpzH3so1JFMH6C5ay5xAOr9Hl4Pz+TlfU+pE88lGsnOMMNr/vS0/Avm/zMPTVIEK0I7WkjxpLOU3p8A/Ss7fAZ2DYK3A+sIGUFqJc46926fTUg2UZmPOMXIp641JKCaEEEIIIYQQA5gWIELL3n+A8WQ9DAkcrpS1QMXa35L5nRMk31cAKmU+B1Cya/NZbbvuM2eQalF9U7zMABgwAIVL52N7I53KBCNmvRViC85hzd3Drc661ukqWKon/VAqlCqv9zZ4QPEyAywrxlINJlNHt7HcOcDYvu937jIDhSYlDHRgRE/dWbXo0YVpKQc8+/ei6kcoNhhgWCiHDjmJ7NKlsKkFwIFuTPARDbUjAHQ49lURGdvv3b4gzufn3FLtwr7+YQrundhtwIAWYE1BGcknK8j4XSaq0R2DHpQXOYC+hWJXA2iuxnEAoInO9dda24EjTnTxoISmXSuo9cwG2NeXkLlUT0/Blf2Qkxmdwm2vymowYsWwzH+0VBtgzbEon/cz74ulGhIqL8wAGD256qJuTQghhBBCCCHEJfe3D1xwrIzoGA0qdCR/O45yVDi3+d+QlhyBhaYs6v+UQX0jgI3k7yb6ggKAnQeAIzvPaj/sh5xEToSzaSnVVeo8HdmlRqw5Jox3Gs9pnaZ1NqqyTBTnxVFcXOz7nzGnGCNQXJzr97puXh7FywyYLcWcGQsTkykbk8mEyWTCYjIBNqxNYDJl+V63nilOrgeKLeZ+BwIGIK+4/627yo4AH2xh6o0A0STGqUCVzNY3y6G9IzhxtoMpq4SS+xcC9d3Wowc0M5Mo/gdwZKvftOKt9WixoYuJ67acV+I4YJyR4r84wdVRy8wFpD5XRf7dC8HVvTvnhXS+PufWI2B9PBfztS5087oPnnAIoLqeGfH4BWL17eB8u+/b0QCGb0+j+Ai4PvD//GzZ5UJ1bCtTYxP7vL7OCrc40WNFF9//oNUJWF+xktClG7MTyM6ydgvLIsc4yS41YlsXfITLC0FaigkhhBhQTOts5NK9KG3WFiczynuu7yGEEEJ83ew8Ao71m+ncgqfi4AlaaiqJU3nQ36bcrKfGq6i8dgn3vWAh1Z5O5MxUdjZ6KP8/K8aR9UTNzmWqB6yqODKfLCN1qQbXMANbdjv5dEchDGnr9755u1b11s2xv4wAsQn9Xi59nQ3sFtLtULC0EN1Ztljp2g3RW5w/2PSu9cLOJxtgWV8CVHa81uTBsacCLS6Sfzwf0JA4BPT3pLJhfSV7f3IfKYtTqfdEsnnrTrQHyknJMaKUaO8u68d6st8xkvnfGzDdcwhPRCKbt+7F+UEJuXO0MCl4yBEJGO9NwZpTTP1/riJ16XycKgMlb9lo+2ArC5ZOBM3ZBTrBXD0E4Go2v7mTuLapaOKn+U2fOv7cP+e2k0ph/UiPHd2/G6n6wIHS1kwRCoydFonqxqnkbbdi1mSinZZKRZOL8te2oPJ86rc+zb8NxmoH3fYSpsUkwGj/Vls/m6nlvjIzGbkWUhc2oZo8n+LdTuq3bcR8LWiSlvT7fbI2gX39GmVE1B5CVyfAp45u4XZVE2DfieFO/2XT19nQ2y2YLWY6h2XGCB2OHDPZOVYKxmYFHenyfJNQTAghhBABne/ip95uKLkTLZftsNxCCHGlsR8D+5Yyv9d0w1RkzJ5KyqIlMEwJOnQhULDaSP5rOgpLN+B5Zw3aIWCOj8K4dA1ookjWwInHMyl8toBVz21FoyohRa8j++l0zG/p2Lslq8ful115u1YRm9v7zL3wtj7JnWOlMqEYi8nU598vb4H/gqWg66Go/uUu0IibDsCxxX80Se0QWHB9FKlLUyGioxVX3jwdhaMLsG7Mp+KZQlR4SJikJf1pM5pJwUMRgwbW/MbMxk1RrHm5EE6WYdCqWLliLpHfWUjnkSEDMcdqiHo6n8IXN7Dqua2oKGFqhIbcR+aii087q/eiJ3HDQL9wIYXFubz/wRoy/+DfrTFZ28fPeQ8PUR3HgC/qcACr1lpBGQ/TxxuMPrHCyJp1J8gvLUT15iqmRmhYszSFv43KZuv/mPHUK91Z02fryd+dzKrnrOTOK4OlRX7r04XAc6uNWF7TYSndgKdoFZHDVOTek4DhtjQI0fbrPbIBFrMFs96Obl7P3XlLqgG7pVv4tXO3EyN2iE31rTPbZAGs5OUYfUFboG7K6evtFF8TfACJ8+kbX3311VfBJtbX1xMVFbz/rxBC9ETOIeJS62no5756YKme36yPpuvFTH9cbsVj+8JSDdYc01nve+cRxLxFhC3VOupyTJesiK8QvZHfLXG5uhI/m94b4YLknb4WIWcz+mTndZmx+Fp8e9dl1tvPqhV4T/XEginOMWIdYw54DN4aY9YmQ8DpnVuPBbt+6a0QvmmdDfOn2dLqXZwTb3hlxNotWO4cbHXW+fvYeb7cOVa/B6GmdTZf3b3OOl9vnstD1LM5V0pLsX7q6eQYpVWR+v1pxP04o99J7Pnk/QEwjrRj/m0uDOn+dORyGPq0N/Z2yErbgOZYCYW/ng/Xnv+nBEKIK1vePF3AoZ/7231yxjwwrUvwW877Y1+cA85Yc7cLe+88hSYLjIkMeMF+ufIGYgCmnO5PNzvzBl5OdH6/j956K97fGG9dCbMev6fSQojAgt046IapWJAwlZR7loDm0oYkwfbRq7dC42ej/hhUFVhZ8GDkeV2vuPiqmsDMzm61lvo7+qT399ist/r9vhojwFic56vh1VPQljuHbtcFOqA4z8iZzph913R+uk92HZWy6zyBAkQ9YLSYuZyvMcTlL3udrdv3yatjxNaeH5gGm887wERPzvq7d5YkFDtL+mEQ/Z0UvH3zPUBFjZNVRTVkHkgnObuAM+O4XDLWLyDh5d9gWFpA5xoCXxe79oH2WBktI7VU/HUridem8nU8DiHE5UUZpar7j7E3QLNUQ+Qrpn4FVzqAid3HznI0QTR1ENH/uiaXirUJrDlZvbYQy9rihPXpGFcoF9+dL2C6XvxDR9N6C2AxBW69dy7D0gtxJYoEDPPi6PydqDh4gvxtlRyqyiTNkgch+ku2fxB4H72mAjDivG6v4B9Oot+xwIPn3t1OXFrGCCAvr9trxuKe6wh1vWEu3OLs1hqlv+s8nwJtzxwLnOmWGWh619cCPdTrOs/FPi4xcAS7Vr5SSSh2lmaMBuPSBXS+AEgDzM9VsWX7KpK/qICRl75ryG+2tLAhuRD0X69WVh5g618rWDDaxc7Z6Wx9cQ2J95SDNuVS75oQ4msma4uTTNb4WnAFGu65cxeOhPhMsjGz05Te7Ul1dilQ2rVYrDJdP1aH85Dd77bQcRgi9Xa+LiFPX7tMegOxvnaD9LYSC/QkHjqe8kdOtPJ1ea+EuBgMgHnpfDq3iDIDWW862fpCOmm1O2HapQ3FAu2jEBdT3jwdA+kGXghxfkkodh5pgMioSNq2A56OUSmc7fDbF6uwbcuHky0YtCqWLEomalYa3qKDLmDD9noqXtuIq2kv4CFKqyLjPxKImpcOaHw3DWuW1lFMOpWvrcFzzIFBq+KB++aivdE/+EpbqGdD6Vg2PFlCmiWp1yeJZQdcbH5xA057BXhcSgHG+CiMyzJAE9Vt++Uvr0F10sHcazWk/TwTW2gcv3mqkJaaEiKHeMhcnOzbdwBXOxSU1vv2O3KYirQ5gbubVp0Ez44KDD/UoIpPZsOLRTh2FBP5QyUU22CHrVmpFOXM8N242YGsuzdgPFmCuaijqf4GO1RmpVLwrAnGLej1OL03x5kTLRSpcnG8uZoULWTkPwCaRKwHXBQ+W4DrYCUalQfj9ZGkLkuDkdIdSIjL0Yx4SDdHU0AWJdfkYc0xMX+pESWq8Q9gdNdEo4vQUZxnxLQuEufuQnTzOkKfzqFOR00FRfQ1OhzlYOi0XmuljdwuI/G0ARs+cLJ17Ro4ZidhnIb0+1O7FbDty7mm6gsoXFdIfU0ZnGxBo4IUvY605WbffFlbnESvTyfuDyvJX2ujpWYrGpWH1JsjMS7L9HW/8tYvKc4x+rqDFt/p6BaOBet+H6gbh9XU0a1KDxhWmH3z7jRnkWeZARFG33Dfhh99vequCXGpRI/TKd+0No/f6xf7vNEffdkuQL0LNr5Yhq28sNt1s2ldHZRmY0c5v3Q+J5cdcFH44gZaaspR4SF5mpa0e1LRTFKuHb3n7JX31rGmegZtH2zk29GhvHVIT+73PsKwzL9o9Zp3PDifWig1EIUQ4gonodh5VHXEg31rCeZrVTBa6SpjOwmr799A5LESMhenQEQixbudZD63kdz9VRiW5QMasoocNP0xkyWzo9DFZ1B/TMPmv5Tx8PpyCjQutDNX+raz6g0HUSEPk3XPfPYylZLXrKzMLSE/fwREzvfNlzAcDi1PoyS3gqRNT6C/Z0PQfd98EAp/nkXKpCbM9y2hZYgO6456LP/YzNWuh/26g3q3v3LpfCpOjqXkxWKanlxF1eeJmL/thNuyKHxzLw+v38ymkaBKyMQJ3LeqDG1tPmZTHNrJaVj3t7CqeDPmmnSMq5+DkI6bxq3vtKChHH3CfMIiYYPeyN/+ZCHtNjuE6ImbBCWqGdj37ER/5oatrgk4tpcqgIN2GKfcrJVV2kkZ5oJxhn4dZ/7fIeWa1Sx8xIymyQOaqWRvc7L3+fuYf6OWqYvN7D2mpeQ1K7afrCLvf80wWi6ahLjcGCN0YDGTbs4CAreCcgLYHX6vKU3H+97yIXIMOOx6vGGbd3hqXbL/A4nCT0H7xGoy7ozjxKiVbHyjgpqfWyhY5UA1TdmvvpxrKlyQ95M1xIVVsnLpfFzDplJW46Tkzc3w0Cq/blUVQNlD+SyJ03L1bRkU7z6BZdtGtCEPk7h8E5ZqFdHr08nrFHTpJ0ZiyrFQsLQO3bw8/4KpAUbm6tyNw3tD7Q3ObIBuizXgjaUTsJdXkTsHufEUog/sLbDzzRKMI4GYZN/rF/u80Z+SFn3drs0F2fdb0B23kmGKg8lGNm/dy8PPlfCc5xAr//1hLP/KQLctn/mPpDJ2lBLOWapdWHMySJnoInHFEvZ6dJS8ZqXq5/nk59Sj6XTOz9v0Kak3NqF5JIOoY07e2a+n8u8fYFhqgxDl/OcByiuryIgFIhLP8S8mhBDiciah2Fmy2APXREm9Foy/ysfbKsCy1UFCawmZv8+EYcqFS3I8rLl+Bpan0sj/QRn2yPm0vFXBo3O0GJY9AaiIAyK/HUfe3Ws4tLcc7cyObcS1uch4diVo4ogDtNPisJizcO7Zha5TKAaQdqOGilmZPPGnVWxI2BC0G2VZpR3jyBbMqx/1FeZPjo9jUWgke3fkkcwhvGFR1+3XuKKo+GMGBfd+ie62NQBopsWRd4eTvTWVGBKgsNJDRLWF/KcXwCRlSNa4eNh8Swob788gZXchqgSlyKYTsG2rIHU0oP8+OkCfHEfZekjbtwuu1TM1BLh5GnW1VvRnbkCral1oh9lxntTiqt+LZpwyBLGr0kbSTA2g799xesC8OgM0yt+t4iTYfr+GNQsjiLorX5kHmDEzjowHNlPx2kYSl3fUmRNCXD4sb9jwjoJI7Hy/QvKdmXKga1H5vo6+GBkBFqIxV1dCrIGqJtDbd6JbMcNvvggP5D+7AMYtAMCQFEfGAzrKNhVizJtPxUkdtt8X9nquqdjtQn9VDStXL/GFScnxkKE1sPfFDPiiDiKUm9sWoGB+BLrb8nzzLbwqkprSbBKX78Uca/DVOgHlFyxvmYGssQWkr0+H9Sb0QLHFDBG9d1GxH3IS3enfBoB5gQOvi11MVYivEyv+LS69UkaC+eks37WMco1ycc8b/XloULG7pU/btWxzEPmFlfxnU33nyMT4ONKeiaJyez7z57YQNn4akUBcvB4wYG8H65oi0vQtzH+8AEJ0xAGJM+PIfKCQshc2M/9ZI0r1M5g/0sP8B5+AECVQmzsGtpZqMNco525Qeizwjwri7jNwqWsECyGEuLAkFDtLwQrtF35Sw4msTNJWr8Kp0eMoryJuHFTZAaUNEwAqFzjQ4tyzC33kfAp/twBY4LeNqCHAxKm4XOVntqBsKzEe0HQ0M4+MAIjGecjarRKLBsi8N45Vu1N67EZZsFAPCwv9XlMBEydHcWIHcNIFQwi4/TBNKBpAF5/UZd+job0cgPLdNSRqPFS1XA27O94H5b0bwd7qcgxnQrFKB2C3knhPJN4LmO8n6chfb/AV3FehIi7OQNVaMB6zwzAdNXvrMMdDfksqdXstGGaCrQlUR95Hf+OMfh/nND2g6XivqmpB4ymn5d8SqepyDIyAmh2efl8kCiEuLG+XPj12Ui1mss0OjNUlmGPNmDuFQMGGje6qp5piBoA5CTg/K0QXq9QTi8YOEal+c5tigXEd9REjQyAqJZmdLxRi/KKKqkZjn841mTMNMLN7C2DDxEjl1+aky/daFP7naICJY3XUATQ5ICLwect+yAn0PRgE5T2ntNB3M+9dtvPw2vxIeY/PZchtIQaCYIX2y2oqcf08j6zVmTA6uc/XKBfivBEsuOs88mTmTG2v220BHO/ZlIcX4zpawGmAohWJgLfFltNvHbsOAMfKmJue7NfrICoEDPONWJ/bzPyDFb6Qbdr1+AIxgKQpUDIsBVvlVgxnznNllS4MlKO9MaPbPgshhLiySCh2lgIV2s8A8ne7KHnMzIySJzhx1wb41EkJUPLYmoDrcR5u8a3B0w6OL1w4Guuw7XVQsbsKDtbQAijP65Q5Q0P7t69xGkjpYzdKp8uDo97B3oMOKqptOPZUKBOOtfjCokDbDwUI6TJBpfzbCeBwUuGCiscCb9vRCAZaAC1F2+xE4iAyvqNVW5wWiE1m6w6br+B+XIwGC3o8Ne/T9O1kPHvsJP44Duuxadi3ejDgoKpWSwJ2mOp/E9uX4+zq0BEnLmDVixUonQr81QF84YCREooJcbmwvGEjd469I3CZY8NWme278fFyNAHU4fjUvyZYVz3VFAMwJhioeiUb4zwn1kqn0iWwS1Ae8U3o2vJg6jidMrD8585+n2tcJ2Fvo4N6h5Oa6ipsu88s82ULjFP+M+A5OgDfMPd2/+My5Vjp2oLOq+uIkTt3OwG7EhXm5GLKyaY4B6rGmMG+E8OdRrwdVb0tgQvXg+FHgbtXCjGQBSu0X+KADRlZlL+YT/LDcRw6cuKSnTeCjT4ZaOTJnrZ7aBxQ5yDye3RbV0/a/h/ocKEaO7b7vo3UYutyXF3pQ0AzM4nK0hIMS224QgxUlVeReSOgla6TQghxpZNQ7Dz7fryGsmEp7N1TQuRdypOsYKNtdZa3w0nF89ngcaIdAmO1OlKS9JS0JQDl57xf3bpR4l8UvvwI5P8yD09TBSpAO1pL8qSxlN+cAv8oOeftQ/cbp0Ds7eDasQsXYMrYAPiHaDbwFdw3RACjp7O3ZjOOqRB15H00+iSmHdPx/gsa5n9ho6pKq1zUnOlecK7HqQcpuCrE10jnIaWztjihNJvK/8/e/ce1VeeJ/n+tHTOd1M6GziWtDY6Ik9LdRpbIgFVaR2bEsKAO1VUyU+uS6Qj9rsJ3tnWGTi8w/Ra2ymgZL+huaaeGsXIvGbeltQZJqWJ/oC1sC4vh+xUyMmgbrOG7lp22ub1xer1/pAkJJBAo/cn7+Xj4eNjk5JzPScLJOe/zfr8/QMKqLgIvMve3f05mRg/7mzLJdB2d9N/44kQoXZ8J1t3EN31MwpbIG8ffBPCNm4DIjjU9Z6HkV3V4/vCG93imnsUdt84l4b5Muprqwr4ulOzNXdBUSjyQtz6P/evj/U3wx1Jk/RwODLcS6AJ6tu4mPj4eenq8U9Cv30XX4Wy2sJi8+B5IXA2u4XUsz5pL6dZMunZuIWGVHFuFiMT9MWC+M4uPDldyLx8Dcy/7ccMnktknI96uJ+wqLqn7U+PZ9+Ys8nqPclSTAMf2k/SzJHyTRQkhhLh+SVDsEpoDcHMUPf8OCZzAVwo40r5T8MFLr7B66RnuLagBhTdodALY/f4bUzKWkWWUJA4/dwqorNnHvec+4Jl/WY3i5uGU9QO/PwFcXFAsCkAdxUcHIfNcH8wMHxSztnvgT2/zTEYMUUnB/c/6gLoXGmluOIrp4R5iZsQza3ECPYfrOH5HD3d8swdu/gkLo2A3SXzY1wdHFCT9g/ek5mL3c64qigOAx/ERCgmKCXFNyd7cRXxT6YWAz/6g0h9fo/eKH2WSzeJRM05ORAIQ/9QP2bI131sCpF49apkhF3jnHB6+2Pro08+9vxCquREfazZYerjtD2+wtuIxouKHSzQrWz0wwYvbXasS4MLNm0YX4M1bm7A66+dk0gg/2gDrveVUeYnQlbgLsreQ9FQ8I2+M+N6zuq2Nki0mxCRdiePGRESy3VsA/iomZMZu0dunuOX3y5GH6AAAIABJREFU+d6ZwAme+fLGb8DnzMJz/DiKEdlgJ/7jlHfpuWNnnqXHw+6bs+n5YBf747K5l6PMWlw06f0VQghx7bjhSg/getN87Cz8aR+3//UsYphLzAN3s+szOHssOFPs5WNnWf74cs4efpm+TwC6uDftbn9ADGD/H4DPJndhEoq/jPI/ZsE7wwGg4wCdfXwvmaBAUd95+PzQxW9fAdybmsQBFHy+N/h92P0ZPJ5dRF/DM96ZflqPkoCH+3OySUpOCvrvseQkZmU8ztt/Ak+7FYDv/U08//aZgsPNdSz8G4DbWDgT+KuFmH/3AfGe/cz666Qp2c+7kxSguJe33zwA54f7WXx+HrKLdrO78HG8oTshxNWiC8jO3kJ8UykVW/KIScykh9thYHimyd2dkNmzBRIXk7k4gd1bey68cux1lmZnA41kr28kOzsbOrf4A2wASfeODgABWI8Bn+0bXt9Z6Nu9m7sTgW/eEdGx5nP6ONvzMffcBlHxw/3Jzp6Hw4cPT+q9uli+LLG89ZmMzBg53AnxNDI3+XshX7s8ay49ZPJ5+9T95glxPdv3GXDMysI7AW6/qo8bn0NE240CYlISaOwBPh2ukvj8PPS8d4A4tQdmBQfEAO75DvDN+0fte9956NrdSNK3gJvvGHOMMUDMA3ez/72zHD36Bnffp4CZSWO+RgghxPVBMsUmaf9ncGLrGwTONPjBp2c49eFhkhQe4h/2ZgfkPRBD6VuZmDY0kvdwH4o7lrP/w8852rSbvNu/ZFbyYyz8EzQqklj9630sf2oWZ7+ZgLX9c/74Xh3M/HJKx+0rozz7Tpn/sVsAxZ0LqXinkbxZq4m6YzkfuM5ywGJF4fnjlGx3ebKCw3+VS8GrW1jek0/MfcvZ/4mHA//aSOa3+oh7YAP7TgEH3+Zv71NA1L0h1/P4A/GY34zhQNMB7l9s4o6FUTSyGDoPsDA/HlAQBcxaeDsnGs5i+jb+bJCL3c+7Z0L83y/HvPUwH/1fBdy/Yjl9nhjeeHs/UX84wP3rMxl591IIcWWVbu4iL74xbOl2F9C4fou3GTwJ/DAR8uPzWLy51F/27mvWDz2UAplN2ezatYEu8ijN3sKu9fib0Odv7iK+ZwvfW59H5fr9VCSPznxyfQtW/+Muslcc5/jMu9ltaST+9FHuz88DoiI61swijqi//pK6BuCFUmLuW85Hf5rF7oZG+P8/5IrMguuCvAwg8YfQOfzw50Dj/2j09lcLk8Him6Rg99ZG8rKCS1uFmM66gC1bdwPDwaMul4cT//4BUZzl3pwfArOu6uPGXCDqr2+PaLu+8+bVz9aR/fef41HfzRZLF1F/2M39ZZnAXG6adZb9wMLf7+aO5C+Jvy2JzNWPY15/gOPPFnD3I7l85JnLbksjUa6jZEd4fpaeHEPd72JQHNlH0urFl+z9EEIIcXWRoNgk9fwJeqz7gh6b+00FzzywkPufyIVven98E2ZBZVUetb+L4+W9dfBmGXO/qaAkYyFJf78BZszl3ig4s3E1dVU1lFW/zSzFbu6Pn0vpi/nktczlI2vRuGWHkZoFPPOTJCoO3gse7124KOD5NfdSufkMLzfVoXizjIXqWVQ+dT/N/6WUt3+Zh6fvo4sqaZk7A2rKM3nZMpe6JjOe1kqiZkJechyZT1XCrDh27T3BLLq42/BDwp2I3BsD5sRsDnS+zP2njpIQdT/c+V3mHjtA1KLv+pe7+4549jVA0pK5+MpWp2I/K7LmUndzDY21L/PBpjoUeFj8nSjyX8xj1nek5EeIq01gTzGfeID5MUEzTpLoXWYukLcmk9K8/dTcUsTcrAoy1ZC5q2LM7fga1Mf3bPH39DmxPpOivGwqthB0XHkmGfYvfJ6XXy2DP+3j3r+axTOl3hnkfCI51lQ+Ec9vzpdg3vsytFYSF6Wg+OHFDN1bTeXKLZz4YxcxiVw2CWpIWDW6h9pRF8T37Cdhzdj91fIeSWB/U/yYs2EKMd2cAE5Yg2eTjJoJj/1NHMufWg7q4Wymq/m4Eel2A8+bK7fXoTi3j8XfnkX+i3koLuzD48mz2PBXj1H533eT13GUzOfM5CVGEffiy9T9zsy+TbUo8PC3d0TxeOlqZsWEvtE6UlIMmL+dzr0nzSgSpcG+mL585zS7fnQi4pmnfRpdwKYiMitWE+pmZNHmLioeOSGtEsRV5S+++uqrr8I92dfXR1ycZL4IISZHjiHialNk/Zzbt+azeNcGSrMPh80i29IJjeuzx5woxRdUy3sKtmz9mHh6RjW5LrJ+Dlvzr6kJOgIz4yIRahKVLZ3A+mzydm0gVNZXowv25xVF1MxfiMtJfremL18gYMNttSSs+v2VHs4o8t0Ul9Nkz1+G/462jDp/KrJ+Ts/WfGqeimdu1tg3G4WYrMkcKyVTTAghxHXNF+ACb5bY4i15lGYfZkNGY9iAV14ixGzZRWlekT9jLOz6tzaSCSEDQBVZc9mi2RUyY+xqFulMuyNnnxyLL4gIjQAXyinlpFgIcXU48CnM6mkkIfdvr/RQhLjiKrLmkn18w4QnH5oLZP4ok7r1W4Imz2l0Qc/WSgmIiauSZIoJIS4ZOYYIIYS4lsjv1vSz+8OzfHy4jgPvfETerX1he1BeafLdFFNt5M2qifAFt3zZXxdDAmViKkmmmBBCCCGEEEJE6KM/wQfWfdwfA5m/KOJqDIgJcSkkALt25QGR9Q3ztVfIpIe5WcsBb0YZWaGz7oW4VkhQTAghhBBCCDEtFaXOgtSrr4eYEFeTwIDYyHYR42WL7VqfCYl5ZG/uYgPe2b19WWqBM3gLcaVIUEwIIYQQQgghhBCjjBUQ8wk16c5weaYQVzcJigkhhBBCCCGEECKIb7KiUEEvIa4XEhQTQgghhBBCCCGEX/bmLmgqZUMGYWfr9tnSA1uyw5VQXhszb4vpS4JiQgghhBBCCCGECJqVMtKZIaV8UlzLJCgmhBBCCCGEEEJMc75yyXigYkseqCXLS1z/JCgmhBBCCCGEEEJMU58D+UWN0LNlUv3DpHxSXMskKCaEEEIIIYQQQkwzgcEwgF3rMyExb8LrkfJJcS2ToJgQQgghhBBCCDGNjAyI5cUDiT+8ZNvbtSoBGLthvxBXwg1XegBCCCGEEEIIIYS4PHwBsTy2sGtXDRt27WJLTybZ2fl0bc6ekm2ccEE8H8P8mJDPwcdTsh0hLpZkigkhhBBCCCGEENPEURfksd9f8pgA7NqVR6Mrj9K8ImgaPzDmb8ZPUtDj2Zu7oKkUuJB9pl4NQKMLtuQVAT3DzyWunqpdEmLS/uKrr776KtyTfX19xMXFXc7xCCGuI3IMEUIIcS2R3y1xtZLvphBCjG8yx0opnxRCCCGEEEIIIYQQ044ExYQQQgghhBBCCCHEtCNBMSGEEEIIIYQQQggx7UhQTAghhBBCCCGEEEJMOxIUE0IIIYQQQgghhBDTjgTFhBBCCCGEEEIIIcS0I0ExIYQQQgghhBBCCDHtSFBMCCGEEEIIIYQQQkw7EhQTQgghhBBCCCGEENOOBMWEEEIIIYQQQgghxLQjQTEhhBBCCCGEEEIIMe1IUEwIIYQQQgghhBBCTDsSFBNCCCGEEEIIIYQQ044ExYQQQgghhBBCCCHEtCNBMSGEEEIIIYQQQggx7UhQTAghhBBCCCGEEEJMO3/x1VdffRXuyb6+vss5FiGEEEIIIYQQQgghJiUuLm5Cy39tvAXmz58/6cEIIaa3gYEBOYYIIYS4ZsjvlrhayXdTCCHGNzAwMOHXSPmkEEIIIYQQQgghhJh2JCgmhBBCCCGEEEIIIaYdCYoJIYQQQgghhBBCiGlHgmJCCCGEEEIIIYQQYtqRoJgQQgghhBBCCCGEmHYkKCaEEEIIIYQQQgghph0JigkhhBBCCCGEEEKIaUeCYkIIIYQQQgghhBBi2pGgmBBCCCGEEEIIIYSYdiQoJoQQQgghhBBCCCGmHQmKCSGEEEIIIYQQQohpR4JiQgghhBBCCCGEEGLakaCYEEIIIYQQQgghhBiTCzCW2HA1lVzpoUwZCYoJIYQQQgghhLhqmbvAaDQG/WffZgxaZryLddsglBhLYNB2GUY8NWyDYDSWhNwnO2A0mke9D0JcatpYDdW1jnH/liL9mzNus1/R7/HXrtiWhRBCCCGEEEJMa+YusG0c+4LYANTXFwM6/2P2LvCGhryPuQAcA6gfi5vwGGyDYC4oARyjtsu6Ymwby8d8vRYoqzZBtGHMdZnqi7EN6kI+H7gOH/ObdkxaB+qMqlHbbO8CLTZ0D5si3U0hLpoayFmpo7zZgOvoIdQZhrDL6oFDuTkYC8qpyj2EOqPsso1zIiQoJoQQQgghhBDXGRdQWGIDh3nUc7EqBTnfX4T+0XyYobr8gxvBFzAKDHqNR5dA0PLOQdDSBzcvmfj2o8FQX+Z/z6pShy/gzV3B4zN3ARuN/n/bBuFQQXAm18gAl+814Z4fuY6SJheO2kLvawGzsTDoda5oA7Y3vNk3xgLzhaWGVeVqUWeUYdxmh+bRAT31bAXLUhaQtvwJUMZO+P2y9Lix/qYSz5CdNAXk/7YIFPoJr2eiSppcUFs4Kng40de5z8Pm5n5W39IBi5b5P3cTZgxlVXhDP+Mzd0HfRqN/vb4Ab/06AyRMbbCyYxCGdm0n7SkDoMYOlBvNFKfb0K2sn9JtBX7/xlJYC9SGDmj7voNlGTpsSfUUFpRQP9885e/LVJCgmBBCCCGEEEJcp7SzIS41DVAA4AGOdLuo2NlNQV8hqWurgCsfGLtYh466iMMB0TlXeihTwqQlKEATGDizdoHBYR4VSPQFSqDP/5gG0GXoCQz0HDl+hpp32jnRsZYV1WUwQxvxuFxAw6stpNxgJ61wBVFfnw+K2ya9n1fCwS+grXYbrJt4VuGVUvGmHdOnVi7kL15SZRlqyAgOtBm32TH1l08oaOjjCzpD+IBbOUBzcIDtUgQXQ5GgmBBCCCGEEEJcp5bMA0PuMgIvZFcAz2zuoOm9ClK/OAJzLv2F9qXmcLpwADZjcGaUL2PlYthCrDfw396Q0nCGmoPRGVyB73Co50euIxwXYHvDRlWulkgy63SAKTcraFkTUNLoovm1QlZ8dAgWTSwoxicuHkgH3T1ZEb/uSgoV5AmkBurLDFxswMmUAKb6qc3aCkcH1Neb8H6al5YLoN85JesKF3ArpnzKM94iJUExIYQQQgghhJhGlIAmVsOXAJ4/+x93n4dtzf2076jGc9qJZraCJ9KDyyzdwPb3+jmy43Xcg72Ah1iVglXZycRmrASU/oyl53P72MNK//p0KgXPrEpHlbgiaDyhgk6R8JU12tFBc3tQZom/fJRDQa8peXOAAk3JhAJll7t8cizWo94sMXVZccTjDyUuRu3tavalJ+hxW58by79sw328HaXCg+EODTkrn4A5+qD+b+XNQLPRH3TsPw2v17dgb7XAuSF0KgVPGFOJvW8FoPR/HgWxZnbeWIyz8dekqSC/8hlQptAxCDWbtzPU3YwCD6mLVKxYnoMyLi3sPvjKF1duNFH9Fjj/zYLC4yZ9kYoVT+fDHG9JZ2D5pPkzg38fjBsdGLCRVV9MYYkzqHwyku95qPH4yiddCaaw5csQnAnY0uemoW47LscR8LhRzYRld8Zi+OkqXMpY/3p8pbRVuVpcGWWjyidd58G8o4Pu5tfD/v2WNLmIqy0k8Z+LqHnFzlB3M0qFh5zvajD8tGDMclpNLESaJRaqFPlqJUExIYQQQgghhJhGOk56cDRbMcUrYF4y4L2IfbaiBdVHNZge1KO6/Qn2fjxExVsNmLoLMZS+CDPUlOx0Mvj7tSz/QSzqO/PpP62k4e0WSmtbqZrlRrW0yL+d5990ctuMUv5xeRa9LMC6Yy9lz1vZtGkOaIazjCbTUyyQr+k8N4/OmlHPHy6RcwA02ygEip3GS5KZElgq5mNKAOrrMW6zU6UpwVBf5g8cmrQ2DGVVo14TjikJyKinZJudsodtIXtrBe5zKI4hONhoxTAHWJjqf7z8HRe9W58lK1HFAqOJ3tMqrDv2Yv9ZBWW/NpH2bQOqnxdhecFKToKdWEMRKs2N2N1QXmQm9oyNgh+n4YlOoaG5l7WbrRR/3IFuZSW+IFLNfki7+dc88nMTykEPKBewvduDteJZ0mKGSClcjgs1dW+10bGuhsp1/SjHKKFzAqUvNpD1bQUL/u8V7P0YrG81MOe5CrJe2IS3gHRY2rfB81QRLVvNFD2uJurWLCDmwpqGTeR7HooKKDLq4VxwEOn1D90MNlWjT9UCahqOg2VdCWlxg5hWLWfo62psB/sxv9/ATe5SktdWUWTUU7HbTZrLQsqKfFSaaG/2VgDXeXh2gw1ljxnTIzoUtz/BnmMuKnbWBf39AhwBWoprWK5XcVNmPnuOncH8Th1RM0pJefq3+EqtR/IFQsMJDPa6BsGQqqGw1oGh1nhRf9+XmgTFhBBCCCGEEOI6ZXYMN2oPlBMPhv+6CV/mh6XdQ3SXmU0bl0Gcty+XPgka7k6j7udrSDtm4ZPkAk4daOMX6Sp0KzcACvSAZrGeyrxqTvS2olo6vA39l27yXywCpR49oFqkx1xQguvDw6g1U1d6Z2u3e//nswGI9v5vxyBoHYeCGu/7LtrNnxko32jE1G/EUFaFHfWFXlze5vWFDqDWiEkLPFYVcflkuJknAxVCUHPykZ+PtyyyYMz99QVEzAVmTPUaxgo2hMvCS5sDpo2rYab3tW3nwP47C88/Ek3s45sA7+yBS5bqWbO2gbYddaQ8ncaZJD3QiXauHV2SNxOr8jUH2i9slL20AuZ5P9e0JD1rfn8X5p1r2ZTR4g+CJnrA9Kt8UHqDcU7AWmul4LtDpD69GWZ4g2dL79GzqkpPy/ZKsl54gJHBLR83UJTgQb/KG3jTJ0HJNxdxuLaQrEE7RAe/LlYFsQl6YCf672ggQT8qwOSACX3PQ1EA+kVqAjOrbCfB+d9KKE5Xoc74JQAt7Q4Mc05hKv2F/7NITdLz01c09B6sJJUT6Bfp4LCW2P8J+qRFhMrW2nJwiK/1mKlcm4YyMf/CeqB60VLqqlaRdsyCItn7vRoCqh6MRp1Z5l/uyRs0dDeXk/J0LyO/T76ZXccqRfZl7fnookGXoSM5o55yo5nkbVeuPHI8EhQTQgghhBBCiOtUuEb7lp5uzpT8khW/KgGlltaj3aQoPXScugmOdgStw0MUvV2t6JILePWlZcCyoOdjZwK3LsB9tvXCFrzbSkkClMOzEmqiAeJwOW0TbNUdnh3QNrfj0GpxDfShTvA+PvAZYRvvmxJgfnW9N4BVUoihrIr6ehMuTBc1+2SoLDHAHywrzoXy1iXjz3LY5AoZzPQF39RAwUodhf2mcYMN4Rrtt3S3c3ZdJatLC2BeKh0fgdLTyqlvpHBqxOdPFHQf9IQMmDgA98HDPHQPMC896LkHH4ilZqcO5xEbNz7iDYot0gLK4R5mnSeB4wfhjvl0dPYEvV71jbMcPk7I4FYg/eK7CCxnjJuv9oY3A4KkE6GFCX3PI2F3g3mDmZy5DnS5m/zjrXpEC4+8GrSsArj19ljOHATOuWHm2Ot2A/bD3eTMA2Xig0HPZdylpHV2Op0fWElJ9gbLYgH1nYuDlrtVo/ZOzzDohOjgz9g5CNA3ZgZi34CLOBj1OQX2PhtrVstQjfZHlhlfKhIUE0IIIYQQQojrVKhG+/lAzVE31heeYelbm1A+vhmcLtrc0PbC9pDrcX4KOoYAFZ7zMPCFG+enfdh7nRw51gnHuzkFePNQvNu68caJjTWSTCsfX9aKpcnFEq2NuMeq6HijEEOGC1Bja7dTnA7hsqgM0aCp9/ZlMnRZw85y5yt9DCdcIMzHFwgwaUGXUUVxhppy44A/GBcuMDbW7JNceNRUaKC84BD1yeaw4w/XaN/qhO1rSmitqyF1jZ4TJ8/gBirq2oC2UevpA/jCCXOC38//BXD6z2hi1IwMEkWrADScOmUPGwR1ebu4U90INFaMen4IwDVOcOuGyINTExHp93w8rvPw6wob2jM2lpWaYMboAJ/L7cH5xwF6jztp+9CO88Mj3idOnxo3KHYG4OwZNN6oVNBzfzkDmKfm1KBvzHAjwIzIQ0EDn4EWR1DW5UR4y4YtlGWUhWyyb2guv6LllRIUE0IIIYQQQohp5vtJSlpmp9HzoRX9494CspGBmFAqD7po21oOHheqmRCjUpN2lxbrl8lA66TGMl+Lf5vjZYeMbKDvcLooe8yAPUGNZaMBw2AH9mgDNLejWzd2hslwFsvU8o/xQpP1wAkAfNs0bkvGbCyM6D0PxxAN5vQcbG+UY0jImtA60jSwPTGD3vZqUukD1JctMyeUwPfoajCV3/PqZhfKnjp+uc4A84Lf29aTUPNPlXgG21AAqnkqUuNiaP1uGrxvnbodugjhssAiYQdobseV7hj17TR3Ac3lmNYZuJL9xiQoJoQQQgghhBDTmAogOore98Fwrh9mhg6utAxB2ytbKLjnDKmrqkDhXc4JWI80TGrbfQMu5k9u2ADUr9QBOnSAJTcL+5uFtCcbMGltkFB1EWseHdwKNLJPV1WulkJnDjR7Hx9v8oD6lTpYWY+5C4zG4bKx4nRAE/m4i1fqsBi9wUAnBrT0TSqjR61S0Qp4Pu5FMYGg2NcBZn8N5wkXmhElhYNDAE7UN4ef0VAVBaDG+YcONFdJUGwqv+fmLjeO2lKqnrx11IQBQ0D1qy2knmsj/6UCFPOGJz1o3ekEIguK3QQw6yac3vpHAvuv/ed54KQLdRJ4g6YjO6iNzQ44aq0U5GoZK3DlcLpYEhDc9mnvAgM2dCuDZ0u1A7aNZu/3/cL7Yu6C5PZLMwHGWCQoJoQQQgghhBDTzLudbjjdQtx9ShSoSb1bRev7CnLe3YM6M8W/nPUkWH5Wwoblbvpv3QTYSb03zR8oADjUB5w8BLMnPg6H00VOLEwmU2qknAw15UYDNBu9mUcXsU7jNjum/nLqy6rwhri8RvYUC1QP2B729iqz4QgKnPmCZLZBXcgS0cAsLUtT5IELHaDzZbsNRr5/LSeBziYWJALEcVeiglZFKs3WVrKSc/wzFbrOQ+F6KyvOWch6YQPejlTB41YuXcyeRispjzf7G+0DvLW3HxV21AuXhQ3FpNwCllsMvPX2dvIzOvw96NzAM5s7uOvob8j/b8+AMiXMGqZe/6cwFd9z20mwvfgcpng3asPoyRNOAHT1s+Q+ggJi/efB9cEh/jLC8SoB3eJF7NkMhs63/I32AZqOuFGcbiY+YXLvn6XJhRYb6qSJByxdgO0N26gyZhdQXmIbFSybf7OL8mYDxVzewJgExYQQQlxxvjuxgY1tfYzb7BRz9c5YI4QQQlzNDp2EgdoGAjN4jhw/w1B3O3qFB22W92I9504F7fHLefY1Mzm9hcxfmsOh4x5ad9kwzOkn9gfFLPCATaFn7Ust5OQqcc/W0XTMxScHLTDzzxMem6+0arwyx4kyACQkT/h1hdvs4DBT6ICqXAvqSZ57jCxD9AXSwj0/sl/YVLID5lor0D782KAH54dHUOEm9dEsQEnKTND+OIftte30/OxZ0n6UQ79nPg17D6HqayVtnYGRATGf1X+npfywgbW/2M5DPz6BJzqFhuZeXJ1WitNVEPdQ2PFpAMOKNGwb9/DHf6ggJzcLl0KH9YCdP3c2syz31ikPiN00E+AmGhoPov9yAcqkRUHPL/j2xX/P7ee8jfU1Hgfq+w10dDrx5pp53QjELNKgSFzAb96zYVKuRbUoh7ZBN607mlB8+UnQ+pQzv85eB6jfs7JoYTLMCw7I5i1V8WyLidXPm8l5ZBDF7VnsOeai/506TPGgvOuJCb9PtkFw1FZ7Z0QdI3vQ2xbOiWZEcLtjEHAcQvdY8GsLt9nROsyYqk0EBssM0WoG1pko32ijSlMSdqbLqSZBMSGEEOIq5wsahput6mKalJY0uVjSOnaz30B2wGI0U1Y9/6J7jtiBcqOZ+nUE9RHxXRyUVS/B/Jkh7B15IYQQ43OcBkdTS9Bj6tkK8n+wgDTjEzDbG+hQz4CqUgM1O9RYml/Hc7ga1Uww3RmLwfQ8KGNJVcKZ9QVY/mUbFZubUSqspGnV/PKfVvLMATW9tpIxyy9H8pVWkVA8/sLj8GWfFKfbaE+ux2yM/LfD1+C/KhfUYzTVv9qFmnHTCTibgmeTVM2EZXfEkpObA9HDs4OWZaixzKvCVldDW5UFBR6S41Ss3GhCGRf+N1+nhOcrTLxeH0t1vQXOtaBTKSgqTEdzz6MEzgwZiilBSezGSix126nY3IwCKwuilRT/PB110opJvRdj0c8G7SOPYHnrOY51VlPwz8FZUKmqCL/nY5w3OU8DX/ThBCpesYF3Pkw/X2B0Q6GB6t+eoWafBUVjBQuilTxnSuPdb/2S5l89g6ffW8668gdaao6lUrHZRnFGC+S+FrQ+9Qx4sdSAeYcac/PreHZWoJmtoHh5MrrMFTBDNaH3yA6YC8yYtA7UGWOX81q7AId5VPDr0FEXBhyQkONfZ7nRDNgoW2fwn0eGKlMurHVQPz/8BBJT6S+++uqrr8I92dfXx/z5F1PhLYSYzgYGBuQYIkIybrP7e25MlulpA+ZX+ohkhqpQrmQz2Ykyd0HfRmPI8fpOMKpy+8a8o+Y74ah/bCDoBCNcUKykyUWOs3BUht7FBsXGmo4bvE2eKaziUEE1ZdVLsKOnvKoDHOagJrzmLrBtNIZ8vaGsCnOXOuTz4/V4EdOb/G6Jq9X1+N0MlSU+mdknA9cVePPIty6T1jGpRvZj9RMLp36dAdvNppD7MJHyyXC/leOdu/hKPifbuF8IGD63NGAbdc4UGNgKFPj3GLhccbot6Fwy3DVA4Dme72+vONY84UqRgYEB4uLiJvSa6yZTbKyDVqxKQc73F6F/NH/CEdKPDFwBAAAgAElEQVRLpf80WBpa6H7fhmeoHwWwKE6F6dE01EnDkf2SJhdxtYVX5AQ+6I7JZUpdDCfSi77J2N4D1l/9hKzZblZsLoMZ2ildvxBiNF9zWZ/Jlk/ql4Y+ofZlGdmjDWEzkQYKSiBaE/ZH+2ow8uLAWGAGvL9zgVPRg43CWqA2OAgUOKOVaxC0sWDcaAt5kjNym1ocqNeZ8H46EU45TvjfYt9YyjLU/um4x8oU89FFq6kvM1DSpMf2RmHQ7FojA1wlTS5oHb6IGPn8yPIVIa5m4S4c1LMVLEtZQNryJ0AZvnn15TDeDY5LEYTuPw0d22ws+5lmStcrLr+OQTBxCHVGcK+lic4+6fstMWltQcEgQzQY6suwDYLROHagrTidUecAaqC+zEBgP7GIDE5N+eTIWSlHLhMqgKgFDNUmJCAmLkb5Nvuovyef4Rlbx87gCrfcyGuAUCb9tzdJ101QzEc7G+JS0/DVzHuAI90uKnZ2U9BXSOraKi7Mr3LFmDvd2CrXEnuDC1N2Kqpbcug/DQ17D1H4QgPF6S3oVlYyXpqpmBotRxyo5rhp/kJFzrEmFMkSFBPichvrx887q1R92Myl8daLdj4wEPT4wGcwX+vgWjhpHHniHHgx4JsRKNQ05sZtdugfvljVRYNupQH7Sm+gMKvJgjoj+ILSBZirbBSnO0a9zyPvWhsLwBegg+A7fCPvFo4MVo1HEw0QfJcvMJgmxHShAXQZegKPVUeOn6HmnXZOdKxlRfWVv5kXaow+CwCImtLtbWt1EXfYDFx8uZ24sgzRQFnZqMcM9WPfAB95zmBpco15YyuSdU6lUNszJQAXyjJDPT/ysVC/eSOXudz7JaYP37n3dHHdBcWWzAND7jICf5hX4J25oum9ClK/OAJzrlypjPUk2J5/jhXxQ2SVboIZ3ulS9YDhPj3P/f4hfr1zLVULqlEtLbpi45wu2s6Be18TK7PVVH9goLV5O2nJK7jSgVMhpgPjNjv1ye3+QEpJk4sCqkOmXtevgyVJWZTXGjA0j+4RUljrCMqS8l4iLvH+EsRqcA0cQp0wvO2+ARfJUzTT1ZVkaXJNeMr54Tt3o40VnPSdoI/M7hpOox9fuJJH40YYmYYPowNvEBAk9HahCZrZC7gwHbhXqOev/mJZIYbpAFNuFoHHOxNQ0uii+bVCVnx0CBZd2aBYqDEKcTmVZaiZThfwQoipdd0FxUJRAppYDV8CeIZni3Cfh23N/bTvqMZz2olmtoIn0keXWbb0uWmo247LcQQ8bm9jwjtjMfx0FShj/Xfti2LN2JM207z5ZTxDdjSzFRQ8mkxsxkpAiQew7GhDh4Osf8z3B8QCx/nko7FsOpjFHz/uRr/UHXJ/xhsPQL8bNv/WRv+xBjg3RKxKwarsZGLTV8IMbwZaxxdgfmU7LkcLCo+bBdFK8nLTJtXMsP80vF7fgr3VAueG0KkUPGFMJfa+Ffgy3tzA9vf6ObLjddyDvYBneFwX3iPfctuavJ8Lp51kxStZVPTLUduM5PPzlZ9+bV0B1sqdqHBS+XQaymTvNLVHOj0oPa2k3pHFzhsTeatuO2nOVtB4pxKuOOjmzCs/CcrSaD0N1U9VYIrvwPD/bMYXQKs46Eb5yk8oqF2Ne2bKuPvqu5AserKP6q4l/Lmzjpy4r5G1sRT3+diIvptCXKtcgClZjXFjH/XrzJQMZEFtIYSYfUoLcPN8DNFq9PUmCkvmY+pqh4ThC7DAzKSR5QVajRqX0+EPf7kAR2sH6tTgC8n/BKqb+mmtr0Zxzkn6IhUrVuUHNaC93L8bY+nAmyVWNs6U8+F6PwRyAGZj+EyuwPfXOQjQx8hMrkiYEsBUH9xXIlTvk3BllUE+k/JJMX3Fxai9BVNfeoIet/W5sfzLNtzH21EqPBju0JCz8gmYM3wc6/gCLNss9He3wLkhlApI06pZ8bTJv5zv/Cnxn4uoecXOUHczSoWHnO9qMPy0YFJlm5FsF7znsK/XhT6nNG7rg+ZyHHgD3oElby19bix12xnqbkWBh9RFKlYsz0EZlwYQ8rzr7tu+xn7nAoq/9/+iWxnctLr6sAfXS09eM70nhRBCTM60CIp1nPTgaLZiilfAPO/UvC7g2YoWVB/VYHpQj+r2J9j78RAVbzVg6i7EUPoizFDTcBws60pIixvEtGo5Q19XYzvYj/n9Bm5ylwaVY9YcBdXBteQb9Zz5ZhF1b7VRWtvCb78FiuQCOs+B5+ARHrgHUKWGHKt2BmyuDgxKnQl6PpLxuFCx9jkbuv8wU2DMgmgde9pdrK2tY9OX/Wge2oT9HFQUmUmZ04LpJ8sYmh2LpbGXZ19o4LdrhlAkB9f2j8XuhvIiM7FnbBT8OM0/Be/azVaKP+7wl4KW7HQy+Pu1LP9BLOo78+k/raTh7RZKa1upmuX2Z8atrnPg3lNCzmI1qqUF7Dl2BnvFc3gT9JnQ5wfQAsyvrKEoNw3XuUdQar0XmkNA67utZM0GtIt5QKXBXKfF8c4OtE96g2KJC5WY0eL+qBPlhROi3j8CdNPbA4ZzvTAzBTfQ0dpBQSIwUxfxvgL8pv4Tcv5mEOXP87nttAsXsRHvmxDXKjVgSFAzsK4M40YjWmwhLzyGAzDz/a/zZjJFLm6+Gmcr6C70xnIBOAZQPxYc1KnZD/NvKKUoN51enqDh91Z611RQtsk7rivxuzEWPWCoN2Hugqym0NNWa2JBhzpkTwdfX7W+3CUsaQ09q+WlZAdobkefqx213ZFlr6F6zgWWoviUZahxZdRj9E0oUF/v77lSnO7AtLJ+1GuEuNY4huBgoxXDHGDh8Plk+Tsuerc+S1aiigVGE72nVVh37MX+swrKfm2CeQba3FD5s2r0f9lOTm4W7tkLaOl2YW1sgOKKoHLMI0BLcQ3L9Spuysxnz7EzmN+pI2pGKSlP/xZfq5JIRLpduxvKnzWjPmMj/0E93P4ADc29lG628qLnBEX3r8H8v/NRv1ND1s9ziPkv3uCcucuNbeNq0m51k1K4nF6PGuuOvXSsq6FyXT/KgOD6yPOuDz7W0r6/E12uHWZ4A+geoLWtk/wEIPqui/zEhBBCXM2uu6CY2RH6bndOPBj+6yZ8J96Wdg/RXWY2bVwGcd7G9vokaLg7jbqfryHtmAVFcgEt7Q4Mc05hKv0FzPT+UKYm6fnpKxp6D1aSygl8FzfRX0DZSw/BPG9ARXOXnnKTgt4uG7rkAgaHAJzEfieWiZxIBIpkPB2DKnAconhtGiSu8O/bqrM3Ye/chuYhF+29amJP21hdtsI/3tsS9ZSuge7/rwV9sifiMVb+qwPtFzbKXhpeV1qSnjW/vwvzzrVsymjBocni1IE2fpGuQrdyA6BAD2gW66nMq+ZEbyuqpdAyBEN7LBSnq9CtfB5QkpoEJY166CnEVxQV6ecH3hOb0rxElPcEXxAeGQS63uX7j6sBLfpoMGuXcPigGe1yB8zQoosG5t1JX28DuqXe1x380IFqjoeOL1RwvAe0KdjPAZ3HWLRKhwMlpw7Yxt1Xn6w5HrJ+tgFmeE/sqiewb0Jcy1yA7Q1v9lJOOmPOtmQscBBYRjeRmSPn3wyHHFoMgx0QbQg7/XsyUPDPz4AyBT1wW4qeylXV2N+sQ7fScEV+NyJ9JwtriXja6sDZuEz1VZQ0wSHMmI3VgCNkf7KRfNl74f4dfqShptxm1AQBVesMwHxcA32oE7zNmHEc8gcyw5VhBhpZklneDDQPvyaS/RTiSgtVAgyQNgdMG1f7jzFt58D+OwvPPxJN7OObAG/gfMlSPWvWNtC2o46Up9M4ctSN9oZuikqX+4+fqUmwJkpHb90a+KIPor3nWkNA1YPRqDPL/Ms9eYOG7uZyUp7uZSLlkkeODkW0XfM7TjRf2Nj0Qg7csgyAu5L0rKq6jfb3NpP1wBA7b1mEBtAnaQEdjvNgq97BCu0QWeurYIYaPXDXUj1r11po2d5A1gsP4Lu5OvK8K/1maG5WYuoezkDuPAe8fwT9Kh3SUkMIIa5v111QLFyjfUtPN2dKfsmKX5WAUkvr0W5SlB46Tt0ERzuC1uEhit6uVnTJBVQ9ooVHXg16XgHcenssZw4C59ww0/v44lvxZ6IBqGcAt87H2e/NUHC51EA/3DD53g+RjCdqNqBQY/4frSyL0qGKSUY5Q8Fra1IB7x1F9bfAhgZr3R7Sjbei0OiInQGvvZQD5BApB+A+eJiH7gHmpQc99+ADsdTs1OE8YkP7SBavvrQMWBa0TOxM4NYFuM+2Ah7sH4EaO7oHcggsHXro+2oqX0vFe0lFxJ8feC/WlNpFo8a+97ATDQ40d3kDh2pA94O7aN5s9jfc1wDKZB0d71nQrXTgQov7oz5WPBhLTcMiXB/3otZCdy9oaUe1aDkqiGhffd/RRXfgPzGb6L4Jca3yBTUMwPzqYiwFFnQP2yjLMAQ1lo10FtxwPcUAf8CbzwYg2ttPzNt3Kjg7KeN+JShT/P9OUQL3LKF9fyu6lXZaj3552X83wFsiFTjrpN+F8k9Tgpq+3ALMGwsx1ScT7kLVN0ucAagP6snmIs4BS6pzMBdYMG604QsmTST4GAlfpp9t0OCfIbTkqJ4lrYWjM9Xa7f6yV/ObdkxaByQUXNjn4DJMH9/3qnidgfKNXJUzigoxEeEa7bd0t3N2XSWrSwtgXiodH4HS08qpb6RwasTxiSjoPugh5eleCpbqYOnmUdvR3aqhA7zHpwtiAfWdi4OWu1Wjpg9g0AnR3mNIuMBdYPlywVLVuNsdApz/ZsekBW4ZzoBTAq8VpgC+47MraB2H+4DTLaSvTA3KpI+dAbosA7bNDWQdb/MH2Uaedy3+Dlhnp2Fvb0Z3IVDe0u5GRyuqxPxRYxZCCHF9ue6CYqEa7ecDNUfdWF94hqVvbUL5+GZwumhzQ9sL20Oux/kp6BjCd3fI5fbg/OMAvcedtH1ox/nhEe+Cp0/5L26+Nk5i1fybAbTwv7+8mF0cdzwp0ZDyVA62rQ5sRdUoFXCXVs2DmVloEpfCDCVpGjj4yCq27yxje3s5qpmQtiiWtGwDam1axOP4XwCn/4wmRs3IzLJoFYCGU6fs/sJHz3kY+MKN89M+7L1OjhzrhOPdnAJgCNfQhYvZ6OB+a1EzgdkqwOU9FYr48wvNcR6cb77LilsATaL/8dREFXZ0tDa3+hvuL71DS/seBSuO2+mP1qJ09JL25CJqknT091pRZ3g4+OEnPDTP4z9BjGRfQ5UpTWzf5M6luDb5MsR8fapcgFnrxHX0EOqM4ODLwGcADlzOsQv7xuoppga0qXrs7WbUCSYcrR0UpI4u2ftLdfBxB0Abq8H1HrhO/yc4z1z23w0Ye/ZJn4IMNYWtJpK3lY8KAvkCRSYtGOpHl0gGznBlqA8OqBm32TEWlFOcbvavd+AziMMB0ZHfQAlkB8wFZqpyubBPrpDLaTXeslfnoAuaLRjG6Z3mC/oVp4MuwYSpGsoL+ijGKIExcc0K12jf6oTta0porashdY2eEyfP4AYq6tqAtlHr6QP4wglzvOtxn4Oe4076nS66uzqxH7twfDo1BLd4//dGgBnjXyqEm30y1MyTY233xC3AHwfQfI9R6xrLn/8nqHGj0MSMHtsclbdUO2C/RtLOAOXSxbTvs6LLteOeoRtuiaGS0kkhhLjeXXdBsXC+n6SkZXYaPR9a0T/uPQE3aRm3h0rrSaj5p0o8g20oANU8FalxMbR+Nw3et05oDJo5gCKO/j/YUBO6PNEDrHqljYe+eJ1lRasZ2Wg50vGsXqpm6J4qjnT20/LuQVq6W2l5wYwpvg5D6YsoZ6h5/nEtruzXaH3fQcvBJho+7KDhaA3F6RZ/H7CpVHnQRdvWcvC4UM2EGJWatLu0WL9MBlrHfK0SYNZNQY9F8vmFu9g6/AfgdAvbT8N245pRz7/Vhb/h/qIFYCMZV/cxum9Zxl20Q9w/oj8ZT/dW0NCLu92BLlmJLzX/YvY18n0T4to0cobDwm12cJjpAAwZLgK/97Z2O4Z0Le3NoFtpZ7Kzmy1JUmOp1RKnsWFwmFGXFY//oguUADfeCFz+341IqQHDYwYsG83oHrYFZXaFy6ryKWlyhc7U4sKU3CMCSiMz7Ub2fRtPexeALahsMrDRvy+7JG6+jgEH2N60BmWJBQqcRGBk8NAQDfr6Mm8A0WgMasgtxLUuTQPbEzPoba8mlT5AHVFmp8MNZeUWPH0N3uNTtJJF31ajW2rA3myZ1FgimX0y4u16wq7ikkq7W0tLoxLTHzromK+DzkPon9Yz1efCQgghrj7TJigWSAUQHUXv+2A41w8zQ1/cDAHVr7aQeq6N/JcKUMwbTuVu3ekEJnZxs2AGKO5axN6DNlKebAXV6IysTje4jxxBtdAFChWBZwcTHY9qBhiSYjEkxeI5v4KyRieWujUY+mygvVAyqIBl92lZdp+WofOwemsb1uZKdI934Cu1HMvXAWZ/DecJF5oRgT5fDzX1zbG0DEHbK1souOcMqauqQHHhYgqwHmnwv0atUnlnUxp0Bt3Rc54DTp7w7hdE9PmF4wGa97Whwc0TqwwwOzHo+b3HoaP+N/6G+7qZQOKd9PdW0+F2kJPogRnxLIhVcsSjZn7nJyhPHkOb4v08I93XUC5234S4lvgyngwOM6wrZmBj+YVHvd97O6BtbieregmF/YyacXIiDNFgTs/BUevNJAp18faf/+EcFepy9DtZMBtUM6Mgmsv+uzERpgQwphfjOmqBDAP0O1Gnaqdk9snAgJLD6SInFiYbtB8ZpAsXlEtOgHIMaJttGKpN/udG9iUbK1AZGIAtaXJRbhwusQ3MLhTiWqdWqWgFPB/3ohgjKPbcvzq4ta+BNWXLUGmHsz2rD3tgkkGxSESy3RiA+ODycZ+SvUPE7Cwkv/IZvIWdw772DXChxOM8gWJENpjziyHv0uqxj1ff14J13kM4juzh0G0PkUoHyuTVk95fIYQQ144brvQALpd3O91wuoW4hUoUqEm9O5FWFLje3RO0nPUkPGksoX/PGk4AdPWzJImgC5v+8+D64BATpQCWPZyCHQ3W35jhvDPo+aHz8Kq5DZWnldQfGhhZHhfpeLZ3elj1VCH0DJf4KGZA1LeGU9gr9rooz10FQy3+x1Qz4KY5E7vI0eJNOd/zPnCyOei5t/b2o8KOeqGe/k8B7KTee5c/SARwqA84OTz2OxcpcClS6LDuAYb7Wux5zwW0e/cFIvr8wvHNAvpgAujvW4Y+SR/03yMP6WF2Ok373HCuDSWgTdSy99/A9e8WYheoASXaW6BfoWfv9ndZqnBAnHc68Uj3NZSL3TchrhW2QSg0lmBwmDHVFzP/Zh19aL0B8QssTS6WaG2oo/VoU/UXmvKHzv70rdNoLMFcYMSBA2OBmRKjEQZt/pkOAXTJoS8Y333PDe7hXjy2k8D7O1m8VIkC7RX53Zio+pW6UYEeHVBfb6K+vn7Uf6bqenwd2KpytSGXqa+v9wfEfO9juPfwUvBNwuDjC3QZ1nnHZHaA0ViI0WjEaDRiKzECLsxd+B8zGo3+CRx8PdUkICauZS0ngc4mFiQCxHFXogIUqTRbW+H88HHSdR6MJVasP38SF/24HX0svhVUAa0y3Oehva39ko3VBRFtVwVovqtjrwM4PpxV7zoPjoOtxEZ7QBkcEANYHAfMThu17/3nwW61oZ8DzBvdWzaQBtD8IIVDB910dDRw11IFzEwc8zVCCCGuD9ddptihkzBQ20BgxtKR42cY6m5Hr/CgzfKWX+TcqaA9fjnPvmYmp7eQ+UtzOHTcQ+suG4Y5/cT+oJghQJG4gN+8Z8OkXItqUQ5tg25adzSh+PKTSY1v2S3wx6eL2P5KKQdXrsGQnYrqliXYB900Ww/BYAcv5mpRLBo9I1ZMhOPRL1RgvVHP2uesGLKHUN2yhJbjQ7TttGGKV4DWQKJKjfn1aCpKzCzJOgHROlq6XbgaG8jLUMHsZDjnXV/DB04UJ82jxpP8LdA9lMPqv9NSftjA2l9s56Efn8ATnUJDcy+uTivF6SqIe4gFQ2BT6Fn7Ugs5uUrcs3U0HXPxyUELzPyzf52ps6Hpx0/wm9pnyRpay4L0ZVi6ob/RTGDWXCSfXzh7Dw+hoJXU9FRC9eXSzgDNw9+ntc7KisN7Ud2Xwp2L1Fg8ahQ9djSPey/O4gD+egHOThs5SxUww9s9Y8G3I9vXcC5m34S4FrgAc5WN4nRH2HI22yBQW+3PEMrJgPJaA/qman8wI3AGwkIHmFqN1NdXYRtU+5u4E23ABZSX2LwzTq4rxryxPGRD+o4blVQU/YYHHs2i7VwMLfV7MNzUj/bvvH9zV+p341LxfQ4mrQMKq6guqKYsyTZm6VW4mTvjIKgX5MiJD4ALJZehBc4cbQCy6ospL3ECtqDSWXMXsNHob94d2MgbvFlntA5nvI183vd6Ia4VdsBca8V3YxDAPujB+eERVLhJfTQLUJIyE7Q/zmF7bTs9P3uWtB/l0O+ZT8PeQ6j6WklbZ0BJLKqFX2LZA7xUzvylOfSeVmLdsxf+o5vJzow+HjWgWhgX0XZNP9BQ/raBtf/VwkM/duGJTsG8w46qz0paibev4E2z3BwEFuy0sijpS7S36jEUPMr2ja2cWPcsKT9cTq9HjXXHXlSDHTy0zsDI7LJQvn+nBkudBsW/tZBYkHzJ3g8hhBBXl+suKOY4DY6mlqDH1LMV5P9gAWnGJ2C290dRPQOqSg3U7FBjaX4dz+FqVDPBdGcsBtPzoIxFBWwoTKX6t2eo2WdB0VjBgmglz5nSePdbv6T5V8/g6e+d8Kxcq5eq6Vi4GUutBbO1Fc/pVpQKSNWqWfGP+SjjQje6j3Q8umQDxRUmXt+somaXDc61opoJRffr0C9/EVBjiIabnivD8moN1f+9BTxWNLMVPJ+bTGz6SgJPBFp63NAzuuxmvhZ0D2WhUyp5vsLE6/WxVNdb4FwLOpWCosJ0NPc8CihJVcGZ9QVY/mUbFZubUSqspGnV/PKfVvLMATW9thJ/SVJZhprt0S9i3bqFhhdq0KkU5K9Np+Z5Nxfy5SL6/EJxAnZrK1mzQXFnRtjP6MGlGmrqdHS8byftviF0t6iwzE4m+bQVbvfebVQCsQla+jshMWn45Gki+xrKZPdNiGvFyJ5iPr7ASuCMk77jqw4wrDNRuNFI/XwzJJjG7ZUFwz2nDNj8wZGS3CrMxsKgYAnA2oc1vP6nJ6mo3YTi3BA5SRqWrSoGpXeZK/m7MVEuAMcA6sfiwi5TuM2O1mH2Bh6j1QysK6OkwEhZNSHH55sgYWT56aGjLpZoHQSWOo0sTfQFq0aWPvoElkAGltVm1RdTWOIkq8mCOkMXduZQIa5XTsDZFDybpGomLLsjlpzcHIjW+x8vy1BjmVeFra6GtioLCjwkx6lYudGEMs77N/28UcvL54vY/m4NHK4mVqXgF1nJ/Gfqi1T/gxnnJ3Y0CVO/H5FuV6eE51/8P+zdf3RbZXro+28nJ2qm4uYg0nqfgBJOlFCFuWPhG9UdOxQnLQbM9llYw52EH2KGmLne9rT2XDB0lA7Yx7UzU9QyHkrcmXi7YOeCZkg8h5FYtWLAlFhMsHtcUyPPBasQ55CI5MpzqOem0WmOWLncP5QtW7Zky4kTB/x81mItIm1pb+8tez963ud93kpe8CVjStPZNyhc91t88/uVmM7/DHc7f4u/sH+VvQd7qHznn7jjz/dR6bia//j9Vg74nueNZ3yYSHDb/3o1//vuOn7ruvnbgQAUXAfPr/sjbo49jylfGuyL5cu4D7+44yQ4ZhdqzOWVXwHPNHBHSx2Z7tUNz/6Slrs+uuRxkBAL8Ruffvrpp9meHB8f59prc2ucK4QQM508eVL+hoic3PvsL6n8b3vg28/QWbc3axVZQ+8E73d9e85+UMbqk7Zdf8ArXZ2zqoWM/d3x2p5Zj19pjARhsutXurnOQWcYxr9/b8am20ai8AZemfW8UX2XqSl9Q+8Etq5kMrEz/OVUlR7Ai9+9AxyVqUD6mZt/MSsplq2Z//TnJshLJcSMa/PKr+BkXQOVL97Dvc/CEyRX2JxeKTidkWDrDOdlfD7T50EIg9y3li/j79cT/9HHl7/5fy314cwin01xOTX0TkDXt+ddvGOmqd+jzoxxxHwxnBAX6+TJk9hs2QeFM/ncVYoJIYT4bDCCIzhfM7b3CTrr9vLMLsgry1wB1lKWR+e1L6ZVjGXyPvB+V2fWJuwvfvPLNFyXuWLsSjNzRblUtRW/SP/3jOqrZ3bdkDHhBWRdibHSAeUvvphasdE4fxPk8f6Rf6Llu3cAX85apZetCrClLA+yXNPp9vZOUEknd7w4dc3u+B3o/G4L9957LzcAX947dc1l+qQQYrEcOQG/9f6rfPmB25b6UIRYci1ledz7UXLxnryy3JNi2VbDfuVX8H7XXkmIiSuSVIoJIS4ZGdUUYulNT4YZFV25MhKXUl0llgu5by0/Pf/3/2B86ABHDkeoXPffsq5mu9TksykWWy6rU2djJLemD3BeKEmUicV0IZVikhQTQlwyEsAJIYT4LJH71vLTOvg/+K9P1/CH10H147Vwze8v9SFlJJ9NsdSMlg538L4MlIkrlkyfFEIIIYQQQogc1Rf9Frx45fUQE+JKMldCbL5qMaNK/d5nf5nqC2pUqb34XRbczF+IxSZJMSGEEEIIIYQQQsySS4VYph6uU9MzhbiySVJMCCGEEEIIIYQQaYy+pNkWLhLi80CSYkIIIYQQQgghhEi599lfwmt7sq5YPV3n+9B5b7YplLmvXinEUpCkmBBCCCGEEEIIIdJWpcx1ZUiZPik+yyQpJoQQQgghhBBCLHPGdMkbgJa9lfA7UuUlPv8kKSaEEEIIIYQQQixTE8C3G16B9zsvqH+YTJ8Un2WSFBNCCCGEEEIIIZaZ6ckwgBe/e9uUbCcAACAASURBVAc4Khf8PjJ9UnyWSVJMCCGEEEIIIYRYRmYmxCpvABzll2x/L37zy8DcDfuFWApfWOoDEEIIIYQQQgghxOVhJMQq6eTFF5/hiRdfpPP9O7j33m/zy2fvXZR9fPQruIFxWHttxudgfFH2I8TFkkoxIYQQQgghhBBimfinX0Elv0hNefwy8OKLlbzyq0r21DXAa/MnxlLN+Pnf0h6/99lfwmt7gPPVZ79TB8Arv4LOugbg/annHHWL9SMJccF+49NPP/0025Pj4+Nce+3szK4QQuTi5MmT8jdECCHEZ4bct8SVSj6bQggxv5MnT2Kz2Rb0Gpk+KYQQQgghhBBCCCGWHUmKCSGEEEIIIYQQQohlR5JiQgghhBBCCCGEEGLZkaSYEEIIIYQQQgghhFh2JCkmhBBCCCGEEEIIIZYdSYoJIYQQQgghhBBCiGVHkmJCCCGEEEIIIYQQYtmRpJgQQgghhBBCCCGEWHYkKSaEEEIIIYQQQgghlh1JigkhhBBCCCGEEEKIZUeSYkIIIYQQQgghhBBi2ZGkmBBCCCGEEEIIIYRYdiQpJoQQQgghhBBCCCGWHUmKCSGEEEIIIYQQQohlR5JiQgghhBBCCCGEEGLZkaSYEEIIIYQQQgghhFh2fuPTTz/9NNuT4+Pjl/NYhBBCCCGEEEIIIYS4IDabbUHb/7vFfkMhhDCMj4/L3xAhhBCfGXLfElcq+WwKIcT8LqSwS6ZPCiGEEEIIIYQQQohlR5JiQgghhBBCCCGEEGLZkaSYEEIIIYQQQgghhFh2JCkmhBBCCCGEEEIIIZYdSYoJIYQQQgghhBBCiGVHkmJCCCGEEEIIIYQQYtmRpJgQQgghhBBCCCGEWHYkKSaEEEIIIYQQQgghlh1JigkhhBBCCCGEEEKIZUeSYkIIIYQQQgghhBBi2ZGkmBBCCCGEEEIIIYRYdiQpJoQQQgghhBBCCCGWHUmKCSHEMhUDXJ4gsR7PrOdc+8KE97ku/0EJIYQQQgghrkhzfX/4rJKkmBBCCCHQR0B3uYBw1m08+8IwEcz4nBEkMaJfmgO8whk/f9DjOv+vdK594XnPrxBCiMz0EXC5XGn/zRy8m+/LenACPC5P1vvYlSg4AS6XJ+PPFAZcLl0GMcVlZ99gpbUjMu/vUq6/c0s9GP/vlmzPQgghLivXvjD0Ns56vDoCdMy+ETUC9KY/rj2soj99FIhc0DHYAa+uQZ56Qa+/XLKdq1z4m1Qo0IBkgF7tCUJk4YkizQ6qtx1QFvza4ATomofmsgiOGv+CX5+JkebxaDpeHchTCU5Av+bBq29DyVNR71PRm1xo/iLAkToWYxvjuusjEGxaePBjnBPXvtgFX5/Ue13kZ3n68YBCYATsER1V15h5zcIAvYNUVNkxzosQQoikXO4JKuD3NzP9b2h4BJJ/YZOPxQAiUZT7Ni74GIz75sx7ggrQ1Eywae57zvT4Zq730vzNBCccGZ/PFCPpL4XR7BGU8vZZ+xwcATtBHHdruf6YQlw0BXDXOGjsVYkN9aOUZ4/pnUB/lRuX1kh7VT9KufeyHedCSFJMCCGWCX+NA6YlSIyETXvJ7JuUa1+YZhozJlSc22e/bnriI5yn0ujS8TeRSg4Z20Q1D+RZCQONLp3msuCiJW0W08xzZbjQ424u47L9nEYw3l4FSrk/Y3BuB9y6RqMWBdJH74KuxrTtjABdAbw1Dlw0o2uNaH4r1jwHETbCySjkgVYArrJmivZNfXaiJ2EjEchzp+3H+HKQ9gUHMn52ADw9MQhVA9mvDyQ/u9qxxpwSiur2zI8bx9FedXTeAG7m+XVpOpBMgrZX2VHKvfh6YkCQ6g5mJaAvJvkphBBzmWtgxmYx4b4tH+c9tbDCcvkPboZM94T5OApI2z46AXaOwrXbFr7/PFD93oyxkT6Sfnz6CNDkSv3biIGmm5ngMl6T7fmZ7+HpiRHpSN7zdEB3Vae9LpanEvxp8v49/b5jMO4/2Qb5lNUmdhRtpvTBXWC2Lfh8+d6LE/hLL4nJMKUmqH2hAUzOBb/PQnl6YtBRveAB1pmvi5+Dtt5xPOuHIX9H6rpr6Au6J+sjcLTJlXpfI8E7fYB0sQxPwOTPOin9YxVQLmksPf3zN5dMcY3B+Ax6yx0EC/1Uax781+mLfl4WgyTFhBBimVIAv1fl/DhoGn+NA/Dj6YnhPlG9oJutAmC3AtG0x6MnwWqPIF/+L50YoP8gSHNZBKU8ec2MQB+mkj3usiCOPBW/HyAZnOQS5AM01zgYPKbCBCh5gN1K7KN+lILk89rdDgY1O46a5Oj90Y9ibLPDZ+m6G6PvSmFugdvMLzepL6L0EwYiHYGMAbJrXxiOXVzFmxBCzMe+GjbeUgqYAEgAA6MxWg6OUv9BNSWN7cDSJ8YuVv9QLOMgzGfVzEGT6fflwAioET3r4BIcTT1mBRzlTqbfhweOn6Ht1UFODNdTqXthhT3n44oB3XofxV8IU/poJZZVVjAtPLG2lPo/hoGOdmhaeFXhUml5KYz2YYBMcfti85YrUJ4e+y9k0HGm6bFotoRbphkqlyK5mIkkxYQQYhlx7QvjLxpM3WA8PTHqaU2rhplerbOtsILGDhW11zUr8KruiKSNDiXDqW3J2+SG9EQJwNGPYhRtgM9ScuSzxpjC53h0dgARAxo9QTR7EKWmPdn/K0P1wPRKMQCXFkFlKvB2AA5v8v1T1/pEJHVV1TzAP/V5ipyI4f6MXffgYJjmMhZlmq+vJ4ZmD0LB7KkvQghxOWxbC2rVDqb/Ha4EtL3D9LzeQsnHA7Dmym5rkIvIiRgRZt/HjIqVixHM8L4zK6thqkItwuwKrulnONPzM98jmxgQ/GmQ9hyn5DsAraoibVsN8Lwc49Bz1VS+2w/5C0uKcSzGnWXguKUi59ctpUxJnunmGiheCK0ANP/lmRngAPx+DWNw81JKXvPofJvlJFvCLdsMlctBkmJCCLFMxACtSMHVdBR/k47nowroqIam2QGAHeBaK2qegtOvUe2xoo0MQsFUQDU9yJxZVWRfp6QlSmJAJDSMUpIedP0aaO0ZJ/R8K6azUe7Mt1BZVwt5UyX48XPQ3jvO4IFWEqejWFebqCybPeWj74M43fs7iUUGIBHHsgp2FNpQa2rBbEtV7zRs0An/fieH9v6QxGQY62oT9fcUYSuvBswXdY6X2lzJnOp9YdSIjupvBpRZwV+2SrHpvcAyUYscDDaRqgybzuil5cjwGbsSZOv7AplHLKfLZdrjMMkqMW+TOud2QghxuZkBq83KJ68DiU9Sj+dyz40Dna+PM3Cgi/jEGJDAZjFR+7Wpe6kxwNZadRQ/1an3c1hMPFJ3J5YtlWnHkynplAtjWmMYB/QOZu7rSX/aazwvRalf51lQouxyT5+cS2AoWSWmeJtzPv5MNq5Xkne/TxJpjwc/iON7pp348UHMpgTqTVbcNZWwxpnW/62xF+h1peLB8dPQ9UIf4ZAPzk7isJjY9UAJtlsrAXPqetRv0Dloaib68h5KLVDb9giYixmegLa9nUyOHsJEgpJ8C5UPujFvKs36MxjTF6uf0mgNQPQffJgS8WQ8+XAtrEnGk9OnT+on1dTP4GqKoBKkwt9MtSeaNn0yl895puMxpk/GCrQ5+8pOjyPmimFjZlvqfYyptO1VdmLl3lnTJ2PnQD8wzGhvZ9bfX09PjI0d1TifbaDt6TCTo4cwmxK4v2JFramfczqtdQGDnHO1abnSSFJMCCGWCQVQCxSiTV5cTS7sBDP2ZIhOQLLs3pp6XTKBkruN1ylEQ+AgBihZm9+2/T1Yv7Cbhqo7GaOS7p8EGKttwduWPK4YUNfSh+XdNjSXE8sNlQTfn6TF3402Wo26Zy+sUOg+Dr7HPJRumkCr28XkKoXg4XH0N7u5Kr47bWpI2xBYDtdT+3UnZ1Y30BUYYHdHHy+sAVNR/YLP65VirgSUpyeGvbcRTdcwEldTUyzm7ikG22ZtO71HmvVa0LHPSppCchqiShAKZgfuc30BcjUZW6TbluNAdj+gu1rR7JF5E1fTv5hk62k2cwRzen+zuThJjuLqI1DRk/kL2EICTCGEWCzDpxJEDgXQbjTB2iKAnO+5noNRJn5Sz67bbSiFtYyfNtP9d33s7gjRbo5j2d6Q2k/LS1FsK3bjebCCMTYTOBCkoTlAW9s1YJ2qMrqQnmLTGdPeuXZ21Yxy3VTsEQHoDVINNJ9wXZLKlOlTxQxaAeD349oXpn2dB9XvTd1zNHsQ1ds+6zXZaIVAuR/PvjDeu4MZB66m/8yZRCah/+UA6hrgSyWpxxtfjTH2ozoqtljY/HWNsdMWAgeChL/VgvevNUqvV7E83oDvewHcBWFs5Q1YrCsJx6HxER3bvwapf7CURF4x3YfGqN8boPn9YRw1bRhJpLa/h9Lr9rDzcQ3zRALMm+kcTRBoqaN0/STFj+4ihkJXYIDhx9poaxrHPMcUuiiw+y+6qbjexOY/rST4PgT83Vzz5y1UPNOGEc8aSq+HxB830PcjnYb7FSwbKoB1zGz7sZDPeSYWoOEBJ5xN365zJM5ETyvOEjswfwxb1NhOwwNOWv6Lm9KYj+KHarFY82atcx07B3VPBDG/p6PtdGC6oRL/UIyWg11pv78AA0Dfd9rY5bRw1V21+IfOoL/ahWXFbooffgFjqvVMRiI0m+kxVWwC1BIr1R0R1I7ZM06uJJIUE0KIZcQouQdwn68oyja336VFmFnWn2tjU+u10B+xo04MQ56aNTlSBNQ/mxwhdAK2IifeylbCL3XhqFHxDSbIG9Fpe2oHbEr2CHEWQvcflNL17VpKh3yYiurpG4ygrplE2/MErErecEsKnTyw0srYYS8lnMBIiuV9DN4fu2BtMhi3bnXSeJ+JsZEgjs9wUizbFwKjSg+mpmoY13J62f1cI9/TS/Rd+8Kcr6MCwJkH2LcRHtRxzAhaU5VrGYKgi2m0P5+NEaj3u6n2RFMjqks7ShmjuoMrtsGsEOLzTY9MNWqfzn0jqH/ehpGYz+Wee6yonsk3BniizIKj5knAhBOw3uzE+41WToyFsExbxMT5SZzaZxrA7MQJWPKd6JqH2DtvoVgXb+pdcDCc/J/zC79AsjG5PdKf1njfuP/pJ1Uam1xox1yo3nbCKGmDP8bK3JoduK895+mTc1UgG6ohrf3EzOuTnBY5dzxiJER0TUfzW5kr2ZBtEKp0DWhPeVJx08BZCP+tj9adedjubwOSgzvbtjupfaSbgQNdFD9cyplCJzCM/T+EcRQmK7G8z0WwfxzE++PKVHxVWuik9ifF6AfraftPfakkqDMB2p5aMCeTcVEg0BGg/iuTlDzcCSuSybNttzip/IGTvue8VDyjMjO5ZYgDDQUJnHXJxJuzEDz/Pp+3OqqpmAhDXvrrbBawFTiBq3H+rhUKnLMSTBFY0Oc8ExPgzFeYPvAVPAXRv/LQXGZBKU9ek1xiWGe+A47Ysf0bOAvzyTSY9jeHJ1n5nk5bYynmLbXn3wda87fR9YPKVMwMMAm0V+Sh3OVNbbfzC1ZGexspfniMmZ8nY3B7rnjKqNozOPLAUe6gqNxPo0tPW4TpSiNJMSGEWCaMkm4VsOrN+DQfjruDeMvVtLn96asXZk8kZOspBslEiW7flgpOszVbLy8zg7k49e9iM3DLNgb/PoSjJkxo6BOKzQmGJ6+CoeG01ya4hrGREI6ietp32mGnL+15E7DhBhtnDgNn47Aq+fjWDaRGxQGUFcAGK9FjU5Vtn1UbYVbwN7NPRmoKR17m4NKQaaQ7EwVQ71PxNek4po1YByeAXt+STJ202kFBwe91oI+oVDe5FjRK6WoKMqtSrSz79pl6wwBwfrqwVqBwtKoevakazV+U0zEIIcRiydZo3/feKGc89VTuaQGzndDQaE73XN+PdwA70p63rQI2bCYeD53fQ3JfxYWAeaolgjUPYCOxE8FFu9uGAXvvIBG7ndhHR1P9TLOtfgzJyi2r7k8msDzVqN52/H6NGNpFrT6Z7d5pxFbNVdAY2jb/Koc9sYzJzOn9W+trHFQf0+ZNNmRrtN83Okj8MS+ePfWwtoThd8GcCDH5xWKGZ1x/roHRw4mMCZMIED/8Fq5bgLV3pj3nutNG20EH0beCrNyZTIrl2wHzVOn38CngeD8UWBl+eyzt9ZYvxnnrOBmTW9M5by5m+nTGjdcpybv4tCTpQthhQZ/zXITjoD+h4/4PERxVU5VzC4lhs4kD4SOjuNeCeUt6JVf5VjOhjjsZPhKguCiZLLMBSuHWtO02rFOSyzNMRCEv/Robs0jmqkA8+lEsYxw6fWB1rlUtM7WtWMiA/MWQpJgQQiwD05uyKuXJJcd1e5TYUD9K+YzpkycBIsROzJ0emqunmALYS5yEB3WUAo1IaJj682Xi012tzA5w7DYrsdchdvrXED3DQBwGvteZ8RiiH4KDSYwqsFg8QXQ8ytjxKAMjYaLvDCQ3PD2ZCihW5h6/XDRjZI0Nl2+fM83sDWYkKIMTSsbR7AtpUFxRANV2jfBLOo6a88m3l8Jo9ggULG31nVYAFX4/1Z4gQVdjTisZzdxmZnXcTHOtPmmoL1eoDs3/5UUIIRZbpkb7tUDbUJzA9zS2BZ7EfH8nRGM533MT5yD6cZzoh0cJj0UZGBqG46NMAsk6lOS+Vq5c2LHmUmllMO5Pvp4Y2+xBNt7XzvBPq1HLkwNcc1UrQzKBZfUn+zKpI4Gs9wZj6mM28w0iGYkAzQ6O8naayxUaXdFUMi5btDXX6pOcf1R7VKVR68dflL0SOVuj/UAUOms9hPa3UbLbyYlTZ4gDLfsHSE6wS3cU4OMorEk/n/8T4PQnrFunMDNJlGcBsPIv/xLOGlPGYgDjtL4MvNwy6/lJgNg8ya0vXJrgLtfP+Xxi52DPniD2fw2yY48GK2bHv7nEsNmcAYifwboJZp6oq1cAaxUmJ4xjhpUAK3L/5YyeBDuRtKrLhUhOG/bhLfdmbLKv9jYu6fRKSYoJIcQyMLNaqHpfGCI6w5AKHg3BwTBqmZ3B3szN03O1rVDB12Fn47rgghvCmgFMyZt1Lg3NQ6eg7T97SUwMYAIsay2UbFpH6Cul8Gbggo5/MSnrcl/VabGpeaCXuYkN+VDK1dRqkI48JS2InznyvRBGtVhjk46/SEdHg95G1Cukwbzx+ddHVDxNLry69ZKPOmY6hkwVdUIIsVRuKzTTt7qUsXcCOO9PTiDL5Z7rPRxj4EeNkIhhWQXrLAqlW+0EPikCQhd0LNZp1eTzVYfMHHiInIjhvU8lXKDga1JRJ4YJ56k5LfQyVcWyuFLHeL7J+vTBFmOfrn1F6K7qnM55NsY9PvjTRtSCigW9R6kVOreUMzbYSglHAeWyVeZkksug1eW0mJ/z1t4Y5ve6aGxSYW36ub3SY1jIXgWWC6PnbawsMuvTqY8AvY1oTSpLWUUvSTEhhFhGjCBNjejQ1Ey0qfH8o8nblDEFoULfRvUxMjZPz5URqEU6GrOO1P76v0dn3SAj41E2rwbLqmsgD8beBPXsOKzKHOhNAq3tfZScHaD2x/WY1k41jA0djAJLF1DkUm6+mLKVvatFDgJNjRSVh6F3EKVJxZVlRaRMfUdyCVS1AgiWNeNqagSCyWue5TVHP4oRybIvuPhG+3Md41yj/ZeaVgCusmZiQz4oV+FYdNaKrEIIsRQsAHmWee+5fZMw8PTfUH/LGUrq2sGU3C4KBN7qvqB9H/0olqVbVG78NQ7AgQPwVVUQfqmawSIVzR6EgvaLeOfZya3pMlVWV59wQ2/y8fkWD/DXOKDGjz4CLtfUtLHmMmBd7sfdXOPA50omA6Oo2Dl6QRU9ytUWQkDi/TFMC0iK/SbA6pWcOBHDOmNK4cQkQBTl2uwrGlquAVCI/vMw1oIFH/YlsZifc30kTqRjN+0PbZi1YMBixbBXAZivIvoBwATT+6/9+hxwKoZSCMl4f2YHtbmFSa6kXV9lZ67EVeRE5lYpRl9hR0364HgYCDbpafGiPgJFg5dmAYy5SFJMCCGWCWNKgkoEzd9McMJBP/a0JIoxBUHJa8deAsGf6nOOPM6c5uDSItjR8epaapQWwFGUObh67fU49q8Np/qNBE8Bbx5ka5kZE3ZKbk4QetOE+1U/yl1TvccCp8D3LQ9PPhjnzFfbYGScbbeSFkyMn4PYL/q5+iLP28XoH4pdVLn5QlivhSD2jP0zjOmNQVcjmh2Ugnb8BQpG5SBcWKWYvi+MVkNqe7XIQbA3OcrvuDt7Ei1yIpZxZHyxGu1frIX2FFsI48vbwkJSIYRYfK+9HYfTfWy81YwJhZKbLfPec8c3tAFhSv6wNJUoAOj/ADjVD6sXfhxGBfNiVBa7yxUaXSr0upIDOhfxnq59YbRjjfi97cDUl/S57pd+IHh3sldZkEha4sxIkgUnHBmniE6v0vL15H6XcAAOo9ptIvefr+8U8HYPm7cAbKTYaSJkKuHQyyEqityplQpj56D6uwEq/81HxTNPkuxIlX7c5u1b8b8coPj+Q6lG+wD+Q+NYCKN8aUfW+17xevCtV/H/XSe15VMxYRzQ9g5TPOSl9sePpPWgvdTGP4TF+JwHT0Hw+81oN8ZRyme3kzgBixLDmgHHzfn494L6tj/VaB+g5604ptOH2FxwYefP1xPDThClcOFVfEb7lpmD4zGg0ROclSyzXhujsVelmcubGJOkmBBCLAMxQP9BkOaySNabTHAC6GhF1TVAwV0OjR0qzp7WtGazwfMry1RHQAu58PvbCU4oaX2rpt/saGpGb2rM2GB8eKWZlke8qPdUMHB2HX3P+1H/l3Hs9yRvkO5CE4M37qLuOR13pBrrdjf9HyYI/SyIumYc2+3NTAKmLZvxvh5EM9djyXczMBEndKAHU+LYJTmfuTBWfdTsQJ5zvs0v2lyrQBp9R3StH+uGCBf7xWOQZPLKThDu1iDPkeqZotohiIpL0/E3RWclt2IAx6JYF+kL0KWw0J5iQghxJes/BdGObqZX8AwcP8Pk6CBOUwL7Xckv67ncczcnIGhyUv+XfbirzMRXO+gZinHssA9WfbLgYzOmVi32oiwqQEHRfJvNYrSXqI5Ae5UP5QK/mM+chpha5CbL8zP7hS2mMKB3BEjevc8/NpEg+s4AFuKU3FMBmCleBfYH3XR2DDL2rTpKv+5mPGGl+1A/lg9ClDapzEyIGTz32Gk8olL/f3bievAEibxiug+NEXs7QHOZBTa5Mr4OkjVN6kOlBJv8jH+zBXdVBTGTg8AbYT55+xA7qjYsekLsqlUAV9H9cj/OTzZjLsxPe37z9Rf/OQ+fTTbWtyYiKHeoDL8dJVlrlrQSWJdvzTmGNX/xNwlGQHk9QP6XimBtekz9J9st1PVp1DbruHdOYLqhAv9QjPFXu9BuBPPWXQs+T8EJiHS0JldEnaN6MFtsNzwBRPpx3Jf+2up9YewRHU3XmP7dQM1TiDZpNDYFaV/nuWwrh0tSTAghloGZPcUMRn+A6StOGjc9B6A2aVQ3ufBfl2zgqhWANs/0M6PaRyWYGkX1VLUn+2bMGFVtuNtK1//7EC0dT2I6O4m70MqOumYwJ7dRVkD7HpW2Awq+3k4SR1qxrAKt0IZa1QpmGxbgyUdLaN13hrZeH6aXW9icZ6a1qpTXfruRQ3+mkRgfu+z9MQIjQES/bH21jJ5Vg036rF5wRlJULYvQ2JscQZ9ZqZXL1EIj6AlGQLMHUb3txFBSU0uMpsca4NpXhKupMbWdsR/jvMwMkJYbYxEG5b7LM7VWCLF8RU5DpKcv7TFltYna2zdT+sAuWJ1MdORyzy0xw5nv1+N7pp2WvYcwmwKU2hUan6pGe0NhrMcz5/TLmYypVRTk3nc0G2NArrksyGCRH92Ve/Vz2srbSzjN/mJlWnEzCkR70leTtKyCHTfZcFe50wbuvOUKvrXtBLvaGPiBDxMJijZZqH5Kw7wp+33bYYbWH2p0vWCj9XkfnO3DYTHR8OidWG/ZyfSVITPRCszYnmrDt7+Tlr2HMBFgc56Z5sfvRCmsvKBzMRfnarDv3InP38w/vt1K/bPpA3gllhw/53PEd9HTwMdHiQItT8+uQDcSo08+qs4bw5ryVKpvt9M2VELL3iDN5X1QdTDt/ZQVsHePin5AQe/tJHGwBetqE80PFuG4qxJWWBZ0jsKArulo9ghK+dzTebPFdv1DMVQiUOBOvWejSweCeJvU2QsUTZumXN0RSX3/uNR+49NPP/0025Pj4+PYbNnn/wohxFzkb8iVzZgWwKPt6Fpr1ioyowJorlUIjRHOjVXbCHboGftoXAmry+TCtS+c6gdyobSHVfSnj85ZmXcpGEHF9KXkYfa5nx6U5GLmlI/2KlDKvalzla0x7/TKQs0OTm871Z7hrEvRzzd9clto7pW6jJ9VO9aYU9PihaxyNpORVMy2iifMvXKnPgJHm1xL1tBYZCb3LXGl+jx+NjPdsy5k9cnp7zX9/mK8l2aPXFAj+7n6iWXjb1IJXqtl/BkWMn3SiL1mmq8R/kLugUJkk2mAe+ZzM2PImTGPsV1zWTAtFs4WZ0+v0jd+95o36AuOoy/kb6VUimUx1x9Bm8WE+7Z8nPfULjjjutjm+/I2X4PHCzE8AZM/66T0j5dmVbHO9yDwZ24qVsep7PTCCmlSLESupgdZKoDejK61nk9yZL7peMsV9Ov8aRVjmUSASIeedRUlf40Dz7rMFWNXEqPx7cUIT4Bq13HUuOffeBEZ1WKtTTrewuQKh8EJUHt9aed8arWthY2+TV923tMTg97GORM/RmWhpyeG3lHNIz2t2CMbU1N055LpPuy9BFV3F7LS1sz+ZjPfY+bKaNliivmmI4jlLVuMp6w2saNoM6UP7gLz0iZJliIOHT8Nw+1BdvypdVHfV1x+wxOg0T+r19JCV580vnzPrEw27lnBCXC5rE8hBgAAIABJREFU5k60NZcx68t3tir7eU0szvTJmfHUzG0yJRDtkNM9Voi5NO4Lz/p9MuQaQ2bbLpc4+4J/9y6QVIplYfyxtZ/S2XhLKcYc/AQwMBojfnyU+i1Q0tjO+fValoRrXxhrbyOOcieZ/vhtBkqqVLioNV1m73MpRyDcz0UwHfEQ/9jCC7vzMRXNbloorgzL+W+IEEvJSH5eacubC3Glu5LuW9liPKMXVMWaBJX60g4OLkUc6umJsbHjyh5cuRSupM/mlcbTE8N9ovqyr1gnhLjySKXYJbBtLahVO5h+o68kuRJGz+stlHw8AGuWdpTXAWhVFSyHwGDgLMR7e6j+mkLrL1RCvZ2UFlWylIlJIYS40njLFchS+SeE+OzIFONpgOflGIeeq6by3X7IX9qK+eUUh4ork7dcYfrqkEIIsRCSFLsAZsBqs/LJ60BiavWJ+Dlo7x1n8EAridNRrKtNVJbNnmbZ90Gc7v2dxCIDkIgnGx0W2lBrasFsS1WpNWzQCf9+J4f2/pDEZBjrahP19xRhK69mvmaFmcy33+nb+fZ3MjkawkSCknwLlQ+6ObOpNDX9Qwd0V3qPId9QjODzOvHjo5hNCdSbrLhrKmFNsnmj0T9lW2MlXU+HWXl2mFtVGy/7E7RXmWdNv6k+GMX5s1q0nzbDimSgNTCcwJwIUXJTBQdXOvHv76Q0GgJrcunflsNxzjztTitHDp2G1m+0oN04jPoXnRgJtJbDccxPu6l/0UN8VTGdr48zcKCL+MQYkMBmMVH7tanzbZRmNzx0lNaRbXzydhfuTSupeKqF+DlbTtdeCCGEEOJibVyvJCdMfZJIezz4QRzfM+3Ejw9mjMUAhj8G3z4f46N9cHYSswlK7QqVD2up7YxqLOezDbQ9HWZy9BBmUwL3V6yoNfUXNG0zl/0CjMeha38f4ZAPzk7isJjY9UAJtlsrce07Cr2NRICgqzFtylu2+NW8qRQgYxx388aVvHHCTvMf/RJHTXrT6tYjCWJ/tVP6/gkhxOecJMUuwPCpBJFDAbQbTbA2udRvDKhr6cPybhuay4nlhkqC70/S4u9GG61G3bMXVih0HwffYx5KN02g1e1icpVC8PA4+pvdXBXfnTYds20ILIfrqf26kzOrG+gKDLC7o48X1rDgKYO57lcfiRNsqsWZF0etq2CMzQQOBDnx3TZa2hI0POCk5b+4KY35KH6oFos1DzCm6tSxI9/M5sc1BiZMdD/vJ/ytFrx/rcHaZDBxDJh40kftfU5iqxsosU3y8nsJhkM6ankMoyIvCsTeGGBbmTmVEJsEQq+FqFgN2LeiWqzo++1EXj2I/aFkUsz5JTM6duLvDmM+H8CMjQOMMvYeqGfHYFUxcWA4NEz9FmCVA8/BKBM/qWfX7TaUwlrGT5vp/rs+dneEaDfHsWxvSJ1L7wvHcG+ZwPx4LbbTMWLYcrr2QgghhBAXKzIJ/S8HUNcAXypJPd74aoyxH9VRscXC5q9rjJ22EDgQTIvFBuLg/VYrzqsHaaiqIL56M32jMQIvd8N3WtKmYw4Afd9pY5fTwlV31eIfOoP+aheWFbspfvgFjNYiuch1v+E4NH5bR/nXILUuJ9yg0n1ojN17A+xNnKDhjt3o/18tyqttVDzuZt1vJ5NzRvxauiFO8aO7GEsoBA4EGX6sjbamcczTppHPjOOOvG9n8O/fxlEVTsWcCSA0OExtAZBXfJFXTAghxJVMkmLz0CPJiqiZ3DeC+udtGEkc32CCvBGdtqd2wKZkY2VnIXT/QSld366ldMiHqaievsEI6ppJtD1PwKrkjbek0MkDK62MHfZSwgmMpFjex+D9sQvWJhM+1q1OGu8zMTYSxLHApFgu+41iIfhcH+71k+z4YRussOIEbEVO2r7ZSvRIH86vqnDEju3fwFmYDyj0TUKk429ouHUlzro2wIwTcNxSQuv/0crAgS6KH072ZUsAT7os2L461STScfsk/Xt11Inh1EjcwHEwn+rDXlya2m5gAhh5jdvuVwA7zjzAvo23DuvYH4zACjuOPGDt73F0rBvH9uTr+t+JYFmTYPhjC3w4BvZiwmeBt/+R/DoHEcxMvhHkiTILjponARNOwHqzE+83WjkxFsKyfepcVqxJUPGnT8KKZCDWmuO1F0IIIYRYiCDJiqiZSteA9pQnFdMNnIXw3/po3ZmH7f42AJzAtu1Oah/pTsViA0Nx7F8YpWHPrlTMVVIItRYHY/tr4eOjkJdMik0C7RV5KHd5U9vt/IKV0d5Gih8eYyHTJQeGJnPar/5qFOvHQdqeccP6HQAUFzqp/IGNwdfbqLhzkquvz8cKOAvtgIPIOQi2HqTSPknF99thhYITKN7upP4RH33PdVPxzFRfs5lx3J3XwqFeM9roIBQkf6bhs8CbAzjrHEiLDiGE+HyTpNg87KvJ2Gjf994oZzz1VO5pAbOd0NAoxeYEw5NXwdBw2nskuIaxkRCOonrad9phpy/teROw4QYbZw4DZ+OwKvn41g2kKtEAlBXABivRY+BgqqoqW8A0fcWfXPYbjgPH36Kkyg4rphqiFpuh+MXsSZ2Bd+IohHFWuJk+rbNkNbSXlTPwcojimmEgOdJm+5Iz7fUlWyy04SA21I9SngyU/G9EKF0dg9/dmtoueCSKlQjWrZXJ8wE4bi/m0F4d91APpiI7VsBc5GD4dR+Omggx7MTfPUplhY22n+UT+2AMxQ6jY2BnEEv+LiyA78c7gB1px2VbBWzYTDweInnlk5+B/JtIBVJAztdeCCGEEGIhrJCx0X7f6CDxx7x49tTD2hKG3wVzIsTkF4sZnhGLcA2MHk5Q/PAY9dsdsL1z1n4cG6wMQzIOPc8GKIVb07bbsE7hKMBEFPKSCaRc4tD67ZZ59zsJRP9rGM0OrJ+qgDMDBx8txogjk/Mzprz1AXC6jzurS9Iq820rwFGhEtzbTcXxgVSSbWYct/V3IbC6lPDgIRznK8r6BuM4CGHZUjvrmIUQQny+SFJsHpka7dcCbUNxAt/T2BZ4EvP9nRCNMRCHge/NvuEDRD8EB5MYo02xeILoeJSx41EGRsJE3xlIbnh6MpUUW5ljVXqmgAmSK/7ANWmPzbXfaAzgGMp1pSzEmfgZ7AB5s1cWsipXJ0OX05NZX++0AAUlDIfaUMtjRFCIv/4WW281p0r4I+cg+vPXqFwPWKeSaiVbLIRxEOoNpRrub7vJzuDPTVQeDzOeZ8ccGaP0oXzaCh2MjwVQyhP0v3MM19pEKqADSJyD6Mdxoh8eJTwWZWBoGI6PkjzySTKtqhSDBV97IYQQQohcZGu0H4hCZ62H0P42SnY7OXHqDHGgZf8AyYmP6Y4CfByFNcn3iZ+FsQ+jjEdjjI4MEx46/5p/mYT1yf9dCbBi5bzHuJA4dK79nlgPHI1i/SNmvddcPvk3UIhjWrdu9rGtsRCe8XPNZF8B5u1bGewN4KgKE1/hmGqxYZGpk0II8XknSbELdFuhmb7VpYy9E8B5f3LESrOD6m1nrht56BS0/WcviYkBTIBlrYWSTesIfaUU3gxc0LHksupPTvs9B8mKqMvLAji3FzP4dBvq5ChvTSiYT/dhL5pKzr31z8DpPjpPQ6dr9qidf4RUw/38zRCkiNjoPzK6fgfFDMImD85Tmxn9EaxjjPhgBEeRGaOU3ns4xsCPGiERw7IK1lkUSrfaCXxSBITm/RlyufZCCCGEEIuh1AqdW8oZG2ylhKOAgh3mbQofiUPDf/aR+KA7GQ/mmcm/XsGxXSXc68v6urnkEofmvN/LH4YCUHqznb6XzWj/PMzwdQ54ux/nw04uZGErIYQQny2SFFsEFoA8C2Nvgnp2HFZlToxMAq3tfZScHaD2x/WY1k6VhocORoELS4rNJ9f9WtcB2Il9dBSlIP311X8W5JF13RT/cdus97/KfFVyBaSJ6KxRuGjs18li9zUKnMx+jKVFZryUMPl2iL7oOlxr42C/DUjGR4deGcBKnMo6FVanT78MfgjDL3hTDfcdq4Atv8f4WCvD8QjuLQlYsZnNNjMDCQXr28cwn/rHVNKtbxIGnv4b6m85Q0ldO5immv0H3uqe89zmeu2FEEIIIS4V5WoLISDx/himOZJizQcibPigm93eHVjs7tTjrUcScIFJsVzkst91ADfObhMC4Dk0ybqD1dS2PUJyYueUlV+EGGYSJ05gmhmHfjyZ3FqZOz67zQ6BtS4iA376bS5KGMZc5JnzNUIIIT4fvrDUB/BZ9drbcTjdx8YvmTGhUHKzkxAmYq/607YLnIKdLg/jP6/lBMDIONsKSUtMjZ+D2C/6L9mx5rpfxxpg/VZCr0TgXDT1eOgUJN7rx3Z9HplGzIpvMhPDwXDAD0z1ogidhnhvD44iE6zYPOcxOleBaXsx3UfCxAf7Kb7dilHFNXwWEocHcBWA89YdOAudaf/t/KoTVt9JT28czg5gBuxOO4f+AWL/5MO2WQHM2NfDuMlJ8LnX2GaKwKZkcm38Q4AwJX9YnEqIAfR/AJya+7qYIKdrL4QQQgixWPpOAW/3sHkLwEaKnSYwlXDo5RCcm+q5FTsHLk+AwLd3EmOceOQoWzeAxT5VjR8/B4ODg5fsWGOQ034tgPX3HQQjwPGpKv3YOYgcDmHLS4A5PSEGsHUTsLp01s8+fg7CgSDONcDa/DmP0QpYby+m/3Cc4eFuirebYJVzztcIIYT4fJBKsXn0n4JoRzfTl50eOH6GydFBnKYE9ruSDdTdhSYGb9xF3XM67kg11u1u+j9MEPpZEHXNOLbbm5kETFs24309iGaux5LvZmAiTuhAD6bEsUv2M6zLcb9WQH2oFF+Tn9hj9RTfvYtwQiHQ4UNdM45yazMA5i/+JsEIKK8HyP9SEaVrHbxW9Se0dNSxY6KWzXe5GZgw0fe8HzvjlDyoMV/5uQkoKnLS12rCmujDWjg1injoyCQmQpSUlZCpL5d9BVi/ehuh/QEqjxzCcmsxv5ev4EsomN4LY70/OWK6EeDLm4m+HcS9fSpRt/l6CJqc1P9lH+4qM/HVDnqGYhw77INVn8x7fnO59kIIIYQQCxUG9I4AMJU8Ck8kiL4zgIU4JfdUAGaKV4H9QTedHYOMfauO0q+7GU9Y6T7Uj+WDEKVNKmZsWL70Cb6fA3/ViHW7m7HTZgI/D8J/H2V6rLuYFMDypY057Ve73Urj36nUP+bD9WCMRF4x+oEwlg8ClLaogMJV5jj9wOaDAfILP8G+wYlav5POphAnHquj+O5djCUUAgeCWCaGcTWpzKwuy+S2Qiu+/VZM/9CHs77okp0PIYQQVxZJis0jchoiPX1pjymrTdTevpnSB3bB6uRNVlkB7XtU2g4o+Ho7SRxpxbIKtEIbalUrmG1YgCcfLaF13xnaen2YXm5hc56Z1qpSXvvtRg79mUZifGzOXhAXItf9mvJUtAIztqfa8O3vpO8HXZhNCbSvWFFrWmFV8metvt1O21AJLXuDNJf34ag6iLdcwZe3l+DzOt3f0zGbElR+xUrFruZUU9f5FBeYCFHEbetDqWb6USAcCFGxGkyF5Vlf69pupW2/g+E3w5TeOoljvQXf6iKKTgfghuTooBmwFdgZfxuchVPBTokFzny/Ht8z7bTsPYTZFKDUrtD4VDXaGwpjPZ45p0bmcu2FEEIIIRYqCkR70leTtKyCHTfZcFe5IW+qmslbruBb206wq42BH/gwkaBok4XqpzTMm5KxZesDdn54roHOV9vgSCs2i4kn7iri1yV7af2mTvRYGGsBiy7X/TrM0PqMRtd+G63P+zCd7aNovZnqpzRM53+GnYVmmm/cQetPAmj/NIz6F51oBZa0+NVEgjvzLexsrMdsLZnn6JKcVuhcfxsl/08npgJpsC+WrxhQ7Qnivy8K51dkzVVwAviBB9VbT6Zey559Ybx3Rxf9+64QF+M3Pv3000+zPTk+Po7NJl/oxeURPgeN9+m0P3gUpdy71IcjFoH8DRFCfJYZXww0dFlMZZmQ+9byZfy+N2/owlFzcKkPZxb5bIrLydMTg47qeRfvmGnq90jHUZPeWsbTEyPSUU17lV2+64lL5kL+VkpPMXHF6BuM40j0oWy9bakPRQhxXuQcuL7Ridvlgvc6L/n+PD0xdJeL5KSh5L89LhdMBBd9X51DMWKvTi0eoo+Ay+WCEX3R9zXd+Gloea6PnZX1uFwudrpctDxWSWzo0jW5BhiegL4fdZIMWRdX/Bx4e8ZhNPPiJJ3vgcvlpvMbLjgXWfT9XyoK0O5V0dEI76te6sMRQlxCoeNgjgRxbLtzqQ9FiCXnLVeIlDUTG1pY32sFUO9T8fWSFrsFJyDS0SoJMXFFkumTYsnph6PE3g0yfHiY5rKVYMmtzF0Icem99c9gOd3H5BoLA68covhGN5+HPithIPC9AGrVicu6X/3tOMEn67F9IYb2tRIs17sZPw3dh/qp/l43zWV9OGramK8P44VoeSmM9mEAWPwpC/0fw0BHOzRtzPh830AEy5o4hz624B7qwVRkX/RjuFRSAX6TjuPuoEz5EOJzJjAa5+igj9DrY2j2KNzYsNSHJMRlEQYaXTqQfeCxGqDDNetxI7llVH9l4tJ0IH2gsbpj9vtJokwsNUmKiSU3PJFg8tU+KresxPH1Fj4PX7iF+DxIAIdeGWDH2jj9t1dzaH8rxQ+GwFI672sXi7dcgXL//BsuAq0ANP+l21fgFASbm6m8cZKKPW2wIrnCrhNQb3XS/BMXew7W0765Fcv2z8+XsoGzyZWIq7+m0PoLlVBvJ6VFlWRaOOVKVVEA1XaN8Es6jhpJignxeTJ2GgZ6+ii1gvodDzJNWiwXDsDv14Dc+oYFJ0DXPKhEUMqTi6JdzjhNiEtFkmJiybXvtMHOK693gxDL3fBZSBwewPFVM6bCEjr3HyR62I/1q1NJMWOUsbXqKH6qCT3fiulslDvzLVTW1aaaQOsjcLTJRfVTGq0BiL7ZhWVVgtrbHTgf/BNYkflLSKaeFn0fxPHt72RyNISJBCX5FiofdGPelDyuyXPQdmCY0dd8JCbHMQGb88w8UlOKZUtlKqiDCNUdYO9w4dU19JMqwSYX/iY11Vh2/DR0vdBHOOSDs5M4LCZ2PVCC7dZKwJzqndGwQSf8+50c2vtDEpNhrKtN1N9ThK28GjCTAHwHBnAQoeI7tamEmMEMPHSPjScPVzD+/ijO7fHk+58D/cAwo72dJE5Hsa42UVmWj/OeWlhhyWn/McxUe4IQ0dEB3ZXezyP4QRzfM+3Ejw9iNiVQb7LirqmENU4mgermEBvebk27BqFJaK1uQds4SvSevQSbkqPErqYIKkE0fzPJcBsGhhOYEyFKbqrg4Eon/v2dlEZDYK0AoDMChzxuDjZtS533COD5Rifq2QDawan36ozAoMdN+zMu4ut30Pn6OAMHuohPjAEJbBYTtV+bOu/G57PhoaO0jmzjk7e7cG9aScVTLcTP2WjvHWfwQGvGczudAthLnAx2gKMmnDoeIcRnn+dmM9wscagQc5meEJt+jwfmrBYDUnGVa1+YZhpx1PhT92d/Ewtu5i/EYpOeYkIIITI6dGQSMyHsRaUUWQG7yms/j2bsCdXyUpTo87tpqHJSUddA4OQ6PLUtaf0kosDuv+jGeaqLhsc11t1VS8vLJwg+UUeufa70kThtj9Vii4VoqKugoq6BUMxG83fbYCJIHKh+eoCovwXtNgsNjzdwZ1U94XMbqW8OQKQT52pwP+4GHNTeruB+vAFWO2ftKxyH+kd0zhxuo/7rTmofbyC2oYL6vSHC+2qBeGrbtiEY/ct6ar+Wh/ZoAxN5JezuCJEYbAemEox33kLWKeL2FdCpV+KsasVIiNU9EWT8YAta2TXUP96AqWgXLQdHCT5RDediOe3fAjQ84IQCN6VroeHxWixbkiO8ja/G6HqsEvW3IzQ8rqFWNxD4UMHzrRY4FcQC7KopIWKyE9rXBUwyCbTtDeFkGPU7tZRer1D6xw2AQsP9DkofbwDWATAJhF4LUboasG9FvdlKFDuRV6e+gDo3QcK0jcg7U31Ljk4Ap8cYTgDHpz5vfYMRilbHYb0Dz8Eoob31uAvO0PB4Le66BqJXO9ndEWLycGvaufW+cIydpm60x2vJv9NFDBuVLX1E9tejlSk0PN6AUqbR4o/OOreGbYUKR7HDRDTj9RNCCCE+j+ZKiBk0O/j97fj9/tR/zX4/l6JlgxCLTSrFhBBCzBIDwq8O4F4L2G9LVcr0dUDlP78FN6b3hMr71zjev9ZgrYoTsBU58Va2MvCTLoofLgVMxAEtL466Zy+sUHAWQuv1xXT9VSWlgz5MRfVzHlMUCD7Xh3v9JDt+mJx+aOyr7ZutjB/pI7pdhV8O0PygHaU8OQXRCVxzUwmdtbXEPhhDsYO90AEMkn/9/0QpnJ0QA/AeiGD/OIj3x5WwNlnVVFropPYnxegH62n7T32paqe8j8H7Y1dqO+tWJ433mRgbCeIoqmdiMvkT2G6wkesU8b85PMnK93TaGksxb6kFoKQQWvO30fWDSkqHfHD+nM23f2e+Akfs2P4NnIX5gMLAWQj/rY/WnXnY7m9Lnatt253UPtLNwIHktVPzTPRX1tPWXofzSCdtn1TC223U/2kJWEqwAbYCJ3A1zt+1QsHU+RyYAEZe47b7FcCOMw+wb+Otwzr2ByOwws7mFcBX8jn6bhA7MUBh+N04ltURYmctxMfHMK9PXv/4YJit281EsDP5RjdPlFlw1DwJmHAC1pudeL/RyomxEJbtU+eyYk2Cij99ElYkVyNqHUyQN6LT9tQO2JRMEDoLofsPSun6di2lQ7M/j9Y8iLARTkYhL6dLKIQQQnym6SMQbHKh2ZFVmMXnllSKCSGEmGUwCkSCFN9u/f/Zu/+wqO474fvvrcnEHTQdzMMYGYyEdMRdRtYJBY2olSZkqDSp2k2Ye41ZJrbivRG2NWm1PuD2EmpDW0kK6a6YNUNreG5IboM/MsqIDYlC/EEJ3jjuo05DTHUwDk8jjcpmJ3Hz/HGcYYb5wYD4I+Hzui6vS+acOec7Z87MfM/nfL6fL6AM9cuePZHLpHLQvgel4li/Jd9UwaT+u4EPxIDqmw9x7B0PcAJQQkEL8h4KGCr50KwYPKqHOHHs0KBt6vwz8Kd3mGdKDhh++EAM1NatImlRBfNi4VXrqqCCrfcmAKTy6eXeqF7/SeDyW++wcC4wKXAmsoXfSuIsqZx9pz8Lbva9wKRZvr8njlF2evZ9gPOcPw/QBWNuj2r/l4HO1mMsnAQx9wcWpM2dHYPnzm/R3rof7/sw2P5Daf8PiPHs58JfT6a9rd337/y77TABjr3V/96t+tZE+Jt8Vr28n/Z/XcPqB28nJnPw2Rh3t54lgZMkzFbOjYlA6sMPsOdj8LTZAOW8SEtLpf0k8LGSFXbsxHssSQcMS3jvxDEAOt2gOvcHku//BslA7b89RuoKK/5BxqSxwL3TuHwZ/M/R6X+HLyAGsL/tGJNjPLRfGBfw2jnfjocJnDi6P+xrOu96b9DXLYQQQnzRLdzUye6fLmR9Diwo306kgNjmk7BwYQELFy70/Vu3cCGRivgLcauQTDEhhBBBXt17kgTOkpBu8T2WFgvMmMeetzqDCu5PnHxv0DbunTyR9zxcHW6Wyr0A8YG1tHzBmz96SB1kCOXZboD3magbvNC/5wq8f+4yZ86doPNoF4feOQZ08tFH3hBfZP8F8PGnTJ48kYGZXdpYgAQ++qjT1z28fZDkr4R4gGS48mkUe4dLAJcvkfA1GJiWpBkDTJrIBTcoAxQH338oZ86d5zJQ+tuDwMGg5e8B/Pks3JXKRCD/hwvYvPxt5sWcJO2pEgabIfPkFTjb0ITlHiChP3ts3v2xdJLK/sb9voL7aX8bw2aS8Rz7A+7MeXj+z0keyEtj98fTObnHQypnaf+PWGZxEqb1Bwk9V+Dsny9z9oP36DxxloNt7fCnY1ePygVCdeDPA5w9z8HLcPBn1pBtP/sBpHKBL9JkAEIIIcRI8J+VMtqZIUNlkvVvR4hbmwTFhBBCBDh5RcmSugwsXGkFAgMHnRBUcD+iMVGs8xVQgk+e8OtcIfJylAyrkv/nJF2vlgAeJt6pIkEby0O509n9SipK62+8hLsA1X10OXczEQ+hhlB6AMsLB1n45xrmlay+Ie1KhoAC+pGccF4G3ufQZbh89G1iMkMPO/V65xTw8T6sH4N14cqg5duP4iu4n6oFJn2dE8de4+w0SDr3B2KSZzP944n84eUYvvPnTtrbY1l1PzBWqWVS/tZ5Dv7rOvCcJ3YsTI6dyEOzk9nx6SwgfKaXlwwFEUIIIQJ5h0sOpX8gxBedBMWEEEIEsLV54OM9rMxJIDbNErCsC6j95W6aGtqxPKrUhALo/f/OBoUW3j9znm/dCdx1H5xRakJx4XxA4tP5K8D7Z7kvNwYlKyd8tljCZIBkzrveY+KM/scvAAU/2c0PJ7/GiawX6Xp1PeWP30ty3hrfLIIHP4Hdr1SE2mxIdwDceTtnzpwnYUAQy1sfbGJ8UugnhzBtDKhmT2fPW7t54KnALDuv9stw+Z2DxP7tecapYiFmHGf/CODGP7+t9wpw7jwT0+FaAjoTNbHsBzzOE6gG6fQevAz7f13NyrmwmZVU//pFVs14AGIeCLm+B9hjP0gCl7EULgiayGD3B9D+Sjkn975K8lPfIQGImZXKyUO1nJl+kul3noRJTzEtFnaQxrGuLjisIu2f0oAY9l2Agy/8hlVzLzGvsBpUynE4C+x457WIryUWQBvLiQOw4JMuGDu0YzhRd9+Q1hdCCCFudd7ZrDm5eVg3jTafVGa3Dk0Ca+LWJjXFhBBC+HiA/a3tpOLhobyFpKWnBfx7LD2NmJzHA2pCATT9/jJcbvf9ve/P4HlzB7Pnx6DkIylZXO179+E/a+OOty7vH66wAAAgAElEQVQQ49lHcsbgWWepdwH3zGa//SRc6Z8BcP858Py/b5M0RcuJrkskcZnkrNm+gBjAwbbLwOB1y7ySgZj5s9l+ADi3J2DZ9j1dxNLJxL+NnCnlTwU8tvgBOklgxy82B7Qf4MIV2PzSQWI9+5n33QXEEEtq5nS2n4PL724PWNf2zmVUH+9h2ozQAaloPZCmAtU89uzcHzDb4vkrsHD1DnYUPQ50cRl4ftNB0tjPQ0+tZOVTD7GfNA5ueh7/99Kfd7bNhTMg7cHHgs6jxxelwZ3fwtZ4GT5Rhm5+4++S+cM5FYeaapn2dwD3Mm0s8DfTsP72IMmet4m5esy7PgDoZF7WA76AGMDbfwTOvU0kKmBeZhr7UXF+b+Cx3XEOHl+4mq6G4My2s25I5r2gIcBCCCHEF9V5YOHq3RQsXAgnN7P9pwsGrR8Wisw+Kb7IJFNMCCGEz/4LwIE9fGu+CmLnhVzn8YeTse5MYH/jfrSzlEyyfR/DhR+WsyDvO3QyjR0v1bJgfBfJeesDnlv++8t858Iqpn3rMWqPQdfOzazPiYG/eXzQtiUAC556iNqfbuf8s6t4YHE+nZ6Jyr7u6mLig+uZ9sFEdhBL+b/U8tBSuDA2ge17T+D+PzsCRix6M8F27DnJLO0+UqcrMzL6W52XzLrWBaz6ZysL//EMHu0DvLbnBOff3cH6nFj4WmAB/ME8dg90/aAE6wtreHvJShb8/Txip3yDTvdl9ux4G9ztVH0/GdX05QA8PT+Wwn3LWbl+M0sed6PSf4ftbefp2lvD8r+BmNn5Su2xKMX89R3sPgkTf7+D6X87iwcmpZL8j0uwvnSIE/+zkIeWLqHLk8Bre94m9o/7eeinC4Akqlsvw4HnWV6QDLHzmAfY/nE5z79UQOqsamIyVzFuLMA4Xtv5NmmfTmPPx/egYj/zcuYRqi5X8hhIWJTN/t/uwNK6h9gHH2D6NNjNLDi6n2kFyYCKWCBm2n2cbbis1CbTKkMnp02B3ao0Vv1iH0u+H8PlO1OxtZ3n/bdqYezgdduWpKs49Df5FL68mSUnC0iYv4S3P/Cw/3/vZsFdXSQ9vD7oOW+3nec+ToJ2yRCOuhBCCHFr8s8OAyWwxYzvXLf9bV+RCmwfdD0hbjQJigkhhPDZ/tZZYujkAdN3CFX3CmBeAlhnLGT/0Rf5+wtKdtiqHNh3ZymlLz1HzH+/xvKZCSz4fgXEBA4xLH1mAc/tjeG1n20m4U6o+P4sknIKGKxou9fyGTEk/epFan9rZd/GGmJUHmVfKypgbBKWZGBdBXuqnufgRiuxY2FhehLzXizGsqmX9/+jglTOkkwC855awO5N7ez72Yu8WroAWB6wr9QYqHh+OTWvJFGxtRY+2UdqrIqSZ75FwtzHo26zv9XzJ9L+t1ZqX6pl8879eD7eT4wK5iVPxPLjlcR8zW/ygjFQVbaAzfUT2dxoxfNqKQl3qlj/j7NIfdQSkAkXjYKHk3mxbR6lVbtZn7uP1O+/SnnuRGonVbO75kUObqxFhYdZX4ul4FfLifnaAtovw/5qK5ZkDxMfXuXbVmHORFbal2CtrmXljG+QdmcayY8/Tu329bzzbgXv62bxnTtBlZ4btj0L5yfw4m9TaT/QyUMPXiB1bCzc/3Umvruf2JSv+9Z7YHoy+xogbc5EvMNI58XCpQ2rqK2sprRqDzGqHTyUPJF1vypgefNETthWRxwaOXEMVJct4MX6idQ2WvG0VhA7FpanJ4U8b88DJ/e3syQHIHVIx10IIYS41XgDYsvZzILt1XQykXULN7N5YQHrcyB1xbUHr/ozrL8RcpkypY+UJBA33199/vnnn4db2NXVRVJS9DVThBDCn3yHfPl5ZxZan7M7YgfKW7h1+08XwIzlYdcT4la0+Si899OFUnR4FJDfLXGrknNTjKTdbmDjahaUr8I/U363GzYvXw2cHHQb3mL8q9vS+Mb+Al8dsoWbOqFxHRA4qc3AbcuEN+J6GM53pWSKCSGEEEKEcR7Y/b92sz4HCYgJIYT4UligBcrLQz6+YHvw45GU5wK5/TdGt69IhRA3SoezbSFuBCm0L4QQQggRgv/wktQV1Te7OUIIIYQQYoRJppgQQgghRAgTge3lC5DZs4QQQgghvpwkKCaEEGLYUoHt25czsEj9QMtnwPLtMuOQEEIIIYQQ4tYhwyeFEEIIIYQQQgghxKgjQTEhhBBCCCGEEEIIMepIUEwIIYQQQgghhBBCjDoSFBNCCCGEEEIIIYQQo44ExYQQQgghhBBCCCHEqCNBMSGEEEIIIYQQQggx6khQTAghhBBCCCGEEEKMOhIUE0IIIYQQQgghhBCjjgTFhBBCCCGEEEIIIcSoI0ExIYQQQgghhBBCCDHqSFBMCCGEEEIIIYQQQow6EhQTQgghhBBCCCGEEKOOBMWEEEIIIYQQQgghxKjzV59//vnn4RZ2dXXdyLYIIYQQQgghhBBCCDEsSUlJQ1r/tsFWiI+PH3ZjhBCjW3d3t3yHCCGE+MKQ3y1xq5JzUwghBtfd3T3k58jwSSGEEEIIIYQQQggx6khQTAghhBBCCCGEEEKMOhIUE0IIIYQQQgghhBCjjgTFhBBCCCGEEEIIIcSoI0ExIYQQQgghhBBCCDHqSFBMCCGEEEIIIYQQQow6EhQTQgghhBBCCCGEEKOOBMWEEEIIIYQQQgghxKgjQTEhhBBCCCGEEEIIMepIUEwIIYQQQgghhBBCjDoSFBNCCCGEEEIIIYQQo44ExYQQQgghhBBCCCHEqCNBMSGEEEIIIYQQQggRkRswl9hxN5bc7KaMGAmKCSGEEEIIIYS4ZVk7wWw2B/xzbDEHrDPYxbq9B0rMJdBjvwEtHhn2HjCbS0K+JgdgNluDjoMQ15s+UUdVjXPQz1K0nznzFsdNPY9vu2l7FkIIIYQQQggxqlk7wb4h8gWxCairKwYMvsccnaCEhpTH3ADObrSPJQ25DfYesBaWAM6g/bK2GPuGsojP1wOlVRaIM0XclqWuGHuPIeRy/214WXc6sOidaHMqg/bZ1gl67BgetUT7MoW4Zlogb5mBsiYT7vYWtDmmsOsagZb8PMyFZVTmt6DNKb1h7RwKCYoJIYQQQgghxJeMGygqsYPTGrQsUaMi75spGL9bAGM0N75xA3gDRv5Br8EYUglY39UDerpg0pyh7z8OTHWlvmNWmdl/AW/tDGyftRPYYPb9be+BlsLATK6BAS7vc8ItH7iNkkY3zpoi5bmA1VwU8Dx3nAn7a0r2jbnQenWtfpX5erQ5pZi3OKApOKCnHa9iUcZUspY8AerEIR+v+pN92J6vwNPrIEsFBf++GlTGIW9nqEoa3VBTFBQ8HOrz+q7ApqbTrJrcASmLfO+7BSum0kqU0M/grJ3QtcHs2643wFu31gSpIxus7OiB3u1byfq+CdDiAMrMVoqz7RiW1Y3ovvzPv0iKaoCa0AFt7zlYmmPAnlZHUWEJdfHWET8uI0GCYkIIIYQQQgjxJaUfD0mZWYAKAA9w+Lib8tePU9hVROaaSuDmB8auVUu7myScEJd3s5syIix6AgI0/oEzWyeYnNagQKI3UAJdvsd0gCHHiH+g5/CZS1T/vo2zHWtYWlUKY/RRt8sNNLzcTMZXHGQVLSX2jnhQ3Tvs13kzHPgIjtRsgbVDzyq8Wcp3OrD8ycbV/MXrqjRHCzmBgTbzFgeW02VDChp6eYPOED7gVgbQFBhgux7BxVAkKCaEEEIIIYQQX1Jz7gZT/iL8L2SXAis3ddD4VjmZHx2GCdf/Qvt6c7rcOAG7OTAzypuxci3sIbbr/7cSUurPUHMSnMHlf4RDLR+4jXDcgP01O5X5eqLJrDMAlvzcgHUtQMluN02/K2LpiRZIGVpQjA/cPJwNhtm5UT/vZgoV5PGnBepKTVxrwMmSCpa6kc3aCscA1NVZUN7N68sNcNo1ItsKF3ArpmzEM96iJUExIYQQQgghhBhF1IAuUcenAJ7PfI/3XYEtTadp21aF56IL3XgVT2QHDrPsA7a+dZrD216hr+cU4CFRo2LFwnQSc5YBal/G0nP5XeximW97Bo2KlSuy0cxYGtCeUEGnaHiHNTowQFNbQGaJb/goLQHPKdnZTaGuZEiBshs9fDISW7uSJaYtLY66/aEkJWiVqmafegIet3f1Uf9vW+g704Za5cE0XUfesidggjGg/ltZE9Bk9gUdT1+EV+qacbTWwye9GDQqnjBnkjh/KaD2vR+FiVZev70Y1+5fkKWBgoqVoM6goweqN22l93gTKjxkpmhYuiQPdVJW2NfgHb64bIOFqjfA9Yd6VJ4+slM0LH26ACYoQzr9h09az5l8r8G8wYkJO7l1xRSVuAKGT0Zznodqj3f4pDvVEnb4MgRmAjZ39dFQuxW38zB4+tCMhUX3J2L63grc6kTfdrxDaSvz9bhzSoOGT7qvgHVbB8ebXgn7+S1pdJNUU8SMf11N9W8c9B5vQq3ykPd1HabvFUYcTqtLhGizxEINRb5VSVBMCCGEEEIIIUaRjg89OJtsWJJVcHc6oFzEPlvejOZENZZvG9Hc9wR73+ul/I0GLMeLMK37FYzRUvK6i55X17DkwUS09xdw+qKahj3NrKtppTKmD83c1b79PLfTxb1j1vHDJbmcYiq2bXspfc7Gxo0TQNefZTScmmL+vEXnmRScNaON7x8i5wRoslMEFLvM1yUzxX+omJclFairw7zFQaWuBFNdqS9waNHbMZVWBj0nHEsakFNHyRYHpY/aQ9bW8n/NoTh74cBuG6YJwLRM3+Nlv3dz6qVnyZ2hYarZwqmLGmzb9uL4QTmlv7CQdY8JzY9WU/9LG3mpDhJNq9HobsfRB2WrrSReslP4D1l44jJoaDrFmk02it/rwLCsAm8QqfptyJr0Cxb/yIK6xwPqqWw97sFW/ixZCb1kFC3BjZbaN47QsbaairWnUUcYQucC1v2qgdx7VEz956XsfQ9sbzQw4efl5P5yI8oA0n5Z94Dn+6tpfsnK6se1xE7JBRKubqnfUM7zUDTAarMRPgkMIr1yrI+exiqMmXpAS8MZqF9bQlZSD5YVS+i9Q4v9wGms7zQwrm8d6WsqWW02Ur6jjyx3PRlLC9Do4pTsLT/uK/Dsejvqk1Ysiw2o7nuCXe+6KX+9NuDzC3AYaC6uZolRw7gFBex69xLW39cSO2YdGU//O96h1gN5A6Hh+Ad73T1gytRRVOPEVGO+ps/39SZBMSGEEEIIIYT4krI6+wu1+8tLBtP/vRFv5kd9m4e4TisbNyyCJKUulzENGh7IovZHz5D1bj0fpBdyYf8RfpytwbBsPaDCCOhmGalYXsXZU61o5vbvw/hpHwW/Wg1qI0ZAk2LEWliC+9ghtLqRG3pnb3Mo/znXDXHKfzt6QO9sCSi8771ot54zUbbBjOW0GVNpJQ60V2txKcXri5xAjRmLHnisMurhk+FmnvRXBAHFyQe+P8qwyMKIr9cbELEWWrHU6YgUbAiXhZc1ASwbVsFY5blHPgHHb+t5bnEciY9vBJTZA+fMNfLMmgaObKsl4+ksLqUZgaPoJzowpCmZWBW/c6L/yE7pC0vhbuV9zUoz8syrM7G+voaNOc2+IOgMD1j+pQDUSjDOBdhqbBR+vZfMpzfBGCV4Nne2kRWVRpq3VpD7y4cZGNzy6gNWp3owrlACb8Y0KLkzhUM1ReT2OCAu8HmJGkhMNQKvY/yaDlKNQQEmJwzpPA9FBRhTtPhnVtk/BNevSyjO1qDN+QkAzW1OTBMuYFn3Y997kZlm5Hu/0XHqQAWZnMWYYoBDehL/E4xpKYTK1tp8oJfbTlqpWJOFekbB1e1AVcpcaitXkPVuPap05bzqBSq/HYd2QalvvSe/ouN4UxkZT59i4Pnkndk10lBkb9aelyEODDkG0nPqKDNbSd9y84ZHDkaCYkIIIYQQQgjxJRWu0H79yeNcKvkJS/+lBNR6WtuPk6H20HFhHLR3BGzDQyynOlsxpBfy8guLgEUByxPHAlOm0ne59eoelH1lpAHq/lkJdXEASbhd9iGW6g7PAeib2nDq9bi7u9CmKo93nyNs4X1LKsRX1SkBrJIiTKWV1NVZcGO5ptknQ2WJAb5gWXE+lLXOGXyWw0Z3yGCmN/imBQqXGSg6bRk02BCu0H7z8TYur61g1bpCuDuTjhOg9rRy4a8zuDDg/ScWjh/whAyYOIG+A4d4ZDZwd3bAsm8/nEj16wZch+3cvlgJiqXoAXV/DbOjHwJnDsD0eDqOngx4vuavL3PoDCGDW/6Ms2biP5wxKV6rhDf9gqRDoYchnefRcPSBdb2VvIlODPkbfe2tXKyHxS8HrKsCptyXyKUDwCd9MDbytvsAx6Hj5N0N6hnfDliWM1NN6/hsjh60kZGuBMsSAe39swLWm6LTKtMz9LggLvA9dvUAdEXMQOzqdpMEQe+Tf+2zSLNahiq0P3CY8fUiQTEhhBBCCCGE+JIKVWi/AKhu78P2y5XMfWMj6sc3gcvNkT448sutIbfj+hMY6AU0eK5A90d9uP7UheOUi8PvHoUzx7kAKHkoyr5uv31obY0m08rLm7VS3+hmjt5O0mOVdLxWhCnHDWixtzkozoZwWVSmONDVKXWZTJ22sLPceYc+hhMuEOblDQRY9GDIqaQ4R0uZudsXjAsXGIs0+yRXH7UUmSgrbKEu3Rq2/eEK7dtcsPWZElprq8l8xsjZDy/RB5TXHgGOBG2nC+AjF0wIPJ7/BXDxM3QJWgYGieI0ADouXHCEDYK6lSruVO0GdpcHLe8FcA8S3PpK9MGpoYj2PB+M+wr8otyO/pKdRessMCY4wOfu8+B6v5tTZ1wcOebAdeywsuDihUGDYpcALl9Cp0SlApZ9dQxwt5YLPd42w+0AY6IPBXWfAz3OgKzLoVCGDddTmlMassi+qanspg6vlKCYEEIIIYQQQowy30xT0zw+i5PHbBgfVwaQDQzEhFJxwM2Rl8rA40YzFhI0WrJm6rF9mg60Dqst8Xp8+xwsO2RgAX2ny03pYyYcqVrqN5gw9XTgiDNBUxuGtZEzTPqzWEaWr41Xi6z7TwDg3ad5SzpWc1FUxzwcUxxYs/Owv1aGKTV3SNvI0sHWGTmcaqsiky5Ae8Myc0LxP0a3gpE8z6ua3KhP1vKTtSa4O/DYtn4I1T+rwNNzBBWguVtDZlICrV/PgndsI/eCrkG4LLBoOACa2nBnO4POTmsn0FSGZa2Jm1lvTIJiQgghhBBCCDGKaQDiYjn1Dpg+OQ1jQwdXmnvhyG82Uzj7EpkrKkGlrOcCbIcbhrXvrm438cNrNgB1ywyAAQNQn5+LY2cRbekmLHo7pFZew5aDg1v+BtbpqszXU+TKgybl8cEmD6hbZoBldVg7wWzuHzZWnA3oom938TID9WYlGOjChJ6uYWX0aDUaWgHPe6dQDSEodgfA+NtwnXWjGzCksKcXwIV2UvgZDTWxAFpcf+xAd4sExUbyPLd29uGsWUflk1OCJgzoBapebibzkyMUvFCI6u7+SQ9aX3cB0QXFxgHEjMOljH/Ev/7aX64AH7rRpoESNB1YQS0yB+CssVGYrydS4MrpcjPHL7jt1dYJJuwYlgXOluoA7Busyvl+9bhYOyG97fpMgBGJBMWEEEIIIYQQYpR582gfXGwmab4aFVoyH9DQ+o6KvDd3oV2Q4VvP9iHU/6CE9Uv6OD1lI+Agc16WL1AA0NIFfNgC44feDqfLTV4iDCdTaqC8HC1lZhM0mZXMo2vYpnmLA8vpMupKK1FCXIqBNcX81QH2R5VaZXacAYEzb5DM3mMIOUTUP0urvjH6wIUBMHiz3Xqif33NHwJHG5k6AyCJmTNUtKoyabK1kpue55up0H0Fin5qY+kn9eT+cj1KRarAdqvnzmLXbhsZjzf5Cu0DvLH3NBocaKctChuKyZgM9ZNNvLFnKwU5Hb4adH3Ayk0dzGx/noJfrwR1RpgtjLzTf4KROM/tH4L9Vz/HktyH1hQ8ecJZgM7TzJlPQEDs9BVwH2zhq1G2Vw0YZqWwaxOYjr7hK7QP0Hi4D9XFJpJTh3f86hvd6LGjTRt6wNIN2F+zBw1jdgNlJfagYFn8JDdlTSaKubGBMQmKCSHEdWDe4qCY4MKnJY1u5rRGriEhhBDXS6SLObg1ansIIUZWy4fQXdOAfwbP4TOX6D3ehlHlQZ+rXKzn3a+iLXkJz/7OSt6pIuLn5tFyxkPrdjumCadJfLCYqR6wq4yseaGZvHw1feMNNL7r5oMD9TD2syG3zTu0arBhjkNlAkhNH/LzirY4wGmlyAmV+fVoh3lhPnAYove7N9zygfXCRpIDsNbYgLb+x3o8uI4dRkMfmd/NBdRkjAX9P+SxtaaNkz94lqz/kcdpTzwNe1vQdLWStdbEwICY16q/11N2yMSaH2/lkX84iycug4amU7iP2ijO1kDSI2HbpwNMS7Owb9jF+/9UTl5+Lm6VAdt+B58dbWJR/pQRD4iNGwswjobdBzB+OhV1WkrA8qn3XPt57vhEKayv8zjRPmSi46gLJddMcTuQkKJDNWMqz79lx6JegyYljyM9fbRua0T16QcB21OPvYO9TtC+ZSNlWjrcHfgbvXyuhmebLax6zkre4h5U9+Wy6103p39fiyUZ1DOfGPJxsveAs6ZKmRE1QvagUhbOhW5AcLujB3C2YHgs8LlFWxzonVYsVRb8+xqmOC3day2UbbBTqSsJO9PlSJOgmBBCiJAcQJnZSt1aQtZ48BbDrcwn4o+Wd+iB/0xOw+EGqkrslBYRsc7IYOt4X1dlfldAe7ztrHuse8g1LbzTUN+MOhw3c98DhQsGew0WkPkyK2l0k1RTFPTarZ0Q/5p5yIFy7/lanGiN+m5quDu2Xt6L09xBhkgIIb5YnBfB2dgc8Jh2vIqCB6eSZX4CxiuBDu0YqFxnonqblvqmV/AcqkIzFiz3J2KyPAfqRDLVcOmnhdT/2xbKNzWhVtnI0mv5yc+WsXK/llP2kojDLwfyDq0itXjwlQfhzT4pzrbTll6H1Rz9701AnyZCUf1bXagZN12AqzFwNknNWFg0PZG8/DyI658dtDRHS/3dldhrqzlSWY8KD+lJGpZtsKBOCt/HMKjhuXILr9QlUlVXD580Y9CoWF2UjW72d/GfGTIUS6qaxA0V1NdupXxTEypsTI1TU/yjbLRpS4d1LCIxjgf94sXUv/Fz3j1aReG/Bvb7MjVRnucRfrddF4GPunAB5b+xgzIfpo83MLq+yETVv1+iel89qt3lTI1T83NLFm/e9ROa/mUlntPKcNZlD+qpfjeT8k12inOaIf93AdvTjoFfrTNh3abF2vQKntfL0Y1XUbwkHcOCpTBGM6Rj5ACshVYseifanMjDeW2dgNMaFPxqaXdjwgmpeb5tlpmtgJ3StSZfvzXUMOWiGid18eEnkBhJf/X5559/Hm5hV1cX8fHXMsJbCDGadXd3j4rvkEjTC0drZb6eF2uSGPiDORR1a02UdOeGbEtxNtTrKgdtp3/9i8GCYhBdkCNUUMzaCfYN5pDrh2qL/3ZwWsMWY/W+F94ZqcK1OVwQqaTRDTVFQw4w3cwMwHDBlqEwb3H4aqAMxcD3KFRQzP8csXYarmtQzL+zFUlxvp6y1jkha8R4z62hzIAWbhtekQJY3jYXZ9uHNFQgms/nQJE+dxY9tGQW46wJfR4MVhvny2K0/G6JL54v47kZqn8wnNkn/bdlwer7LfZuy6J3Duv3OVI9sXDq1pqwT7KEfA1DGT4Zrm85WCF875BPGZEgroW3j2HCHvTbH66vNbDvHa5/E67P6d93Gs6NP6/u7m6SkpKG9BzJFIsgmi/l69FJ9HZab7UZOG6Ujh7o3b6VrO8H1wHoBVZsaIbOajatMKCZf+13lYS4VqU52pDTCw91+OScHDBvSQ94nv+FrzvVEjLjygHUm60wKZ7SVKUtoS6YDRDQzsGyegaKFHAYWGw2mu+vSN+fA4cZgHK0KktNFJWAeUNwMMA/xTtSRpp3inbzTh00hQ4QmAutQGAnuDgbDMvqwnaSnYDVHDroeD0DCuEKm0bqzIdqj/f1RSvUexSKvc2BJUT7rof+WcQsvs9FaVU85p06KnX1AedFXQ7414jpP7/7+V98hAvu+gf5Qm0DlN81vbMF12MWysyh+xVlTQSdj/77DxfQMm+AcEFA/8+Ct6BtZb4eW3xpUHDS3gPOwhLq1pqwYhm1GX3XouytXhybVlCQCllrN3G1dPl1MTDjdbjB1WicvggdW+ws+oEOMIQMPlwvDe1umnfX43Z2gKcP7XgVizICs5tGWt8V2NR0mlWTOyBl0YhvP1I/d7Tp6AELLWhzAmstDXX2Se/5b9HbA85JUxyY6kqx94A5zHevV6jfQC1QV2rC/7ciKj0jM3xy4KyUA9cJda2qB0xVFkb7uSWuTdkWR9Dnycu/rxVJuPW8E0xEMuzP3jBJUCwKWclqVPfODblsKgCxN7I5X3rlOx1Y/mQj1IegoxfUna18NkFDq81B7nwX/rNrCHGrUGZCCv7C9wbQhjNkSguQGHy+u3ogiS6Ii752xnBqeHh/3KydwRfM9h6gsgRTaaG3pUF3OYucQI1Z+WSvHV5AWwsUl5poM3fjoP9y3Q1YK+2Dpnjbe0DfVI+hykJd3OA/ypEMFnzzijZ4NBzhajj4G9jOcO0JFZQZTKizp6wJX4FU73lmzNeHbd+tzElwgNR7HvsbGBQeeGSsOx0UZzsxpJZiqht+By/a4OrAC0b/IUXanDosgHVtHfaS/u8gbxtJLcUClORX4thSdMNngPqi6gUc73SgmaDmjc7PyHK1gi530Od9EWxpdZN0yArcuBuRrivwk3I7dFrJnqHFsCKPvju0tBx3U73PxpsH1lD6CwvcPfIXTAc+giM1W2Dt0DINohWpnzvamOKA0tKgx083zIkAACAASURBVEx1kX9bB14w1ze6IwaEo9nmSAq1P0sqcHVYZqjlAx8LdcN14Do3+nWJ0SPcdcyXlQTForDoAR3anBuXsWVJBcsXeCz79fTGARdGHPA/Ctj2Gyu5J9+E5JEfZy7EUJU0uimkKiCDZOCUwv6ZJulphZRhocUcPFQvdHBCWa7XaXG7nAHhhe5zEK93MpSgw7XU8MhNhSK9BcxKMW4HBqyFV6dU9uPt0IWq4WXtjH5/4TKe7CEyZKwEZmsNvMtq3enAondCXPAMQENVVOMMCo6EM9KXPgMDjmVOAs6Zynw9DLF+21Azxfx5g7wkWjBlQ1mTibp0K21YADtFNQQcq4FBpIHv060g0sXGULIs7T1AU/2IFJG2EyoAF0GmHlBqfViwYljWHzC2pAKpSvutnWBqKsNQ1/99UJqjZTR1iK9VqwvofIOlK4xUvQzO329D/+SNC4pFe+d+JFzvO/h9QMlLHag7rVSsMaGe0f+aMtOg9dsmqlZXsXW9laVVSTBGf13aIb445PtKCHEtJCg2QrwXbasTrTjSNtG06UU8vQ5041UUfjedxJxl9KHmqedayfuwikUvbMQ/w8mb/rppxR00TCgOGD7prRdz29pCbBWvo8FFxdNZqNMLOH0RXqlrxtFaD5/0YtCoeMKcSeL8pYA6qnaB2ldjZ9kGC1VvgOudWtQqD4UP6TEueYb6EypsVRV4eh1k6lQse3pJQLFF9xXYXNuB483qYbfDjdp34eu9sPXPcHABrt8fYfEMuD19Jq0qB0f2NZGRnAeo6AOeeq4Vy+WqgIur8gN9dPzmKTY9pUfzsLIt77qr1FVkFP2Ojo9U1G+p5/TxZvikF7UKsvRalj5tgQlK8clI70NHD1Rv2krv8SZUeMhM0bB0SR7qpKzreNaJW8mcNCgqTKKSEmzxpdg3mMnNN6F8OwRe6Gvjk9DGaakrNWHeosPdXo82p//z5B+cGDgcKylei6vVO4Dlajp9m4PiIU5l7h1CGK7Ytv8wSfMG0GOHbBPOpv4g1MALdCWYpwRq/DNa2jq9awdeuAx2ge89IpEuwLzfnXVrkwYdrukNTvg3I9paWqECRjczU8w/49C/Ppr3vdPGE3bq80iGWlvMG8yyt7mvnoM60oH4KgvWyhLsWAOO3Y0otD9wmKH5avyzCKDGPOiwnFDbCKUMImbWec8P604HSs6ZknUSbb2cUO0cbqaYJRXsk+oGHT4U7vM4WuqJXQv7YRdGXKSnLUZ1/HYa97Wif/wIjO2fMc3bj5jxr6up+rWDvpNN6Maj9IOyl8GYEP2l32yEi07SJ6tZ9j/zwha6DjV8svcKVG/r4HjTK3guutCNV/FEdgrG7xb4Ci43d/XRULsVt/MwePqU4tv3J2L63gpQJ/q+E5wo50dxNmiX1YUcPlnf7sZeZ6XvzHHUKg+m6Trylj3h60cF9TX/UI/K00d2ioalTxf41mt2Qd9br/CTBeqAgJhX5gRoWbKUD7Z1wIddoNP7Xkt97VZ6j7eG7It5j9Fz+V3sYhlt26rwXHRh0KhYuSIbzYylAZ998wZnQD2dwfq6W51gK1lBcbYHw7JNeGd6XFHrhF0llJSYeKYuPmw/VwghxM0hQbERVt0OmgNrKDAbuXTnamrfOMK6mmb+/S5QpxeSOT+d5hdg0ZkjMLm/TkFLuxsjTjRphfB+8HabgfiKalbnZ+H+ZDFqvRpHH5SttpJ4yU7hP2T5pr5ds8lG8XsdGJZV4J3pI1K7VOnKFYMLWPerBnLvUZHwIwu72jyU764lo2cj7mM9/DA/k1Pk0vCqDX5qpXBzLIzNwPEJ/OJHW4m/aKPQnAVxGex6182aTbVDaocmvZDVZiPlO/rIcteTsbQAjS7OdwzePAl8uAvjd42ox6pRfSOLvU2tZCxpBU0WakA/Q8/RGjBddMJ4pZN2/FQXAKdOOMl42AOo6LgIHG3B8LSRI30qKn5QhfGrbeTl59I3firNx93YdjdAcTlLq0p9dyFDvQ9bj3uwlT9LVkIvGUVLcKOl9o0jdKytpmLtadSjsC7caGSK00KVhaLCEiB0TUA3gLM74DElPTn6C834SdDt1OMNtnmHz2kzo79TPljmijfjwIEluJD3sqGfz/Y2BwA2F+Q2Wn2Zt0OtKXat+oMT/aKpaxDOzcwU8+rqvlpPzG/mqGsR6nj41+YKFUhSzsEO5Ry8OtO4KQ6sj5Wi32DGUHTjvwNNQHpdMfXmtoCaYh1ppVFNeT9Yxna0mWK+QKx/265huMtwM8UG2+9onhV0JDivgHvPm+TNANV4I1lz1dgPqFh6aC+a+RkB6x4GmouryZuqQvOjAna1XWJNTS3FHx7HkF+JN5BS3Q6qt9dQ8NhULt21mtodRzi+1kplSTeqlME/U+4r8Ox6O5y0suTBRMbdX8iudy9R/notxX1rMORX0nBGRf3aErKSerCsWELvHVrsB05jfaeBcX3ryFxTyeqHErD+dwHa31eT+6M8Ev6vRDwh9qdkrz7LohQ1U39k4UiPioa6XTh+UB4wzNG/rzn1n5ey9z2wvdHAhJ+Xk/tL5Yax/bALLS70WXkh9qRYPV8D81/2/W3t7MO+YRVZU/rIKFrCKY8W27a9Iftiz+10ce+YdfxwSS6nmIpt215Kn7OxceMEsu7JxfP91TS/ZGX141pip+QCCVH1dfP0alpzVvJiYxmb5tWDfilbndC7ayOlj2iIS7Gw2uwO288VQghxc0hQLAqRLnwGZg/EfQSlLzwCdysp87qZRsosKk512jGkFzJzhopWVSautmZ0V4NibsDZ2sGq2cD40DWBPMC65TNQz+7/Ua/4nRP9R3ZKX1jq219WmpFnXp2J9fU1bMxp9tWzGKxdoGRPrU71YFyhBLES0+CZE31caKvnuav7MALusSm0vfAkvHccUjKwNrlI/4uNwt8UwvhMQElvr5o+F+sLK4bUDmOKFg7pSfxPMKal4J/50tTiIJM+1OnKHb+sdAP2JhW9R1vRzFceuz9FSwNaeP8UpGbiBDyHOtBM0HDyWC8ZfADoefe4BwMdqKcXcLi9F/1XjrN63RLfBV9mGjwTa+BU7TPwURfE6UO+Dy7A9jMbhV/vJfPpTTBGCf7NnW1kRaWR5q0V5P7yYaTu2ejgDbpY9EBq7pAKY0c7sYYuDqwkYelsg1SDr4C3tmgOEDyszrsv/++qlnY34MS8wUnxWnC9BqbSXAbLNIt2Fib/oXAOQN/UhlOvx97kxI6Tuni4EUN8/HmHh3XlW6A1+lmkIrnZNcW8vx15flmCrh7Q0wWT5gx7u+GyxZSMq/5j5w1qdvQY+s9BV//6vmzEIczieSOFz4oLVXw/uJB9uEwx72fZV+cuH6w1I3MMhpspJq6vluPAxSbS52cCatJTwK7KouMdO1nze/EvuN8LFKeBYdlzgFrpb2gNWF99ho3ZTf11yD6C59bO9AVzDDONPLNGS1NNfVT9ivp3PXCylk0/yEQ9S+nnZabBM3cZaN37EwyPH6W5LRbThAtY1v0YxhqurmPke7/RcepABZmcxTjFwOuTU9ABxjQ93jxlf8294KzZzOr5t/n6kEbAkJlJ1dNVHNlWS8bTWXiz+v37msY0KLkzhUM1ReT2OCBOh9vtJgsgPrpC+s4rYK/axlJ9L7k/rYQxWozAzLlG1qypp3lrQ8AxM37aR8GvVoPaiBHQpBixFpbgPnaIxJxcElONwOsYv6aD1KtZblH0dVW6XFaaDZQdMdGw2YbhuW9ie/5N8ib3ojdvVPYdoZ8rhBDi5pCgWBQiFdqPvS/w71lTgLv7A1vaMcCUeFynlW7EjLFaVDNncmR/K4sWK0XiO3pA5WxhxqOZeO8QDqQH1PoU399OoO/AIR6ZDdwdWMjn2w8nUv26AddhO7cvzo2qXd4fZeOsmXizum4HGK9m1h2Bz01KVNFKIlxROt6ulqPMSICOUwAdvvVUl8GFBvexQ75OXrTtGOjIJ+B5u5mZc1UwdgYAc1LAPj6bVpvNV3DfMBnqx6fjPNaMPtVCVw8kXjxFyopHOLVpG/QoAa6246dYogc0KRTO1cDcTUH7NEzRKa/mk76w78PRD4EzB2B6PB1HTwY8X/PXlzl0Bl8nT3x5eYdD6XGSV2WhrLAbU6cNS6olINsk2tnBItUUMwBkp+PurkebqtQTS8IJccod9YF1vAbO0OgAnDU2LPl6rDVJ0K2EOYyNVVEP4YgUDCppdENrf1CurRPmZNtxnrZQmQ+2+FKsG8ywNvpJAUZCV5uD0ioLJe1G/AM71zJ88mZninkzDw2P9W+9pd0dcD4M18AhvAMzxew90H014yowA8nh28bNLtIazQQUkYYq+4smaD3w+R09UJzYotR2q+l//FqGTw43U2xgsDycSNuOZtjpaOQBmg8cIVPlQTVjJgCGMaB+aA5v7LYHFdzXA4ZHF+HtawE8PFeH9VU9vcf7+0uL9KBO7X+ebgzoH8zkUE09uR85YELkfkXb8VNkqTy+G4leGxfrYPHvAKhcDCx+OWC5CphyXyKXDqD0f8YOfgyOHOtDiwNjbl7A68ocD1seyuHw7lYylh0FlKw5/74mKGUB7ADnunHHAS630hsec/vgOwcOdQEXm8lelglj+vuRiWPAkGvCvqmBXL8RGhlpgLo/u1ZJ1krC7bKH7IVG29fV6nIxjAXT00toKD2M/Qfl6D9ys2jdUhgj/UAhhLhVSVAsCkMptH9b6JiWjwrImptB8wGVbwhlS7ubdJUT1fRHom7TfwFc/AxdgpaBgbQ4DYCOCxccvh/3wdrl85XgFQc+97YxcDVkplyUfeDGBth+WRVyk+4Pe4fejgH2HupF5WllRkZ/4FA/BtRzZ7Ftt81XcF8PqGYZcbTZ0C9xceq9OFLGOzHMfRLbppl43jvFB3EmPIc6MHxLi38Qru8TOHnGxWmXm+OdR3G8e1hZcKEXJodul1sZN0TVbmB3edDyXgB3N0h2/Jeab2Y5b9Ak24GjrQzDgItoVw9A16BB4MEu1E3pBjpeK8OU41ZqOYWpDRZKfaMbE3Z0OcVQ04YhHkyPWajaYKY0zR7VBe9gwaA5V0dsuYGu1+zkFlmwXq3vbUkFc3Yxpra2qNobbXaaeYOTUNk8oGSulZZWohyjwByHaxk+ebMzxdo6r9Z6m9R/njldbvKGcD6EEyowGypTLJJI793A4Mv1qKvT0u4iL9sJGNDr3L7zVjk9gzPp+guVBzNvsBPu/AqmHBlTHLCs1C9MiO/x4Q6fHG6mWKhZzCKR4ZTRa+0Fz4G9ATftALJm6rHtVgcV3E+CoBtl3qDM2TP9QZlQM8r6gkdnu2FC+Db1Ap73XcRPISBIFI67z4Pr/W5OnXFx5JgD17Gr/Z+LF6IKil26fEn5XIW4AajTflX51r14of/BEH1NL+8syx4ncOVTGDP4/j/7T9DSh0qXELz/CRrlM+jXl7s9ulibz1D7uktSVBzIXklvUxklSxJ9oyOEEELcmiQodhN4M5xcR1u4ffIinK0dPDIzsDP1RTPYrGXDKfjs5Z3mHODJja1Aa9A6/gX301Om8m4TLOpx0HZCxw/TIHmMHma4OXWiGqcO1Bfb0E1XsgecfVBaVo+nqwEVoIlTk3KPFsNcE44BtWDCiXbom/hy8s+IKWl0Q1MZbYBhmQP/C8qWdjembCctTSZMPR3DzrhIT4WyDSZotKFv6sJQFd25580SK8zX48YAKIEpb6DKsbMMw7LB2xRtplhVo5s5WCGuEv8763XLDFg7Ddib7IMW2o9UZN8/6HIjP4Ph2mTe4qBSVx90bPynYR9J8ZPAjh7HTiuGZUqRfZrahjzL4cC6dAMDhYPVFAsn1HG6UcEWO0CN1XcsvEEhew9R1RQbaDiZYiMt1Hnkzdiz1OXhfzyv9+yAol/r0V7AQcUB4MCTQcsb9xFUcD+sMYPfOVQyqCKv4wH478F31/ohVP+sAk/PEaX/c7eGzKQEWr+eBe/YBt/AdaLXaTkO0H0aJoeul9hwBg7/bA2rntTBuGufTTga0c7Q23MF+k4omaBH9p9m0QKXZIoJIcQtTIJiN4E3w+nofhu3zXKhcraQ8ZhSayFadwCMvw3XWTc6PAHP7ekFcKGdFF0thmsRC3C3BucxMKAMYRxp3mnO89JUJH7zhwHLeoHquqPsPWD3Fdy/P0VFFUac753Cc7SP5O8aUQPaqYl8cNjDu3d3kDXeDfpZAPz8fzuZ0tXAM6WL0Oj7hxxVHfIEFUgeSBMLoMX1xw50EhQb9cxbHOibyrCstdCyoQV6XBCnXKh66z+VPmbCTHrQjJNDYQD0+blYa4qU+mVx0V0QlG1xYMKONqc4KFBtedRAWaGeunRr0MW/tU2pjWbJBrBEnSmWBJiKLLjDZMRda6F9WyfgtGLJN2Hd0IWlLjAIGY1oh5V5A4HeQFxxohWW1QUMUbU8aqCosJ5ilznowsm8xUFdetuIBu5McWCsK1VmgSsx05JZjAk7pBYPa3va+KSIx2NgphjcukPqRnq2xOFkioUTqU7ZwK14X4P/LKMl7UbmtBZhKq3EFKfFnJ1Hl7kseKhlD1BZgqm0EDfaqDIuB/IPWkcbEBhNXIDD1opRBQ//cx4Q2O965WgvrU3VAQX3laypv8B4v+1czSJOui+FS1cf+0sPKNVe+4cZdnW7SQG4Z2rEdmkB1X06ut8ErrgDssWsx+HkC0+ypjiPqlo1mZ8coeCFQlR3Z/rWaX3dBUQfFBsXM04ZDNzjCsqsd7n/wkyACVo4F932Zk3XshUdzuZd6J9cFHKdljYXF3pPo70rhdu+Am7UeFxnUQ3c/0e9yruiHX7trqH2dSt2uNCdqSdjxSLqNx0hY0cFusUbh71/IYQQ15cExW6SrAf0HNqthp17yR7vhJTgu4uR6FECa7t228h4vCkgNfuNvafR4EA7bdE1ZWhFQwfoHsxgV209pqNvoJ5R4FtWfbSPwxUrebFwJqQXhN/IIOyHXahxsejRXEgOvmPYevFeHJvsuA68ge6RLPTjAf0M6t+sRfuhG3Xi/QAYk3W8+aoKV9Mr5M1SAXrcQJ+zi1lTQKPvr7vRdwXajgw+vCtjMtRPNvHGnq0U5HT4alT0ASs3dTCz/XkKfr0S1FHcIRZfWN6LXD12SqssOOJMOOmGc/1DZ22dYHJaIbUYEwZsG8qw5IQP4gy8cPYWzK9ba8KdasHZqmReGTP1RCrUW/JaF84NZkzZJmiyY1lrCrlPUxxYs/Owv1aGKTUXN1rKSpRAQDr9M/FdHRjmy7gprZqD9ZwpZPaPJaf/GSPNAdg3WJUL9RwLJbixlxT5CvwPhf/EAAMNHIZm6wS904qhyBJyWJyurpR6sxXDo8pQVO8shab0Oko2lA0522ow3owg8xYd1JRRmK8Uwh4KN6B3dsOkeOgOPh7+mWJ2TL7MJHuPYVhZVzdCpNpb4YZPAgHntf/7dD0yxSJt0z8o7Absr9n9Ji0IHgJcoqvEsbMIw7L+z2Zh1RyKmINuSxGGZXUBmWP2HtDtLMGwTGajvBZHzgBn7CxeoEafFhy86b0PqptaabU5rtY+vZ0OwH2gEe2C/iBUwx4nBpyopxf4gmKNRyHzw2Zf/855BZw77RSkAuNTBu4qSHrKVJobVeS1NaOepbyHfcCBAx3M/S8PZxOmQGcbc+YTEBA7fQXcB1v46hCOQ8Z0NdUY6LDtwrjChDeQ13oR+vY1YkhXwZjkqLeXpYP62Xls3F1BRaoV9YzAz0lDVx+u7ZuwJKsg2cSsK2Abn0WTzUZuep4vCHj6CjhsdhZNAO4e/JiFE21fV51eQMMZcL1aQekjGvTz82h23U/FqyVsTG8ImHVeCCHErUOCYlFoOOhC9WH4jq7lwakwOTPs8lBm6ZUfcJpsPLlADWP0gz9pgFV/r6fskIk1P97KI/9wFk9cBg1Np3AftVGcrYGk6GuUXQvLgzrK9phY8Zwdy4L3UaXk0XLcTcc+G5Z7P0N9/yJfJy8a6rF3sNcJ2rds3DE1HfeeDpZOBpK/GXL9h2dpcLycyZs7W1m6wIl2jB6t0YDjVQ8mlRMmK9lfU+8BOymoXB1MNSvvlxbQTEuifhfwQhnxc/M4dVGNbdde+PNxBsve0wGmpVnYN+zi/X8qJy8/F7fKgG2/g8+ONrEof4oExEaBsi0OLHp72MCKN4BTdzUglZsKRXoL6VvKfJkX/sW3ywBTk5m6umIcWIIK5hdtcaB3Wpmz1kLVhpagWmD+s14WZupxlyoZTZX5+ogX9sXLDJSZTcQ0VmGvSaKuKh7iQmeGWHc6sOidSpbagLv/wx1uFy1v8MGit2NYphQrK83RYnYVwzADY9EIDk4EMwCGq3Wp/IclWlKhJL8Sa2ERljod3kCD9726luGf9h58Wa1FNU7q4oOz/SJp64Qk7BDXn2EWKpvJP1Mst7Ee0kY+WFLS6CbPVXTNGUnhMsWGO3xyJDPFhso/EBtOaY4W7xBu7+Qb2rg8iksNlJm7qdSVBA3rLWsi5OMieruanehwo39wacjlmRqwzn2YbQccSu3Tq+fGs79zssS1hnH3P0L9gV76DtWzPF8Pmv6bc05gzZqtPGI+S++dGdT/r2b0l46Q9ZQF/9ksw8m7X0Vb8hJWvWAlb/FfUN2XS/2Bbj47VE/uU3pUYwyoZvyF59+yY1GvQZOSx5GePlq3NaL69IOAbY2LGccBYOrrNlLSPoUpgTcoszTwZv5yymueZVHPKqYuyONIj4rmul3oOU3mEgv+GW+DUQMl38ug1JXLiudsZM/owDAvl947tNhbT3P6nQZMEzyYVhcDWvRjwFT4XbZuaOXs2mfJ+M4STnm02LbtRdPTwSNrTQzM4otk3FiAcTTsPoDx06kkpqVE1dd1XYH6ygZME1zov/v/s3f/0W3X9+Hvn6u/+cxFWb6ItNYCSmicpDIdFm5UrzYUJb0I4sg7WHRLgBpGTK/ltLO5YNqZrVjz7LSNVuryTVQayytOVkRJ3IGUU8uGmBKbErvXU2bkHrAGUb4kanLk76XqTaMtVzn5cv+QJUuW5B+JQwJ+Pc7hHCJ99PklyXp/Xp/X6/WO/z2t/8t17Di8iZd27eeenX8OeTekjXP/rKgU5U8l8CyEEFeSBMXm4LXAf0Ig92C4Zj3zDoqtAwo2/x+cPdDDuvIvz7p8NjdfAzvtNTz3wmfY/cJ+OPcaN1+r0PTIndxw618ynwHIpbj5Gtj5VA3PuT5Dxy/3g9dOwZ8oNJk+y+ern5xTk9dUX7tjHR1Hb8O+52Vu/vwv4Q9/xG3VN5MrXf3P8+EaUwWved/gwXeHQbeO0uIb6DlwDX/2hf8E4mUG6/4EuPFmSt/7d5TiLyZfv/O+dTguNPHTX3bA8G4+c63C31aW8v/e9hS7v9HFb9/7DTfoc+9vjf4aPvPddva7fop9zyEUevjsp6/hyW/dSYEh+0BZfLxkm2VvHcCK69NmnEQfX6YAqHlkEzsafpW8KJ1L8+1E1tK6d7qSpVKn/n4TzQ330babZGZSzf/cwQsvTAWGevxQs+5lCip2zbj+RFnmZ9nNl3I0HE8E72rWvZMz+JQoBYLrZ9zexUgEkbKVcr3wtZu57ydP8qv7HrksJX2Jcs3U2R4BJk4FKcjyN+Lf/xese+dXFDwSz0pKBO5q/COgj18EBU9NxC+T9Rc3G2fi/UhM9NDlh/u+ex+7tgXjsx6SfWKE1CN4eeQ38YBpykQEBQDrrmfTO5nBpZf/F/Q0NHO9YXqu3KX7kgF27N3Ek2SWoH4Yps/mmnCleoolArHxMumpQMSpdxLPZn7/Xh75TXLyjZuBmt01/PuuZjZVTC2fyGp85L4udiGBsYvxf5+LZ0E9qAduyD4GVIA7TX9Oz+vX8M6vX4OCTawDKp54kJ+4gvznqx3cfC1ZxwsProPgXU10/Mtz8ZkV/+xaHrQ1pX0OZlKQB7tsm+j41wK6Dj1H7EU7N1+r0PrEnVxbEt9W6yO3sfufz9LRvx/Fa+ezn76G79V8mV8u/zsO/UM9sf/5Hyif3sRXDNfwPd097D7QQ82b/87n/zFzxu62igL2f/opXn6hi5e+38U1SowHv3ADlQ88CdfNP+iz7hrY890H+enrt/OG+zl6drmAGJ+5VqHpK3/G5/+yJm18mToWe22XC4UYd/7ZtfzlEw1ck+P9yeXzfwLrvvIV9v/iexwd3U3bMzXcfN2mWce6e7wTXHNyP/c+8WXIjx/zzflw29fuZf/Tr3Hby3soMLeljXOfrHiNm7f9y7zPjxBXg+a+Cdh7ecZcQnyY/uiDDz74INeTwWCQ669f+IsaIcTicOrUqUX5N6S5b4LCvY9Q+sKT7LhvJGcW2UwBnoRkVtQ26NobZB3vZAw+LmZQklhvagbaTO77yW/g0I6spYbZsopSjykRzNt126+SF9+p2Wy5pGb7JII/2Y5/usSym3gnI6DT3DeR7McEBfPuKTbdbMcx26yKiSDmxWS3JbY9fRuJ/lMNu2t4ZBdp5z3xfKI0LlECmSgXnH5+ZpKt1DBRLprotzb37KqpwFNqIPliAmOzvSeJPmj3Hbwh49wnjr/rM/VwyDHvbadKfFd+Q0Had+1ieoqlmm1G1vn0U0vtO5b6fs/nc/Bxczl/t+bytzrx/tbQtSjPv8htsY6pxNVLgmLianTq1CkKCwvn9RrJFBNCiAWQeiG+DijdXcOO+0ZmvLCv0cP1u19gR0PzrGVMXXtfznmx21ZRQNf1L6RljC206TMSproZeOGFGmB+5X9zabSf2q/thd018OnZM1oSWXddfrjvvvtmDRLMp6dYxmv1U/3W5isxW+Tnt83cFy6bRODrhSwD0cQshfGcr5kDL10Hf8Oubcw7mJpYb7yUNPM9udjPROK1T75Qw477yDrxw1zMpXwyUS7cdd9UUHQdsGl3DZs+/SX4Wva+Ywtlrj3FplvImSU3fRpoQ76Y+QAAIABJREFUa8sIJCbOgwRkhBBCCPFxJ5liQojLRu5qXr3mmykmFl6upu5CiCtHMsXE1UrGVOJqI5li4mokmWJCCCHmZCqTR1wpc+kjJ4QQQghxpaROBJXLfQ1dJCbiSTVTJr4QVxMJigkhhBBCCHGZtVUUQMXM5dYLWR4rhBALIdGLc3o22EyZYs19E/DG7D1bhbgafOJK74AQQgghhBBCCCGEEB82CYoJIYQQQgghhBBCiEVHgmJCCCGEEEIIIYQQYtGRoJgQQgghhBBCCCGEWHSk0b4QQgghhBBCCCEyvEPuGSaZ4bkvrbusuyXEgpGgmBBCCCGEEEIIITLI7JPi406CYkIIIYQQQgghhEiz6dOw6YW2eb+uraIAKl64DHskxMKTnmJCCCGEEEIIIYQQYtGRoJgQQgghhBBCCCGEWHQkKCaEEEIIIYQQQgghFh0JigkhhBBCCCGEEEKIRUca7QshhBBCCCGEEGLOpJm++LiQTDEhhBBCCCGEEEIIsehIUEwIIYQQQgghhBBCLDoSFBNCCCGEEEIIIYQQi44ExYQQQgghhBBCCCHEoiNBMSGEEEIIIYQQQgix6EhQTAghhBBCCCGEEEIsOhIUE0IIIYQQQgghhBCLjgTFhBBCCCGEEEIIIcSiI0ExIYQQQgghhBBCCLHoSFBMCCGEEEIIIYQQQiw6EhQTQgghhBBCCCGEEIuOBMWEEEIIIYQQQgghxKIjQTEhhBBCCCGEEEIIsehIUEwIIYQQQgghhBBCLDoSFBNCCCGEEEIIIYQQi84fffDBBx/kejIYDH6Y+yKEEEIIIYQQQgghxEUpLCyc1/L/baFXKIQQCcFgUP6GCCGE+MiQ3y1xtZLPphBCzO5iErukfFIIIYQQQgghhBBCLDoSFBNCCCGEEEIIIYQQi44ExYQQQgghhBBCCCHEoiNBMSGEEEIIIYQQQgix6EhQTAghhBBCCCGEEEIsOhIUE0IIIYQQQgghhBCLjgTFhBBCCCGEEEIIIcSiI0ExIYQQQgghhBBCCLHoSFBMCCGEEEIIIYQQQiw6EhQTQgghhBBCCCGEEIuOBMWEEEIIIYQQQgghxKIjQTEhhBBCCCGEEEIIsehIUEwIIYQQQgghhBBCzCgMWJq8hHuarvSuLBgJigkhhBBCCCGEuGo5R8FisaT9599jSVtmtot17wQ0WZpgwvsh7PHC8E6AxdKU9Zj8gMXizDgPQlxuutVa2jsDs36X5vqds+zxX9HP8X+7YlsWQgghhBBCCLGoOUfB2zLzBbEZcLtbAX3yMf8oxEND8cfCAIEQmvvXzHsfvBPgtDYBgYzt0tKKt8U24+t1gN1phQLzjOuyulvxTuizPp+6jgTni36sugCayo6MbQ6Pgg4v+q9Y53qYQlwyDVC9XY+tz0x4ZABNpTnnsgZgoLYai9VGR+0Amkr7h7af8yFBMSGEEEIIIYT4mAkDdU1eCDgznitUK1TfWYzh3nrIU3/4OzdNImCUGvSajb6EtOVDE6DjGFy/Yf7bLwCz2548Zx3GqQt452j6/jlHgRZL8t/eCRiwpmdyTQ9wJV6T6/np62jqCRPorIu/FnBa6tJeFy4w4/1ZPPvGYnVOLjWlo1aHptKOZY8f+jIDepplClvKijA9tA1UhfM+X663o3j+yU4s4sekQP1zzaAY5r2e+WrqCUNnXUbwcL6vi14AR1+QplU+KN6SfN+tODHbO4iHfmbnHIVjLZbkehMBXneLGUoWNljpm4DIz7swfcMMaPADNouT1gov+u3uBd1W6udvJnWdQGf2gHbiM2iv1OMtdVNnbcJ9g3PBz8tCkKCYEEIIIYQQQnxM6ZbBmttNgAJADBgaC9N2YIzGd+sw2jqAKx8Yu1QDI2HWEICC6iu9KwvCqiMtQJMaOPOMgjngzAgkJgIlcCz5mBbQVxpIDfQMnTiL45VhTvoaqXHaIU835/0KA93Ofso/4cf0eA3qfC0o8w+sXUkD78NQZwe0zD+r8Eppe9GP9T0Pk/mLl5W9UgOV6YE2yx4/1uO2eQUNExJBZ8gdcLMB9KUH2C5HcDEbCYoJIYQQQgghxMfUhhVgrt1C6oVsDWDd7aPn1TaM7w/B8st/oX25BU6GCQBeS3pmVCJj5VJ4s6w39d/xkNJUhlqAzAyu1DOc7fnp68glDHh/5qWjVsdcMuv0gLW2Km1ZK9B0MEzvs3XUvDUAxfMLinE8zOYK0N9eNefXXUnZgjypNIDbbuZSA07WErC6FzZrKxc94HZbib+bl1f8PQ8tyLpyBdxasS14xttcSVBMCCGEEEIIIRYRFaAt1HL+VSB2Pvl49AJ09AUZ3t9O7EwI7TKFmor0Msso0PVqkKH9e4lOjAMxCtUK9X9VRmFlHaBKZiy11x7DTV1yfXq1wmMNm1Gvr0nbn2xBp7lIlDX60UPfcFpmSbJ8lIG01zS9GKJxZdO8AmUfdvnkTDwj8Swxjb11zvufzZpVmnhXs/OxtMe970Zx7eogemIYlRLDfIuW6u01sNyQ1v/N1gf0WZJBx+AZ2PtcP/5BF5yLoFcrbHvASOEdNYAq+X40rnZyQGkldHAHJjXUOx4DVTm+CXDs7iIy1otCDGOxmpqHqlGtNeU8hkT5Yt1TVto9EPq1CyUWZXOxmppH62F5vKQztXzSecqcPAZLSwAzXqrcrdQ1hdLKJ+fyOc+2P4nyyXCJNWf5MqRnAva/G6V7XxfhwBDEoqjzYUtpIebt9YRVhcn1JEppO2p1hCvtGeWT4Qvg3O9jrK8r5/e3qSfMms46DD9pxvG0n8hYLyolRvUXtZi3N85YTqtdDXPNEstWiny1kqCYEEIIIYQQQiwivtMxAr0erDcpsKIMiF/ENrT1o37LgdViQL2uBu87Edrc3VjH6jDv2A15GpoOhJh4vpFtdxWiKa0neEZF9y/6eaJzkA5VFPXG5uR22l4MUZj3BE0PVTFOEZ79XppbPTgc14F2KsvoYnqKpUo0nef6zKwZzQ1TJXIBgD4vdUDrSctlyUxJLRVLsJYAbjeWPX46VjZhdtuTgUOrzovZ3pHxmlyspUClm6Y9fuxf8WbtrZV6zNkEIjBw0IN5OfA5Y/Jx2ythxp9poGq9mqIHrYyfUePZ78X/9Tbs/8OK6UYz6m834/qOh+oSP4WVzai1S/BHwfaYk8I/eGl8yESsoJzu3nEad3tofceHfruDRBDJ8Usw3bCDrd+2opqIgaqIrrEYnrYGTKsilD++jTAa9nqG8H3TgaMliGqGEroQ8MT3uqm6UaHoWzV43wGPu5vr/rGNql0O4gWkU0w3QuwbzfQ/46T5qxrUq6uAlZNrmjKfz3k2aqD5AQOcS1+uazTKRE87BqMO0NB9AlzfbMK0dgJrwzYi+Rq8h4M4X+9mafQJymwdND9goO1fqzGFXZQ/XI9aWxDP3koRvgANT3pRve3EulWPsq4G90iYtgN7076/AENA/9862GZQs/TuetwjZ3G+shd13hOUP/ociVLr6RKB0FxSg73hCTAbtdR1BjB3Wi7p+325SVBMCCGEEEIIIT6mnIGpRu2pqm8C8z86SGR+uIZjFIw6cTy1BdbG+3IZSqH7Syb2PlKPacTF8bJGIq8N8WSFGv32nYCCAdDeZsD+1+2cHB9EvXFqG4bzUep3NYPKgAFQFxtwWpsIv3kEjXbhSu+8w/74/5wKQUH8f30ToAsMpDXeT1y0O0+ZsbVYsB63YLZ34Ecz2Ysr3ry+LgB0WrDqgPs75lw+mWvmyVR1kNacfPr7Ey+LbJzxeBMBEafVidWtZaZgQ64sPNNysD7VBPnx1w6dA/8/u2jfWkDhVx1AfPbADRsN1D/WzdD+vZQ/auJsqQHwoftTP/rSeCaW/dkAuve92H9cAyvi76up1ED98+U4DzTi+Iv+ZBDUEAPrjnpQxYNxIcDT6aHxixGMj3ZBXjx4tuF2AzU/MND/rJ2qXWamB7cSokBzSQxDQzzwZiiFpv9ezJHOOqom/FCQ/rpCNRSWGIBrMXxWCyWGjABTAOb1Oc9GAQzFGlIzq7ynIfT9Jlor1Ggq4+9J/3AA8/II1h1PJt8LY6mBB5ZoGT9sx8hJDMV6eENH4X+BobSYbNlaPzocYcnbThw2E6r19ZPrgfbiDez9QQ2mERdKWfxzFQE6qgrQ3G1PLrf1E1rG+myUPzrO9M9TYmbXmUqRE1l7CfoC0FfqKat0Y7M4Kdtz5cojZyNBMSGEEEIIIYT4mMrVaN/19hhnmxqp2dEGKh2DI2OUq2L4IkthxJe2jhjXMT46iL6sEdePtwBb0p4vzAdWFxGNDk5uIb6t8lJANTUrobYAYA3hk955turOzQ/o+oYJ6HSEf3sMTUn88dApcjbet5aA1umOB7Ca6jDbO3C7rYSxXtLsk9myxIBksKy1FmyDG2af5bAnnDWYmQi+aYDG7XrqjltnDTbkarTfPzZM9Jt2mnY0wgojvrdAFRsk8slyfNPef66DscOxrAGTABA9fATL7cCKzWnPWTYX4jigJ3TEy5Kt8aBYsQ5QTfUw850GTgxAiRbf0fG016s/GeXICbIGt1IZbisntZxxzQ2aeHgzJUg6HzqY1+d8LvxRcD7ppPpPA+hrpzLnOrbqYKsrbVkFWL2ukLOHgXNRyJ953VHA/8YY1StAtT49k6vyVhWDnZvxveGhvCweLCsENKW3pi23eqUmPj3DRAgK0t/j0ATAsRkzEI/9NswayHifUnufzTSrZbZG+9PLjC8XCYoJIYQQQgghxMdUtkb79YBjJIrnO1Y2eHai+moXhMIMRWHoO11Z1xN6D/READWxCxB6P0rovWP4x0MMjfjgxBgRIJ6HEt/WkiXz29e5ZFolJLJWXD1hNui8rLm/A9/P6jBXhgEN3mE/rRWQK4vKXABad7wvk3nUk3OWu0TpYy65AmEJiUCAVQf6yg5aKzXYLKFkMC5XYGym2SeZfNT6uBmbdQB3mTPn/udqtO8JQVd9E4P7HBifMHDy9FmiQNu+IeIFdumOAbwfguXp5/P/AzhznpUrNUwPEhWoAbT87nf+nEHQcBggSPtB4GBbxvMRgPAswa1PzD04NR9z/ZzPJnwBduzwovuDly07rJCXGeALR2OEgiHGT4QYGvUTenPyPTgTmTUodhYgehbtWph+oq7NA1ZoiEwk9hmWAOTN/csZOgU6AmlZl/MRLxt2Ya+0Z22yb+6zXdHySgmKCSGEEEIIIcQic2epiv5lJsbf9GD4aryAbHogJhv74TBDz9ggFkadDyvVGky36vCcLwMGL2pftDqS25wtO2R6A/3AyTD2+834SzS4WsyYJ3z4C8zQN4y+ZeYMk6ksloWV3MfJJuupEwAktmnZU4bTUjenc56LuQCcFdV4f2bDXFI1r3WYtNC1vpLx4XaMHAM0H1pmTjap5+hqsJCf8/a+MKq392JrMcOK9HM7eBoc/2AnNjGEAqhXqDGuXcngF03wumfhDugS5MoCmws/QN8w4YpAxqfTOQr02bC2mLmS/cYkKCaEEEIIIYQQi5gaoEDN+OtgPheE/OzBlf4IDD39IxpvP4uxoQOU+HIhwHOk+6K2fey34RzdoubGvV0P6NEDrtoq/C/WMVxmxqrzQknHJaw5M7iVanqfro5aHXUnq6Ev/vhskwe4t+thuxvnKFgsU2VjrRXAyrnvd+t2PS5LPBgYwoyOYxeV0aO5Vs0gEHtnHGUeQbE/Bli2hJMnw2inlRRORABCaK7PPaOh+joADaH/8KEtmfduXxYL+Tl3jkYJdD5Bx8OrMyYMiADtHf0Yzw1R/+NGlBVTkx4MHggBcwuKLQVQLSX0LsAEqf3Xfn8BOB1GUwrxoOn0Dmoz8wOBTg+NtTpmClwFTobZkBLcThgeBTNe9NvTZ0v1A94WZ/zzPnlenKNQNnx5JsCYySc+1K0JIYQQQgghhLjiDh2Nwpl+1nxOhYIG420GBlEIv5J+Qeo5DVstTQRfqif4HoAf45fLk4ECgIF3gdMDF7UfgZNhtKvhYjKlpquu1GDrM+NtsWC+33xJ67Ts8eNrsuC2G3C73cn/zC1uzIDb3Zr2uKbSjnu7HqvTzeRcmFgsNiwWCxaLBafFAvjxToDF0pR83DvZnFwHuJ3WeQcE9IDdPf/srv7TwNEeitYDrKHcoIBipPfgIFyYCpyEL4ClyYPnka1AMGM9OkC18VbcrwOne9Oec/cGUeNH8zlDxusSylcBq8y4fxGG6FQvsyhQvduH46+3QjSznPNyWqjPufc0eL/bivWmKJrKzMkTTgKMBtlQSlpALHgBwr+a+3ZUgP62YtynIXo0/fPTcySKcqaXopLyOa8vlasnjA4vmtL5B1rDgPdnXsqmlTGHAVuTNyNYpr0+jK3PjH9P7hkuLwfJFBNCCLEoWfb4aSWzOW1TT5gNgzP3+RBCCCE+KgZOQ6izm9QMnqETZ4mMDWNQYujujl+sV5cqDN+0jYZnnVQH6tBurGbgvRiDP/diXh6k8K5WimLgVQw0/lM/1bUqosv09IyEOX7YBfnn571vidKq2coc58sMUFI279fV7fFDwEldADpqXWguMmNlehliojl/ruen9wtbSH7A2ekBhqcem4gRenMINVGM91YBKsrzQfdQNV2dw4x/vQHTg9UEY1q6ewdQvzuIqcVMvEV7pqZ7ddjeMNP4f3VheegksYJyunvHCR/10FqhhrW5gxxawPywCW+Lm+DX2qiurSKs6PG85uf80V621K4G1cUFdHJZmg+wlO6DAxjOF6EqLU57vujGS/+c+8/FG+trYwE0m8z4joaI55rFLQFWFmtR1hdhf9WLVdWIuriaoYkog/t7UGLH09an+uQf4w2A5lUPxZ8rgxXpWVt/s1FNQ7+V+lYn1VsnUNZV4R4JE3xlL9abQHXrtnmfJ+8EBDrb4zOizhB0DQMcD2UEt30TQGAA/f3pr63b40cXcGJ1WkkNlpkLNIRarNhavHSsbMo50+VCk6CYEEIIcYUkpq/O1r9jrsG5pp4wazrrrmiDUiGEEFevwBkI9PSnPaZZplB/VxGmB7bBsnigQ5MHHTvMOPZrcPV1EXujHXU+WEsLMde2g6oQowrOfrcR164O2nb3olI8mHQabE/VYX1Nw3hP04zll9MlSqsoaZ194Vkksk9aK7wMl7lxWixz/m1MNPjvqAXNDE31r3bZZtwMAaGe9Nkk1fmw5ZZCqmuroWAqi8teqcG1ogPvXgdDP3ChEKNsrZq6p6yo1uYOiuhV0P5DK3ufK6T9py44149erdD8+Ga0t28ldWbIbKwlKgqfcuDa10Xb7l4UPBQVqGj99mY0pTUXdS5mYlgGuq1bcblb+bej7TT+JL2s0aie4+d8hvFZ6Azw/jFCQNvTXojPh5mUCIzufNxM+56zOPpcKAfbKCpQ0V5r4tCnbPT+nZVYMF7OWneXDseIkbbdXlor+6H2QNr6NHmwe4cZ534Nzr4uYgfa0C5TaH2oDP3dNZCnntc58gNOqxOrLoCmcuZyXs8oEHBmBL8GRsKYCUBJdXKdNosT8GJvMSfHvtnKlOs6A7hvyD2BxEL6ow8++OCDXE8Gg0EKC3PX/wohxEzkb4i4Wsw0BfRcPVar44eda5g+qJmP6U1kZwp8zSUolhhEpE4dn2DZ40/2NZlu+h3qxCDF3cKsgw/nKMlSj9YKkpl2ubaXmB0s1/Op6xDiSpPfLXG1+jh+NrP9hl3M7JOp67LiTP5uJtZl1QUuKvt7pn5iubhbzHivt2Y9hkSPMe+EPuvzqb/NucYtszXCt+zxYz1uk2x3cUkS40Iz3ozAcmpgK1Xq9zF1udYKb9o4L9d4MHWMnPjuta52znuMeDF/Ky9bpthMg/GE6SduvrL98bscZrqTn2oh79YnPkQdtccYvsVOV3099nsi6B5y5XxN/UshVPvq5zRjyFyP6WLNdAGqzgdTceadiQ9T6vn9sNIyU3W9DZ6/q6ZqWZSaLjvk6T70fRBiMbFXarJOAT3f8skNlWDZU5b2utSAUrjEmjVI5QdcFidcP9X4NAwEBn00GnU09UCgM7O0IAA4LZl/SxMDh8SduboAMPn6xHPu7XrC291ZLzjmUqKR68Ik0UcF9IQnEkcSP0+pAa7ps4NNfx4mxwrMPFYQ4qPC9moE/+4a6kvA1NLFZOvyy2L6OCbXxcdCCJ4BX4eXLd/SAvoPbfwN0D0Spv+gi3DAB7EommUKW8rSs5sWWvQCOPqCNK3yQfGWBV+/bwIiP+/C9I1L63f1ceCbACsDGb2W5jv7ZOLzb9V50z6T5gIwu+3JHl4zBdqy3aDRAG67mclizLmbWJjyyemzUk5fJtvvtA4wO60s9s+WuDS2Pf6M71PC1IytM99EzbVcYoKJmVz0d+8iXdbySS2grzSQ60u5dJV8WefCoIWuVXdy5NUudA8EsgZQAkDopUPUlwAFC1tzfbE0gPUbJlBP7U8UGBgL093nIVjfRnNHI6iNOdfxcdU/FEC9PErv+2qqR3pQyiQoJsSHLT5bVeaPciKA5hwF7c8s87ro0wCszpxDKzQBazgGBVP9TXwToAsMoHl8A/aCzKDdbJliiVl7EkGw5IA7pYdKGCAQQnP/mjnt/3SzXZhoCsi6b0IsNhHA/7oP9XIV7tHzmEKDoK260ru1IDpeD7PmDSd869LL2+YqdAEa27ww6mTzeg36hmqi+RoGxsI4+jwcOtyI/X9YYcXCXzANvA9DnR3QcnF/N2fT9qIf63sePqyLvauZuQCw2zMeM7tnvmE9/YLZ1ROeMSA8l3UupGzbs5YAk2WZ2Z6f/li2m3nTl/mwj0ssHrnGyB9XlzUopgestVVIj5NLowX0VUb6d3dR8x9H4KbMAMqRt0E504+xwsjlvDM5H9cChpLCjGwwYyk4SjbQ32oldMiFduviCooNnYNoXw91f6Wh/VdmBvu6MJXVcLW8b0J8XDX1hGmkPZkxlW3a59RSjrLSRmxYGbDUZQSGbH1A3/TMrvjzupUawicDaaGi0CnQ6gKkBpAGRsJs0AWgIHM2ormw7fHTWuGFEnd6gCzlNzdbr5bUfiPTs3otLQBerDrg8flPY5/1vBh1Mz9fMe/NCHHVGQwBo25qGgy0d0DglQPoHv7wgmJzvXO/EC73Hfwo0PSMD9WoE4fNjGr91DEZS2Gwykz7Y+10PemkxrlGsu1FPIC0iC7ghRAL66potJ8o5at7ykq7B0Kv70WlxGis0GF46Alcbyl42u3EIn6MWoW6R7elNfo7D3QdDdP7dDucCVC2SkXdI9UZzQC970Zx7eogemIYlRLDfIuW6u01sHwqaBOMQvseL6Ffu1ARxWbRwecySzt874Pj6S4iY71o82M0bzcC1ZnLTYBjd3w5hRjGYjU1D1WjWmtKLhMFOnqCDO9vhzMhqm5SUfxk+jY336bGvtuIf6AX/U2ZzQZ7B/yYlChKqYnIBXDs9zF2yEUsEkQBigpUPLbdhHp99kaFucopsz0evgA/2ufD/4oDzkXQqxW2PWCk8I4aZmuimFB+i4p+yvnd7/pJ5FREL0BHX/w8xM6E0C5TqKkoxnBvfbIxYPJc/dxBLBKMN4ksLcRcW5+WRt//bhTXvi4iY4M5z3vq+a9uHaT6dDtbfuwAprI8EmnJXQ1/jPqO1jntY6KMdklLI56dB1ATwvGoCVVZPQBDvhiq2CDGW6o4sMSAe19X2h3ltsNRzj5dnXbOB89A+1+3Yb3Jh/l7UyUZbYejqJ6upvGFJqL55XS9GmRo/16iE+NAjEK1Qv1flVFYWQeokunlzQ8fo310A+eP7qV67RKqnmojeqFw1mMT4qNsQynUWdfQQROeG+x4WyxU1ZpJLf9L0NywBk2BBrfdjGWPlvCIC03l1N/G1DKLqd4KcWtu0BAaTBQZTZY8DPtpTZmRxw8EOj1UV0w9lq3twPTyydR+JPS54oWHKUGmRFCro1aHr9SOt6Up3t9kWv+SjlodoMdeCVS6k3/r3C1rkv0cvBPzObuZ50XKJ8Vi4j0SwkCIstKtKGNL6OkbRPfVIcifypZPjA8MP2mm/Sk/0bd70S6DxnvLKKyogzxV8nvTvNqJ/8+76H1654xj24Rs5ZPJ8WBfV87f9f53o3Tv6yIcGIJYdGpctb0eVIXJv0sBwGux0VoBmsmy7Onlk66RMN6fOomeGMs6zs4Y7//ahRKLsrlYTc2j9cnl+kMQfbUL292qtIBYgnE5DDxUw/H9Pjh9DLS65LHMNPZLnKP22mO4qUuOd/RqhccaNqNeX5PWM9HSEkjrpzPb+LcrAJ6mGlorYui3d5GY6bFmXwBeaqKtzUz9c1oIOHES/9t+qa1khBBCXLqrIigG8VkxnvheN1U3Kqz8thX3cIy2g3spn9hJeHSCploj41TR/bwH/t5J47+okwMN13FQ79xB/f0Gzn6qmb0vDjH2TScdbSGU4viPqe2VMOPPNFC1Xk3Rg1bGz6jx7Pfi/3pbMv06cAGaHulC8wcPjfeXc/ZTJlo9Q2jH0tPFByPQ/vU2Cj/ho76hinH02J73wvL2tOW6xmJ42howrYpQ/vg2wmjY6xnC900HjpYgqskLj/p9AaIvNVF9mwb1xkbcI2fx72glNThjyAdlYzn9vxxEvy19kDV0DmK/7GdDhYponp66Hwyh/rUdq8WAel0z/okonhf7aWz10GUHdBc/g4f/HOx4pAvtGQ+ND5qgoBz3SJjG3XtpfceHfruDuQTGgr8FGOOPPxlfNgw0tPWjfssxud81eN+J0ObuxjpWh3nHbsjT0NoTZqKzkW1369EUNzI0Ac59bs6/10jVrnhAyzkaxdtSj2l1lPLHtzEe0+DZ78047wkqwHhHGf3fhy0nhmDVVP+IgZEwBgKoSxvnvI8A/YB2p4PmWhPhc1tR6eLHGQEGDw1StQzQ3YpZrcW5T5d2R9nwORVOdETf8qGaDIqNB+Pna/xtMJ8YEqxuAAAgAElEQVQbh/xyooBv0EfjeiBfT9OBEBPPN7LtrkI0pfUEz6jo/kU/T3QO0qGKot7YnDwu+3PHqV4/gerb9RSeCROmcM7HJsRHlblAA04rddYmwJLR9B6myg1TxVPI557xrL0eQgEdiWBbYppqTUrG1PAoZGvYP1PT+dR+JOYC0LrtuCxO7E4tzlPmZKlnUw94Trbj7ZwKcpmZucRiYCRMPGB28eVC01PtE9kk3gkzIUsTbnc14E5mp7lbzLi3W5G7++KjLnABwr84RPV6UJYZMG1U4T2sUPNGL+o70ltaDAH9f+ugukhB/e163MNnaezcS+upMfS1HSQCKY4RUH7ZSP39RTnHtjMJX4CGJ73wtpNtdxWytDQ+vmw7sJfWaCP62g66Tyi4vtmEae0E1oZtRPI1eA8Hcb7ezdLoExhtHTRvWonzf9ejecVB1berWfmpQmJZthf/XjewpVhF0betDE0odP/UnTbOhvTxftG3avC+Ax53N9f9Y1tyHOc9EkJDCJ0p82ZzQvMdarhjqs/ufMZ+bS+GKMx7gqaHqhinCM9+L82tHhyO6zDdWEXsG830P+Ok+asa1KurgJVzGv9W61QMVj7GD3tsdH3ZBboaugIQeWkn9nvUFBRbaX4gTNu/VmMKuyh/uB61tmDW91IIIcTldVmDYl7id5Wymd6nJAo0l8QwNMSDKoWlUP9WlN8Nu2j/cQ2sqMIAhPOLGf7+VnhnDIrjA42CGDh2bUkGM/S3Gqh/TEP/cy7M9iqGzmnw/7OL9q0FFH7VAYAB2LDRQP1j3Qzt30v5oyZch6Oo3/fQ3mJO/ngabjVQ9/cedCkNDDteCqDDh/2H8R95A1BUZqDt6w4Sd+FDgKezl8YvRjA+2gV58aDIhtsN1PzAQP+zdqp2memPaIm85KK1Qo1+ezugwlgKTQcN8Hbd5JmKD5E2byqn97CK2OgQSllKUMwXQxsbRHdXDYMR4DdDtD6kQ1PZnDzW624x0lVfT/jdcTSXkGXu7A1R9nsPjf/cCMviZY/GUmi/ZQPO79fg+Iv+WXto+EIxun+4Fy1hdF+OD3hcwzEKRp04ntoCa+OPGUqh+0sm9j5Sj2nERaSskcCgj+Y7wPBwa/LYossM+DprqDrtJ1Cgxdt+gBpdhKrvdkCeBgNQvtFA42Mu+p/tpmqXmdSAI0C5QWFQMRIa7kc7+TlKNMFuuh1YVjanfVTK4mVQMaDtbwyobk8fuA5NAKOHuPOrGkCHoQDQbeDIYSe6h+L94vQFwIovcGy8G/3G+OsG3gygXh7D974a3hsHXTn+c8DRf6O4QU8AFZHXvDxZoUa/fSegYAC0txmw/3U7J8cHUW+c2o+q5TGqvrUT8uLZde3zODYhPsqcL/qBQLw8sKQqLSsgVSLjKlW2IFo22gJwsgbr6DCU6NN6h0H8b4v3Z9lnsMxeljllrsVKVSvB6rbH+5JNBssse8JZJxZI/K0DsLR40yYgCQAWqxPIPfNWawXYaJ11cp3p4wFLy9T05IkMOGm3ID6KBsaAM72U3WEEVJQVg1cx4Xvdi+mOCKntESJAaylpY756jR7n8/U4NvdOjaHeh/aW8uR4NDG27e10ZR3HTOcaicHbe+n6lhHVbfHfb2Mp1H9Kz2BvI/qv+ugfvg7z8gjWHU9Cvn5yGQMPLNEyftiOkZMYVuu59sZitIChNJ5hGp62rf4IBDp/RPMdS5LjeAOgv91I+//Znhxng5Ix3jeUQtN/L+ZIZx1VE34o0BIOhzEB3DC3RvqBC8xr7Gc4H6V+VzOoDBgAdbEBp7WJ8JtHKKysorDEAFyL4bNaKJnMcpvD+FfRVvHYg3psw2a6f+RB/8M78fzTIapXRdA9MHn9UayBN3QU/hcYSouRnoxCCHHlXbFG+xqA/PQfdMNt5SSyjJYALFNxaz6wYqpp8JpChUEK4cLU6ywlwKqpsjhtHhSajAw868L8vg/fe2ZUsUEinyzHN+JL35HrYOxwDMOj4/hHo1SvAFXJ1GWHJg+Md28m/P0uIB7sio74sXwRWDG1TYMKNH9hgef7AfCdBk4MQIkW39HxtE2qPxnlyAmomvDjf6cADX705mpSM6wsd2mwP2uElKHHrTeBZ5kJ3xseysvqASWZeVSzCtAaMALGrszgRbzvs57zUV/Gc3MVBkKDPgyrwBcAmFqXEoUQasJvHkEzOaCb6WJKt0zB1jYVyBwcGaNcFcMXWQrT3qMY1zE+OkhRWSPKCjWu10Fd4qTwi1tAUdN0uwpuPwDAkQBwpp/Ndca0zKbCPNBXmfHu7qZqWjYYTGbi3VrO0GuDbNkaArT4JkAJDGC4xwgoDI74Zt1H/WTgSAeodMUZx+19I4SWANpb49l6GkB/Vzm9u53JhvtaQFWmx/eqC/32AGF0RN86Rk1VIY6fFycDm2PjoGMYdfE21IDrx1uA9OMqzAdWFxGNDhIP1cXvQBffQjIgNtfzr5egmPgIS5QH6ghQ7bRis4Ywj3qwllixuqeCRHOdwW2mnmJ6gIoywr91oSlJ7+EF0N4TpnW1E9vqVqaXDs41Uyxh+t/ZZKllrS4Z7KpOlm1Ov5SNS8xgCWCtNVPXeQz3DU643ppxAyt1ps3UAKEbss4kZNnjx9xng5ZWvC22OQcWhfioiAH9h4cwKjEUQ/yGpT4PVBUbcB/0ZjTc1wH6r2whdcxn3qjF+byOyNiR5LJbdKAqmXqdNg90m4wc6XRR9b4fls8cFBseG8ekxFCVpbeNcGzVwtb4mKljK7A1fVZzBVi9rpCzh4FzUcif/RwMvRlFgx9DVfpY1rgMOioqGTo4SPl2HxA/P6njfYiXnHsBToUIFwChcHy0krdk9o0DR95lXmO/8lJANdU6JZ6stYbwSW/WENV8xr/6fDA/uo3u5iG8X29D936YLTtqIG/m90sIIcSVc3U12v+EkvHQkmkPLcmDyZBZUsGfwvQm5UWrNPEuJv9PmJOnw0SBtn1DxBPX0x0DIu+HYAK0awHSU5nVn1IIT/54/w7gdISVX9aQCDAkaAum9iEcBgjSfhA42JaxzQhAOET495F4LlhB+o/ldfnAMjWpFzE6QHvPnfTv81BeOwzLjPgiwOggxgY9qXcNYxfg+OkoJ0+P4x8NMnxkDPDzu9/Ndm8xt3gJUBgP4PlOe/ZlTkWSA4rU2SejgHskTPiVvTTesxrDA08k+1mEAUJhhqIw9J2urOsNvQd6ItTfW47jrXIaf+BFwUtRgYqqqnIMt1tgmZbz/wUaoigrV2asQ7tcjR/gdxFYlf6cApg2ltN/WEmWUA6MhClTAigllnntYy6BC/EZQhMBzATjejV+9Az2DSYb7m+4RcfwSwo1J/wEC3SoAuOYHi7GUaonOO5BUxlj4M3jWFbEoGDq+xW7AKH3o4TeO4Z/PMTQiA9OjE3uVYRsAer5HZv0FhMfTc4X/bRWBKYCThV+/MM29NMCNKEJgGOEjqf3BJtupp5iAOYyPb6f2TBXhvEOh2mtgORv4ckw+q9Y4cVLP65E0Gp6+SS0J4NdtgDJAF5qDzKrDgz2Drw/82GuAG+fGfMNMFDbiPdndfD4xTcJnzonXqwtZijRc6y2A0tLXUZATYiPssEIxA73Ur5Rgfyp33ZTuQ7PQVVGw/01kDHmSwRlTr43FZTRpvQgTL42ETw6GYLlufcpAsSCofg65tD6IByNEQqGGD8RYmjUT+jNybHymcicgmJno2ezjmUBtJpr4+OMMynjoyzj/YTEDL6xAHDhPOTNvv35jv2WzC3WljTf8e+2YoWBiseI9Nloe6gQVnw8ZiEVQoiPq6ump9jlsBTgk0uB2aeVj4eespezLP1kcm0zUmX5lZ31rviJ7HfuVQCqzG1aNmpx7NMTGelHfYeRQ0fCGBU/6tuagMky1OcDBA80AzE0yxS0BWpMlcV4n9MTv1S5NDNlMqSaPvuksRSabjTQ1tlA6381ZvQfs+pIa9iajXEFGJ1N+I5H8L42xNjr/fg7+9Ht64/3rLiEmZA2FIN32WZCvgGWrNpCYNCH5db0Qe5c9jFXNsaR/wDO9NN1Bros9RnPu0dJ3lEuLgIvZYTH/o2xVVsoZxjWNmE4XcTYM7CScaLDAfRlKhJhTvvhMEPP2CAWRp0PK9UaTLfq8JwvAwZnPf65HZsQH02p/a6aesLQZ2MY0G/3k3rjZmAkjLkiwECfGfOEL+dvxmzKSsDWYoYeD7q+Y+idU78D9mSPssy/xwtVPgnx5v6p32vLHn9G+aRzFHQBJ2WPW/H2xXupNVZqaB+0smbEl5bhNhep5ajT/6bYKzV4S91YZujpJsRHzeDRCODHfhg4vDXj+Z4+Mhru55SXO1iUEM+gmnmZGMD/nn1zg6fB8Q92YhNDKIB6hRrj2pUMftEEr3tmX8FlolupYQzgt0FYZci6TPcJGPqHRpoe1sKffDiZ7HMd/05cgOhb8XYqQ68F2XJ3SDLFhBDiKvaxCIr9fgLi4aCpAMv4iXA8VHCtBs21agaB2DvjKDkucNQABWpC7wJMkJpPdfJkjESg4zqAFWpOngyjTSlHAwj8doLET7f6OgANof/woS3Jve+aa9XxLmQTobTspZPngNMnM5Y3qIESI77XHRTdESHw8nBa4ObA2xA80Ip962p0905lYw2dA+9z2e9uJYQAIuG0RLljp6fu7CWOPfAm6ImXGM6XrVJD/ckn2dFnY/fKVjSV9uS5H38dzOeCkD97UMawWo1htRkeNuM5EaPrkWYCr7hYUmYmjIrYyZMo07LBQu9HKATQZF+/Lg9UG2/F95qHJbeFUAIDlN8f74FxMfuYKgb0vjyElig1DWZYlj7I874HvufsyTvK+nxg/RcIjrfjiwaoXh+DvCKKClUMxTRojx5Hdfrf0E2WRfRHYOjpH9F4+1mMDR2gxPcvBHiOdM+4b5d6bEJ8lFj2+NH12bC2WBloGYj/7Z3MtkyUG9rvN2OhLGPGyfnQA7raKpyddfH+ZQVzu2hbyPLJ6Y3vs/EO+3G3mPEXmJPr0AB2uxnnKGh1TmYLlCdKU1Nntsw1m5q5IN7wPwxYmrzJ45ntxpUQV6MQ4PcMYlDA/K1qIL0HVpcvwmCfI63hfjxr6vewLGU9kxmqa9YVc3bysWxj22O/DVMMcGPRjPulAZS1WkKHgAvhtGwx5xiMf38rzf9YTfs+FcZzQ9T/uBFlhTG5zOCBEDD3oNhS1dKsY1mAUPj38aLJ5Ro4Nbf13XqLhi60BPrd6B7eknWZgeEQkUgQzaeKWfIJLnrsNxfzHf/u/NcQ2hMuyhu24No9RPm/7kS71XHR2xdCCHF5feJK78BC6DkKnO5P/tsfhaDHQ3kJsKyYcoMCipHeg4PxwcGk8AWwNHnwPLIVhSDlf67HfVohetSdtszwL6bWrQXUtxtwvw6c7k3bZvjlqUyz8lXAKjPuX4QhpY9XFKje7cPx11shOsQXihXCSjk+j3vy2Tj3q2FgOONY1YCxwsjgqMLQUR+qE17KN20mEZwbD4YpJIruy7cmA2IAQyPRrOtLWPJJiKIiEjqeduyBw1MZRlpAe1c57tOknSMAx9Eo1VuriQ7P/KOvAh57UE9suZn2fQGY8KIAxtsMDKIQfiV9vZ7TsNXSRPClenwxqLZ2EXg2ffZM9XKFySELt64Flpky3uvgBfB7vBiWAysye30lmG7TceSEioEXvWxeFoDieGPsue5jLr5zEDs8hKUEDHdswVBqSPtv6z0GWLaZnr4onBtCBegMOnp/DeF/d1FYpAFU6FZBUDHgffYQG5QArI0H14LvAfgxfrk8GRADGHgXOD2Qc78W4tiE+CjwAxaLE12fDbvTirbETIA1cGpqpknPKJgDTigpw1ymx9MZYKbs2sQ6bRYL4MXS4sViscCoM615vcGo43JlYOoAt9OKucWNVQdudwe62o5k0MlisST/o8+GrY/kv5ssFtxfCeXM1vIO+7OWcE1nLgC32w4V8QlQ6joDadsN98QzmS17/MnH6iyWZB+z1gqwu90SEBMfOUMngBNetlaoMJRm/rZb7jUBegY9fiZvPeIDwod70tbT/YsAegKobpnKJps+tg1cgMCL3uTYdjZlxUX0xxSiw1PriAIDh30UnYtxctVqGA2yoZS0gFjwAoR/NfO4YbryW1SE0WeMZQfPQLSvB32ZAnkzB/JSmbSg3F7NzoNRokcz+9J2vxsl9PPdVN+kwE3mSx77zWY+49/uExB6ficN96ipvqMa9T0N7Hw+BCdmvkEphBDiyrmsmWJ+wNnpIVcwpuxToL8nvSnnxZhYDo2PubE8eJKT+eV49nvR/cGHqc4KqCnPB91D1XR1DjP+9QZMD1YTjGnp7h1A/e4gphYzUMi2W6HBu43GnU62WCKwzoxzv5/Yu+l3yx6rKsT2qpnGx7qwPHiSyLJyXD/th/en+pVpAfPDJrwtboJfa6O6toqwosfzmp/zR3vZUrsaVOUYgZ6HtmHvbKAq0kjR5i24xiB40AlZJ70GU6mCTTFx8kcuLCsicNOdyeeK1mrwoMb+Dy5MD0IkX4v7lXEm3vRMb4GW5ta14Fluoq3Dg+Wcg7PLytnrGUK3xEfqBZH1Li22X5ipafVivTuIUlzNwFgYX58H65rzqEqz39FLpVeB6W+q6W8dwPvDvZi/Z6C6VMPwTdtoeNZJdaAO7cZqBt6LMfhzL+blQQrvaiWmgFJqoPmghy2RRgqNZoJn1HT/oh+dMoRusxXywNy4la6WQU5+s4Hyr0xNy62e8GGZfK9zngddfDID+jw8fLcK8qam6qwuVWbdx1x634igMIixwki2vly6vHi/uMF9nuQd5S8Ua3DFNChv+9F+NX6xuAbg5iJCR71Ub5waZBbdCF7FQOM/9VNdqyK6TE/PSJjjh12Qf37W9+RSjk2IjwLbHj9WnTdnibAf8LY44yV96KkqgTqdlbI9U+WGqRlRNsDcZ8HtbsWPNaP5fN0eP7qAkw0tVtpbBrCXeucU9JlP+WRoAtZwDArKMjIwNIDbbk57RbbyyVz8AH3D6FvmF6hKzXQLA3VNXmAg6/OJfZo+2YAQHxXu/kB8Ju27arI+b1SDc+NmDhz2U/X2IRLfx4ZnA2wLNbK01ILrcIToGy7+plYH6qmm+AHIGGfq/jCUHNvOJvG7Xv99J9Xv/R5lXRWuwyHOv+Giqk6HkqdHWf977K96saoaURdXMzQRZXB/D0rseNq6lqqWMgAUHfBQXHoeVqdnu5vUcKj2b2jrbGDLRD1Fd1czNKHQ/1M3OoIYH7Iyn7G+CmjbXk5zqIqaVg+b1/vQf7mKSL4G72CQ4OvdmJfHMD/ZCmjQXeLYb7ql+QBL6T44gOF8EYWlxXMa/4YugOupbszLQ+jujY+bHrtXh+1VM91Pudjyw3LI06L65B/jDYDmVQ/FnytDWSGz7gohxJV0WYNiISDUk3u2Q60O9PdUcalBsfpSGCjaiePZNjjTj/EmFfW2Rki582Wv1OBa0YF3r4OhH7hQiFG2Vk3dU1ZUa+ODFE0e7N5h5kf7NDgOOlDOtbG5WE30G82cfGaqWb5eBe0/tNLeqaV9nwsV/Wz7opaBjY1wYKpE0VqiovApB659XbTt7kXBQ1GBitZvb0ZTWpO2b10Fu/E88yO6v+NAr1aot23G0RoFMksoE7MaRQ56KX9IS2oad40OsLXTu/uHDP2gC3U+WEoLMTqepGbP7zn+VnvW1G9dHjT/Uw2Op6G9sxd1fj9Nd+kJb25n4Os70499l5W9+wpxvOKCg21olik0VxRheKh1Tg1dAWrWqxi6o5G9r7ZRftiJZmMzHTvMOPZrcPV1EXujHXU+WEsLMde2g6oQBXA8rKdd3Up3z15irztQgM3FamoczcneZannvf8He1GIsblYzVZbIyqtccb90gGav7iTs8970N2WPmOTJo9Z9zGbRHlF1TJQSitzbjvRL873uh/THRH0q9S4lpVRdsYD6+J3OFVAYYmO4FEwlJaRiHQa1XD2u424dnXQtrsXleLBpNNge6oO62saxnuaZiyNvNhjE+KjIlspoQ7gem3ajJOUxJfRANbHzdisA3SsbEJTaU+W/s0kEQjSBZzJcsBQi5kmqwW7k1kDY/MpnxwYCbNBF+ByZKENj4IZL5RIQFyIbIbOxbOgakqAHGMLBdi8qRzPYRWBoX7QmNEBlbYaOvYeI/qKA72ajHEhxMdzxzY343i2Kz6zYrGamh1TY53ZpP6uO/u6iB1oQ69W2GnbjHp9fFs7HzfSvucsjj4XysE2igpUtNeaOPQpG71/ZyUWjLcd2VqqovWmLbQ/7/n/2bv76CbPO8//7ymJyqhhRtCfFWoljeuOoL9jxYvi2jA1dOKmjnziphPINtaUkIPqBtht7OnkoSasTbvYJbgJNGNPZzAZKm+Id+R2idMQUQuncabgFOwJZh1xTkFb1y3IofL5Je6BahilbH5/CMmSLfkBzEOiz+ucnBbdt+4nyfZ1f+7r+l6s63+TgqcmTsrTWH4zbeZm9u/ZxY+/u4uPGSK4lt7CX6/dAh+feeiz+GPgfsaF+/W/4uf/q5WfbG8FIuTON1D3wO0UVKxLanNeTttvvII/g8UPPEDbS1v4t6M7aNy9jvyP3zNl+7f55d/xsd+2sXrzF2Fu9Jzz58Ln16+m7elX+by3mZu/3Mj6uxfzD32fp755P1vKXyX/4R/N+PqIXA9qvL+D59ar/IF84P3J+++//366hYODg+Tm6mZYRC6NfofI9arG+zs+/dx6lr20hc33HU7biyxWOH6ysCoWqq17GHY99ysWc2JCAzFVwzHWc+vwspfixemn628Ww7/wN7R8/uiE+l337Ryg5da2lK+n6ykWO4eXvgMDS6I931oe/tWEbSSuN37Y5X07B6BzYq+vWI2xdMunW7xa5Gq4kn+3pnMDGQvW17FLk99IErWp5HqjUEyuR5fyu/JDUWhfRERkKokzIy4Glu1ax+b7DrOlbH/aUGbdErhl10tsXlcT7zGWdvvP7eceYN1LW0ic0RKivSh2WV5K2WNs3RJY99LMQqH9IVi3vYaby6MF/ONDFU/sivZ43XXpszq2eX/HlrL93Fw+86BKwydFRERE5INEPcVE5IrR7xAREfkgUU8xuV6pTSXXG/UUk+uReoqJiIiIiIiIyGVLnGQonfvW7QImzhS7bjEK9+UDQaGYiIiIiMgV1lh+M0wxLDnVzLEiItfSYkjZG2yynmI13t/Bz9dfxaMUuXQfudYHICIiIiIiIiIicrUpFBMRERERERERkYyjUExERERERERERDKOQjEREREREREREck4KrQvIiIiIiIiIhOcIP0Mk0yy7K8WX9HDEpk1CsVEREREREREZALNPikfdgrFRERERERERCTJPWa456XGGb+vsfxmKH/pChyRyOxTTTEREREREREREck4CsVERERERERERCTjKBQTEREREREREZGMo1BMREREREREREQyjgrti4iIiIiIiMi0qZi+fFiop5iIiIiIiIiIiGQchWIiIiIiIiIiIpJxFIqJiIiIiIiIiEjGUSgmIiIiIiIiIiIZR6GYiIiIiIiIiIhkHIViIiIiIiIiIiKScRSKiYiIiIiIiIhIxlEoJiIiIiIiIiIiGUehmIiIiIiIiIiIZByFYiIiIiIiIiIiknEUiomIiIiIiIiISMZRKCYiIiIiIiIiIhlHoZiIiIiIiIiIiGQchWIiIiIiIiIiIpJxFIqJiIiIiIiIiEjG+ZP333///XQLBwcHr+axiIiIiIiIiIiIXJLc3NwZrX/DVCtkZ2df8sGISGYbHh7W7xAREfnA0N8tuV7puykiMrXh4eEZv0fDJ0VEREREREREJOMoFBMRERERERERkYyjUExERERERERERDKOQjEREREREREREck4CsVERERERERERCTjKBQTEREREREREZGMo1BMREREREREREQyjkIxERERERERERHJOArFREREREREREQk4ygUExERERERERGRjKNQTEREREREREREMo5CMRERERERERERyTgKxUREREREREREZFIhwFnnI9RZd60PZdYoFBMREREREZHrlnsAnE5n0n/+3c6kdaa6WfeNQJ2zDkZ8V+GIZ4dvBJzOupTn5AecTveE6yBypVlzLDS3Bqb8WZruz5xzt/+afo9vuGZ7FhERERERkYzmHgDf1slviB2Ax1ML2OKv+QcgGg1FXwsBBIYxfyV3xsfgGwF3VR0QmLBfNtXi29ow6futQH2zC7Ick27L5anFN2JLuTxxGzHul/24rAHMZU0T9tk3AFZ82L7smu5pilw2M1BRaaOhy0HozUOYyxxp17UDh9ZW4KxqoGntIcxl9VftOGdCoZiIiIiIiMiHTAiorvNBwD1hWY7JQMUX8rDfvx7mmK7+wY0TC4wSQ6+p2PJJWj84AlYG4RPLZ77/LHB46uPXrKl47AbePZB8fO4BYKsz/m/fCByqSu7JNT7gir0n3fLx26jrDBForY6+F3A7q5PeF8py4PtxtPeNs8p9ca0xTWutmMvqce72Q9fEQM88z8DKokWUrH4QjDkzvl7tJ8J4v7+DyKifEgOs/+caMNhnvJ2ZqusMQWv1hPBwpu8LX4CdXUM8ems/5K2Mf+4u3Djqm4hGP1NzD8DgVmd8u7GA17PJAfmzG1b2j8DoS3soedgBmPEDDU43taU+bJWeWd1X4vdvMtWtQGvqQDv2Hawvs+Er8FBdVYcn2z3r12U2KBQTERERERH5kLLOg9ziEsAAQAQ4cjxE44vHqRqspnhjE3Dtg7HLdejNELkEIKviWh/KrHBZSQpoEoMz7wA4Au4JQWIsKIHB+GsWwFZmJzHoOXLqHC0/6+N0/0bWNNfDHOu0jysEdPywm6KP+CmpXsP8j2aD4VOXfJ7XwsF3oLd1N2yaea/Ca6XxZT+u33q52H/xiqovM0NZctDm3LLGoxYAACAASURBVO3HNdQwo9AwJhY6Q/rArQGgKzlguxLhYioKxURERERERD6kli8Ex9qVJN7IrgEe2dlP5+uNFL9zBBZc+RvtKy0QDBEAfM7knlGxHiuXw5diu4n/jkZKYz3UAkzswZV4hVMtH7+NdEKA78c+mtZamU7POhvgWluetK4LqNsfouv5atb88hDkzSwU4zch7i4F2+fKp/2+aylVyJPIDHjqHVxu4OTKB5dndnttpWMDPB4X0U/zygoBDAVnZVvpArdaGma9x9t0KRQTERERERHJIEbAkmPhPYDIH+Ovhy/A7q4h+vY2EzkbxDLPwIOlycMsw8Ce14c4svcFwiMngQg5JgMb7iskp6wSMMZ7LG1bO8g+KuPbs5kMPLKhFNOSNUnHkyp0mo7YsEY/NujqS+pZEh8+yqGk99S9PEyVpW5GQdnVHj45Ge+b0V5i5vraaR9/Krm3mKNVzd6LJL3uGwzT/k+7CZ/qw2iI4LjdQkXlg7DAnlT/raEL6HLGQ8ehs/CCpxt/TzucH8VmMvCgs5icO9cAxvjnUZXj5sUbawnu/x4lJli/4xEwFtE/Ai079zB6vAsDEYrzTKxZXYExtyTtOcSGL1ZuddH8CgT/rR1DJExpnok131gPC6JDOhOHT7rfdsTPwbk1gAMf5Z5aquuCScMnp/M9T3U8seGToXxX2uHLkNwTsHswTEfbHkKBIxAJY5oLK+/IwfH1DYSMOfHtxIbSNq21EiqrnzB8MnQB3Hv7Od71Qtqf37rOELmt1Sz5xxpafuBn9HgXRkOEis9acHy9atLhtJYcmG4vsVRDka9XCsVEREREREQySP+ZCIEuL67FBlhYCERvYh9v7Mb0yxZcX7Jj+vSDHPjVKI2vdOA6Xo1j8zMwx0zdi0FGfrSR1XflYL5jPUNnjXT8tJvNrT00fSyMaUVNfD/bXg7yqTmb+bvV5ZxkEd69B6jf5mX79gVgGetldCk1xRLFis7ziYm9ZszZY0PkAgBdPqqB2qDzivRMSRwqFuPKBzwenLv9NFnqcHjq48Ghy+rDUd804T3puAqAMg91u/3Uf9mXsrZW4jmnEhiFg/u9OBYAnymOv97wsxAnn3uc8iUmFjldnDxrwrv3AP5vNlL/PRcln3RgeqKG9qe9VOT7yXHUYLLciD8MDTVucs75qPpqCZGsIjq6TrJxp5faX/Vjq9xBLERq+Vco+cT3WPWEC+NIBIyL2HM8grfxcUpuGaWoejUhzLS90kv/phZ2bBrCOMkQuiCw+ZkOyj9pYNHfruHAr8D7SgcLnmqk/OntRAeQjin5JEQerqH7OTc1D5iZf1s5cMvFLY2Zyfc8FRNQ47TD+eQQ6YW3wox0NmMvtgJmOk5B+6Y6SnJHcG1YzehHzfgODuF+o4Obwpsp3NhEjdNO40/ClITaKVqzHpMlK9p7K0HoAjy+xYfxhBvXKhuGTz/IvqMhGl9sS/r5BTgCdNe2sNpu4qZ71rPv6DncP2tj/pzNFH3jn4kNtR4vFoSmkxj2hkbAUWyhujWAo9V5WT/fV5pCMRERERERkQ8pd2CsUHuiisXg+G/bifX8aO+LkDXgZvvWlZAbrctlL4COvyyh7YnHKDnazm8Kq3j35718q9SErXILYMAOWJbZ2bGumdMnezCtGNuH/b0w65+pAaMdO2DKs+OuqiP01mHMltkbeufr80f/z9vDkBX9v/0jYA0cSiq8H7tpd7/toGGrE9eQE0d9E37MF2txRYvXVweAVicuK/CVpmkPn0w382SiakgqTj7+84kOi6ya9HxjgYi7yo3LY2GysCFdL7ySBeDa+ijMjb639zz4/0c721ZlkfPAdiA6e+DyFXYe29hB7942ir5RwrkCO3AM681+bAXRnlg7ng9gfcdH/bNrYGH0cy0psPPYj5bifnEj28u64yHokgi4vr0ejNEwLgh4W71UfXaU4m/shDnR8GzF5+xsaLLTvWcH5U/fzfhwKyYM1ORHsG+IBm/2Aqj7szwOt1ZTPuKHrOT35ZggJ98OvIj9LyyQb58QMAVgRt/zVAyAPc9MYs8q3xkI/n0dtaUmzGVPAtDdF8Cx4F1cm78V/yyKC+x8/QcWTh7cQTGnsefZ4LCVnH8He0EeqXpr7To4yg0n3OzYWIJxyfqL24HmvBW0NW2g5Gg7hsLo92oUaPpSFuZ76uPrPfQRC8e7Gij6xknGf59iM7tONhQ51msvxpYFtjIbhWUeGpxuCndfu+GRU1EoJiIiIiIi8iGVrtB++4njnKt7kjXfrgOjlZ43j1NkjND/7k3wZn/SNiLM5+RAD7bCKn747EpgZdLynLnAbYsI/6Hn4h6i+yoqAIxjsxJasgByCQV9MyzVnZ4fsHb1EbBaCQ0PYs6Pvj78NmkL77vyIbvZEw2w6qpx1Dfh8bgI4bqs2SdT9RID4mFZ7Vpo6Fk+9SyHnaGUYWYsfDMDVZU2qodcU4YN6Qrtdx/v4w+bdvDo5ipYWEz/L8EY6eHdPy3i3XGfP/Ph+MFIysAkAIQPHubezwELS5OWfenuHFpetBE84uPGVdFQLM8KGMdqmB07A5w6CLdn03/sRNL7TX/6Bw6fImW4lci+bCmJwxlzs83ReDMhJJ0JK8zoez4d/jC4t7ipuDmAbe32+PE2rbLCqh8mrWsAbvt0DucOAufDMHfybYcB/+HjVCwE45IvJS0rW2qkZ14px37hpagwGpblAOY7liWtd5vFHJ2eYSQIWcmfcXAEYHDSHoiDwyFyYcLnlFj7bLJZLVMV2h8/zPhKUSgmIiIiIiLyIZWq0P56oOXNMN6nH2HFK9sxPrATgiF6w9D79J6U2wn+FmyMAiYiF2D4nTDB3w7iPxnkyNFjcOo47wLRfijRfd1448yOdTo9rWJivVbaO0Mst/rI/UoT/T+uxlEWAsz4+vzUlkK6XlSOLLB4onWZHAPetLPcxYY+ppMuCIuJBQEuK9jKmqgtM9PgHI6HcemCsclmn+Tiq65qBw1Vh/AUutMef7pC+94g7Hmsjp62Foofs3P6zDnCQGNbL9A7YTuDAO8EYUHy9fwPgLN/xHKLmfEhUZYJwMK77/rThqChaBV3mvcD+xsnLB8FCE0Rbn1k+uHUTEz3ez6V0AX4XqMP6zkfKze7YM7EgC8UjhD89TAnTwXpfctP8K0j0QVn350yFDsH8IdzWKKpVNKyP58DLDTz7kjsmOFGgDnTj4KG3wYrgaRelzMRHTbcTn1Zfcoi+46uhms6vFKhmIiIiIiISIb5QoGR7nklnHjLi/2B6ACy8UFMKjsOhuh9rgEiIUxz4RaTmZKlVrzvFQI9l3Qs2Vbi+5yqd8j4AvqBYIj6rzjw55tp3+rAMdKPP8sBXX3YNk3ew2SsF8vsih/jxSLriRMAxPbp3F2I21k9rWuejiML3KUV+H7cgCO/fEbbKLHAniVlnOxrpphBwHzVeuakkniNrgez+T1v7gphPNHGk5scsDD52vacgZbv7iAy0osBMC00UZx7Cz2fLYE3vLN3QpchXS+w6fADdPURKg1M+Ha6B4CuBlybHFzLemMKxURERERERDKYCSBrPiffAMf5IZibOlzpHoXeH+yi6nPnKN7QBIboekHAe6TjkvY9OBwi+9IOGwBPpQ2wYQPa15bjf7mavkIHLqsP8psuY8sTw61E4+t0Na21Uh2sgK7o61NNHuCptEGlB/cAOJ1jw8ZqSwHL9I+7ttJGuzMaBgZxYGXwknr0mE0meoDIr05imEEo9lGAeTcQPB3CMm5I4cgoQBDzJ9LPaGiaD2Am+H/6sVwnodhsfs/dA2ECrZtpeui2CRMGjALNP+ym+Hwv65+twrBwbNKDnheDwPRCsZsAPnYTwej4RxLrr/3+AnAmhLkAoqHp+Apqk/MDgVYvVWutTBZcBYIhlieE2zF9A+DAh60yebZUP+Db6o5+3y9eF/cAFPZdmQkwJqNQTEREREREJMO8diwMZ7vJvdOIATPFf2mi5w0DFa/tw3xPUXw97xlo/2YdW1aHGbptO+Cn+PMl8aAA4NAgcOYQzJv5cQSCISpy4FJ6So1XUWamwemALme059FlbNO5249rqAFPfRPRiCtqfE2xRB7A9+VorTIfgaTgLBaS+UZsKYeIJvbSau+cfnBhA2yx3m4j0z+/7jPAsU4WLQHIZekSAz2GYrq8PZQXVsRnKgxdgOrveFlzvp3yp7cQrUiVfNzGFcvYt99L0QNd8UL7AK8cGMKEH/NnVqaNYopuhfZbHbzy0z2sL+uP16ALA4/s7Gfpm99n/d8/AsaiNFuYfUO/hdn4nvvOgO+Zp3AtDmN2TJw84TTAwBDL7yQpEBu6AKFfHOLPp3m8RsC2LI99O8Fx7JV4oX2AziNhDGe7WJx/adevvTOEFR/mgpkHliHA92PfhGHMIaChzjchLMv+RIiGLge1XN1gTKGYiIh86KRrsMbqcdQ3L78mQwNERESutkNnYLi1g8QePEdOnWP0eB92QwRrefRmveIOA32LV/P4824qTlaTvaKCQ6ci9Lzkw7FgiJy7alkUAZ/BzsZnu6lYayQ8z0bn0RC/OdgOc/8442OLDa2aapjjTDkA8gtn/L7q3X4IuKkOQNPadsyXeGM+fhhirF2Sbvn4emGzyQ+4W71A39hrIxGCbx3BRJji+8sBI0VzwfrVCva09nHim49T8jcVDEWy6ThwCNNgDyWbHIwPxGIe/c9WGg472PitPdz71dNEsoro6DpJ6JiX2lIT5N6b9vgsgGNNCb6t+/j1f22kYm05IYMN78/9/PFYFyvX3jbrgdhNcwFuomP/QezvLcJYkJe0fNEnL/977j8fLaxviQQwf9FB/7Eg0b5mUTcCt+RZMCxZxPdf9+EybsSUV0HvSJievZ0Y3vtN0vaMcz/KgQCYX/eS95lCWJgcyK5bYeLxbhePbnNTsWoEw6fL2Xc0xNDP2nAtBuPSB2d8nXwjEGhtjs6IOkm7OVoWLohlXLjdPwIEDmH7SvJ7q3f7sQbcuJpdJLbTHVlmhje5aNjqo8lSl3amy9mmUExERGQWuQcg+8fOCfVB/ECD041nE1PWzIgN10ic/epy1HWGqAhWz8pTt7rOEMt7JhYHdu72U0sD5krPrB67iIhcnsBZCHR2J71mnmdg/V2LKHE+CPOiQYd5DjRtdtCy10x71wtEDjdjmguuO3JwuLaBMYdiI5z7ThXt/7Sbxp1dGA1eSqxmnvxuJY/83MxJX92kwy/Hiw2tIr926pWnEOt9Ulvqo6/Qg9uZujdXKrEC/01rwTxJUf3rXaoZN4NAsDN5NknTXFh5ew4Vaysga2x20PoyM+0Lm/C1tdDb1I6BCIW5Jiq3ujDmpg9FbEbY1ujiBU8OzZ52ON+NzWSgproUy+fuJ3FmyFRc+UZytu6gvW0PjTu7MOBlUZaR2idKMResuaRrMRn7PLCuWkX7K09x9FgzVf+Y3C4rNk3zez5JT8TgWeCdQYJA4w98EJ0PMy4WjG6pdtD8z+doebUdw/5GFmUZecpVwmsff5Kubz9CZCg6nLXyListR4tp3Omjtqwb1j6ftD3zHHhmswP3XjPurheIvNiIZZ6B2tWF2O5ZA3NMM7pGfsBd5cZlDWAum3w4r3cACLgnhF+H3gzhIAD5FfFtNjjdgI/6TY540JZqmHJ1awBPdvoJJGbTn7z//vvvp1s4ODhIdvbljPAWkUw2PDys3yFyxc1kpqp0XFZw5zwCXf9wyduoLQVbpYfQSIjql0NYuxpSPiWeTgM9BPQPhHBvbcZlDeCob6Kuk7TTWE92PHB5oVhiAyYdzyYHzr7CeCjm7Qzha00uHjxZXRbPJgehfFfa5bEZxkSuNP3dkuvVh/G7meoB0KXMPpm4LRfu+N+d2LZif0dnOpRysr9b6Xg2OfB9wpXyHGYyfDI2Y+V4UxXCjw35vNTC/SIw1vZz4JvQbk3XLhzfVoutV1vqS2p/Onf743X3EiVOtBD72avNcc+47To8PExubu6M3vOh7ymW7qJD9AnJyqLkJySZKunpyDW+8Yj9ADWtHZz1Y9lzArzf/hrl88Ks2VkPc6yzun0RufpSTYV+KcMnHYC7cPmE98V6QNkqPZP2kjJb2gEwZ5nxVJqpszThrqrG5bEQwobvx9HGw/jCvON5Njkw57tw5JvjU8XbO5uBqpQzVCUe36VwD4AvYUjH+GOx5bsuzswVbaikuwb0+aPnD7jKzBSWeVJOc5/YaBprWJFy+fgZxkSuZw2vj+LfuYH1+VCyaScXS5dfEePbSuluPmbD0Fno3+1j5TctgC1l+HCldLwZont/O6FAP0TCV6XtHr4AO7uGePTWfshbOevb7x+B0Zf2UPLw5dW7+jDoHwEXhzCXJddamunsk7Hvv8vqS/pOxtoHvhFwOicP2hIfJMWYAU+9g8R6YtMyMjvDJ8f/zR+/TqoA0Qo4ml1k+ndLLk/Dbv+En6eYsRlbJ+/BlW692AQTk7nkn71L9KEPxSD6gZQ/UUHiGOhRwNczRMvPOjjdv5E1zQpIMkH3kQCmBWG63jFRcbQTQ6E+c5EPI1c+kGL4Q6yB7AfanW7qm7NnVFssN3tiIzNWR8FcmPxUqr7MDGXRY2juDOEIuNOGbbF/O7oakmqgJE0Vn6LornsAHF0N2DwTh52Mf5LXANA11iBPbGyPnyErVVg1FavFnFgq44pNcy9yPRoF/G/0Y1pg5JWBP1IS7AFL+ZTv+yDY3RMi97AbuPzhbdMVvABPNvpgwE3pEjO2DRWEP2rm0PEQLa96ee3gRuq/54KFs3/DdPAd6G3dDZtm1tNguhpf9uP6rZerdbN3PXNkAfX1E14b/6BrvPE3zO2doUkD4elsczal2l9iuyTV8vGvJbYh0q1ztc9LMkd0RtcP7jDimcqIUMwC2AsmTiFaUmCn7i+K8T5fTUVfJ4ZlCkg+zHrPQ/jVTirvM9P8Cwc9XXsoKVzDlXySKyJXh28EaKrDUV8FmPEDfU43Lk8hib/7Y72c7NVNsLYQZ1UDTWuTa1/5SNGbqzT6P9mfgOGAlWgUdnFWJsAaGIZPTBzW4h4A+pzkdjmSQiffCNDVTtAa7XfhGzFDVzuuTQ7ANmnvr1TDOVJNC28rq48/oRvfu6uuMwQ9Uw/FTDd0JAC4nRPfPz54i6ktJV6suLo1AK3j1xm7OUy5vFh/n+X61hMEBl5hzQY7zT+EwM/2Yn3o6oVi031yPxuu9BP8MFD3XD/GATc7NjowLhk7p+IC6PmSg+aaZvZscbOmOVcPtSUaIGXQDbyIzK6MCMUms+wOM4HncxgdDcU7BoYuwK62fvyvtcD5UWwmAw86i8m5cw2xIoFDYdj5zz6GjnbA+VFyTAY23FdITmklzBkrJNj+Zgifx0341HGMhgiO2y1UVD4IC6IFDd0DMLjVOaGL8PjX6zpD5LZWc8OmKrw7XsREkB3fKMFYuJ7uwTDtbXsYPd6DgQjFeSbWrK7AmFsS355vMEz7P+0mfKov5XHMxNBZeMHTjb+nPe31CQN7Xh/iyN4XCI+cBCJj16isMmm93Z1D9O1thrNByhcbyat5csI+wxdgd1d0vcjZIJZ5Bh4szcN+//p40cDJrhHAkWMRjJEeim8v58Ubl/BK256kJ7l7AtBV9zWe37QiPtQnANQ9vAfHf3hxPT92Q7snAH11X6Pp6XsJ37pyynON9bqoeWiQ5oHl/PFYGxW5N1C+dTOQM6ufj0gmsgPVOcuhrhpLfRMNTi+uUh+MlENW8rqWnOgQx/oyM+5sD/0/duIoGwu5xveacu72czHuwZIFh8iFkSBkRZf3DUAuPsga60WROLzIXt2EuRIShz/Eapy4c1wMO6txeWrjT3tDQNOXzVQ3uXBMUiQ4VZ2tdMMNA8EQy2dyQS8af/MbO3bPptwJhU/TDqtMOLbxx63hk/Jh4TsSxE6QwoJVGI7fSOerPVgf6IW5YzOmxdopS/6xhua/9xM+0YVlHlTdP9Z+jH3na3Lc+At20vWD7XA2QOGtRir/S0XaQtephk+OXoCWvf0c73ohbdupezBMR9seQoEjEAlHi2/fkYPj6xvAmBMvQxIgGr7HAu5Uwyen2+at3Oqi+RUI/ls7hkiY0jwTa76xPr5edxDCr7/Ak/cYkwKxmOIFcGj1Gn6ztx/ODILFGj+XydrDsWu0be0g+6iMtyltJgOPbCjFtGRN0nBy59ZAUj2dqe4P9gTAW7eB2tIItsqdxGZ63NAWgH111NU5eMyTDQE3bqIPFlQvUUTk2sv4UGxwKAIMcdPHon+I/efhe0/sIfuslypnCWQVse9oiI0726j9VT+2yh2EMLLxKR+2/89NlbMcsmzs6wuxsbWN7e8NYbl3O8DFAomPszLPyKInXPSOGOjw7MP/zcZL6vLdDWTvaKFmbQmh86swWo24B8L4tj6KPSvM3RvKOckivHsPcPo7LdRvj0CWg4afhTj53OOULzGxyOni5FkT3r0HLuk4/GFoqHGTc85H1VdL4tPtbtzpjV8fMFL3YpCRH21k9V05mO9Yz9BZIx0/7WZzaw9NHwtjWlEDwKNtAcL76qhYZsa0oop9R8/hb3yKaP++qBDweGM3pl+24PqSHdOnH+TAr0ZpfKUD1/FqHJufgTnmtNcIosMael7roXweYF3G3SYL7jZr0pNcey54DSsIvHUQ68WbvcER4OxJ+gHXqQDcGr0x7e4NUDIvDLfapn2uAN/3/IaK/zSC8Yn1fOpsCMiZ1c9HJFOZs6Cp0kF1HeCsTlkbBKLhUCJXPpA//afLZiBgzYa3h+Nh2+BwiOXW2NLxNRrHtp04nDF6I+TBAdRZ7DgTjtkMkGXGU++grtOO+2Jodj3UBxk/i1Ci8UNLx9d1S9W7JNa7xT0A2XVOPPVNgAPnbn98ooKrWVNC5FIELkDop69RsQQM8+yUrDDiO2hgzeEDmO4sSlr3CNBd20LFIgOmJ9azr+8cG1vbqD1zHNvaJmJBSsubYPjXjaz/yiLOfbyGtp/0cnyTm6a6YQx5U/cGC12Ax7f44ISb1XflcNMd0TZW44tt1IY3YlvbRMcpA+2b6ijJHcG1YTWjHzXjOziE+40ObgpvpnhjEzVfvAX3/12P+WctlD9RwS3/Tw6RFPubbps3CGx+poPyTxpY9LdrOPAr8L7SwYKnGil/ejtgwXckiJkg1pKJv2diau40wZ0/jP871h4uuS1MUfVqTkbMePceoH9TCzs2DWFMCPG3vRzkU3M283erx9rN9du8bN++gJJPlhN5uIbu59zUPGBm/m3lwC3Tuj+osBrpKXuEf+hsYOfn28G6hj0BGN23nfp7TWTluahxhmj8SZiSUDtFa9ZjsmSlODsREbmaMjYUi1yA7sFRep7/IcUGMBZEnyK5u4IU/t5L1Q+qYF4xEO2q3Xz7CtzPbmB7WTf9hnIIHKJ2YwksiU4Ray+ADX+4Cf+x3VjuDdE9aibQuouaO2/AviEaFNkBW3Exzd9opndvG0XfKCHW+JnWMQOb1y3B+LnoH/Yg4Puul4pbR1m5bTvMsWAHPlVkZ+d/bWbocDehUgf+/9HOtlVZ5DwQDevswPIVdh7b2DHj49jxvwJY3/FR/+waWBgNk0oK7Dz2o6W4X9zI9rJuApZy3v15L98qNWGr3AIYsAOWZXZ2rGvm9MkeTCugexRG97VTW2rCVrkNMFJcAHX77XCimmipSGjvi5A14Gb71pWQWxG/3h1/WULbE49RcrQdQ2FVymsUc2QEGHiNLzxgBqzYs8BtXc7hg26sqwMwx8qiOcBn8xj8pQ/rxaFRx34ZxjQvQOg/TISHTmK8NXrdw31+lq0wEsDKuz/vmPJcY8oXRCj/5haYE61v13ueWf18RDJZbDpoK2D7sivt7DiphvilC9HGMwPkWPD3ubHluwgBgZ5+qoqtxGa6OlRVhyehkH+s54EV8DS7ICt5P7G6IXWdIRqczqRaX8k1RZIDvdTDEC9KMdzQkhM/g5T/Tmd8If5Yj5FELivwlSaGA7HjNOPr80dfn2LmyaR9JQzJDADOKjfgju9Ds2nJ9ejQceBsF4V3FgNGCvPAZyih/w0fJXeOklimYRSoLSCp3fOY2Yb7R4+xvbRrrA7ZO7Bt09J4mGNbauexjWa6Wtspf/puEh8eptJ+NAIn2tj5zWKMy6JtpOICeOzjNnoOPIntgWN0983HseBdXJu/BXNtF9ex8/UfWDh5cAfFnMZ+m40Xb81LKkUyvrph9yjTbvOGgZr8yNh6BVD3Z3kcbq2mfMQPWRZCoRAlANnTK6QfuAC+5r2ssY5S/p0mmGPGDixdYWfjxna693QkXTP7e2HWP1MDRjt2wJRnx11VR+itw+SUlZOTbwdexP4XFsi/2MttGvcHBks5jzhtNPQ66NjlxbbtC3i//xoVt45idV5s4+WZ4bCVnH8He0Ee+n0mInLtZUQolrI+zEXFFgNV/209GIsIAcFDx1hyC/SfBOiPr2f4AwQxEXrrMPPvLAeDGfe/9LByvg3TLYUY5xh4/rFiIPqHsvetMGb82MsriA0VBCieB7u/WMaR/T0UVR4Dkp8gTsYKGK158X/73wFOHaZ4rRXmjDWOioxQ1BptAPmOgTHSw7t/WsS7b/Ynb3A+HD8YoegbJ0k1NGe8ABA+eJh7PwcsLE1a9qW7c2h50UbwiA/rqnJ++OxKIHnGnpy5wG2LCP+hB4jg/2W08o/t7uRrdO8XzOx4vpjYDWDPm8cpMkbof/cmGHcOEeZzcqAH28VQbPw1ijlwOIiFAJal0RDTDNjuWkrXTne84L4BsNttHPsBOM4GYJ6Z4ycHcRVAy2gFgyfd2FaAfwQMZ45iXRJNu6ZzrrFQK+924oEYQP8vZ+/zEclUiYFL01or1cEK/C83YKt0TKixEytmn25IIkxeUwzAUWgj+OPorWEIMwSGMX8lWpA5VvQ2VQg0PuQZz7PJkXJy16r/7gAAIABJREFUgESJQdZMhk9eDlc+uDyeeJ0zKqOzSno2kTSE0jcCh7DCSBAfNuhqx7EpOrtauhpEicNMDxXXQmvDpDOOiVxvIkD3wV6KDREMS5YCYJsDxi8u55X9vgkF96Oh/UoS2z13r7Dg/pGV0eOH4+uutIIxf+x9ljlgvauYw63tlL/jhwWTh2J9x09SYohgLCxJen37Kguseh6AplXAqh8mLTcAt306h3MHgfNhmDv1NZhpm9e+bGnSernZ5uiji7eHCWUBwVC01TTnxql3DhweBM52U1pZHB85AJAzB2zlDnw7Oyg/1Qu3RttqRQWAcaw8RbSzVi6hoC9lRDXd+wOzpRzbXHB8YzUd9UfwfbMR6zshVm5ek9ROFxGR60tGhGKJs0+OAh1dJ4kc81L38BIsdz1CLLAIAfwmhBfwPt2ccluhM6MUzYWihyvwPRfAV9OM0QBLrWa+dE85liUrYI6Rc384F+3nlDXxj6DF/OfRfZ1997LOa/htgN9gzi5Ju87pMyHCQGNbL9A7YfkgwDtBphO6/AfA2T9iucXM+J5LWSYAC+++648/u4xcgOF3wgR/O4j/ZJAjR4/BqeNEz3qU0Cgpr9H8ucA8ExCKXqdgiN4w9D69J+VxBX8LNkbTHnfgAgRffo01twKWJfHXi5eY8GOjp6snXnB/yWeMuLESOX6UkWXFRN4KsPR+O76zeQQORLAR5Ngv51NIABbdG9/WVOea7kngtD+fBQrFRNLxDpA0s6NjAPq2gq3ST+LvttgskYOQVBNsvMlqigEU5kP7VgeOkX763nbgwAf5qWdlm069mHQzPY6fIXP80M/pis+OeRnF6us6Q/FZLv1p1rFkQYBceHsYd58flzUA+VVptxkbZmolgKPZhSPLhjNYS11VA/XNKBiTD4SeUYgcPMDSFQaYO9bGKFlqxbvfOKHgfi5MaPfEQpnTp8ZCmVQ9OePh0elhWJD+mEaByK+DZN9GUkiUTigcIfjrYU6eCtL7lp/gW0eiC86+O61QbMZt3o+k7/0e640bCQAX3oM5U+//j/8OZsIYLLdM3P8CU/R31rujcGv0tRunl7XFTff+IHalV+cZOFj6CKNdDdStzomPrBARketTRoRi42efXFpg59HdeTz5XAPPvFc/4YZlOsNoHl1hZvRzTRw5NkT3awfpPt5D99NuXIvbojWuroYLQMrKDsmsMPWT95HZOqioHQdD9D7XAJEQprlwi8kcbSC+Vwj0TPpeI8DHbkp6bXrDZlLfMB7+P8DZbvachT3OxyYsf2WA+JNcWxaw8A5OHu8guAhyzhzFaF1G3lkzR583Uv6On/7++VQtIT7U4HLOFab5+YhIWonTnPtGwLe1Lvr6QB/kjwVf/SPgCBzCV+og9OYhzGWX9jNnAxpKC/G93IBvKBp8Tbc35/g6W5MJjkA0Gs9OGWxNd/hkCJJ6s8HE2mqTiQ0RHT9s0rkVYkNT4+GfNRt33yHoGoz3EhsvWnsoOkxy/N9bT6UNd6EHZ5UTK279bpTrXs+xUcDPjoPAwYcmLO98lQkF99OaM3WphGgPqsnXiQD836l313MGWr67g8hILwbAtNBEce4t9Hy2BN7wTr2BK8RqMXMcYHgIbk094VDHKTjy3Y08+pAFbkofvs+m6Q6zH7kA4V8GAOj9+RAr7wmqp5iIyHUsI0Kx8YzAlrU2Hv+ti82tbnZkuzHmu5gPsNBE4C2wEWSqeg2mOeAoyMFRkEPkwhrq9wdpb3sMx6CPmz52PwGI9ka4Nfl9wdDvWQqwwAxvR2tUMRpKmiFt8Ez6nk8x2bcAWAkND2LOH3t9FKj+to9HbunAfHsjPUDkVycxXOaNxUcB5t1A8HQIS8KQQICRUYAg5k/k0D0KvT/YRdXnzlG8oQkM0ZuiIOA90hF/j9lkSnmNgueBM6eBi1U4suZz8g1wnB+CuTOrvRABul7txUKYBzc4YN6SpOUHTkG/5/vxJ7kWwFhoI9DXzum8AHnzArDwIRabwIud478egn8bxv6wHTBO+1zTMZtMs/b5iGS6WO2r2rVWGnpchIYPJf1uPPRmiIrSABTWT5hxcqZcX7bhrrJixY25euqi14myE4ryT2b4bcglAFkV8WCL4okzQk4VtAVHwMogfOJS5p+cuL9Yz7bxwycBrMV2fK1uakuB/LEHTuPrknk2OSa8NyY2XNMPOJ1uIPq+8T34RK61IOD39mA3wN1/Gx2RkOiFY6P0dLUkFdyP9pr6PcxL2M7FADz303mcu/ja70cgOkf32DDDweEQeQCfXDTpcZkBw6ctDL8GXAgl9RZzH4cTzz7ExtoKmtuMFJ/vZf2zVRgWFsfX6XkxCEw/FLvpYzdNu807HctuN7MHC4HufVgfWplynUN9Qd4dHcL88Txu+AiEMBIJnsYwfv/vjEY/FfOl1+6a6f3Bjp8EsZxqp2jDStp39lL0kx1YVm2/5P2LiMiV9ZFrfQDXinkOrP4vDkYNVtp3+uB8dNif5a4i9p2B8LFXktZvORbmaw99jXBfC3uORdjwcDWcGBvOZ5gD8z8+P/7votuNhLDR791HtFET1XMWwq92Yis0wJzF3PCnEMbIaPA38XVCFyBwcOoeRrYFwK3L6PlZAC4Ex/ZxBiInDpFzaxZLl/w5GIrp8vZEG0YJ+3DWefE+8RAwNK1rZgWMK5ax7w3gTFfSslcODGHCj/kzdoZ+C+Cn+PNL4yERwKFB4MxYnZs78gyEDEUTrtG+10NAHxCN3Yr/cgk9GAi9ti9pn94z8JCzjqF9E3t/xRw7D5GDR/hSPtjvXIm9wJ7036p77TCvlM5Xw3A+Onxxxe1Wjp4x0PdaO4tvB7iNRXOBxYt44X8ewRo5iPEz0XBtuueaztIlhln7fEQymXO3H99WJ01rrdjK6iHHQigYiC/3A4FWL7ZCB4X54A44YGDymz7nbj9OpxO6GmjoAqfTiX93NKA59GYICERnncxK3ZMhlcHh6ffQ8vX54wFaLNgyFyyPn4/b6b74/6JCQF2dD0aSJxY49GaI5dbAjI7zcsQmOkjkyocmjwes0dedW304nc74fwy4CQHOurHXG5xOEnuiuTweFIjJ9aT3FHDKx6ovGrEXTGxjfOn+EsBGj9fPxUeg9AOhg51J2+n4aQAbAYy3j/Um6zwGnOmO/ztwAQIv+yjKB+ZNrJ06XmHeIrojBsJ9Y9sIAwcP9rP4PyKcvuU2GBhieQFJgdjQBQj9YmY1Cafb5p2uEgsYPlfB9v1hwscmDi3vGAwTfGknFYsNsNjBslxgXsmEttTQBfB7fdgXAAunvmbpTPf+AKI92II/2sGGe01U3FmB6d4N7PhREE5N/aBURESujYzsKRbjWAiHnFX4nq+m0PMP2NY24brLQsNPHWzY5sN1z68x5FVw6HiI/le9uD71R4x3rMT+ngHvjXY2PuXFcd8opluX031qlN4XfbgWG8DqoAR4be06GlsfZ+XIoyy6p4LeEQPdnn1YGaJ4tQswsiwXvAtK2PZDL/eeb+HcnxXR9kov1hv7maongQVwrCmhfes+QpuepOivV+OPmPG2tuNYMIT5zlrMc8H61Qr2tPZx4puPU/I3FQxFsuk4cAjTYA8lmxwkPtns+EUQw5mJDZDCj4Pt3goe/c9WGg472PitPdz71dNEsoro6DpJ6JiX2lIT5N7LolHwGexsfLabirVGwvNsdB4N8ZuD7TD3j/FtFs+Dzq8+yPdbH6d8dCOLSlfSfhyG9rtJHBZacYeBvsWrefx5NxUnq8leUcGhUxF6XvLhWDBEzl2pa/kAHDg8ioEeikuLSZz9KcY6Byxf/gI9bd74k9y8ReCjEAZ6WPQ1K2DABBgX5RLcF47WJrtYi2jRJ6d3rukUzfDzEZGJ3ANg7Zq8QHvDbj+1pT7I92ADrGvLcW+txuUpJDabWmJhfJ+zIdqbqXKswHxs2Ix7AAKt1Rd7pC3H3tk8Zd0wSBiGGIBDzupJjzc2XNJ+cVbLQ2+GknqNNdT5cJX6YCS5Vk1usR13VTUujyV+XomzYyYyW8aGWKafkCZ9D1bnVh+JoZU3uz4+LDI2PDV2XZuKD8HFa5RYZy1VPbXE5Vdi4gCR2bKvO4CFENa71qRcXmwC94q72XvQT/mJ14j9PD3+fIDVwY3cdMe9tB8cJXy4nXVrrWAaqxEbADZu3MO9ztOM/lkR7f/SjfVcLyVfc5GqPTNerO306LNuKlb9HsOny2k/OMwfD7dT/jUrhjk2DEt+z/df9+EybsSUV0HvSJievZ0Y3vtN0rZu+thNHAQWveglr+A9uC05YC8xTa/NO11GoO7rRdQHy9mwzUvpkn5sny9n9KNmfD1DDL3RgWNBBEdNLWDGOgccVfezZ2sPpzc9TtFfr+ZkxIx37wFMI/3cO8O21E1zAW6iY/9B7O8tIqcgb1r3B8EL0N7UgWNBEOv90bbpI/dbaXjdQUdTOyu3FcEcC8a5H+VAAMyve8n7TCGGhQr7RUSupYwOxQCqHGaqf7GGf+jcw87idmzWNWx7xsULbTm0vNYO+xsxzzNQ88VF2FfXwhwztjlQ2+jihZ0mWl7ywfkeTHOh5os27KufIXbjUV9mpj3rGXweNx1PuzEaIqz5rIXyB2vjhdOtc6CmYQ0tP4Dm1i5Mc7v5uy/YCN29jUPfnLqrtSvfSM7WHbS37aG7qQ2jIYLrsxYcX98Gc3PGjmNhE762Fnqb2jEQoTDXROVWF8bc5Bue7hNhOOGbsJ9sK9juLcdmNLKt0cULnhyaPe1wvhubyUBNdSmWz90PGCk2wbnvVNH+T7tp3NmF0eClxGrmye9W8sjPzZz01cWHQtaXmdmT9Qze53bR8XQLNpOB9RtLadkWBqJDKM1zoGmzg5a9Ztq7XiByuBnTXHDdkYPDtQ2MqRs6sWEN5fPAcEdZ2mv4pRUWWtps9L/hp+TOUWxzTbDkDszHejD9v3fE11uaZ6V7Hyz5SzOxrvMzOdd0ZvL5iMhEiTXFEsVCn9iMkzbPWIBeVWamusdFdl0DjvomzJhTzo44XqweViy4qS2DaucwTdQlBWPjhxwmzrLo8DTh3B3CWdUARGfM9HgmziIZqwMW6+VWdbF2WfVuf3Q7lRfrLL49tk9XmZk6mnA7q3F5avEO2LAGkod4+gG6+jBvGqsxNn5oYmJYNX7oY0ziEMjYOrFwzLvViavMTwhb/DwubZoAketT7/loL6g1+YClOOU6BqD0i0V4DxoJHOkGswMrULZxDbvbBgn/rAWbCWqfKMVckBysrbHC4N01tDz/QnRmxTwTazbXTLvHZ2Lbyd31ApEXG7GZDGzZWIppSXRfW6qLaf7nc7S82o5hfyOLsow85SrhtY8/Sde3HyEyFC3tsKrAyFOLV9L8Iy+u/92P/b/vnLC/6bR5Z8JqhJ1b17Dn4Ap6XnoBb1MbECHHZKBmVR72+11Jw0LHt4cNRCjNM3H/xiqMaT6fdOzzwLpqFe2vPMXRY83U/6ML2wLHlPcHO/eHMJ5qp2JjSbzurG0uFFdW0P5sN8W+nZjvqafyListR4tp3Omjtqwb29rnZ3x9RK4HdZ0haJ38IZ/IB8GfvP/++++nWzg4OEh2dvbVPB4R+RAZHh7W7xC56mKzGno25eLsK0zbiywW/DjwTVqryrnbj4sG3EMuCLgnzCgZ21/TWib0GHPu9kNXtAdWqpkox8InX9KEIu4BGNzqpL7ZRd2b9nij0/22g+wfO5MmHklVU8y5209tYR8NW6Fp7SCU1Sf1hBu/r/Hvn6xu2PhliYFY7Pycu/00WdrpL6jnUFUd9c3LCWU5ko4hkWeTg1C+K+3y6cziKTIbruTfrencQCYF6FNOMCSZRG0qud4oFJPr0fDwMLm5uVOvmCDje4qJiMgHX2K4BNEQxdlXiKOrIW3gZQOaPC6q67LjPcbS3YC6uwDcKQvEO7LA4qmn2unm29Tx33uWx4Od2lKwpejFlngMHo8LcFHXGcLtrMazycHgcDnLrRDKshPo6Y/OcJnlwJUF5Ee3lziL4/gZMD2VNtwDNlxWJ+aypuhraXrCpeppN3Zck/MDvq0Tr0tTpY3quiC0OqNF97PGAi0NnxQRERGR64V6ionIFaOnmiIi8kGinmJyvVKbSq436ikm1yP1FBMRERERERGRyxYrERGd/iM1Z5UbmFj6ILFUg8j1TKGYiIiIiMgVVl9mhrL0w6lh4iQdIiLXmhVS9gabrKdYXWcIeqqv4lGKXLqPXOsDEBERERERERERudoUiomIiIiIiIiISMZRKCYiIiIiIiIiIhlHoZiIiIiIiIiIiGQcFdoXERERERERkQkCpJ9hkkmWLbde0cMSmTUKxURERERERERkAs0+KR92CsVEREREREREJIkjCxye+hm/r77MDGWeK3BEIrNPNcVERERERERERCTjKBQTEREREREREZGMo1BMREREREREREQyjkIxERERERERERHJOCq0LyIiIiIiIiLTpmL68mGhnmIiIiIiIiIiIpJxFIqJiIiIiIiIiEjGUSgmIiIiIiIiIiIZR6GYiIiIiIiIiIhkHIViIiIiIiIiIiKScRSKiYiIiIiIiIhIxlEoJiIiIiIiIiIiGUehmIiIiIiIiIiIZByFYiIiIiIiIiIiknEUiomIiIiIiIiISMZRKCYiIiIiIiIiIhlHoZiIiIiIiIiIiGQchWIiIiIiIiIiIpJxFIqJiIiIiIiIiEjGUSgmIiIiIiIiIiIZ50/ef//999MtHBwcvJrHIiIiIiIiIiIicklyc3NntP4Ns71BEZGYwcFB/Q4REZEPDP3dkuuVvpsiIlO7lI5dGj4pIiIiIiIiIiIZR6GYiIiIiIiIiIhkHIViIiIiIiIiIiKScRSKiYiIiIiIiIhIxlEoJiIiIiIiIiIiGUehmIiIiIiIiIiIZByFYiIiIiIiIiIiknEUiomIiIiIiIiISMZRKCYiIiIiIiIiIhlHoZiIiIiIiIiIiGQchWIiIiIiIiIiIpJxFIqJiIiIiIiIiEjGUSgmIiIiIiIiIiKT+h1wX81+fuetudaHMmsUiomIiIiIiMh1a9cxuO+++5L+G9h5X9I6U92s7w9BzX01ENp/FY54duwPwX331aQ8pwHgvvt2TbgOIlfa4k/dwo7nTkz5szTdn7n7dg5c0+/xDddszyIiIiIiIpLRdh2D/d+Z/Ib4HuCll7YA+fHXBo5BNBqKvvY7gBOnuflvPj3jY9gfgl3raoATE/bLd7aw/zubJ33/YqBx1zow3zPptta9tIX9ofyUyxO3EbPrxQHWLT7BzeUtE/Z5+BgsZj/5q9ZN9zRFLtvNwOoN+WzuvIff9f0rN5ffk3bdAuBfH17Nfes20/Lwv3JzeeNVO86ZUCgmIiIiIiLyIfM7YH3Nfjixa8Ky3PkGVpfeTkHFIzBn/tU/uHFigVFi6DWV/CUkrX86BIv5FWT/1cz3b4Z7XmqMX7OWz4/dwO86lnx8u44B3/n/2bv/sDjrM/H37zXfzKYdN1/HdJmNmURDzA62MtLM0oJWEo9oyLCXjD1NjEVrsMtD2hKPYru4W2FZSLtOa2m/hrZhWIUcO9WEVmdyyoQYXAP+gB46KQ62MhvBmozmDK6LV5pxcyYn6/ljeIb5CTMJJDTcr+vyuszMPL8/w3ye+7k/98ca+bd7HHqV2Eyu+ACXukyq9+PXUdsVwNdWFV4WsFurYpYLZFlwPxPOvrEq9slPTWmtNKIvtWHd7YXuxICefqmGzQU5FN+3DbTZGZ8vx5tBXN+zEZrwUqyB6p/Vgcac8XoyVdsVgLaqhOBhpssFz0JL9xi1qzyQuzly3RXsWGythEM/M7MPwWiDNbJeNcDrbLBA3uwGKz3jMPGLdoq/bgH0eIF6q53GEjem7c5Z3VZ0+5tOVRvQljygrbZBW6kJd76TKqUW5wr7rJ+X2SBBMSGEEEIIIYS4RBmXwpqbiwENACGgfzhA075hat6qoqi+Fbj4gbHz1TsYYA0+yCq/2LsyKxQjMQGa6MCZawgsPntCIFENlMBo5DUDYCo1Ex3o6T92ipYXBjjuqaHCboNFxrT3KwB02nsovMxL8cMV6JYYQJN5YO1i6v0A+ttaoSHzrMKLpek5L8o7LibzF+eUrVQPpbGBNutuL8rb9RkFDVVq0BlSB9zqAbpjA2xzEVxMRoJiQgghhBBCCHGJWr8cLJWbib6RrQCUXR66Xmyi6IN+WDb3N9pzzXc8gA9wW2Mzo9SMlfPhTrLe6H+HQ0pTGWo+EjO4os9wsvfj15FKAHA/46a10kg6mXUmQKksi/msAtTuD3DgqSoqft8LuZkFxXg7wKYSMN1clvZyF1OyIE80PeC0WTjfgJOSB4pzdrO2UjEBTqdC+GrOrfA198/KulIF3Bqpn/WMt3RJUEwIIYQQQgghFhAtYMg2cOZFIHQm8nrwLLR2jzGwt5nQST+GpRoqSmKHWQaB9hfH6N/bQXB8BAiRrdNQ/aUCskurAG0kY6m5chQnVZH1mXQaHtqxCd26ipj9SRZ0Soc6rNGLCboHYjJLIsNH6Y1ZpvY5PzUrazMKlF3o4ZPTcQ2Gs8T0tsa09z+ZNav04apmZ0Ixr7vfCuJ4opXgsQG0mhCWGwyUb6+AZeaY+m/13UC3NRJ0HDsJHT/rwdvngNMTmHQatt1TRPatFYA2cj1qVtvZp2nEv38nxTqobnkItIV4xqFlVzsTwwfQEKIoV0fFfeVory1OeQzq8MWqxxWaXeD/tQNNKMimXB0VD1bDsvCQzujhk/b3LJFjsDb4sOCmzNlIVa0/ZvhkOu082f6owycDeUrK4csQmwnY81aQzj3tBHz9EAqiWwKb87OxbK8moM2OrEcdSttaaSRQaksYPhk4C/a9Hoa721N+f2u7Aqxpq8L8ZB0tP/IyMXwArSZE+ecNWLbXTDuc1rAa0s0SSzYUeb6SoJgQQgghhBBCLCCeEyF8B1wo12lgeQEQvond0dSD7vctKFYzurUVuI9O0OTsRBmuwrJzFyzSU7vPz/jPa9h2ezb6/GrGTmrp/FUPj7T10aoNottQF9lO03N+shc9Qu19ZYyQg2uvm7pGFy0tV4JhKsvoXGqKRVOLznNVYtaMfsXUEDkfQLebKqDxuHVOMlOih4qplDzA6cS620vrylosTlskcKgY3VhsrQnLpKLkA6VOand7sX3RnbS2VvQxJ+ObgN79LizLgE8XRV6vfyHAyE92ULZOR869CiMndbj2uvF+rQnb/1IovtqC7tt1OL7jojzPS3ZpHTrDYrxBqH/ITvYf3dTcV0woq5DOAyPU7HLReNSDaXsLahCp5d+geMVOtnxbQTseAm0O7cMhXE07KF41QeHD2wigp8PVj+ebLbQ0jKGdZgidH3jkXzopu1pDzrcqcB8Fl7OTK/+5ibInWggPIJ1SfDWEvl5Hz0/s1H1Zj251GbByck1TMmnnyeiAunvMcDr2c+1DQca7mjEXGQE9ncfA8c1aiq8dR9mxjYkletyHx7C/3MnlwUcoqG+l7h4zTb8spzjgoPD+anSGrHD2VpTAWdjxqBvtm3aULSY0aytwDgZo2tcR8/0F6Ad6/r6FbWYdl99RjXPwFPYXOtAteoTCB3+GOtQ6nhoITSU62BsYB0uRgao2H5Y263l9v+eaBMWEEEIIIYQQ4hJl900Vao9Wfh1Y/rkFNfPDMRAia8hOy+Ob4dpwXS5zPnR+oZiOB6opHnTwdkENEy/182iJDtP2xwANZsBwkxnbV5o5PtKHbsPUNsxnglQ/UQdaM2ZAl2vGrtQSeP019IbZG3rnHvCG/+c9P2SF/9czDkZfb0zhffWm3f6ehfoGK8rbViy2VrzoJ2txhYvXV/mANiuKEbi7Ne3hk6lmnoxWBTHFyeOvT3hYZM20x6sGROyKHcVpYLpgQ6osvOJloDxeC0vCy/afBu+/OmjekkX2l1uA8OyB6zeYqX6ok/69HRQ+WMypfDPgwfhXXkz54Uws21M+jB+4sf20ApaHr2txvpnqnxdi31dDy9/2RIKg5hAoO6tBGw7G+QFXm4uaz09Q9GA7LAoHz9bfbKbiB2Z6nrJR9oSF+OCWKgjU5YUw7wgH3sz5UPs/c3mtrYqycS9kxS6XrYPsPDNwBea/NkCeOSHA5IOM2nkyGsCcqyc6s8p9Avzfr6WxRIe+NHxNegZ8WJZNoOx8NHItivLN3LPYwMhhG0Ucx5xrgleNZP8XmPNzSZat9ePDEyx+005LfTHaddWT64Hm3PV0/KCC4kEHmoJwu5oAWsuy0N9hi3xuy2UGhrvrKXxwhPj2pM7sOt1QZDVrT2XKAlOpiYJSJ/VWOwW7L97wyJlIUEwIIYQQQgghLlGpCu073hzmVG0NFTubQGukb3CYQm0Iz8TlMOiJWUeIKxkZ6sNUUIPjp5uBzTHvZy8BVucQDPZNbiG8rcJ8QDs1K6EhC2ANgePuDEt1p+YFjN0D+IxGAu+Oos8Lv+5/j5SF95U8MNid4QBWbRUWWytOp0IA5bxmn0yWJQZEgmWNlVDft37mWQ67AkmDmWrwTQ/UbDdR9bYyY7AhVaH9nuEBgt+0UbuzBpYX4fk9aEN9THyiEE/c9edKGD4cShow8QHBw69hvRlYvinmPeumbFr2mfC/5mbxlnBQLNcIaKdqmHlOAMd6Ic+A58hIzPK6TwR57RhJg1vRzDcVEj2ccc0KfTi8GRUkzYQRMmrn6fAGwf6onfK/8mGqnMqca91ihC2OmM9qgNVrszl1GDgdhCXTrzsIeF8dpnw5aNfFZnKV3qilr20TnlddFBaEg2XZgD7/xpjPrV6pD0/PMO6HrNhr7B8HGJ02A3H03QBrIOE6Rdc+m25Wy2SF9uOHGc8VCYoJIYQQQgghxCUqWaH9aqBlMIjrOwrrXY+h/XI7+AP0B6H/O+1J1+N/B0xMADpCZ8H/QRD/O6N4R/z0D3piPhebAAAgAElEQVTg2DATQDgPJbytxYsz29d0Mq1UataKoyvAeqObNXe34nmmCktpANDjHvDSWAKpsqgsWWBwhusyWYZcKWe5U4c+ppIqEKZSAwGKEUylrTSW6qm3+iPBuFSBselmn2TyVeVhC/VKL84Ce8r9T1Vo3+WH9upa+va0UPSImeMnThEEmvb0Ex5gF2sU4AM/LIs9n/8vwMkzrFypJz5IlKUDMPCf/+lNGQQNBADGaN4P7G9KeH8CIDBDcOuy9INTmUi3nc8kcBZ27nRj/KObzTsVWJQY4AsEQ/jH/Iwc89M/5MX/+uQ1ODkxY1DsFEDwFIZrIf5EXbEIWK5nYlzdZ1gMsCj9L6f/PTDii8m6zER42LADW6ktaZF9S3f9RR1eKUExIYQQQgghhFhgbsvX0rO0mJHXXZi/HB5AFh+IScZ2OED/T+ohFEC3BFbq9BTfaMR1pgDoO6d9MRiJbHOm7JD4Avq+4wFsd1vw5ulxNFiwjHvwZlmgewBTw/QZJlNZLLMrso+TRdajJwBQt2ndXYDdWpXWOU/FkgX2knLcz9RjySvLaB3FBmhfV8rIQDNFjAL6C5aZk0z0OZoPZrOdN3cH0L7ZQX2DBZbHntu+E9DyTzZC4/1oAN1yHUXXrqTv88Xwsmv2Dug8pMoCS4cXoHuAQIkvoXXah4DuepQGCxez3pgExYQQQgghhBBiAdMBZOkYeRksp8dgSfLgSs8E9P/ox9TcfIqiHa2gCX/OD7he6zynbY++G0hRLSo9zu0mwIQJcFSW4X2uioECC4rRDXmt57HmxOBWtPg6Xa2VRqqOl0N3+PWZJg9wbjfBdif2IbBap4aNNZYAK9Pf78btJhzWcDDQjwUjo+eU0aO/QkcfEDo6giaDoNifAyxdzPHjAQxxQwrHJwD86K9KPaOh7koAPf5/92DIy3i358RstnP7UBBf2yO03r86YcKACaC5tYei0/1U/7QGzfKpSQ/69vmB9IJilwNoL8f/FsA40fXXPjwLnAigz4dw0DS+gtr0vICvzUVNpZHpAle+4wHWRwW3VQNDYMGNaXvsbKlewN1gD7f3yfNiH4KCgbmZAGM6l13QrQkhhBBCCCGEuOgOHQnCyR7WfFqLBj1FN5npQ0PghdgbUtcJ2GKtZez5asbeAfBSdEthJFAA0PsWcKL3nPbDdzyAYTWcS6ZUvPJSPfXdFtwNVix3W85rndbdXjy1Vpw2M06nM/KfpcGJBXA6G2Ne15facG43odidTM6FidVaj9VqxWq1YrdaAS/ucbBaayOvuyeLkxsBp13JOCBgAmzOzLO7ek4AR7rIWQewhkKzBjRFHNjfB2enAieBs2CtdeF6YAswlrAeI6DdcCPOl4ETB2Lecx4YQ4cX/afNCcupClcBqyw4fxWA4FQtsyBQvstDy1e2QDBxOOdcmq127j4B7u82olwXRF+aOHnCcYChMdbnExMQGzsLgVfS344WMN2Ui/MEBI/Etp+u14JoTh4gJ68w7fVFc3QFMOJGn595oDUAuJ9xUxA3jDkA1Ne6E4JlhqsC1Hdb8O5OPcPlXJBMMSGEuMRZd3tpJLEIa21XgPV909ezEOJ8xBcjFkIIceH1ngB/WyfRGTz9x04xMTyAWRPCeEf4Zr08X8PAddvY8ZSdcl8Vhg3l9L4Tou8XbizLxsi+vZGcELg1Zmq+10N5pZbgUhNdgwHePuyAJWcy3jd1aNVMwxwzZQHIK8h4uardXvDZqfJBa6UD/TlmrMQPQ1R/D1O9H18vbDZ5AXubCxiYem08hP/1fnQEKbqrDNBSuASM95XT3jbAyNd2UHxvOWMhA50HetG91Udxg4VwifZEtXcZqX/VQs3/0Y71vuOEsgrpPDBC4IiLxhIdXJs6yGEALPcX425wMvbVJsorywhoTLhe8nLmyAE2V64G7bkFdFK5fAnA5XTu78V8Jgdtfm7M+zlXn387954OF9Y3hHzoN1rwHPETzjULWwyszDWgWZeD7UU3irYGXW45/eNB+vZ2oQm9HbM+7Sf+HLcP9C+6yP10ASyP7Vd9Y4OOHT0K1Y12yreMo1lbhnMwwNgLHSjXgfbGbRmfJ/c4+NqawzOiThN0DQC87U8IbnvGAV8vprtjl63a7cXos6PYFaL7h5YsPf4GhfoGN60ra1POdDnbJCgmhBDiokgVrJtObVeANW1VSYMs6hCH6Bmj0uUeB35Qi8VWw0wBQi9Qb7XjbGDG2hfW3d7IMIqLWacjU+oxtlaOxsy+lUmAS306qCRJpT8X86m9CCHEnxLfSfB19cS8pl+qofr2HIrv2QZLw4EO/SJo3WmhZa8eR3c7oVeb0S0BJT8bS2UzaLMp0sKp79bgeKKVpl0H0GpcFBv11D9ehfKSnpGu2mmHX8ZTh1aR1zjzh2egZp80lrgZKHBit6b/m6UW+G+tBP00RfXnu2QzbvoBf1fsbJK6JbD5hmzKK8shayqLy1aqx7G8FXdHC/0/cKAhRMG1OqoeV9Bem7r/YtJC8w8VOn6WTfPTDjjdg0mnoe7hTRhu3kL0zJDJKHlash9vwbGnnaZdB9DgIidLS+O3N6HPrzinczEd81IwbtmCw9nIb440U/NkbH+uSJdmO5+mf+M/CXwwih9o+pEbwvNhRqj9wscettC8+xQt3Q40+5vIydLSXFnMoU/Vc+AfFEJj4eGsVbcbaRksommXm8bSHqjcF7M+/SLYtdOCfa8ee3c7oX1NGJZqaLyvANMdFbBIl9E58gJ2xY5i9KEvnX44r2sI8NkTgl+9gwEs+CCvPLLOeqsdcGNrsET6xMmGKVe1+XCuSD2BxGz6s48//vjjVG+OjY2RnZ16/K8QQkxH/oZceNNNdZyuhyqN/LBtDfE/3plwNliofbfsvPelsYRIEET9wWxcbY+8Fp3tFkB/zkEO+xC4G6yRmaymEx8UU5dNJVnh2FSza6n1R9zjpqTvz1Vgzbrbi/J2fSRrUN0/Z8OayL4HxgNUPReA7vqY65JKsnVMZzba7ly0F/Xpvc2+PuG8pxMozGQmtWgz1aIRc0N+t8R8dSm2zWQPJ85l9snodSnYE37LFKPvnLLip6snloqzwYL7KuW8f+NT/SbO1A+I/z0X4lyofV0L7oS+SHRgK1p8H1r9XGOJO6bPGP3AOFp0fzlZHy5d5/K3cs4yxepfnMC7q4LqPChuaGeyfOOciD9pqS7AbAiehZbuMWpXeSB3c9I/wLMpnR+Gi9lxjj8fkLqha4Cc5Tq2fclM9q0VzPTEIJp60znTrCTxWQG1XQFoq0r7JnIu204q7W+C6x/KKVsapKLdBouMF2S74tJkK9Unneo40+GT60vBursgZrnoYFAgT0kaUPACDqsdrjJgy0vcl3T2K5X4FOwA4OvzUD4LdUiUPHCXNOLpq49M5Z7JsqOVrdhWTE3nHn9u7UNQ9m5sGvh8GVqhDl0xVxpRjzvZ1Nv6LD3O7XrcX3TiUGoxfdENWZYZbxqsDT5mCrBaAJuzcV62l97BAOuNPshKrAWSrmQ3MdNlqsW3BfGn4UL2feOzOeey/zJ2EjytbjZ/ywCY5rzvG61zMEDPfgcBnwdCQfRLNWwuiM1umm3J+razyTMOE79op/jr51fv6lLgGQeF3oRaS5nOPqm2f8XojmmTliywOG2RGl7T3U8le9ijB5w2C5ODMdM3Pju/8fGzUsZ/Jtl9ohGw2BUWetsS56d+tzfh+6SamrF1+geeqT6nTjAxnXP+7p2jOQmKTQDelz3olmlxDp2h2N8HhrK52NQF1/sB9Le1QsOaC7rd4uu0aLKTF7fLAeDKC7k7EanOhxZYf6sRlky9fgoYeHmUR3b10HxyDMOdzRd2Z+epnn4fumVBDnygo3ywC02BBMXE7ArPypT446MG0OxDYHjGmtHNjR5gdeJcUf5xWMMoZE3V8Zguk6oeoDvxvWQZW72DARSjD/LCnecAgM+fkKo9nZmyuuyA3Zo8W+nurUaeeRbUzqe1AcCNs8HCmhVlWBtGaa1MrH+gbrOscn5+tx1dASy40ZdODV2Zbupt9SZDlazjku6DjGTmU3tRA2nri4xYrS5SBffiZyCD5DdY4tJ1Kfd9W18OsOZVO3zr/Ie3pct/Fmqa3DBkZ9M6PaYd5QSX6OkdDtDS7eLQ4Rps/0uB5bN/wzTXff2m57wo77i4UDd785klC7DZEl6L/o1JJv53x9EVmDYgnM46Z1Oy7Sl5wOSwzGTvx7+W7CFn/Gcu9HGJhSPVvcOlak6CYn1+YMhJxQ4zza3ge2EfxvsvXMcg3ejlbLhQUczNXzCgL53745ktBkC5K3Goif9+qH6ok33POKjZ1A9LZrdoYrxkPyjzSf9pCHZ3UfUlPc2vWOjrbqe4oIK5fLosLn21XQFqaI6pBRU/vXF0lkpBfg31KPRaE7Mq67tJEoQIv29cqSdw3BcTRvO/Bwajj/jgWrKM1mSZP/FPf6Nf9/V5qCmaymYaGAJwR4JTqiof0Da1z/FPWiH5kMZ03LU1eU0xBTDYbXh+UDuZaTa13+5n3Em35wOsip1wKC7MMsP74bBa5rP/pKKeVx+JgZ1kryUTH5CKqSWWF/7tz7Qe2XxpL64hsPjsWGyNWEpNxPcrZCIBoZK+7+wJArU/8aAdstNSb0G7buqYivKhr8xC80PNtD9qp8K+RjLsRbi/v4Bu4IUQs2tOgmLu1/yY8VOQvwXN8GK6uvswfjk2AGIfgtEGK1WPKzS7wP9yB7olIapvN2G+7xuwKNyJVYfDmZ+so/lxL8E3D2BYCjV3FZBdUgWLEofgpUohdxyZwN3RQvDYMFpNCMsNBsq3V8CycHFBzwfg2O1gbLgHTk+g1UCxUU/FgwosM8c8vbY2+LDgpszZSFWtPyGFvOetII497UwM96EhRFGujor7ytFeWxyzj82VozipYmBvM6GTfkw6DQ/t2IRuXeYFBcv3+DA/X0vNs7Ux59p7FurvtmMr6cV4vyN8jd4K4niileCxgaTnIuH6/NqBJhRkU66OigerU56P8I1BaoZFkF1cROApB5ycwLsksZhz9PmJf33sj9D8A3fK9hIvfvjkWBBadrsZG+yE0xNk6zRUfymxLZ0BWl7209e2i9BJX9LrEjwLrd1jkWtnWKqhoiQX813VkUKGavtd3FCD67F96PDT8mAx2oJqAPo9IbShPopuKGPfYjPOPe0xT5fbfXCgtpx9DesjN9Q+oPYr7VhOu1D2Td2ItftgoLac1iesBFdtpv3FMfr3dhAcHwFCU8daWgVoI+e47v5RmofWc+ZIB+XXLqbs8SaCZ7NnPDYxf63PhyplDa3U4lphm8xSshAOFcR+V/Qr1oSHxdksWHcbCAw60JdO3ehEZ7tM1RAIW7NCj79PHUwzmdo/4KUxyfA0N8kDLKkyfyiKvclRC3iqr6uBl2T1RC5k4fRkQwfVTDMfwOT/q4GY6GDPfBg+mezmNpOJBJJp7gqAz46l4dyHBs2X9uIe8NIYN424EMmk0/dNp0+rtsu61Xa8n2vnwI8eg5M+ClZpqXqgPGWh62R934mz0LLXw3B3e8rf8p63gnTuaSfg64dQMFx8Oz8by/Zq0GZHSmKoQfLGEtBvdyYdPukYDOB+2p6yn51O3xKgxw/BF9upv0MbExBTFS2D3vsqeHuvB06MgsEYOZbz7Xun7tuaCJyFH+/x4H2hBU5PYNJp2HZPUaQkSLsPXLUVNJaEMG1vR53psWKPD56vpanJQvXPDOCzR7KS06ljKYQQYm7NelDMdxYCvzpE+TrQLDVTvEGL+7CGilcPoLs1NivIDzzyL51s0gWp+LaC6yg07XOgHN2B5V92of7I9gM9f99CeY4G3bercQ6coqatg8b3hjFVthI9vXAq4WKFOyi+Fgof3kb/ycvpfNpJ8O+bUH7cSP9ZE7avNWO+YoC6yjKCS3PoGQ7g2t8Jf99Ehd1G8dVGQl+vo+cnduq+rEe3ugxYSfTUqgD2oSDuhmqKVwcpfHgbIyE9rr1uPN9soaVhDG3UTUbTc36yFz1C7X1ljJCDa6+bukYXLS1XZpx2b73FiON5PdWefjQ3TZ3rgWHQhnow3rQJgPoXAoz8ZAdl63Tk3KswclKHa68b79eaYlLR1etTdrWGnG9V4D4KLmcnV/5zE2VPtFB8tSHF+Tg+7X4G/uNDDACLMjo8AB7Z1cOmVUzbXlJuF6hpdGP6Dzs195ZBlgnnQICatg5aQmMY7myJfNb2b5B7pIba+8rwa7bgeLon5roEgB1NPeh+34JiNaNbW4H76ARNzk6U4SosO3dFAnU9gOGxFuoqiwmc3oLWGA6+TQB9h/ooWwoYb8SiM2DfY4x5umy+Flya9fhe78U42W5Gx4GTI3gAjvlgVfhmrWfAR/HSIKwyUbvPz/jPa9h2ezb6/GrGTmrp/FUPj7T10aoNottQN3WsP3ub8nXjaL9dTfbJAAGy0z42MT9ZsvRgV6hSaoHkQ9jUoWTRwqnS6d/8G64Cv8+IGmxTp2PWFyU+tT+fzB81oBHNMw5GXy/6h2cva+pcxAeV1MDWaKUCfXZ8PmN4JqvSmYeHqEMrrLu9tK6sxeK0JdRJuRDDJM5nJjB16u7GEs5rtqD50F7c40C3A0qm/p2qxmd8AC9+6GSyrD9VfKaaSgZW/enIpO+bbp+2ZRA0/1ZD9d05nPpUHR3P9TP8TTutTX40uTN/twJnYcejbnjTzrbbs7k8vwbn4Cma9nXQGKzBVNlK5zENjm/WUnztOMqObUws0eM+PIb95U4uDz5CUX0rdRtXYv/vavQvtFD27XJWfiqbUJLtqf3szblacr6t0D+uofNpZ8Z9SzDgfs2PHj/G4vIkWwqru1UHtzoi/56tvnfx1WVJ+7be07DzgXYMJ13U3FsMWYU4BwPU7Oqg8agH0/YWyo1a+kof4odd9bTf4gBjBe0+mHj+MWx36sjKVai7J0DTL8spDjgovL8anSFrxmsphBBibs16UKx3GDh5gIJbiwAtBbng1hTjedlN8a0TRA8LCwJKVjByk23Oh+arC+n4fgXFAw40BeE6IBNAYz6YtjcDWoryoVpvwv7zalo2HZgxeNR/Gnx7HNTeDIUPtwNazIA+twj331dTPtRH/+mVGC8bpm7ntshT+aJ8qNaZGNlTDR+Mkp1lJDvPDFyB+a8NkGcmELct31lwN++jwjhB2Xdbw8cFFG4wU/OQg56nOil7wkJ4gCGYzwSpfqIOtGbMgC7XjF2pJfD6a+ijjquqzZe00wxTne/CVeBYZcEz0E7hTdWoHaueAS+bl4fAeBv9p8H7rw6at2SR/eVwEMgMrN9gpvqhTvr3dlD4YDGgIQjU5YUw72gJn7N8qP2fubzWVkXZuJfsLEPC+QhLHhQLnYWW1/wE9z/GeiORJ4KZeOjzUdcwqr1Yhlwz3oCpRZcb64thMuPLnA8VwcvxHmnFcOdUtksBUPPDh0BbiBlgtZn26moCR3rRG8pwDITIGrLT8vhmuLY8sq7OLxTT8UA1xYNT7TcENH3DjPbm2P3rHweGDnHbl/WAEXMWYFzPa4ftGO/zwSIjOYuAz+cy+ns3xsnAg+f3QXRLfQRO6wiOjaBdFe5kBge83LhBiw8jEy918miJDtP2xwANZsBwkxnbV5o5PtKHbsPUfpQtC1H2rcdgUbhgbXMGxybmL/tzXsAXGcKWqk5T/FAySH9ooSEL7KxBGRqAPFPKwEN0HY2ZJMtcimT9RLE/5w3XizqP4uezwb7bi7Id1Ik91vdVYXG2UtsVHuRoc9Zg3R3AaLVGsr7SmUClCmL+5tt9sbXO5iq7IDqgNNPQyWTDJu0/cAO+FMNuk68zfj3zob1EH0u0ZNl98fX4rLu9TOa0pVxO3YYU2r80ZNL3TbtP+wE0NxRGgjmmG81UP6TnQJsjph+ZimMwBG920P6tIrQ3hdt9UT5Uf8pE34EaTF/20DNwJZZlEyg7H4UlpsnPmLlnsYGRwzaKOI55tYkrrs7FAJjzjai5wdF6JsDX9mPqbl081WcETDcX0fx3zRn1LckyEAgEKAZYkV4h/dnse2eXliXt29oP+Cn40EXNv9bA0qLI+Wy+YT3271fQ8rc9aAxlPHSvifoBC50/dmH64W24vneI8lUTGO+Z7HPn6uFVI9n/Beb8XKQYuhBCXHyzGhQLAT2H+ynShNCYw0/GTItAW7Ie5353QtFRDWC5qzgm66S4QEufppiR4R5Mk3WajYDpi5uJnq3QssGA/edGJoZfmzEoNnwUNKEBCm8tjlnH5lWw+dnwj1QNwIb2hGVNqw3hjJzTwbTOwWtvASd72FRVFHNc2YvAVGbBvauTsmP9sCo8m01hPqCdCg6FHxitIXDcHfMzOV2h/SvXTi4LGG4x07+nncJveGBJId6zEPq3AQrvNgAGPL8HbaiPiU8U4hn0xK0Ihg+HKHxwBPXpvPmmQqLP2ZoV+vDt83t+mObh1nRPxQuXgeXBGjLtCGiBQsummP1ZX6CljyK8gz2YZriJ1y0FNHrsT/exWWdCt6oA7SIN+x4pAopiPrv+ZkA79XQ3XE/cROC98HXpGxymUBvCM3E5xJ3HEFcyMtSHaTJwZAS0xtyE/XG/6seAD8ON4QCdHjDdXsiBXfZIwX0NYDab8PwILCd9sFTP8MgoSj60TJQzOmLHtAG846A58RuM68JtxPHTzUDsjEnZS4DVOQSDfYS/reGgae4NRAJiZHhsYv5RAy5GfJTbFeoVP5YhF0qeghIVaEh3prLpaoqZAEoKCLzrQJ8Xrie2Bh9kTT3dTzWleGT9JFv/VF0nL3rcDXYaK43U960HegkAlpV6LAUXd+Yua4MbZwO4x8NTr7dWgt6mnsup20bndhOB7U6stW6MvnBwLFnGl3rtGiuhvm/9BZnZLZ4a2KTEQjnJ24a6n/oVsUWoq3Z7Mfrs+IxGGlf7YpZNVnsrWZbXfGkvriFQsGMvUUj2OyaEKtO+b7p92s1G0OZNLWdYBMaNRbzW5qDsAy8smz4oNjA8QrEmhLagOOb1li0G2LIPgNYtwBZHzPsaYPXabE4dJtz3XTLzOeh/PYgeL+ay8pjjKloKrSWl9O/vo3C7Bwifn+n6loEswB8I91AWLZ5548xd31sVAPx9HsyrwOMDmOobaYLgRxd5mG1aApYHt9FZ14/7a00YPwiweWcFLJr+egkhhLh4ZjUo1jcBocMHKNyggSVTPzbFhUZc+7UJRUdXA1wV+yOhXwSsNuB/KxR5FpVsBiz1B+z4O8l/wKKN+idYTShhW8kET8PIO37G/AGGhzx4B/vDb/znBKyacXHO/BfoCaJZuTLhPcMyHd64dS1O7/c+7UL7lpvCQ/DUIZQDw2AI9WDID9+kHj8RIAg07eknnMQfaxTgAz+RISuXzTw0NZlks08aloDpczkYri2ARZmv1wCwLPZqGxYBxmw+PNFDOPcwtcIlUPj1ctw/8eF+qBmtBgqNeqx3lGFYtz6mpth01yUA4A/QH4T+7yQGUgH874CJiZTr8J0F//OHqFgFGKa+K0XrdHgx0dfdFym4b/60FjtGQsO/YfymIkKv+yi8y4z7ZC6+AyFM+PH8XkcBPsiZulkMnQX/B0H874ziHfHTP+iBY8OTezVBspvDzI5NaovNR/bnvDSWRAUkSrx4B+oTgsb+cYBR/G/H1gSLN11NMQBLgQnPM/VYSgO4BwIJ9Zemm+wi2XA4mKwF2FcV2U/FOBqerr0vfCOiB5RSPReioHS86Iw7Z4MF60ABxretgDEho9dH4kyWtgZL0inm1WCQYgRTaSuNpXrqrX6orbqggTE1o8qwvYYBK5i2e4kfUmt/zosFH+TFBj/prsc2eU7iM6XSNV/ay+iAF+VhBftzsf2GVA98EmYsLUl7U+JPXKZ933T7tIYktRkjwaPjfliWep8mgNCYP7yONModBIIh/GN+Ro756R/y4n99sn94ciKtoNip4KnwJCBJZqs16K8I9y1ORvWJpulbqjMbh3zA2TNpldqYq763KlwaIIALcH0n+czpgfcmIldrW66G3pKHmOiup+m+bFh+acxCKoQQl6rZDYodmQC82A4Dh7ckvN/VTULR0ZQug/DzqmSVC6KkE1z57xnWAfiCUPdPDkJvdaIBdFlacq/WY9pgwdvtmHH5+aIwC+x5t+EZtFN4U4iegRHKV4ViAi/JhnEkmL4s2IxSzT45VxZrAWbu5dRu0DNxcyv9R8boeaGXnuE+er5jR7muI+NaWclmtEsUP8gg7LV/B0720H4S2q3VCe87h4g8XTZlAcv/hpHhTvw5kH3iN2iNN5J7Us9vntJS9oEXj0dHzToiwx9shwP0/6QeQgF0S2ClTk/xjUZcZwqAvlk6NjEfRU+hrAYqBkgMbvQOBrCU+OjttmAZ95zzd7UgD+obLNDlwtg9isk+FXiYKesHUmf+qAEltS0GotriVHDOnbAcJK/RFD0k1AhpPSSJ5x6HgoFaCpzOSHDQud2EF+dkYfo1kW1EhlJOfo+SBRTji/RH76M6k5x1d0HMeZjL76RaQ0stkO+oLCPQ1Yy+1JTwmbJKI2p78gK+NtfU/g94z2n78669ZCmTS4clqwOXLAMu2fBJcema1b5vGn3acAbV9J8JAfz3zJvrOwEt/2QjNN4f7vsu11F07Ur6Pl8ML7tmXsEcMa7UMwzw7hisSl5qo/MY9P9TDbX3G+AvLkz2enytwFTGz0Lw9+Gh1/0vjbH5Dr9kigkhxDw2a0ExP+B19WHWgOVb5UBsHYB2zwR93S0xRUf9ABOBmGF4gbPA237WlGoJZ6IEJp8wfQhLo7Y3meWwZm0up2bYtzWr9PSgSRjy5wVsW+003TVC40QVq9/q5BHbZnTGqaffza+GwoV207T4ExBAS+j4cTRxmWX+DybCZ0U/dzc1OsB0s5n+1hDaSg+hfxum4D4jah0F/RU6+oDQ0RE0FyhglbfBbI0AACAASURBVI4P/8Mfc6vn/wAm89amXoOE9uI/C/jGuPLTWtKZcAFAtwgs+dlY8rMJna2gbr8fx55qLG+5wTjzrJ86gCwdIy+D5fQYLMnseoaAAwf7MRCkYocFlsZ2+NzvgOdntsjTZQOgLTDhG3BwPNdH7lIfLL+fHB24MDM8Nga/1mD+uhnQ0jMB/T/6MTU3n6JoRytowvvnB1yvdc7psYn5w7rbi7G7HqVBobehF8b9kDU1bM3X58F2twUrBQkzTmbCBBgry7BPZjlF12yaLutH3cdUmT/RAaVk23Q6FeIzf9KZTXD03UDSTI10WLKA7TbOLeQzRZ3NDZIXlI/m3G6C7U7sQ2C1TgVu0r05y4SaZUhe+NzVlOqpql2Pc4Ud8pRInS3F6ENf2hpZbup6nJ/52F7ixQfBRt8NhGtkRm03OjAN4WHFPnxYFR9SaP/Sci5933T7tB+OQzgDfiqLffTdALkAV+dMu196QHOtAf8h4Gwg5oGffRhGvr+Fun8up3mPlqLT/VT/tAbN8qkyEn37/ED6QbHLtZeHq++N+xNGVfgDH4YHTS7Tw3vpre/GG/S0Y8DX48R4/+akn+kd8DMxMYb+U7ksvmxu+95XAizX4XsdTPiZqZ7bY7/0YzjmoHDHZhy7+in85WMYtrRMu4wQQoiL57LZWlH/MeCYmy0lWsz5mzHnm2P+s95VDJjoc3lRZ2sMAp4XYoe9uQ5PhGdK/NxUDQQPEDjcFbO9zl/5MOFDe8PMT95y10JIU0D/i7Hb6jsS5MzpXrSrcwj6RrlxNeiMU9sNnoWBgYGMzsON1wJLizmwvy/cEZk0dha8LjfmZcDyxPpSs6k4X8dAyEzf0x5MoR70N94Wea/QrAFNUcL+Bc6CtdaF64EtwNic7l+0PwdYupjjbwcharhh76sB4gscJ2sv+7oDaOmLaS+ptB8JUfGVKnhzaligZhFc+anMhgFqgKKbzPShIfBC7M2Z6wRssdYy9nxi9pfKcxpCh/ux5oH51sTvypY7zbB0E13dQTgdHsKw/gYjvzmhYeCQg5wbAFaTswS4Lof2Pf0YQ71oPx0Oro29A+Cl6JbCSEAMoPct4EQv0znfYxMXnxewWu0Yu+ux2RUMeRZ8rAk/FJjkGgKLzw55BVgKTLjafDBNqEddZ73VCrixNrjDAZoheyTABmAuMjKfswvVfTXEBTFmi3perFYrvrYq7D6wWquwWq2RcwfhoIlidwJG3IDVWh9Zzm61Al7c42C11kZeV4dsGgGnXZn9gNgQGLvrMX1xKnCkBxptFmobgHF3pGaY5WGF+Xyd51LBVQHcRgWrtR53Vy2+NteM7X703QAWwOlsxOl0Rv5rdTrBqNBaaYx53el0YmmY3esr5sa59H3T7dN2HQFO9ET+7TsLvufcFOYBS2fuRxbk5tAT0hAcmFpHEOg97CHndIjjq1bD0Bjr84kJiI2dhcAr0/cV4hXeoCWACY/LSUw/+yQEu7swFWhg0fSBvGjFBtDcXM5j+4MEjyQGkjvfCuL/xS7Kr9PAdZY573sbAMPthThPQPBI7Hez5UiQ8i3lBAfCQa/OY+D/+WPsuFNH+a3l6O7cwWM/98Ox6R9KCiGEuHhmLVPM2ePDQADj7ckzbYp0YN+wiX2HvZS9eQgIf872YpCyiRpyNm3GMQxj++00lmjhutgU9B1P+djmr+HyfCuOwxMEX3XwjUoj6GYOhhQuAeN95djaBtj8YTU5d5TT49fQ/4wD5boz6PPK0L3+IY7nge/XY9hQzshJLa7n3fAfw0RnIF2+BOByOvf3Yj6TgzY/9kfWuAgsNVtob+jj+Dd3UPjFqWmhdeMerA0W4p8kpqPzFT+a91IX+1U25sCqcKfGvBRC69bT091MdR6gm8pEUs9Fe9sAI1/bQfG95YyFDHQe6EX3Vh/FGe5f/PnIzs+s02EEdLfeiP15F6FdTVxeYMU5eIrFng5Yboz5rBawDWkoa6xh5abNOAdDjL3QkbS9JGP+tAbXYjM1/+zC8qUJdFevp+edCfr3uVGu04Ax/efy5fkaBq7bxo6n7JT7qjBsKKf3nRB9v3BjWTZG9u2NKZc98OoEGvooKikiWV0u4yIw3HkbfXtckafLuTngpgCG+sipMgIadIA2Zw3+54Ph2mSTWUA5V4NbY6bmez2UV2oJLjXRNRjg7cMOWHJmTo9NXHz1u70oRnfKrBkv4G6wh4eHYaIsD6qMCgW7pzJwomdHrAcs3Vaczka8KJPDBIkM81MDJesbFJoberHlu2OGYp5r4fT1xoSXzps6A625cm6Cd9HDH9MZPplsJsPoGQfj33ePQ69Sm7BdNePpXAvzu8fB3VA7OWQw9u+gCagvKcCqhDPbUtVEOxcBAJ8f/d1TtSfnU3tJxpSlx2mzYB+yYG+wYsGHvnT6v4m+44nZZOLSkHnfN/zdSadP6wNqHmrHeu9xJpYW4ni6B+Mf+ymuUkinpqf6W179fTvl73yIZm0ZjsN+zrzqoKzKiGaRCc26D7G96EbR1qDLLad/PEjf3i40obdj1nW59nJ6gZx9LnLzz8Dq2Az3Yh0cqvwGTW072Dwe7mf3j2voedqJkTGK7lOIznibiRZo2l5Inb+MikYXm9Z5MN1SxsQSPe6+McZe7sSyLITl0UZAP+t972R9W+V2A/W/slDR6Ea5YwxNbjm9wwE83S6UNWfQ5m/GfxYcj3diWebHeFf478JDdxmpf9FC5+MONv+wEBYZ0H7iz3H7QP+ii9xPF6BZnjxTWAghxIUxK0Gx/tPhJ0EVeYChKOlnNMCmjYW4Dmvx9ffAunAHoulhC4+9oKXzO3YMS6G5soDskiqifzyNQGl9Ba0dowRfaMGkg8Zvb0KfP/NQN5WtVI9jeSvujhY6v2NHtyREXYkJ832PATqa79Hzw7N1tL/QAq82k63T8OgdBXxYtIvmr9rxv+3FkBcOOBm3bMHhbOQ3R5qpeTJxyIiSpyX78RYce9rp+UEHGkJsytWxpb4GbYrzM5OeN4PwZvJ6KABKPpGgmBYourWAviPh6ajjO0/R56L/Bw40hCi4VkfV4wraazO72Yk/H7YnFWZKK4/XfI+RH56tw/5CC5oXm9mUq8PyvVqqvhcgelYyA3D/P2zmsT0TTHzHjmFJiMZ7zJjurCGdzpZpCTT+UKFjl46WX7jhdB+6JUy2g11kcsOiXwStOy207NXj6G4n9GozuiWg5GdjqWwGbfLOlzrUomwpaPJLU67fusFAyx4Tnpe9FN86gWmJDtb9Dfojfeg+8zeRzxXmGul5Hsxf0KOe9yIdnPpuDY4nWmnadQCtxkWxUU/941UoL+kZ6aqddmjkuR6bmB/ih27BVA2t6BknyQt/Rg8oD1uoV3ppXVmLvtSWtHZSPDUQY/TZI4Ebf4OFWsWKzU4kcHK+hdNnk1ogfqYgxp8aNbh0LsE+L2BX7DHDJlXqpAJqcK520Iy9oQrFWUCq4Z4ziQ64wmSIIG/qesyn9pJMfB04N+C2hgOGyeq+qTXY5ioQKy6ec+r76i1p92krjDC6qY6Wp9rDMyvm6qjYWQdZyWtsxYv+Lbd3txPa14RJp+Gx+k3oJvvgjz1cRPPuU7R0O9DsbyInS0tzZTGHPlXPgX9QCI2FS21sydfSeN1mmn/uQvmtB/O/JE7EYyvV48jahftpO53fsaPVhKj4vIGybY2wLPO/F0YttD9eQfvh9fT9ogPXDzqAENk6DXVbcjHfpcQMC53Nvneyvq1pmYXmJxQ69mTT8oID9jehX6qhriQH832NsEjPrv0BtMcclNcXR2q8mpZAUVU5ju/3UNS1C/0dNqpuN9IyWETTLjeNpT2YKvdlfH6EmA9quwLQVjVzrWoh5rk/+/jjjz9O9ebY2BjZ2XNzA6x2tqOfrCcjXzYh/nTN5d8QkZ7argBr2qoocDZSbx1ImUWm/k2erlaVGlRTKsHeNooRX8Lf5kz+ZqcKciSTTv2n6T6jZiC1VhrTrh+Vinoe1Iy5mQq5R1N/8+KDQyq1xph73JT0/WQTpajrii70n65k10CteZZsW+qxGnFn9LucrCB9pi5ke4nf5kCBM2bW0WTnObpWHITrvtXTiKW7PulxT7f92Thf4tzM5e9WOn8fzzfzU1y6pE8l5hu5Txfz0bn8rZzV2SeFEEJcfGqAC8JBlAK7Qr11gMYSd8qAgpIHBruTeqU2kjGWcv1t7pQF4m2leuwrnAkZY5A4C6ARYmarnEtrVkB5yfkFxKL3Pz7DCVIHS2KXnTJbwyd7BwNY8EFeecJ7M4nOLFSDOooRLM7pi9YHULDWusFnnZVAYzIXs72o1PNjAhTn9ME4dVIEVQCg1o0yOVR5JvFBtdaoGT6FEEIIIcTckEwxIcSckaeaQsy9TDKohBDTk0wxMV9Jn0rMN3KfLuYjyRQTQgghFphkdeSEEEIIIc5XqnIP0ayKHUicEC5ZrU0h5qOLFhRT8mYeigDTF90VQgghhBDiT0E6fVo94LRZUGeqFEKIiy1ZjVGYPlPsQk6CI8T5uuxi74AQQgghhBBCCCGEEBeaBMWEEEIIIYQQQgghxIIjQTEhhBBCCCGEEEIIseBIUEwIIYQQQgghhBBCLDgy+6QQQgghhBBCCCES+Eg9wyTTvLfeOKe7JcSskaCYEEIIIYQQQgghEsjsk+JSJ0ExIYQQQgghhBBCxLBkgcVpy3g5W6keSp1zsEdCzD6pKSaEEEIIIYQQQgghFhwJigkhhBBCCCGEEEKIBUeCYkIIIYQQQgghhBBiwZGgmBBCCCGEEEIIIYRYcKTQvhBCCCGEEEIIIdImxfTFpUIyxYQQQgghhBBCCCHEgiNBMSGEEEIIIYQQQgix4EhQTAghhBBCCCGEEEIsOBIUE0IIIYQQQgghhBALjgTFhBBCCCGEEEIIIcSCI0ExIYQQQgghhBBCCLHgSFBMCCGEEEIIIYQQQiw4EhQTQgghhBBCCCGEEAuOBMWEEEIIIYQQQgghxIIjQTEhhBBCCCGEEEIIseBIUEwIIYQQQgghhBBCLDgSFBNCCCGEEEIIIYQQC44ExYQQQgghhBBCCCHEgiNBMSGEEEIIIYQQQgix4EhQTAghhBBCCCGEEEIsOH/28ccff5zqzbGxsQu5L0IIIYQQQgghhBBCnJPs7OyMPv8/ZvrAVVdddc47I4RY2N577z35GyKEEOJPhvxuiflK2qYQQszsvffey3gZGT4phBBCCCGEEEIIIRYcCYoJIYQQQgghhBBCiAVHgmJCCCGEEEIIIYQQYsGRoJgQQgghhBBCCCGEWHAkKCaEEEIIIYQQQgghFhwJigkhhBBCCCGEEEKIBUeCYkIIIYQQQgghhBBiwZGgmBBCCCGEEEIIIYRYcCQoJoQQQgghhBBCCCEWHAmKCSGEEEIIIYQQQogFR4JiQgghhBBCCCGEEGLBkaCYEEIIIYQQQgghhFhwJCgmhBBCCCGEEEIIIaY1DmytO8h4d93F3pVZI0ExIYQQQgghhBDzVrsXtm7dGvPfG09ujfnMTDfrB9+Huq118P7BC7DHs+Pg+7B1a13SY3oD2Lq1PeE8CDHX1l6zgl0dR2f8LqX7ndv65BsXtR3/j4u2ZSGEEEIIIYQQC1q7Fw5+d/ob4o3As88+Clwfee0NL4RDQ+HXxgGOvkfW5uyM9+Hg+9C+ow44mrBd/vFRDn5357TLrwWadlXAX26cdl0Vzz7KwfevT/p+9DpU7fvfoGLtUbJKnkjY5qAX1nKQ6++oSPcwhThvWcBdX72enYc2Mu55haySjSk/+1nglW13sXXHTp7Y9gpZJU0XbD8zIUExIYQQQgghhLjEjAMP1B2Eo+0J711zhYa7/rfP8Nn/vQoWXXHhdy6OGjCKDnrN5HoTMZ9/931Yyxgs/0Lm2/9L2PhsU+ScPXHT1A18uzd2/9q9wHe3Rv598H14ZUdsJld8gEtdJtX78euo6x7naMcD4WWB9q0PxCw3/pcbOdgZzr7ZuqN98lNTnti2lqySJrY++QYcSgzoZf2Fhjs/99fcUn4PfPKajM/XXt9HdP2wmdCHb3CLBqr+tRY0n814PZmq6x6HjgcSgoeZLvfRWdh96A/UrPwtfObOyHWvoJ2NTU8QDv3MrN0LY9/dGlmvGuB99h83gml2g5W/fR8+dD7NLZUbgSzeAHZubefR2w5y/VefndVtRbe/6TzQAXQkD2irbbCp5HoOmp/lgR11PHtV+6yfl9kgQTEhhBBCCCGEuESt/QvIvukWQANACPj178axPfc7dow9wE2PPAFc/MDY+XrFM042R+Ev77rYuzIrKtYSE6CJDpx1eWHj0faEQKIaKIGxyGsrgOtLPkt0oOfXx0/R+uIg/t8+wr27mmDR2rT3axx4/qmX+Nxlb3DLA/ei+/OrQLP6nI/zYnj5P+H/7ngS/jHzrMKLxbb/DSqOdTGZvzinmkqyoCQ20Lb1yTeo+MPOjIKGKjXoDKkDbjsBDsUG2OYiuJiMBMWEEEIIIYQQ4hL1hb+CjdvuJPpG9l6gevdv6T5s46b//DVcOfc32nPt6LvjHAUObo3NjFIzVs7HwSTrjf53OKQ0laF2lMQMrugznOz9+HWkMg4c7DzIE9vWkk5m3fVAxbbSmM9WAHXucQ79nw9w78gr8JnMgmK8M87tt8H1N5amvdzFlCzIEy0LeLZpI+cbcKowQcWzs5u1lcr1wLPPVhC+mnNrHOAP787KulIF3B5l56xnvKVLgmJCCCGEEEIIsYB8ElhxzQrOAIT+v8jrH52FJw/9gcFf7iL0x3dZ8Rca7rktdpjlR8DTh//Ar3/5Mz56/9+BENdcoWG7NZ9rSr4KfDKSsfTYtjH+L74aWd/1V2io3n4bV+TdG7M/yYJO6VCHNb7B9XBoMCazJDJ8lFdilqnb/x47VtRlFCi70MMnp9PlCWeJZTU9mvb+J5NtyApXNTsTinn94NhH7P3pk3x0fJBPakJszF3BXV+9B678bEz9t52HgENbI0HHP/wRfvbsS7zx6l44/SHXX6Hhnq03cc2Ge4FPRq7HjmvaeW7xo7zr/h63XAFVzdXwyc/x2/ehdffTfPi7Q2gIcdNnruDe8rv4ZPYtKY9BHb741e9WsOtX8O5v9qIJfcRtn7mCe79RBVeGh3RGD59sP7Excgxbv3uUjRyk9NlHeaDu3Zjhk+m082T7ow6fHDdVpBy+DLGZgC+NfcTzjqcZP/prCH3EFUvgznXXsPHvtjP+yWsi61GH0j6xbS3jJU0JwyfHz0L7L3/L7w79LOX3t657nOyOB8j7SS2tP36DD393iE9qQtz1NyvY+Hc7ph1Ou+IaSDdLLNlQ5PlKgmJCCCGEEEIIsYD89v8JcfRQFxVGDfxVPhC+if2m7SWuGGml4m8/yxVr7uGF0Q+x/ep5Kn73ABvrH4dFWdQ99y7v73uE8luvIWtdFX/44yd5/sBL1He8yhPaj/5/9u4/Lsp6T/j/a4+nOe6oZwf7cmmOJYd2tP0y8nXigBbaiU0aVuqkdhezx2yd3MB7E7ZjdiAX2FY4Jqd0W7BdsKVhM3aZWkWzIUYqKqUUVuHG8d5kNqKjQzo8NjmrznpPeff942IGBmb44Y8yeT8fDx8Pmbnm+jUD87ne1/v9/qBblBvczuY3PfxkQiG/XJFOB7Nx7NxH0WYHW7ZMBX1/ltGl9BQbKNB0npuGZs0oM/pL5NwADU5ygHyP5apkpgwsFQuwxgM1NVgqXZTqCzDXFAUDh1aDE3NR6ZDXRGJNANJqKKh0UfRzZ9jeWgOPORx3L+yvc2CeCtyWHHy8+F0vHS+vJ32ejtkWKx1ndTh27sP1ZAlFv7GScosZ3dO52J93kBHvIsaci05/Ay4fFOfaiDnnJPsXKfijk6ht6CCv3EH+p60YV28lEESq+ABSbvoNy5+2ou3xg3Y2O475cZSsJ2VmL0k5K/CiUP1WM60bKti6oQvtMCV0HqDwhVrSb9Ew+y9Xsu9TcLxVy9TnSkh/fgtqAWm/lFvA/3gujS/byH1YIWpWOjCzb039xvI5D0cH5FpMcCE0iPTaUR899WWYkg2AQu0JsG8oICW2B+uaFfT+SMG5vwvbR7VM9hWSmFdKrsVEyR4fKV47SSuz0Omj1eytAbwXYf1GJ9rjNqzLjWhufYS9R7yU7KoO+f0FOAQ05lewwqRj8pIs9h45h+3daqImFJL0xD8SKLUeLBAIjWRgsNfbA+ZkPTlVbsxVlsv6/b7aJCgmhBBCCCGEENcpm7u/UftAGXPA/FdbCGR+2Fv8RLfb2LJpGcSqfblMCVB7RwrVTz9FyhE7nydmc+bDZn6VqsO4eiOgwQToF5jYmlnGyY4mdIv6t2H6ykfWC7mgNWECdHEmbNkFeI8eRNFfudI7Z4tL/c8X3RCt/re1BwzuAyGN9wMX7bYvzBRvsmDtsmAuKsWF0teLS21en+MGqixYDcBDpaMun4w08+RAORDSnHzw+6OWRWYPe7yBgIgt24a1Rs9wwYZIWXgpU8G6aR1MVF/bfAFc/2Rn8/JoYh7eAqizBy5cZOKpvFqad1aT9EQK5xJMQBuGaS6MCWom1tZX3Ri+dFL04kqYrr6vKQkmnnp9PrZdeWxJawwGQef5wfrXWaBVg3EewFHlIPunvSQ/UQ4T1ODZojtNrCk10bhjK+nP38vg4FaAD8iN92NaowbeTAlQ8OM4DlblkN7jgujQ18XoICbeBOzC9Id6iDcNCTC5YUyf83A0gClOYWBmlfMUeP6ugPxUHUraMwA0trgxTz2DtfBXwfciOcHEn7+kp2P/VpI5iSnOCAcNxPw3mBLiCJettX1/Lz88bmNrXgraeVl964GyuEVUl64h5YgdTaL6ueoFSu+LRllSFFzu0R/oOdZQTNITHQz+PAVmdh2uFDmQtRdgjAZjmpHEtBqKLTYSK7+78siRSFBMCCGEEEIIIa5TkRrt248f41zBM6z86wLQGmg6fIwkrZ/WM5PhcGvIOvxE0dHehDExm1deXAYsC3k+ZiIwaza+8019W1C3lZQAaPtnJdRHA8Ti9TjH2Ko7MhdgaGjBbTDg7e5EiVcf7/6CiI33rfEwo6xGDWAV5GAuKqWmxooX62XNPhkuSwwIBsvyV0Fx08KRZzms94YNZgaCbwqQvdpITpd1xGBDpEb7jcdaOL9hK+sKs2F6Mq2fgNbfxJnfT+LMoPefKDi23x82YOIGfPsPcv+dwPTUkOfuuzeGil1GPIec3LBcDYrFGQBtfw+ztlPAif0wdwatbcdDXq/7/fMcPEHY4NZApgXzGVjOGDtDUcObA4KkY2GAMX3OR8PlA9tGGxnT3BhXbQnub+lyAyx/JWRZDTDr1hjO7Qcu+GDi8Ov2Aa6Dx8iYDtp594U8lzZfS9OUVNo+dpCUqAbLYgDl9gUhy83SK+r0DD0eiA59jz09AJ3DZiB2dnuJhSHv08DeZ8PNahmu0f7gMuOrRYJiQgghhBBCCHGdCtdoPwuoOOzD8fxaFr21Be3D5eDx0uyD5ud3hF2P57dgpBfQ4b8I3V/68Py2E1eHh0NH2uDEMc4Aah6Kuq0bbhjbvo4m0yogkLVir/ey0OAk9qFSWt/IwZzmBRScLS7yUyFSFpU5GvQ1al8mc7sj4ix3gdLHSCIFwgICgQCrAYxppeSnKRRbuoPBuEiBseFmn6TvUWuOmeLsA9Qk2iLuf6RG+w4P7HiqgKbqCpKfMnHy1Dl8QEl1M9A8ZD2dAF96YGro+fw/AGe/Rj9TYXCQKFoHoOfMGVfEIKhX7eJOWR1QVzLk+V4A7wjBrR+MPjg1FqP9nI/EexF+U+LEcM7JskIrTBga4PP6/Hg+66bjhIfmoy48Rw+pT5w9M2JQ7BzA+XPo1ahUyHN/MAGYrnCmJ7DPcAPAhNGHgrq/AAPukKzLsVDLhu0UpRWFbbJvbij+TssrJSgmhBBCCCGEEOPMHydoaZySwvGjDkwPqwVkgwMx4Wzd76X55WLwe9FNhJk6hZT5BhxfJQJNl7QvMwwEtzlSdsjgBvpuj5eih8y44hXsm8yYe1pxRZuhoQXjhuEzTPqzWK6s4D72NVkfOAFAYJuWykRslpxRnfNIzNFgS83A+UYx5vj0Ma0jRQ875qXR0VJGMp2A8q1l5oQz8BxdC67k57yswYv2eDXPbDDD9NBz23QKKn69FX9PMxpAN11HcuxMmn6aAh85rtwBXYZIWWCj4QJoaMGb6h7y6bS1Aw3FWDeY+S77jUlQTAghhBBCCCHGMR1AdBQdH4H5QhdMDB9caeyF5pe2k33nOZLXlIJGXc4DOA7VXtK2O7u9zLi03QagZrURMGIE7KvScb2ZQ0uiGavBCfGll7HmocGtgQb36SpdZSDHkwEN6uMjTR5Qs9oIq2uwtYPF0l82lp8K6Ee/3/mrjdgtajDQgxkDnZeU0aPodDQB/k870IwhKPYjgCk/xHPSi35QSWFPL4AH5abIMxrqogAUPP/Riv4aCYpdyc+5rd2Hu6qQ0kdnDZkwoBcoe6WR5AvNZL2YjWZ6/6QHTbs8wOiCYpMBJk3Go9Y/MrD/2u8uAqe8KAmgBk0Hd1AbngtwVznIXmVguMCV2+Nl4YDgdkBLO5hxYlwdOluqC3Busqmf977zYmuHxJarMwHGcCQoJoQQQgghhBDjzHttPjjbSOzdWjQoJN+ho+kjDRnv7UVZkhRcznEK7E8WsHGFj65ZWwAXyXelBAMFAAc6gVMHYMrY98Pt8ZIRA5eSKTVYRppCscUMDRY18+gy1mmpdGHtKqamqBQ1xKUa3FNsoBrA+XO1V5kTd0jgLBAkc/YYw5aIDszSstePPnBhBIyBbLee0R9f4ymgrZ7Z8wBimT9PQ5MmmQZHE+mJGcGZCr0XIedZBysv2El/fiNqR6rQ/dYuWsDeOgdJDzcEG+0DvLWvCx0ulNuWRQzFJN0M9pvNvPX2DrLSWoM9pg1xkgAAIABJREFU6HzA2vJW5h/+W7L+bi1okyKs4crr+i1cic+58xQ4X3gO6xwfinno5AknAdq7WHg3IQGxrovg/fgAfzDK/dUCxgVx7C0Hc9tbwUb7APWHfGjONjAn/tLOn73eiwEnSsLYA5ZewPmGc0gZsxcoLnAOCZbNuMlLcYOZfL7dwJgExYQQQoxLlkoX+QxtTltQ72Vh0/B9PoQQQojviwOnoLuqloEZPIdOnKP3WAsmjR9DunqxnnG7hpY5K1j/qo2MjhxmLMrgwAk/TbudmKd2EXNPPrP94NSYyHuxkYxVWnxTjNQf8fL5fjtM/HrM+xYorRqpzHGszADxiWN+XU6lC9w2ctxQusqOcokX5oPLEAOBtEjPD+4XdiW5AFuVA2jpf6zHj+foIXT4SH4wHdCSNBEMv8hgR1ULx59cT8qfZtDln0HtvgPoOptI2WBmcEAsYN3/MFB80Ezer3Zw/y9O4o9OorahA2+bg/xUHcTeH3H/9IB5ZQrOTXv57C9KyFiVjldjxPGhi6/bGli2atYVD4hNnggwmdq6/Zi+mo02IS7k+dm3XP7n3HVBbayv97tRFptpbfOg5pqpbgBmxunRzJvN377vxKrNQxeXQXOPj6ad9Wi++jxkfdqJP2KfG5T3HcTdlgjTQwOymYt0rG+0sm6zjYzlPWhuTWfvES9d71ZjnQPa+Y+M+Tw5e8BdVabOiDpM9qDaFs6DflBwu7UHcB/A+FDoa3MqXRjcNqxlVgYGy8zRCt0brBRvclKqL4g40+WVJkExIYQQ4ls2OCDn7AFKCzAXZRMYTIS7Ez2atPLAlNij7QkSaH46eOAx3J3wwQKD+aKyhd9JHxIhhBCRuc+Cu74x5DFlioase2aTYnkEpqiBDmUClBaaqdipYG94Df/BMnQTwXp7DGbrZtDGkKyFc89mY/+HSkrKG9BqHKQYFJ759WrWfqjQ4SwYtvxysEBpFfH5Iy88gkD2SX6qk5bEGmyW0X2HQX+D/9JVoAzTVP9aF27GTQ/gqQ+dTVI3EZbNjSFjVQZE988OWpSmYJ9eirO6guZSOxr8JMbqWL3JijY28ve7UQubS6y8VhNDWY0dLjRi1GnIzUlFf+eDDJwZMhxrvJaYTVuxV++gpLwBDQ5mR2vJfzoVJWHlJZ2L4ZimgGH5cuxvPceRtjKy/z40CypZN8rP+TA3Tz1ngS878QAlLzlBnQ8zKBAY3Zhjpuwfz1Hxjh1NXQmzo7U8Z03hvRufoeGv1+LvUstZV99joOJIMiXlTvLTGmHVqyHrUybAC4VmbDsVbA2v4d9Vgn6KhvwViRiXrIQJujGdIxdgy7ZhNbhR0oYv53W0A27bkODXgcNezLghPiO4zmKLDXBStMEcHDOGK1POqXJTMyPyBBJX0u99880330R6srOzkxkzLqfCWwgxnnV3d8vfEHFNGG4K6NFau8rAtqpYBg9qxqJmgxlvvJXWdi+2TWWYcWOtycfVY6S41EZ+jDMY8BoclAoMJMw4hx3kjyXTzQt4e7wUZzuwGpwhr4mUSRd2PT1QdtiFu6pYvZuYVhSxB0sk11qDXTE+yfeWuFZdj5/NwIVwafKB4I2ZS5l9cuC6rNiC32WBdVkN7kvK/h6un1gkNRvMOG+yhj2GsZRPRhq3jNQIP1DyKdnu4nIMN+YcGNgaaODv48Dl8lOdIWNJS6Ur2HdvoIHjwMDvXn6MbcxllN3d3cTGxo7pNeMiU8zWDs6+dNVXn0xGs2BoPS/0XzSN1BTxeuMD9n7kofGt1+jtPAb4UaZoWJYUevfo+674/V5c5WvIioeUDeX0tRQVQowDRWlK2Cmgx1o+uTANLJWJIa8LfOnXbABvvHXIAD+wjN1ig5tmoADmeAVTjRo4SqxU15VfZKXYQtg+CoG734MDV5EG7G7AZgkfBBz4HacASrRCaY2VnIIZ6CtzMK6uUTPXGuwUAzRYwq5n4LqUaCNFaUZsM2oo22QhO0EdKEUaINVsQAJg4rrzbY4zAr9Lpas6UdKKIl58XAldZ6G10smyJ/WAMWzw4WqpPeylsc6O190Kft+3Mj71XYTyhi7W3dwKccuu+Ppbe6B39w5SHr+8flfXg9YesHIAJS302myss08GPv+DvyPN0WCuKcLZAxbL8IG2/FSG/O4oQE2RmYH9xEal58qUTw6elXLwMuECiAbAXGZlvH+2xOUprnQN+X0K6J+xdfhxXKTlAhNMDOeSf/cu0bgIig3U1txE0oIsBtbUg/rH1d3UGvY11zMfsK7SRW9DMUadhvlpicBkDp04R8W7LTQ15ZG/2Tpk6tjvm17A9VEruqla3mr/mhRPE+jTR3ydEOL6pc5WNfRLORBAs7XDjDcsY7roUwBihk5X7emBWDohOjFk2YFf+EbAvMFKyyYnxtUuBt6YcbQz7AXo4OBTJIMH5eH2xQvYSp3kp7rDBv6ItwZ/Tkx1huynNR6oqelrpjs0o6640kV+qhPiv7+lKUKEcz2PMyqbvMQetAGXX942Wp6L8EyJE9ptpM5TMK7JwPcjhQPHvFS84+C9/XkU/ebqjE/3fwnNVZWwYWyZBqNV8qYL628dfFsXe9cyczRQVDTkMXPN8N9ng78/7fXeYQPCo1nnlRRue4Hvx0jPD34s3M28wct828clxo9IY+Tr1bgKihkMBg595CYpsw0mhjbra+0BvfsAnpv1cMITYQ3Xn0YP9DbYyE/VYVy9lUC9txVweGDHUwU076wm6YkUBgcSv0+aPED7W6xcY6LsFXC/uxPDo9fHYFUIMToF9V6yKQsGj8L15xpYypGYkE0xVg5YcobcsS5uIEwGlfq8Qa/g9bhDQlfdX8AMg5uRgmsDB81DHh8mkJRT5YaqyBldQ/cyPEulCzMtIWWcQN8sWE683QaUePXnwIxBI2V/Db6TPTj7bKSMACG+D77rccZo79xfCVf7Dr4PKHi5FW27ja15ZrTz+o8pOQGa7jNTllvGjo02VpbFwgTDVdkP8f1RlKYwni7ghRBX1rgKii1MjsXmhqy2Q2gWhAbF9h30cK/BjS3GCidCy1CcnT7s/1CJ70QLWo0f81w9Gasfgan9TQl3tPXSWLkNX08HWo2fFIPCyjXWYONCH1BZ30XL7nL8vV1qc8PbYzBb1wTTv33Ajve7OLTzNXw9HYCfGJ2GNUsTiUlbTSBgFViuqboS/1k3yXoN9z+xgjwbIXW3votQ2dBFy84y/Gc96KdoeCQ1DtODWcFGe97/BPBgTDQzuAFiqh523Hk/x9u2ksTnqJcuYD/sxVljw3fiWNjzEanJ8+DHC+q9xFbl8MMN2Ti27kKHh61PpKBNzKLLB69VN+JqssOFXow6DY9Ykom5e2VwP1t7oKJ8B73HGtDgJzlOx8oVGWhjU4a8985DHkx4SExYjubYDdS/04Th4WaYmIQPeGxzE9bzZSFZGCX7fbS+9BjljxnQ3VsUPPePbW5inbaMpJxXaf1Sg73STtexRrjQi1aD+t4/YQ2ej+GO03sRtle34nqvIuJxCiGujIUJkJMdSykFOGYU4dxkIX2VGTUUFhqsUmbEokQr1BSZsVTq8R62o6T1/z0bWGbR31tBFTtDwdMUKDLqK3locZHfNyPPWBrYj9blZooNbDBMQjZKdP9FaKC1gHWVgZyqWPI9FopW1wTvYCs9YC1Lx5JdRn5q+EkAIgW+ruZsW0J8m4YbZwQExgPz/j6Xsr9z4TvegH4KZD+YSEzqapigDQbmc2NsuBLKaXhpC5x1k3izltX/MyNio+tw5ZO9F6FiZyvHGl6LOA5s7PRRW70Dr/sQ+H3949M/XwPamGDvFzfgtBSTnwrK6pqw5ZOjHR+u3mSl7C3w/Jsdjd9HapyOlU9kBZdr9IDv/dd4Zok2JCAWkDwVDqxYyec7W+FUJ+gNwWOxV++g91hT2HFh4BxtXtXJXlYHx8dGnYa1a1LRzVsZ0nLFsskd0k9npDHbDjc4CtaQn+rHuLqcwM3kNdVu2FtAQYGZp2pmgNuGDbXEfbR/u4UQQlw94yooNn8G2OL/mLbmipASSg/g+bAN0z0GbJ7Qspfid710vLye9Hk6ZlusdJzV4di5D9eTJcG0bVu7n8bN61i2QCFmlbpM7esOep8qIXv7OpiYxHP1Xnqq8lixxIgSl01zD9j+eS9fn8gj/fktgJ6CXR56Xs9jxT0xKLdn0XVWS+3bjRRWNVE6yYduUS4Az9V7+byqkPR5OmamZrH3iJ/Nz1bDj7TBWXK9wPqSRnSfVGC9z4Tu1kfY92kvJW/VYj2Wg7nwBZigEHMLgJGm/YdIjkuHCf0XhhqgJieJgXde1Iuj9SyL0zL7aSvNPRpqa/aGnI+xaARmbK0gd1UK3gvL0Rq0uHxQvN6Gcs5J1n0muPVeahs6KCx38IL/JMq9Rew45sdRsp6Umb0k5azAi0L1W820bqhg64YutAOyFdwXwfv2e2TMA80UEymLtDj3a1h5cB+6u5PQAoZ5BtqqwHzWDVPUc3CsoxOAjk/cJN3rBzS0ngXaDmB8wkSzT8PWJ8sw/UELGavS8U2ZTeMxL466WsgvYWVZUfDuZdjjvAC/eXoHM846yLakQHQSe494ySuvJv/T1pDMPSHE5TNHK1BmJSe7ALCEbezuBXB3hzymppCPPng14ybodhsIBNsC01Qryerfg8SbvBQbrDgtxcELooEXYoM5LaHNSAf3GIHLyxQrqPdCVQ41YW5kODdZMEDwOVMa5BTMAEv/+VOiwUx/j7T8SsslT2EvxPfRSOOMgQ4BjfkVZMzWoHs6i70t58irqib/1DGMq0oJjE0rDoPmgzyyHprNuRtzqd7TzLENNkoLutHEjZwN5r0I6zc64biNFffEMPn2bPYeOUfJrmryfXkYV5VSe0KDfUMBKbE9WNesoPdHCs79Xdg+qmWyr5DkvFJyF8/E9n+zUN6tIP3pDGb+PzH4w2xvtONDD1D4Qi3pt2iY/Zcr2fcpON6qZepzJcHxsPOQBwUPhpSMMFtS5d6tg7tfCf5sa/fh3LSOlFk+knJW0OFXcOzcF3ZcuPlNDz+ZUMgvV6TTwWwcO/dRtNnBli1TSbklHf/juTS+bCP3YYWoWenAzFGN2TIMWprS1rKtvpjyu+xgWMkON/Tu3ULR/Tqi46zkWryU7PGR4rWTtDILnT56xPdSCCHE1TWugmI6wHiniUPlhJRQtnnAcOI9lIR71W/rPs0XwPVPdjYvjybm4S0AmICFi0w8lVcbLCt0tnSwcpaP9CfXAQomgFtMNG7Mwf/JcXrnJeFuaiX3bjA9mh9cz/kfm2i1rSH9lAv3dD1nPmzmV6k6jKs3AhpMgH6Bia2ZZZzsaEK3CBp7wV21nfxULcbVmwEtyQlQcLOJ3qr1wX23t/iJbrexZdMyiFUHFaYEqL0jheqnnyLliB1NYjYpOmh9IpOylwqp2J9DYpyO2xNTiPujOHQzZ8OE/pLJwLZz7/4hpjVqwMYEGJOTKXui7JLKLP1AYeY8tHf2D1Zsez3ov3Sy5fkMuFltcDo/wcSa0p/Q8n458+7twlF1jOyf9pL8RDlMUANHi+40sabUROOOraQ/fy+gBjgPHAPONpB4dzKgJTEOnJoUWj9yknJ3L6Dj9jiFWhT4rAPik3ED/oOt6KbqOH60N5gpd+SYHyOtaOdmcehwL4YfHCO3cEXwQjI5AZ6KMtJR/RR82QnRhmGPM/F3DrJfyoYpycHXl81dhO3FNWxJa7xu+pEIca2wvekC3FgNQHx6xGCUZRMM7ok12tkR9dFgIxZrewvEG2ntAYP7AErOQgCMfRlotnYzZZssFCU4AfOoJnkpqPdC09AG+peaKRacVKAmdNZJGoqxGqCmJjT4Fiib8mLGUuCETZbgtgf3JRvIDViybcDQGbzUv5ILR9x3Ia5VoxlnBPQC+QmEjOGeUozYXn+KLakN/d/7X8LmDfODwRzjfBNP5Sk0VNlDxjiR2I/44Xg15U8mo+2bYCo5AZ660UjTvmcwPtxGY0sU5qlnsBb+CiYa+5Yx8ecv6enYv5VkTmKaZWTXzXHoAVOCgUAO7EBjGR/6gNx4f/9yCVDw4zgOVuWQ3uOCaD1er5cUgBmja6TvvgjOsp2sNPSS/mwpTFDH4vMXmcjLs9O4ozbknJm+8pH1Qi5oTZgAXZwJW3YB3qMHiUlLJybeBOzC9Id6iO/LcmsYecym0aez1mKkuNlM7XYHxs1/jONv3yPj5l4Mlr7riDgFDhqI+W8wJcQhzdCFEOK7N66CYgDJ83RUYAwpoXzviIf74j0QPR84GVy29RPQ+ps48/tJnDk8qAl/FBzb7yfpiQ70ShR7G2DW3tcwpmbARD0ZsZBRVQqoQyHN9CjsH0FUvI2Yny4DjY51d2rhzlcB9aLglReXAaGz3MRMBGbNxne+CfDTfPRrFFwY781gYBbR8lSFkqpk1JwkaDp8jCStn9Yzk2HQvvuJoqO9CWOiOkhat0iha245e99vovXdRpqqHEAtWg1kLzZgWpENExSaj/pQcGFKD9128hSoXJzGobomkla3AaF3RYdjALSGuODPvYDn31zqBevNycHHtcCrOUlAEo5TwIlymDuD1rbjIevT/f55Dp4gOLDyA437m0nW+NHMmw+AcQJoFy/krTpnsBGu8WawT0nEfbQRQ7yVzh6IOdtB3Jr76SjfCT1qgKvlWAcrDIAujuxFOlhUPuSYjLP0tAJc8EU8Ti/gOdDGvJnQ2gHQ/x5pzoMHHd6jB1EkKCbEFREoDzTgJqPMSnF2N+Z2B9Z4K9YBPbxGO4PbcD3FjACpiXi77Sjxaj+xWNwQHZr1ENI/7IvLO75LzRQLNPINN4OVzT38DJY1NfmM1MNFmaE2qpbySXG9Gu04I8AAGH++jIHjqHsX6bG9bqD32MHgsssMoI3vf51+AhjuSeZglZ30L10wdfigWMuxDlI0frSJoS0ltizXw3J17Fm6HFj+SsjzGmDWrTGc2486jpk48jkY6/jQtGB+yHKxMxT1FsQX3XijAY9Xvb064YaRNw4c7ATONpK6Ojmk4iFmAhjTzTjLa0k/0Ry80ZqUAGj7W6CoyVqxeD3OsCGqsYzZjBPB/MQKaosO4XyyBMOXXpYVroQJw79fQgghvjvjLihm0gHxycESSg8aPO82Y1pqRA1f9QfFTp7y4gNKqpuB5iHr6gT40sOae4wUfbyM4upaqG4mRqfB/MdxpKQsh2gDGiDrwSQqPkkir9SJBiezo7Wkp8/HlHwfTOn/ovRfhO4vfXh+24mrw8OhI21w4hhnAOjlzFmIgyF3z/QTAIP6mBfA46XZB83P7wh7Hjy/BSP9dy9jdJC9NBmWJuO/CMdOerHva6Wkrhrrp+sxF77AufN9d/Sjh36x65U/ULd79sxwp39EJwE+60b/M4h098yr1iJRVgfUlQx5vhfA2w3R0NQL/v37mL9IAxPnBZdJmW/AUacNNsI1AJoFJlwtDgwrPHR8Gk3cFDfGRY/iKJ+P/9MOPo824z/YivFPlJB9812A4yc8dHm8HGtvw3XkkPrEmV64OfxxegE+9+IAHM+XhV/mVK/cPxTiCrG96QqZTZFUF66WYoyDMr88PQCdeLpCe4INNlxPMQBzopHWN4oxp3lxtnjJT4WRSjCdDC2VDGdhmJ7Sl9tTDEbf8D7SOgbO1ulFGVKGKsT1aLTjjIBYGDKOCgRlTp7oD8ro+3oQDhQMHp3shqmR96kX8H/mYcYsQoJEkXh9fjyfddNxwkPzUReeo33jmLNnRhUUO3f+3NjGhz+IXFEQmMHX7wYufgUTRt7+1/8NCj40+plDtz9VhwtCxmQ3jC7WFjTWMduKOA37U9fS21BMwYoYmC43OIUQ4lo27oJig0som3uSMJ5qRDdvWdjlR3ORYABe3ZSB+9Qy6g820fpuExW7jmHf1crWDWa08VaSp0Ny2TpaP+9l3weHOPZRI66qRgz/3BjstbB1v5fml4vB70U3EWbqFHVQ9VUi0ASA78JXoz7WcH1nRkMzAUyzFEyPmymeNZ/qV9Zg/sQBfEtf6uGaVYQxmlKmprZewMXW/cD+R4c8X/8OwUa4iXGzOdIAy3pctHyi55cJMGeCAeZ56fikArcetGdb0M9NBMDtg6JiO/7OWjSALlpL3C0KxkVmXA32UR3DwAtrIcTVM3Bq6YJ6LzQU0wIYV7sYGKw6cNiLOdXNgQYz5p7WS54RMTEeijeZod6BoaETY9nQv1XB0sW+v9OXUj4ZaRY4S6WLUr19SKAs0uyWkVgqXeRTPKq/U53dXmb0/d/TAwY64Sa1LFLKJ8X1aizjjBFNGLn9hJpBNfwyfoD/O/Lmmk5Bxa+34u9pVscx03Ukx86k6acp8JFj5BVcJQa9wjGA7i642RR2mdoTcOjXeax7VA+Ts7+V/RrtmK3nIvg+UbNumz/sYtkSj2SKCSHENWzcBcVALaG0YcR/9BCNJ/Qsi/eCbuiXrqLT0QT4P+1AM4oLI8N0DYalKbA0heZe2Pp0Ba11TpLj+9PJTbN0mB41w6NmHCf87Hi6CPe7dk6mm2l+aTvZd54jeU0paNRAlgdwHKoNbkMfHRV2oOC9CHzeDTF9uV/RUXR8BOYLXTAxfFCsF8jZ1MgybwXLXlSbmw42a5YOF1q4CJMnTVYLa3o8QzKgPN7fMR9gqgJf9LVm6/XCgP6hnad6RzyHMwHmzAibpVGwr5eZu3JQnloLKHj+oxX9MEExD+ByNGHSwL1/mUFwFoI+r7X10tRQEWyEe3uchjJMuD/twN/mY86DJrSAMjuGzw/5OTK9lZQpXjAsAOC5f3Uzq7OWp4qWoTP0l0WVHfTDCEGxKIDpOtxHwYiHkXqDCCGuDEulC0NDMdYNVg5sOqD+PYtWg1BewN3UStFDZiwkDplxciyMgGFVOraqHLUcPDr0oi2wrYww2SCjFZilLj/GBqtrKLbYqNkAxFux/txITradfM/Q2SAtlS5qEltG1R8NQNGHSU0Lw+3xBo+n+wtQQ2ELMUeDuaY/ODeWQJsQ17KxjjOgL+vo7O9gyoD19GWoxt4ax7m+x37XA+qc1/1lhp3dXrVa4JbZw+6XAmhu1dP9HnDRG5ItZjsGx198lLz8DMqqtSRfaCbrxWw00/tbVjTt8gCjD4qNZXw4GgvmKuxAj7txL4ZHw9+0PtDi4UxvF8qNcfzwB+BFi99zEs3g7X/Zq74ryqXn3o91zLZ1jwf9CTtJa5ZhL28mac9W9Mu3XPL2hRBCXF0/+K534Ltg0oE/Ppna5ha8H77H/EUmBjZBDZg/TwOaZBocTeqgoo/3IlgKHDiefhQvXazZ7KRx06P0Fe4BoEwBJqnrbPXDY9k7cL+6JmT9uhs19H3V0vVbABfJd80PBsQADnQCpw4Ef06aq8WLEdc+J+pgSdXY4gO/2k9MAyTfMY8mNHjf2xuyTccpeNRSQNfep9AB0XNnU3sKunaVw0VfyLK9F6HR2YQRH9wSE9x2q2NvyLabzoLvnXqMiRqYMIcf/j740NLr+TzknLn3Nw05x4PpAP1PjexzAyf6lw+8PibaT5IhBm4289bbXvD193XwAY+Vt1Lx+KPga6b5BHDCyfLFWkwJyzAlmEL+3fdgCmCkyeECPBimAIZ52N9rQTl1BG2MOug0zdHz3uca3A2vYVqgAQx4AZ+7kwWzQGfo79fhuwgtzS0jHqce0N+TxN5T4Gt7K+S5ijYfjz36GL6WihHXI4QYHRdgsdgwNBRTVGZFH2/GTSx80V/i52gHs9sG8YmYE404qtx9rxx+ncUWC+DEssmJxWKBdlsw6AVgSjYwOPAVmOXSmNgfdHMCFksxFosl4j93VX+WmKMdDG4bxp8PDW6ZoyG/pgh7gxl61AkDLJUuXJUWzIlGCjY5g49HEpg1czRcAA0twQBaZ7dXLfOM7mtS3Q6uytCSS2cPOAsKAlsS4ntnrOMMULtReffXh6yn9m03Rtxo5/Znk9W3Aacagz+7L4L7TSdJ8cCUOEaSGDebRr8GX0v/OnzA/v2tzPk/fk7OnAXtXSxMICQg1nURvB8fCLPGyEY7PhytFD1o7sxgS50PX9vQ7NLaTh+e3eVkzNHAHDMLYoEpKUPG610XweVwYpoKTB/5nEUyljFb7QnwvL6VNffryLg7A939a9j6ugdO1IZZsxBCiGvBuMwUC5RQ1pZXYMKBdl74tOukiWD4RQY7qlo4/uR6Uv40gy7/DGr3HUDX2UTKBjNaYoi+XYvtlWpObi7EeFc6XhRq33WhO+Ug8XEzaLRoEkwU1TlY1ptHTLKZrrM6at9uxKBpxnCvFe8N4NSYyHuxkYxVWnxTjNQf8fL5fjtM/Dq4Tyk6cK6w8pvqZ0jvyWN26jLsx6D7ndBBQ8btGlrmrGD9qzYyOnKYsSiDAyf8NO12Yp7aRcw96iyYuUv0rP83K3mv29C9+RjzbzfCj/V4/gtcRw6hudBL5ioD6FJIAd5blUlJ1XqW9axj9pIMmns0NNbsxUAXySusgJYFseCYmsLmVxzcf6GCcz9OovqtZgw3tDKajAjrPXqK3zaT91d27v+FF390EradLnSdDlIKzGhQMK9MwblpL5/9RQkZq9Lxaow4PnTxdVsDy1bNAm0Se//VjR4vhntWht1Osg5si+5l534X6cffQ5mzEsVkxPW6H7PGDTer2V+zbwEncWg8rcy2qANHBdDdFot9L/BiMTMWZdBxVotj7z74z2OMZgbOwHGu2ezEuuQzNHEZHDjmpfUdB9affI329vB3R4UQY1dc6cJqcEYsKXcBzk02tSwbI+nxkGOwkljZn9E0sBl9MWBusFBTk48La0iWFkBOpQuD28bCDVbKNh1QZ5gckHHc0g4GnHBTf0BrLOWTXsD5hlPtVRYhk9kIGGvU9QcCXEqyAWs8FKwqxZadg7VGH3F7rT2A+wA5bjfWJsuw5fiBckklYeGQLDh/7M20AAAgAElEQVRnDzg3FZC+yszAAJgJyIlZiL4yR7LGxPfS3saxjTMCZc7rX3WzwpPH5Nvvx76/F99Be3CsFeAG8vJ2cL/lJL0/TsL+L40YzjWT8piVcDdyBwuMA9e9aCNj+e/Q3JqOfX83Xx+0k/6YAc0EI5p5v+Nv33di1eahi8ugucdH0856NF99HrKuyZMmsx+YvctBXMJXMCu0uiJFN7rx4WhpgYI/T6LIk86azQ5S57VivCud3h8pOJu66PqoFvNUP+bcfEDBMAHM2Q+yY1MTJzesJ+mBFXT4FRw796HraeX+DWYGZ/ENZ/JEgMnU1u3H9NVsYhLiRjVm81wEe2kt5qkeDA+q4+y1Dxooft9MbamdZZuTYIIe7cQfsc8NyvsO4m5LRDN9+H6TQgghrq5xGRQDtYTShZGF81wwJXy/AlBn5rJPL8VZXUFzqR0NfhJjdazeZEUbqw5uiu5VqJj8HI3/YsNRWq0uc7OW1ZusaPqW2brSSJkun9r61/B/VIEGSI3TsXJLLkSbSAbOPZuN/R8qKSlvQKtxkGJQeObXq1n7oUKHsyBYCll4v57KGzbi2FlGbVsFyXoN9z+7grIN3ai5BqBMgNJCMxU7FewNr+E/WIZuIlhvj8Fs3QzamOBy5YVmdu6fQ8s+O85/Ow5+F1oNpBgUVq7IQhubEno+ol/AWWOj9nkbWo2flT/Vk/5IPkxVv9QNEyC3eCUVL0FZVQO6iY388o+NeO/dzIEnR04fN2ph8wtWXquOoazGjuZC45DzaY3XErNpK/bqHZSUN6DBwexoLflPp6IkrKT5gnp3cmU8oE8Oux0NkLo4Ccd+Le5DjRjmrCRxrh7H61rifuoD1EwxwxRglpHEz1vRzJ0ffP1mi4FtF3PZ8V4FHCwjRqfhV+mJ/C75Bcr+wobncxf6+NEdZ8V7dqgrQZmiIXfxbEwr8kfVHFcIMToDe4oFGABumhEy4yTx6jIKYM0xU5x9gFJ9AUpa0ZAywHACJY0Gty3Yj7J7g5mCbAtFZQQDWM6Wvll2oyN//wzH0Q64bRgfCg2Iebs7UcL83WntAYP7AEqO2rurKE3B4snH2t4C8cYhxxYIAJauAm+aWppps+T099kc1Jds4AybwQy2HCsuwJZto3QVKGmBAKAaGFOioXS1mZwCyK8cWuYpxLXsUsYZKGYMQFreSiqrO/G9W4FRR3DsMtBKA3Tem0vFq6+pMyvG6VhZmDvqvxkDx4G2htfw7yrBqNOwMS8V3Tx1Wxtzkin7x3NUvGNHU1fC7Ggtz1lTeO/GZ2j467X4u9T2IcsTtDw3Zxllrzuw/q9WTH8zdObt0YwPx8KghfJNK9mxfxFNu1/DUVoN+InRachdHofpQWvIOGnguLCxbyyeGqfjwbxstBHen0hMU8CwfDn2t57jSFsZRX9vxTjVPOKYrbzOi/aEnYy8FJioHrNxIiSvzsD+YiPJznKUJUWsvsdAxZFkSsqd5Kc1Ylz16pjPjxDXgoJ6L1TljGqSHiGuZb/3zTfffBPpyc7OTmbMmBHpaXENab0IJSsqKH30M5Qlm7/r3RECgO7ubvkbIq5JBfVeYqtySKzJp9jSEjGLzNYOzk2WYRssB4Jq1lVgq+rEgHvIAHHgwNEVbQ4G4QLrDMzoOFKm2HD9uAL7GslIM1T2z6LpjDjJzMBtDFyfpdKFtasYU1EpOQWtWLFhLirFUukd0vB/8DG4gBaLDWtN4rDHLsS34Wp+b43mAjIQWA/8Dl1qz0Fx/ZExlbjWSFBMXIu6u7uJjY0d02vGbabY99UON7T8Zg2lTyZDXP9dxeajPjQcQpm56DvcOyGEuHYNDOgYgMQyK8WWlpDg1GDWeJhRVkNxdkEwYyzi+qucEUsgi9IUbDNqKMi2EPsEgDOkn9ho9jnAuCH866zxYB3DzJIQWhIKgVl9I68jsI3Ahbu5ykJ6TT50eTAlG2jtUTC4D2AuswIKNasVAtOm5BQ4wW3DACGzcQ4s8xRCCCGEEOLbJJli3zPui1CQvYMYn4P7LSloo5PY92kvrW/VYv1JL+bCF6TsTlwz5K6mEEKI7xPJFBPXKhlTiWuNZIqJa5Fkio0DhgmwuWQl5TaFsppauNCIfoqG3PviMD0ofaiEEEIIIYQQQly+wRnl4ViybcDQmWKtBiS4L74XJCj2PRQzBTbnmAnMYiSEEEIIIa5tRWkKpA1f4qwANUUyxhNCXDsi9RkdLlMsMFu2EN8HP/iud0AIIYQQQgghhBBCiG+bBMWEEEIIIYQQQgghxLgjQTEhhBBCCCGEEEIIMe5IUEwIIYQQQgghhBBCjDvSaF8IIYQQQgghhBBDuIk8wyTDPLfQcFV3S4grRoJiQgghhBBCCCGEGEJmnxTXOwmKCSGEEEIIIYQQIoQ5Gsw1RWN+XVGaAmk1V2GPhLjypKeYEEIIIYQQQgghhBh3JCgmhBBCCCGEEEIIIcYdCYoJIYQQQgghhBBCiHFHgmJCCCGEEEIIIYQQYtyRRvtCCCGEEEIIIYQYNWmmL64XkikmhBBCCCGEEEIIIcYdCYoJIYQQQgghhBBCiHFHgmJCCCGEEEIIIYQQYtyRoJgQQgghhBBCCCGEGHckKCaEEEIIIYQQQgghxh0JigkhhBBCCCGEEEKIcUeCYkIIIYQQQgghhBBi3JGgmBBCCCGEEEIIIYQYdyQoJoQQQgghhBBCCCHGHQmKCSGEEEIIIYQQQohxR4JiQgghhBBCCCGEEGLckaCYEEIIIYQQQgghhBh3JCgmhBBCCCGEEEIIIcYdCYoJIYQQQgghhBBCiHFHgmJCCCGEEEIIIYQQYtz5vW+++eabSE92dnZ+m/sihBBCCCGEEEIIIcQliY2NHdPyP7zSKxRCiIDOzk75GyKEEOJ7Q763xLVKPptCCDGyS0nskvJJIYQQQgghhBBCCDHuSFBMCCGEEEIIIYQQQow7EhQTQgghhBBCCCGEEOOOBMWEEEIIIYQQQgghxLgjQTEhhBBCCCGEEEIIMe5IUEwIIYQQQgghhBBCjDsSFBNCCCGEEEIIIYQQ444ExYQQQgghhBBCCCHEuCNBMSGEEEIIIYQQQggx7khQTAghhBBCCCGEEEKMOxIUE0IIIYQQQgghhBDjjgTFhBBCCCGEEEIIIcS4I0ExIYQQQgghhBBCCDGs08DS3DpOO3K/6125YiQoJoQQQgghhBDimrW9DZYuXRryr718acgyI12s13khd2kueOu+hT2+Muq8sHRpbthjageWLt0+5DwIcbXN+clMtr58fMTfpdH+zi0tb/9OP8c//M62LIQQQgghhBBiXNveBnXPDn9BvATYvXsjEB98rL0N1NCQ+thpgOMnmfant455H+q8sD0zFzg+ZLs8u5G6ZwuHff0coGR7JihLhl1X5u6N1Hnjwz4/cB0B23e1kznnONPSK4Zs82AbzKGO+OWZoz1MIS7bNGDFmngK65dwuuUDpqUvibhsAvDB4ytYmllIxeMfMC295Fvbz7GQoJgQQgghhBBCXGdOA1m5dXB8+5DnYqM0rEidS0LGWpgQ9e3v3CCBgNHAoNdI4ucRsvxJL8zhU5jxs7FvX4Elu0uC56zirv4L+O1tofu3vQ14dmnw5zovfJAZmsk1OMAVeE2k5wevI9dxmuMvZ6mvBbYvzQp53WllCXX/ombfLM3c3rdUv4rH5zAtvYSl5e1QPzSgN+3HGh5acBuL/2wVTIod8/mq/vfz7PlNCf4z7SzWwNrXCkCTMOb1jFWu4zS8nDUkeDjW152/CNvqO8m95TDMfSj4vmeynSUlFaihn5Ftb4NPn10aXG8gwLv72SUw78oGKw974cy/2lj8F0uAabQDhUu3szGtjvg1u6/otgZ+/oaT9TLwcviAduAzWJIeT13ibrIyc9mt337Fz8uVIEExIYQQQgghhLhOzfkx3LpoMaABwA98fPQ0Ra8fZd1/ZHFXYQXw3QfGLtcHLae5leOgrPiud+WKyJxDSIBmYOBsTxssOb59SCAxECiBT4OPzQTi0xMYGOj5+Lfn2LbvICcOr8O6vQQmzBn1fp0G3tj+Dnf8oJ3FT1mJmjgTNGMPrH2XPvhP+PjlCnh27FmF35WiXe1kfr6HvvzFq6okfRqkhwbalpa3k/lZ4ZiChgGBoDNEDrgVAtSHBtiuRnAxHAmKCSGEEEIIIcR16mc3wZLHH2LghawVyCw7jOPdIu76z4/hxqt/oX21HT9xmuNA3dLQzKhAxsrlqAuz3oE/qyGl/gy14wzN4Bp4hsM9P3gdkZwG6v6ljorH5zCazLp4IPPxB0KWzQRy3zzN269kYf3fH8DcsQXF+Ow0f5IG8YseGPXrvkvhgjwDTQN2lyzhcgNOmfMgc/eVzdqKJB7YvTsT9d28utT3/OQVWVekgNtGCq94xttoSVBMCCGEEEIIIcaRScDM2Jl89S7g/yr4+PmLUFHfyUH7Vvz/dZKZP9ZgTQstszwP2N7t5GN7Fee9nwB+YqM0rP0fC4hNzwImBTOWtj7+KbvJCq4vPkrDL7P/hKjbrSH7Ey7oNBqBssZ24qH+YEhmSbB8lA9CXpO76yTrbs4dU6Ds2y6fHM6eFjVLbFrJxlHvfzi33jJN7Wr2lT/k8br/OE91aQXnf3uQSRo/S/6/maxYY4UbE0L6vxXWA/VLg0HHzv+Cqtfeof3DarhwhvgoDaseuYvYe6zApOD7se4n23lds5GTbxazOArWbvslTLqDw17YVmbjzNG30eDnrrlRWP9sBZP+cHHEYwiUL2a9kMnWPXDyUDUa/3n+ZG4U1ifXwo1qSefA8snt3UuCx7D02eMsoY4Hdm8kK/dkSPnkaD7n4fYnUD55el5mxPJlCM0EfOc/zvPGP9k4ffxj8J8naiI8lBjLkjVrOT0pNrieQCltxeNzOJ1eMqR88vRF2G4/zNF6W8Tf31zHaW59OYuEygK2vdjOmaNvM0njZ8X8mSxZs27YctqZP4HRZomFK0W+VklQTAghhBBCCCHGkcNf+Dn+9h4y/0gDNy0A1IvY7KJ3iPrf28hcmkCUwUqd+wxFu98g82gWS4rLYMI0cl8/ifef17Hq3limJa6l878m8cZb75D38odUTDpP1N0Fwe0U7TpJ7IQ8cv/sAT7hNvbY6yjYuIdt26bCzP4so0vpKTZQoOk8M4ZmzUzT95fIHQeoryML2Hhi6VXJTBlYKhaQOQ/YvZul5e1U3JzLkt0lwcBh5pw6lpRUDHlNJJmJQPpucsvbKVleF7a31sBjDuf4GfjgzT0suRH4f+8KPl647zSf/H02D9wexW0rM/nkv6LYY6+j/X8WUfJ3mSyetYSovyqg+td7WDGvndj0AqJm3kD7eSj85XZiz9ax7s8W41fu4I23P2Fd2R42ug8Tv2YbgSDStvdgsb6Yh/8qk0leP0y6DdtRP3uKsll8yxnueGoVp5lG1Z6PObx+G9ue7WTSMCV0J4G8597ggVkabnvaSp0b9ux+g6l/U8QDpdtQC0j7LZ4F/r8o4J2/307BL6YR9ZMHgJv71tRvLJ/zcKKAgkcS4ELocra283gdW0m4aw4wjTd+C9Xrc1n8h14ys1dxZuI06t7vZPv+N5h8Po8FhRUUPJJA0c4VLD5dzR2PrSVqpqJmbw1w+iJk59cx6d+3k/lwPBqDld0tpyl6vSrk9xfgY+CdX21jVUIUk3++lt0t59i+r4qoCXnc8eRrBEqtBwsEQiMZGOw97YUld80k6+XjLHl56WX9fl9tEhQTQgghhBBCiOvU9uP9jdoHWvFHsORvthHI/Kg+6Edp2862Fx6CP1T7ciUkwhsLF1OVs5bFLdV8tmAdZxo/Jj8tivg1mwENCcDM5ARKHt3KiU8+JOru/m0kfHWetaUFMCmBBCBqbgLbM3M5/b8+YtrMK1d6V3ewXf1P90lQ1P8e9sKc4x+ENN4PXLRv715C4bNLyfxsKUtKKmhnWl8vLrV5fdZx4OWlZM4B/rRi1OWTkWaeHCgLQpqTD35/1LLIdcMebyAgsj1zO5m7ZzJcsCFSFt7iGyHzhVyYqL724wvQ/o/VbH1YIfYX2wB19sCf3Z3A2l++wcf2Ku54cjHnEhOAw8yZ3k58opqJVfLKceb8Zx0l/2CFm9T3dXFiAmv/+Q62v76Obfe9EwyCJvghs3gtTFKDcSeBPS/vYd38M9z1pA0mqMGzny1KwLolgXdeKeGB0iUMDm4FnAcK5vlJyFYDbwmJkPsHc/no5Swe8LaDEvq62CiInZcA6EiYPRPmJQwJMB2HMX3Ow9EACXOnMTCzqu4LOPl8LhvTopiWrr4n7xw8zpIbz5BZnB98L+5KTOCRG2byyfsl3MUJEubGQ9McYv8bEhLnEi5b66X3z3DDv29nW+FiJt2+tm89sHXuz6jaYmVxSzWaBern6gxQ8YDCtJ+XBJd7+AczOVpfyB1PfsLgz1NgZtfhSpEDWXsB8QrEp8ezIH03hUu3s6D8uyuPHIkExYQQQgghhBDiOhWp0X71vx/lXO46rMVFMGkOH7Yc5Y5Jfg6fmQwth0PW4Wcqn7R9SPyCdVT/w0PAQyHPx04EfnIb589/2LcFdVt3JAKT+mclnKkA3MrpE3VjbNUdWTswp/4gx+fM4bTnU6bNUx8/2U3ExvuZ82Dm9t1qACs36/9v7/6D2rzvRN+/N1yr7iiHU8U7PMeN7Iyxe4Qzg8KxLltwTmR3QxwsdiKlt5Bp1KxNdhHeLe7WJBvS40BZcLqmTUi2pq2Rt8GehPQa2kbyBEFtsgF5bbh15Tpib4OysTyx1TriXkdZrzX1ymV1/ngigUCAcMBxzOc14z8sPTy/JH2f7/N5Pt/PF0tLOy6XgzCOjzX7ZLosMSAZLGuqggbvprlnOewJpw1mJoJvClC7w0j1OcecwYaZCu33jwwTfbKFuj21sNKM7zegjXmJfLYY35TPnztgZCCWNmASAKIDJ7HdB6zcmvKebWsubV1GQic9LKtQg2L5BkA7UcPMdxE4PwgFenynR1P+XvfZKCfPkza4NZnp3mImD2dce6eihjcnBUnnwwDz+p5nwh8F5zNO7P8tgLFqInOuvcIAFZ0py2qANV/I5coAcDUKy2dfdxTwnxjBvhK0G1Izuco2avEe2IrvhJviIjVYlgsohRtTlluzSlGnZxgLQU7qZxwaAzg7awbi2d+GWQvTPqfJtc9mm9UyXaH9qcOMF4sExYQQQgghhBDiFpWu0H4N0HYqivtZB5vce9E+2gGhMENRGHq2I+16Qu+BkQigIzYOoUtRQu+dxT8aYuiUD86PEAHUPBR1W8uWzW9fM8m0SkhkrXT2hNlk8LD2q+34flKNpSwMKHiG/TSVwkxZVJYc0LvUukyWM+4ZZ7lLDH2cyUyBsIREIMBhAGNZO01lCg22UDIYN1NgbLbZJ/noVccTFhocg7iKnDPu/0yF9t0h6Kipw3uoDfPTJi5cvEIUaD40hDrALtVZgEshWJF6Pv8D4PI1Vq1SmBokytEB6PngA/+MQdBwGCBI6xHgSPO09yMA4TmCW7dlHpyaj0y/53MJj8OePR4M/+6hfI8DsqYH+MLRGKFgiNHzIYbO+Am99dFncDkyZ1DsCkD0Cvp1MPVEfS4LWKkQGUvsMywDyMr8xxn6HRgIpGRdzoc6bLiTlrKWtEX2LX0Nn+jwSgmKCSGEEEIIIcQS80Chlv7sEkbfcmN6VB1ANjUQk07LQJihHzZALIxuOazSKZRsNOC+VgR4r2tf9AaS25wrO2RqAf3AhTAtX7XgL1DobLRgGfPhz7FA3zDGxtkzTCayWBZWch8/KrI+eQKAxDZt+4tw2qozOuczseSAs9SO5ycNWAqs81pHiR46NpQxOtyKmbOAcsMyc9KZfI5uBgv5PW/tC6N9+yANjRZYmXpuvReh7dstxMaG0AC6lTrM61bh/WIJHHcv3AF9DDNlgWXCD9A3TLg0MO3b6TwD9DXgaLTwSdYbk6CYEEIIIYQQQixhOoAcHaPHwXI1CMvTB1f6IzD04g+ove8K5p3toFGXCwHuk93Xte2zvw3PUC0qM64dRsCIEeissuL/eTXDRRYcBg8UtH+MNU8Pbk02tU5Xe5WB6gt26FNfn2vyANcOI+xw4TwDNtvEsLGmUmBV5vvdtMNIp00NBoawYODsdWX0KJ/T4QVi/zqKZh5Bsc8AZC/jwoUw+ilDCsciACGUz888o6HuDgCF0Ds+9AXz3u1FsZDfc+eZKIEDT9P++JppEwZEgNb2fsxXh6j5US2alROTHni7QkBmQbHbAbS3E3oXYIzJ9dc+HAcuhlEKQQ2aTq2gNjs/EDjgprbKwGyBq8CFMJsmBbcThs+ABQ/GHamzpfoBT6NT/b5/dF6cZ6BoeHEmwJjNbTd0a0IIIYQQQgghPnHHTkfhcj9r79aiQcF8rwkvGsJHU29I3RehwlZH8LUagu8B+DF/qTgZKAAYfBe4OHhd+xG4EEa/Bq4nU2oqe5lCQ58FT6MNy1ctH2udtv1+fHU2XC0mXC5X8p+l0YUFcLmaUl5Xylpw7TDicLr4aC5MbLYGbDYbNpsNp80G+PGMgc1Wl3zd81FxcgPgcjrmHRAwAi2u+Wd39V8ETveQtwFgLcUmDWjM9B7xwvhE4CQ8DrY6N+5vVADBaesxANrNG3EdBy72przn6g2iw49yt2na3yUUrwZWW3C9HoboRC2zKGDf56PtzysgOn0452JaqO+55yJ4vtOEY30UpWz65AkXAM4E2VRISkAsOA7hf858O1rAeG8+rosQPZ36/ek5GUVzuZe8guKM1zdZZ08YAx6UwvkHWsOA5yceiqYMYw4DDXWeacEy/efDNPRZ8O+feYbLxSCZYkIIIRaVbb+fJqYXga3rCbPJO3s9DSGEEEJ8PIMXIXSgm8kZPEPnrxAZGcakiWF4SL1ZtxdqGF6/nZ0vObEHqtFvtjP4XgzvTz1YVgTJ3dJEXgw8GhO13+3HXqUlmm2k51SYcwOdsPzavPctMbRqrmGO82UBKCia999V7/dDwEl1ANqrOlGuM2Nl6jDERHH+md6fWi9sIfkB5wE3MDzx2liM0FtD6IhifsQKaCleDoZtdjoODDP6VzspecxOMKanu3cQ3bteShotqCXap6t7xEDDCQu1f9OBbdsFYjnFdPeOEj7tpqlUB+tmDnLoAcvjJXgaXQT/ohl7lZWwxoj7TT/XTvdSXrUGtNcX0JnJ7csBbqf7yCCma3loC/NT3s+76+N/z/1X1cL6+lgA5UELvtMh1Fwz1TJgVb4ezYY8Wt7w4NDWosu3MzQWxXu4B03sXMr6tJ/9DJ4AKG+4yb+7CFamZm19fbOOnf0Oapqc2CvG0HzBiutUmODRgzjWg3bj9nmfJ88YBA60qjOizhJ0DQOcC00LbvvGgMAgxq+m/m31fj+GgBOH08HkYJklRyHU6KCh0UP7qroZZ7pcaBIUE0IIIYQQQohbVOAyBHr6U15TsjXUbMmj5GvbIVsNdChZ0L7HQtthhc6+DmInWtEtB0dhLpaqVtDmYtbCle/U0vn9dpr39aLVuCkxKDQ8V43jTYXRnrpZh19OlRhaRUHT3AvPIZF90lTqYbjIhdNmy7h4d6LAf3sVKLMU1b/ZpZtxMwSEelJnk9Qth/J7crFX2SFnIourpUyhc2U7noNtDD3fiYYYRet0VD/nQLtu5qCIUQutLzg4+EourS93wtV+jDoN9U9sRX9fBZNnhkzHUaAl97k2Og910LyvFw1u8nK0NO3eilJYeV3nYjambDBUVNDpauJXp1up/XHqsEazLsPv+SwPdUOXgUtnCQHNL3pAnQ8zKREY3fuEhdb9V2jr60RzpJm8HC2tVSUc++MGer/lIBZUh7NWbzHQdspM8z4PTWX9UNWVsj4lC/btseA8rODs6yDW1Yw+W0PTtiKMD1VClm5e58gPOB1OHIYAStnsw3ndZ4CAc1rwa/BUGAsBKLAn19lgcwIeWhotyUBbumHK1QcCuO6ceQKJhfRH8Xg8PtObwWCQ3NyZx/8KIcRspA1ZemabajlTu6oMvHBgLVM7D/NxsxVrFUJ8Osh1S9ysbsXvZuJGuN08mMwIuZ7ZJyevy4EzmYGeWJfDELiurPTZ6onNxNVowfN5R9pjSNQY84wZ074/OXtspv7UXIXwbfv9OM41SBa++FgSwSsLnmmB5cmBrckm/x4nL9dU6kkZLWLb70/W3Ztsct898dtrWuOc93Di62or47M4e/bsbG/fVD6Ix+PWbx+LW63W+Af99Yu+vfZfx+NPWa3xeLgn+X+r1RqP/7p9wbf1q3A8fuwHL8Xj8ffj8Xg8/lY8Hrda2+Nv/ci64Nua7P0/xOPPd/8q/mhVfdxqLY+XW63x+qpH42f798Xjf7iyaNu98od4fO/rZ+Nxf9eirP+lX74ff/8X+9K+N/qHeNz62EvxR63WePw3Ly3K9peST1MbIhaP9UdvpW2vnnr9/XjPU9Z4om2b6+8SbV/81+3x9+PxuPWpnvj7rz+V8jdvxePxp6ztybZ5spd+E49brY/GX3rMGo//YfRjHFFmnnr9/Xi71RqPx99K7u9sx/txTG3Xnnr9/ZRr1GI5+2/xeNOPj8XLt++KW63WeLnVGm96Ynv8/V++sqjbnXpdXEhn/y0e7/puT1z9Noml5uNct+r7P4hbrdb4sW9b42rPdPEk2sNEG7iYfcOpv4nFbs8m6/rl+3HHM8/HreWPxq1Wa9zxWHn82A/q4/F/W7z+xWL3Q6+3/boV+1Q94Xi856mn4pPPRU84Hn/K+tSs16+pfYDE93+m72RPOB63Wp+KW63WGf8t5G8n3TG0/zqe7BOke3/qa+n6SFOXSXdcN+LaL2591h+9dUPa+MVwPW3lLTN80hcB7Rkv11bo8Lr9WO8Pwceax+Tm0fxzP4733Hw0Ov6G8ITA+WQDyn/6sZeaUPJrCF/V4n7TT+2+XvWC6tkAACAASURBVBz9Xix79kHWwj+BGLwEQwfaoXHtgq/bD7ifdWOpupD2/ZPvgO5yP5EVOoZ+0UvxejuT6y8IIeZPnRVq+lOeljIFytRZl/Q/sc3rqaYCsGZ6Gx8ag7WchZzpdUT6hwLoVkTpvaTDfqoHTZFhfgdyk5qrXVssztNRPHtryb0tjOMrZnR32Qlehu7eQaqf7aaptB/jjjbmGjJxPRbzuth+PMzaE074248/lEcsHRHAf9yHboUW15lrlIS8oLd+0ru1ID6J30RoHGqbPXDGydYNCsaddqLLFQZHwrT1uTk2UEvLPzhg5cK3AYvZD4VPpl9/s7LkAC0t016zuGavI6QArhYLiXPY2ROelo0y33UupHTbcxQAHw3LTPf+1NcSfaTZlrnRxyWWjpn67reqWyYo5hoIYcIPj9XQ9aIT69vHYP3Cjz+eiaMAHDdo/LkRcLkcwOIMDfJFwfm/2rBo/TheqIfsiXHmlvtMtB634Xy+hrWvPI1hW8ei7MMnIQb0/mKI8pVRBrdU03uoleJtXtCVfNK7JsSnSl1PmFpakynU6aZXnjxkoqiwlgYcDNqqpw0JaOgD+qYWZ1XfN6xSCF8IpITRQr8DvSHA1ODa0FWI9vVQ/RWF1n+24O3roKSoko8moV90Uzvwiy1dZ3ohuS+Cp6mJyvURrHvaIEsNUJoAy/0mml61saerlva8VnSb6xdtP4S4WXhDwBkXlTtNtLZD4GgXhsdvXFBssfuGky12exYF6n7oQ3vGSVuDBe2GiWMyF4LXaqF1VysdzzipdK6FrFvjAYe4fi1lCkvpBl4IsbBuiaBYCAgdHaJiAywrKsar8U/L8kncgNWvceL/kw56X9wLlwMUrdZS/Q17snBgYuxra9VZXFTjfbkVzdUQW/N1VO6sSSlEOJnzDHgabSljYYNROHioH7+3E65GMOo0bP+amdz7KwEtUaDjjSBDhw8SHRsFYuTqNNR8pYjcsmrCaJPj2J2A01ZNe5WBcFnLtPG54XFwHvYx0tdB7HIIfbaGytJ8TI/UJIvq1fWEWXugGtOP62l70U9kpBetJob9i3osO2pBq4697TgaQnu5H8ffW1MCYgmV9+nwvVnJ2XPdGJjIyOs8FcbzspPo+RG0mhiWe/TYd1TCClPyHJ1ttFH9nINWN4T+n040sah6br9ZAytMyfMIYGsMpIxj9o1B274OIiO9aIhhztdRuc2Odp0atGoeiOB7sZr2qjXJm/EIUN3kZc2/tLLp7xw4vzUIBKg+AIYDtpQbcN9ViA0MYXxYi6bQTMehLkIDLvQPq+sPAHV/3kHTxl6MOyYKG9oPBbj2Wh1dzRbId6Qs2/Znw+gr2ul/N0r3oQ7CgSGIRdXiloW5WHbUgDY3+f2sXeOkS9NE6MgeSnRQ07YLtMVzHrsQN5NNhVDtWEs7dbjvbMHTaMNaZUFtiVODVcqda1FyFFwtFmz79YRPdaKUTdxoNZWSbOcmahio1t6pEPKCcdJ6PcN+mtJM6z7ki6GNeTHfY6VrmQnXoY5pmRyZtv/T2rLjB9Etj1GzxYhp29fTZtCmq3UC0P9ulM5DHURGvGl/25FxaDvsY+RYJ7FIEA2Ql6Nl144SdBsqU2qvTG7X6k6Z4EBqkDF4GQ6+MvM1adp1ct8LxCJ+9Nkaah9Rr0ugJQZ0Hh7CSADrUzXJgFiCFnj8kVz2DlgJ/usIps1RQLsg25/puqiUtRAdh/a+IMOHW9NeBwPjUOfowHLNjcPZBMvV+hgdAXDXVdJUBg3jO6GviQDgsTWkfP+EmI3nZAgTIYoKK9CMLKOnz4vh0SFYPjFj2uR+WOtzfqJv96LPRv1+l1ZDVprfwQz91anS1W5Jth+z9A3n6p8kar9M/k0oO1xp27OF6AcC9Icg+kYHDQ9pUwJiCeYVMLitknOHfXDxLOgNyWOZrT2d2sYn2gqjTsOunVvRbaictR8aHocfHPLhP9qWtg1LtiWlMYw7Okjcg1QeCsBrdTQ3W6h5RZ+2/RJCCPHJue2T3oGFcOxt4KILk9lE8XItmj8toXcgBhHvtGXbTsHw3lpqHr6D7U/UM5xVTM2TTmIjqQUUm38eIvTy09RXmbDurMf9u1XU1TTDWGaFn/1RqP2Gk/BAGzUP5VKzu57wGitP7/MS7lXTz+u6Qnj31WIvuEL97hrsO+sJfc7E0we8RAZa0QH1XzNBgZ2SlVC/uwbdBvu0bYXHYeczHoJdzThK76B2dz2aou00d43geaYaxsPJZYeAlqfaKF85Qu3uGpTNDpzHxxg68DQQSwYYbSuB9Q+kPTYd0NlQgqWxnURArK4nTPezO7H81yD1ux0Ub6ule0RD3V81w8WJcxYCnv77boqjbur/tpL8ihrcAQ3uv2sGQpTcBSV/XQ8o1D9qpGR3PbCKjpEYzTXVmH7fS/0T29n+RD3e35uoebKN6Bn1s3Ns1qFZvx3noUDys28biMDpNp7+axOmNRbsu+2AkZotCvbdqVlwvSciaPFiKCqhSA8YLBx7LQTjahFMA6DZaMJ3MkaiMGYYiP7mLDEg9PbErC4nA6C93I/+niK6z0Pbk3Xk/95L/U47Nbvr0ZnsOI+H8D7/NGroTtX2T2Ac2UPtbgfFX9kO2ryMjl2Im4klR8HhdFB9YOJhgVLmYHKgKgwQCKX8nWuHcV43B/rPQyhgSKwtOR20sio1ayACeI95KckGDBux3KsnhIHA0S7SyaT9T7RlposHqd/tYNVDNTQfuYDnmZ3J/ZmL80yUtidryA17qd9pxbqzHm84l6b/1QZjHqJA9YtDhFzNOB7QUb+7nq1VtfjH11Lb5IZAB6ZsZm3XEvxRqN3l5MpAG7WPmZLXpNp9Xvz7a1BzM1Rtp2Dku7XUfCUHxxP1jOWYefqAl9iwOvNQ4gHC1vsAnTntsRmyoMNZiamqFdAu2PZnui6GgcrmfgKHanGUKtTvrkcpddDsCiWvg4YssHzTjueyjsDhFwAIjIP7ux1YV0QwPv409Q+uQdlSgxGo321n1YOS5SbmFhiH8OvH2LQBNNkmSjYX441piJzonbZsoh9Wcccwtbtr0BRup/bAMP6XalBz1lWZ9ldnEh6H6mc8jHQ1s71IQ+3u2mTf0P9SLRDLqH9S/+CqjH4TC9UPBDXAqBDCUDI1S3hC/f06mpydoFeDhIn21HTFS/0T25Ptabq+UvPPQ0TdT1O3rZjynfWMLsunvskNIfeM/VD/Vdj5Vx1cOdpM7WMmanfXc6Vwe0obZjeArmwXL/RFIdAJqEH3yGt7efphHTn5joz69UIIIW6sWyJTrHfQj5ko2iL1SVBJkRFPn4bIaS+6+6dk0lyC1sZitB9lcxk3mqjZpdB7oBPr9y0kgjw5/x5N1iowAblFJloqWxl69SDF3yxhrjpTzqMh9Jc8tH3fDqvLASguNFH5fC7Db7SRtzVI5E0fz5TqMO7YC2gwAfp7TbT8eSsXRr0YN4MpX4ETBnJ/D6bCfNLV2/nBQIRlbztpayhBu6EGUNPLW/M3cfD5SkpOdaIpqgXUm8N2aw7KQy3J5Spu0zPS10DxN0cJjxvhYpjc+yHTmmz9EQgc+AH19y/DtFOtH2MCjPeZaf3LVoYOT5yzKFBfEJtYrhDq/ms+Jw9UYx3zk5ujJ7fABHwO03/XQ4GJEOA+4Kb2ixHM3+yALLU+zab7TFQ+b6L/pRas37egoGf7LgvOmkGGXmrj2uMmfD9so+4+0G1Wj99QaASGyb/rP1AKJ24cw4D/6BD2lYDhARTAYDbRfwAq3zkJ69Wb7KL8PEb7gLGzkGMgcBm0AR/XVugIjobRo2ZEDL8VoiQ7Cus20v+zAJYVERx7nklmJpgLTXxtmZ7RgRbMXCAxhMsUA8eeGtCqN5qZHvutUj9P3DqcP/cDARwGoMCa8vR9MlsjTJ29JtOZI/U54GQtjjPDUKBmkxoCgyhPbEpZbmgMOHOMBx5VAAOmHMCwiZMDTgzbAtOG3mTS/kcBR040WVvRVAitdxVz8HuVlAxPtLkzCQGel/qxr45Q/oI6/DCxrba/aCV4op/QZgv8yxBN2wwoZeqNqAm44x4zHTU1hN8dRTHM1K6lBuZaDgcwXPLQ8qNKWKlmx5UUmqh5tRhnVy1tf9afzJrLuQQtP7Ill9NvNNHwVQ2jZzwYi2oZi6hHkPuFXDKtubiQ2093XewcjpFzxknbc+WwTr3JNBVC9/8s4eA3apLXwe35GobKdrHvtQbavtTN3jeN6C+5qfy+HbIMmNbA5+7KRw+YCg1Mnm1JiJkMjgCXeym63wxoKcoHj6YE33EPJfdHmDxMOwI0FYJxhxowNhdCjWLE+WoNbVt7J7JXM+yvzqTzVAzePkjH35rR3qu2R+ZCqPljI97eWoyP+ugfvmPO/olpjXHab2Jq2H8h+4Hk6AmHw5QA3JnZ7GGBcfC0dlFpiGD9TrvaJgPFm03U7uqk/6XulHNmuhal5vv1oDVhAnT5JpyOOsJvnSS3zDqtHwrg7A1R9KGb2n+shWxz8ny23rMJ5/cqafuzfjR6K7seM9IwbKH7B26MLzyA+7vHsK+OYPham7rtDPr1QgghbqxPfabY0FWI/VM/xZs1sFy9cG3KB7K34nX7STx1Sig3gLZgYriMPgsMD5o5eR645E++bv9TTUrxzmItaP60hJGTMWB01n2KAKFf+rEYgNUTT9G1QNcTxVif68RALp0/Kk9JrwbIXQ6sySMahclPDGcSBfwnRrCtBO2G1BvOso1aYtlb8Z3wJteVCyiFG1OWW7NK4SzAWIjwJYALLFs256aTht6KouDHZLUxuaCyORu0pWUMDcTg6kQWlene4pTl1t6pqHlXv0v9rBJ8F4Hzg6DT4zs9iu+UD98pH6OnfOg+G1U/uzH1s7PkgKGyFudxaKurpWS5j+IddcxV6Hk4BAQ8FG/Rk+g0PbBRIYqRoV/0kjh//2e+hgAmor9Rj2c0CMWMkP+ondF/AcbPEgbCPj+mjRrIMtBeYcDx485khxPUT3zNF3K5AnB1IkMi3wBoJ27Q53PsQtwMPGNgs9Vh6GugyenAGbDAGTeOAnC5XMl/TS4XYKGpNPV1l8uVEhBr6AObzYbNZqPBZmNyAM0IUFpE+LdnAbWe2FoCkJN6s+g5EUJPAP1GtU1XAOOWYnovQ+xUz7RjyKT91wCWR0pShkqWFGmJaUoYHRme8zz5LwHnT2J+0JAy/LBYC53/dy25D7di1kFXR+207Dl1fgEj16IfzrkdUPNaowMnsd0HrNya8p5tay4hjIROTpzXjWuAlRMTFShZ6kZD5wDChMMAQcjK7EKx0NtPx3tqhFXaGL7I7cl20nfKB2EfMe5g9IyaPawBdj1mJLTCQvWebiKv7aX+cUPy4ZUQ8xUD+geGMGtiaEzqUEljFmhLN+E6A4RSRy0YAOOXy5ncL7FsVrNXIyMnk69l2l+dyfDIKCWaWPKBcUJbhZ6aji7QFs+rfzKbhewHhgFCYbVnnGEbc/Jd4HI/Wx8yp7TJuVlgtFrwnAfODyVfLy4EtBMPRvU5AGsJXwikXX8YCHl96FaDL0BKG6OJjhJCR/gt9bMzLgfLN7fTfV7H3r9qxnDJTfm3KqcNMxdCCHHz+NRnivWeiKCJeTEVmUkElwxZoN28ka4j7mkF9/Vpas2svVNRb7MuhGCF+pqyas20ba1ZpXA2BoyFmO3p8QWAsyH0fzp9W1PFxiF0KUrovbP4R0MMnfLB+ZGPBtRF5vz7KwDRK+jXAeSkvPe5LGClQmQssS5YBrN2MhIdg2vX0ncM0u5D9AoGmHYjCqBXPqd2cC5PDBHktvnN5pi4AWs9AhxpnvZ+BCAcSh5+7VaF6oHtaANOKnebUzo+M+k6GkBPCH3hxHfFpAMKzPQO+JMF9w3ZgMGE3+ekeHMM3ztj2DfEiNxdjCfmgd8GCHzOCAEfeQ+lzn4XjsYIBUOMng8xdMZP6K2POmiXI7B8YY5diE+a8+d+mkoDE3WYSv34hxswTsn8Co0BnCV0LrUm2FSz1RQDsBQZ8f2kAUtZGM9wmKZSmNw+B8Yh9NoxKlcD+om2wLxBhx8j3j7vtIL7mbT/awA+n9rmJYM378bS5FKkCv0O4BzKnXPXBYyNw7mLUS5cHMV/JsjwyRHAzwcfZJYj+h8Al6+xapXC1MyuHB2Ang8+8Cc/gWVzNNH6zwMYYPxaBltf+O1PlbiJHorC0LPpJ38JvQdG1Iwd43Kw7NyOp3GQyjURlLLpbasQmfJGIDbQm/JwFqCk2ID7iHZawf21MK2/lOh7XXjPk/wdZNpfTScCxIIhdR0ZzBJ+Pf2TyRayH5iYWTgWQG1jsube/rXfg0IUzapV07e/Qocf4IMIrFZfm8+DX0gMzQ/jBtzPtqZf5neR5Ke1PV/DYOkuIn0NNG/LTWa9CiGEuDl9qoNiiemvASr2eoHpNcSmFtyfifpEKsMNZ7Lc3EletAyEGfphA8TC6JbDKp1CyUYD7mtFpDuWG0EBMOgJ/gZMk4roT1XbFUL/y3pqn6pEfe65+DIdUhWMAudG1Sw67zDFheqQxpkExtUshihgq+kAUm+q/JAsuK8AisnIyE8hb3yU8K9DGIpz+XCllo7sfCL/76/4VbYVEz40+epwBe9FaPt2C7GxITSAbqUO87pVeL9YAsfdC3rsQnzSJk/hXNcThr4GhgHjDj+Tg1WDp8JYSgMM9lmwjPlSZpycj6ICaGi0QI8bQ99ZjM7U38nJd4DL/XRchg5bzfT9PcO0gvuzyqT9vw3Uq8osF4JxZn8fNRO4/tUAwa56IIaSrUGfo6OkLB/PK0bU1unG068ANGsJ/qsHhRjprq8xoPLFIWyXDmKor7sh++UwkFL0ezb+d8aAKMfOgfW3Q5IpJq6b93QE8NMyAAxUTHu/p49pBfdnlDV3RDiT/moM4D/n3txC9E8Wg2GVwgjAb4OwOv2Dze7zMPTtWuoe18N/mX24+kLJdOKNsXGI/kZ9uDz0ZpDyh0KSKSaEEDexT3VQLDH9tb1QQ+6W1E53BGh72UfvgCeZ5QPw4RhAapDk7G/D5APclZd87cP/PzStW33uQpit2cCKtR+lg6W3CmC9Pm0GRF1vhFVd1eTt2cXQi73U3ncF88520KjLhAD3ye6Mz8HtANrbCb0LMMbkINaH48DFMEohH+3D3MWfFUBfZMR1CMqnZNklhMYh+M9D5H8YgRUKt2tvV9Pex0LJp3DJZcMfUgywQoHfZXxYKXR3qHsWeseHvmD2ZaPAC/uHMOOFv67hhR86MRa1J+tppNNzKgaXe6kp1aMzpR5vEOj8nodjr/mofEitPVR0j57hV7XkvxNA+/YFlO35ao7JPXkE33UzvGyEmg1AtokI0Nrej/nqEDU/qkWzcmI4rbcrBMze6ZzPsQtxM7Ht92Poa8DR6GCwcVBtH3LUoFgYCHh9tHzVgo2iaTNOzocRMFRZcR6oVuuX5Uz81mNA7y+G0BOlcqdlWgF6z3vge6VlWiZHJu1/CCASTsnSDI8D50KsLdOiZp7N3ObqVwEYCP/2LMqk33YEqP6Wh12ruhn9UhvBriZaKtZgeOTp5GxxQ1fB80r6bIV0PgOQvYwLF8LopwSxEvXBlM9nVrsHIC8LNBvz1evr4xPX18l8UYieHEJ3d5jPaHQLuv2pdAA5OkaPg+VqEJbPHhTrPg+hV/dSU6GnbbiY7uc6KX+hWG5axbyFAL/bi0kDlr+1oxapmNDhi+Dta6PyRC+6+9WgmJo19SFkT1rPR5mza7+Qr44AIPP+ajoKoFmnJ3QMdbKlSdlizhEY/V4F9X9np/WQ9rr7J5MtdD9w4z0KHegJ9LswPJ4+YD04HCISCaL8cT7LboMwWmIXLqCZuv1LEfVTUa6/dtcdACt1BN4C4ywPjBP2/iyE/nwnxTvL6dw3RPHP9qKvaLvu7QshhFhcn+qaYp6TIbSEKP/yVkyFppR/JYUmjNbyZJZPQs9p4GJ/8v+BcQj83ENxAZCdn3z92BtRiE7UP+i/BLF/crNxs5a5MqN0gP5PjHgCwPmJjK/wOAQGvOTmxAj+f7mAH/OXipMBMYDBd4GLgxmfAy1gvDcf10WInk59etVzMormci95BRk8nZzEvkVPVGPG+ZwbLvtS3osC+34WRHO+G8tXDZBloPgeLWGM+NwuJs8g5r0M0b4ejEUayJq9Azeb4tXAaguu18Mpn0kUsO/z0fbnFRBVU/3bT0Th+AtU/rWJyi0lsKGG9n/wJt+fKgZ4T/gwEqPkEdu071F5oQltaUVK7SHTOghrNtF7+FeYGIa78tAAhrvz6DgFsZMdGEwGQKvGTs8E2VRISoczOA7hf577c57PsQtxM/ADNpsTQ18DLU4H+gILAdam1Ax0nwFLwAkFRViKjLgPBJgt6ymxzkRNMVujB5vNBmecyQAbgMlsYPJDiMQsibYCMN1fPu33XfGwCbK30tMXhasTv6NM2v8o4Dvaz+Q2zz0QQRvrx/Ancw+JNK4AVm/E+4sAjE+cG+9FiL09SO5dOYwGr5BLFMOXNiYDYgBDp6LA3HXLEgyoJQVcx4GLqbPhuXqD6PCj3D33MPMEDVD+5WL86HF/15my/wCRcXAeGEIX82L+vywY0C3o9tPtj/leE140hI+mXgfdF6HCVkfwNTVLMDQOnc91Y10RouSRnVi/bqfzvI7Qz/Ze9/bF0jV0HjjvoaJUi6lwehtje6QEMKbUuPUB4YHUWobdrwcwEkB7z0R/LdP+6kyK8vPoj2mIDk+sIwoMDvjIuxrjwuo1H6t/MtlC9wNL9KC5z87eI1Gip6fPttn9bpTQT/dhX6+B9RY2rgOyS+g94k2ZcT04Dn63B9MKYOXc52wmekC/pThtX7vtdBR7hZ3osBr0SgTddz6sw36/Hd3DO9n7agjOZ/7AWwghxI31qc0US0x/XbkaWP9A2mW23qvD327m2GteLA+pacwBoHZXB7bHLhDJLqbz5X4M/z5ESbWDyTVl+i9DZFcLlkes+MnDfaATy38JYnikKaP9c2zR0/C6hdonO7FtCxPLKcZ52I/uXTclzRaG9QoejYna7/Zjr9ISzTbScyrMuYFOWJ5ap0X72c/gCYDyhpv8u4tgZWo9s69v1rGz30FNkxN7xRiaL1hxnQoTPHoQx3rQbtye8XkFtdCz9e+qcX87hO8vm7GWmlDyNxG8rKW7d5DYu16aSnUoWxsAKNHBsaqv03xgJ+VjNeQ9ZGdoTEP/yy4MBDFvczBXofvJbl8OcDvdRwYxXcsjtzAfy+MleBpdBP+iGXuVlbDGiPtNP9dO91JetQa0xQxFwfsP7TjWg26zOoRq+w4zTkcPxftfoPgJI59BC9nLcPcGKMrpZ2xVPhzvZetmDejMafenYouBjiP6ZO2hvCwdfDEf/3EPjvXAcrWjl5erw31Zi54Qyj1qxtkqQLMhj5Y3PDi0tejy7QyNRfEe7kETOzfnudBDRscuxM2iYb8fh8Ez4zA2P+BpdKpDgjFiLYBqg4Oi/Q3JYSmeMXA66oAADYClz4bL1YQfBw02J65GksOJq/f7MQScbGp00No4SEuhJzkUs/dEBA1ezKVmJrfvCYYs0D/8AN5DbipP9MJHmRyZtv8tb0SxRmrJ21pO5wgEjzhpKtXC+ulDqKZK/LY7G12En6yl+Mvb8ccUdVsrgij3N5H3noIbHS3f7qTkMYgs1+M6OsrYW+6UEYuJTLBEu2bMn37zV/eIgYYTFmr/pgPbtgvEcorp7h0lfNpNU6kO1k2fGXQ25ash+M16Ol58mkF7DZavmNHdtQn/WJRe9yCM+dhXZUCT71iU7U+9LtoLjQyv387Ol5zYA9XoN9sZfC+G96ceLCuC5G5RP7u9PwuhO9+JvdkCWQbsBugv3cXeVxtoK+qG1eXcrr2dQSCvy01+4TV0a64/YCduba7+AHrCGLZMz6oHMOvAuXkrXQN+tcYtatu086UA20O13F5oo3MgQvREJ1+vMqRkXWbaX52JvVDD8Prt1HzPif29D9F8wUrnQIhrJzqxVhvQZBnRbPgwo/7J1N8EU34TC90P1ALNO4qpD1mpbHKzdYMP45esRJYreLxBgse7sayIYXmmCVAwZIGltoKORi8XntxJ8Ze3MxpTcB/2oBvzYWu0MDWLbzbp+qGJfn1lkwfHQ0E0+XYGR8L4+tw41l5DW1ieDLpbVoSS14tdjxhoeMOSkpE6tf3SrJRZboUQ4pP0qQ2KJYa8mbcZmSmNuXi5OutN/xEvlndOAgqVBji7tZ62lzrUmWrydVTuqYec1At8bSn0ZzfTfGAv2v/sxvFFPZaqVtBmdlE1aqH1+w4OHsql9eVONFf7KVqtpfo5B5p1FszAle/U0vn9dpr39aLVuCkxKDQ8V43jTYXRnrrkMJDqLQbaTplp3uehqawfqrpStqVkwb49FpyHFZx9HcS6mtFna2jaVoTxocqUDINMVa7XsukfWzn4Sj8Hj3cTO9KKBshfp8Oxuxyl0J6yfEuZQmfOPjwvO+l+1olWE6Pyi3qs25tgxfwu9qZsMFRU0Olq4lenW2n5sQNHgYXc59roPNRB875eNLjJy9HStHsrSmElUaDtJR+GmBfLNypJ3IxbcsDz6E7aXq3B+KUODBtqMD9uwbPfR/+zbeQ8aEaLn+IHrcxUd86sh44CG94zbZREfGh0JZhMRnzHwfg/FBKdU+M6cFPMppX9yYLeOmDvE2Za91+hra8TzZFm8nK0tFaVcOyPG+j9loNYcHTWekqOAu2sxy7EzWRyTbEEA8Dn9clC+U2lHihQl1EAxxMWGhyDtK+qQylrwZIDFlcLswkD1XUeDAEnLU4H5FgINVqoc9hocUIox4Lf7cWaDZrCshnXY9usp+2QEd9xPzn3q4WgM23/m5+wsPeolu5nneizobWqiNzSajK9+Zv82+5//iBaTUzd1o5WWJ5LpQFoaKV3tq9ebQAABaFJREFU3wsMPd+BbjnYCnMxtz1D5f4POfebVoyEMKBPade6mi1Aao00oxZaX3Bw8BX1msTVfow6DfVPbEV/X0XG+zxZ3WYF390ddB7oxHnES+yyF60GzAaFyqdq0K6buMFf6O1PvS4aq7po32Oh7bBCZ18HsROt6JaDozA3+dm5L0Lo1X3U369Fk69ewzRAzWNGWv7JjPsHnVi/Y6aiUKFpfTmtr7px/NqH5e87yCQIIZaWoatqFlRlAaBP/1BNA2x9sBj3gJbAUD8oFgxAWUMl7QfPEj3ahlFH2ut5pv3VmShZJH8Tib6hUadhb8NWdBvUbWXSP9HkWKgo1Kb8Jkx/P31Ci4XsBwIYtNDxXCUdA5vw/vQg7ucPAjFydRrqK/IxPeJIGRY6tT3VEGNrvo6Khlq0M3w+M0nXDzWusCT79W1HO+FIM0q2hvrSPEzbmiBLYd+RMNrzndgbSpIzehqXg7naTuf3+jH37EN5qCVt+yXEp1FdTxgOVCf7YUJ8Wv1RPB6Pz/RmMBgkN/f663zcTBI3UA6csxbinXzTlkkxTSHEzG6lNkRcn7qeMGsPVFPkaqLBNjxjFpnzDHgabbMWMk60z44qcB44i4HAtI7Yx+mgZdr+J/ZVJsAQ4tazmNetTNqnTPurYumRPpW42UhQTNyMrqet/NRmigkhhLg5JYJGoGaJFTkdNNiGZw02OQpA73TR4KhLZozNuP4DHiyAw9XE5BktQc1WcN7pSmaMSSdNCCGEEEIIMRMJigkhhFhQjgJwuFKDX+p/Z8+qmmvYpBFwuRxzrsdRkNygEEIIIYQQQsxIgmJCCCGEEEIIIYRIMXnyo5nYHE5g+kyxDgMyDFx8KiyZmmJCiBtP2hAhhBCfJnLdEjcr+W6KT4JnDAYddbQ4N00rSTFbTbG6njCbvNUSFBM33PW0lbct0r4IIYQQQgghhBBCCHHTkqCYEEIIIYQQQgghhFhyJCgmhBBCCCGEEEIIIZYcCYoJIYQQQgghhBBCiCVHZp8UQgghhBBCCCHENAFmnmGSWd7bZFjU3RJiwUhQTAghhBBCCCGEENMYYMYZJmebfRJv9Q3cSyGunwTFhBBCCCGEEEIIkcKSAxZXy7z/rqVMgTLXIuyREAtPaooJIYQQQgghhBBCiCVHgmJCCCGEEEIIIYQQYsmRoJgQQgghhBBCCCGEWHIkKCaEEEIIIYQQQgghlhwptC+EEEIIIYQQQoiMSTF9cauQTDEhhBBCCCGEEEIIseRIUEwIIYQQQgghhBBCLDkSFBNCCCGEEEIIIYQQS44ExYQQQgghhBBCCCHEkiNBMSGEEEIIIYQQQgix5EhQTAghhBBCCCGEEEIsORIUE0IIIYQQQgghhBBLjgTFhBBCCCGEEEIIIcSSI0ExIYQQQgghhBBCCLHkSFBMCCGEEEIIIYQQQiw5EhQTQgghhBBCCCGEEEuOBMWEEEIIIYQQQgghxJIjQTEhhBBCCCGEEEIIseRIUEwIIYQQQgghhBBCLDkSFBNCCCGEEEIIIYQQS84fxePx+ExvBoPBG7kvQgghhBBCCCGEEEJcl9zc3HktP2tQTAghhBBCCCGEEEKIW5EMnxRCCCGEEEIIIYQQS44ExYQQQgghhBBCCCHEkiNBMSGEEEIIIYQQQgix5EhQTAghhBBCCCGEEEIsORIUE0IIIYQQQgghhBBLjgTFhBBCCCGEEEIIIcSSI0ExIYQQQgghhBBCCLHkSFBMCCGEEEIIIYQQQiw5EhQTQgghhBBCCCGEEEuOBMWEEEIIIYQQQgghxJIjQTEhhBBCCCGEEEIIseRIUEwIIYQQQgghhBBCLDkSFBNCCCGEEEIIIYQQS44ExYQQQgghhBBCCCHEkvN/xOPxT3ofhBBCCCGEEEIIIYS4oSRTTAghhBBCCCGEEEIsOf8bBkgbwCVbCVEAAAAASUVORK5CYII=;" vertex="1" parent="1">
          <mxGeometry x="414" y="220" width="880.29" height="540" as="geometry" />
        </mxCell>
      </root>
    </mxGraphModel>
  </diagram>
</mxfile>
